%TF.GenerationSoftware,KiCad,Pcbnew,10.0.5*%
%TF.CreationDate,2026-09-06T22:20:34-04:00*%
%TF.ProjectId,SeedSigner-Plus-smartcard-pico,53656564-5369-4676-9e65-722d506c7573,rev?*%
%TF.SameCoordinates,Original*%
%TF.FileFunction,Legend,Top*%
%TF.FilePolarity,Positive*%
%FSLAX46Y46*%
G04 Gerber Fmt 4.6, Leading zero omitted, Abs format (unit mm)*
G04 Created by KiCad (PCBNEW 10.0.5) date 2026-09-06 22:20:34*
%MOMM*%
%LPD*%
G01*
G04 APERTURE LIST*
G04 Aperture macros list*
%AMRoundRect*
0 Rectangle with rounded corners*
0 $1 Rounding radius*
0 $2 $3 $4 $5 $6 $7 $8 $9 X,Y pos of 4 corners*
0 Add a 4 corners polygon primitive as box body*
4,1,4,$2,$3,$4,$5,$6,$7,$8,$9,$2,$3,0*
0 Add four circle primitives for the rounded corners*
1,1,$1+$1,$2,$3*
1,1,$1+$1,$4,$5*
1,1,$1+$1,$6,$7*
1,1,$1+$1,$8,$9*
0 Add four rect primitives between the rounded corners*
20,1,$1+$1,$2,$3,$4,$5,0*
20,1,$1+$1,$4,$5,$6,$7,0*
20,1,$1+$1,$6,$7,$8,$9,0*
20,1,$1+$1,$8,$9,$2,$3,0*%
%AMFreePoly0*
4,1,65,0.082102,0.795601,0.228610,0.766459,0.235739,0.764296,0.373746,0.707131,0.380316,0.703620,0.504520,0.620630,0.510278,0.615904,0.615904,0.510278,0.620630,0.504520,0.703620,0.380316,0.707131,0.373746,0.764296,0.235739,0.766459,0.228610,0.795601,0.082102,0.796331,0.074689,0.796331,-0.074689,0.795601,-0.082102,0.766459,-0.228610,0.764296,-0.235739,0.707131,-0.373746,
0.703620,-0.380316,0.620630,-0.504520,0.615904,-0.510278,0.510278,-0.615904,0.504520,-0.620630,0.380316,-0.703620,0.373746,-0.707131,0.235739,-0.764296,0.228610,-0.766459,0.082102,-0.795601,0.074689,-0.796331,-0.074689,-0.796331,-0.082102,-0.795601,-0.228610,-0.766459,-0.235739,-0.764296,-0.373746,-0.707131,-0.380316,-0.703620,-0.504520,-0.620630,-0.510278,-0.615904,-0.615904,-0.510278,
-0.620630,-0.504520,-0.703620,-0.380316,-0.707131,-0.373746,-0.764296,-0.235739,-0.766459,-0.228610,-0.795601,-0.082102,-0.796331,-0.074689,-0.796331,0.074689,-0.795601,0.082102,-0.766459,0.228610,-0.764296,0.235739,-0.707131,0.373746,-0.703620,0.380316,-0.620630,0.504520,-0.615904,0.510278,-0.510278,0.615904,-0.504520,0.620630,-0.380316,0.703620,-0.373746,0.707131,-0.235739,0.764296,
-0.228610,0.766459,-0.082102,0.795601,-0.074689,0.796331,0.074689,0.796331,0.082102,0.795601,0.082102,0.795601,$1*%
G04 Aperture macros list end*
%ADD10C,0.127000*%
%ADD11C,0.025400*%
%ADD12C,0.100000*%
%ADD13C,0.200000*%
%ADD14C,0.250000*%
%ADD15C,0.300000*%
%ADD16C,0.150000*%
%ADD17C,0.375000*%
%ADD18C,0.120000*%
%ADD19RoundRect,0.038000X1.626345X-0.494975X-0.494975X1.626345X-1.626345X0.494975X0.494975X-1.626345X0*%
%ADD20RoundRect,0.038000X1.626346X-0.494975X-0.494975X1.626346X-1.626346X0.494975X0.494975X-1.626346X0*%
%ADD21RoundRect,0.038000X1.500000X0.799999X-1.500000X0.799999X-1.500000X-0.799999X1.500000X-0.799999X0*%
%ADD22RoundRect,0.038000X1.500000X0.800000X-1.500000X0.800000X-1.500000X-0.800000X1.500000X-0.800000X0*%
%ADD23RoundRect,0.038000X0.799999X-1.500000X0.799999X1.500000X-0.799999X1.500000X-0.799999X-1.500000X0*%
%ADD24RoundRect,0.038000X0.800000X-1.500000X0.800000X1.500000X-0.800000X1.500000X-0.800000X-1.500000X0*%
%ADD25RoundRect,0.038000X-1.500000X-0.799999X1.500000X-0.799999X1.500000X0.799999X-1.500000X0.799999X0*%
%ADD26RoundRect,0.038000X-1.500000X-0.800000X1.500000X-0.800000X1.500000X0.800000X-1.500000X0.800000X0*%
%ADD27RoundRect,0.038000X-0.494975X-1.626345X1.626345X0.494975X0.494975X1.626345X-1.626345X-0.494975X0*%
%ADD28RoundRect,0.038000X-0.494975X-1.626346X1.626346X0.494975X0.494975X1.626346X-1.626346X-0.494975X0*%
%ADD29RoundRect,0.038000X-1.626345X0.494975X0.494975X-1.626345X1.626345X-0.494975X-0.494975X1.626345X0*%
%ADD30RoundRect,0.038000X-1.626346X0.494975X0.494975X-1.626346X1.626346X-0.494975X-0.494975X1.626346X0*%
%ADD31C,2.276000*%
%ADD32C,1.600000*%
%ADD33FreePoly0,180.000000*%
%ADD34RoundRect,0.038000X-0.850000X-0.850000X0.850000X-0.850000X0.850000X0.850000X-0.850000X0.850000X0*%
%ADD35C,1.776000*%
%ADD36O,1.076000X1.776000*%
G04 APERTURE END LIST*
D10*
X172420000Y-87035390D02*
X171138500Y-87035390D01*
X105466000Y-74740390D02*
X105466000Y-122365390D01*
X105466000Y-122365390D02*
X137829800Y-122351800D01*
X108006000Y-77280390D02*
X108006000Y-119825390D01*
X108006000Y-119825390D02*
X165791000Y-119825390D01*
X165791000Y-119825390D02*
X165791000Y-77280390D01*
D11*
X168601000Y-90847040D02*
X168601000Y-90520390D01*
X168601000Y-91374340D02*
X168601000Y-91047700D01*
X169594140Y-85585430D02*
X169649770Y-85582380D01*
X169649770Y-85582380D02*
X169706920Y-85582380D01*
X169706920Y-85582380D02*
X169764070Y-85582380D01*
X169764070Y-85582380D02*
X169821220Y-85585430D01*
D10*
X171138500Y-87035390D02*
X171138500Y-110070390D01*
X171138500Y-110070390D02*
X172948500Y-110070390D01*
X172141000Y-74740390D02*
X105466000Y-74740390D01*
X172141000Y-122365390D02*
X172141000Y-116255800D01*
D12*
X81942665Y-92302095D02*
X81942665Y-91502095D01*
X82285521Y-91578285D02*
X82323617Y-91540190D01*
X82323617Y-91540190D02*
X82399807Y-91502095D01*
X82399807Y-91502095D02*
X82590283Y-91502095D01*
X82590283Y-91502095D02*
X82666474Y-91540190D01*
X82666474Y-91540190D02*
X82704569Y-91578285D01*
X82704569Y-91578285D02*
X82742664Y-91654476D01*
X82742664Y-91654476D02*
X82742664Y-91730666D01*
X82742664Y-91730666D02*
X82704569Y-91844952D01*
X82704569Y-91844952D02*
X82247426Y-92302095D01*
X82247426Y-92302095D02*
X82742664Y-92302095D01*
X83542665Y-92225904D02*
X83504569Y-92264000D01*
X83504569Y-92264000D02*
X83390284Y-92302095D01*
X83390284Y-92302095D02*
X83314093Y-92302095D01*
X83314093Y-92302095D02*
X83199807Y-92264000D01*
X83199807Y-92264000D02*
X83123617Y-92187809D01*
X83123617Y-92187809D02*
X83085522Y-92111619D01*
X83085522Y-92111619D02*
X83047426Y-91959238D01*
X83047426Y-91959238D02*
X83047426Y-91844952D01*
X83047426Y-91844952D02*
X83085522Y-91692571D01*
X83085522Y-91692571D02*
X83123617Y-91616380D01*
X83123617Y-91616380D02*
X83199807Y-91540190D01*
X83199807Y-91540190D02*
X83314093Y-91502095D01*
X83314093Y-91502095D02*
X83390284Y-91502095D01*
X83390284Y-91502095D02*
X83504569Y-91540190D01*
X83504569Y-91540190D02*
X83542665Y-91578285D01*
X84266474Y-92302095D02*
X83885522Y-92302095D01*
X83885522Y-92302095D02*
X83885522Y-91502095D01*
X82945912Y-74522095D02*
X82488769Y-74522095D01*
X82717341Y-74522095D02*
X82717341Y-73722095D01*
X82717341Y-73722095D02*
X82641150Y-73836380D01*
X82641150Y-73836380D02*
X82564960Y-73912571D01*
X82564960Y-73912571D02*
X82488769Y-73950666D01*
X83174484Y-73722095D02*
X83441151Y-74522095D01*
X83441151Y-74522095D02*
X83707817Y-73722095D01*
X84088769Y-74064952D02*
X84012579Y-74026857D01*
X84012579Y-74026857D02*
X83974484Y-73988761D01*
X83974484Y-73988761D02*
X83936388Y-73912571D01*
X83936388Y-73912571D02*
X83936388Y-73874476D01*
X83936388Y-73874476D02*
X83974484Y-73798285D01*
X83974484Y-73798285D02*
X84012579Y-73760190D01*
X84012579Y-73760190D02*
X84088769Y-73722095D01*
X84088769Y-73722095D02*
X84241150Y-73722095D01*
X84241150Y-73722095D02*
X84317341Y-73760190D01*
X84317341Y-73760190D02*
X84355436Y-73798285D01*
X84355436Y-73798285D02*
X84393531Y-73874476D01*
X84393531Y-73874476D02*
X84393531Y-73912571D01*
X84393531Y-73912571D02*
X84355436Y-73988761D01*
X84355436Y-73988761D02*
X84317341Y-74026857D01*
X84317341Y-74026857D02*
X84241150Y-74064952D01*
X84241150Y-74064952D02*
X84088769Y-74064952D01*
X84088769Y-74064952D02*
X84012579Y-74103047D01*
X84012579Y-74103047D02*
X83974484Y-74141142D01*
X83974484Y-74141142D02*
X83936388Y-74217333D01*
X83936388Y-74217333D02*
X83936388Y-74369714D01*
X83936388Y-74369714D02*
X83974484Y-74445904D01*
X83974484Y-74445904D02*
X84012579Y-74484000D01*
X84012579Y-74484000D02*
X84088769Y-74522095D01*
X84088769Y-74522095D02*
X84241150Y-74522095D01*
X84241150Y-74522095D02*
X84317341Y-74484000D01*
X84317341Y-74484000D02*
X84355436Y-74445904D01*
X84355436Y-74445904D02*
X84393531Y-74369714D01*
X84393531Y-74369714D02*
X84393531Y-74217333D01*
X84393531Y-74217333D02*
X84355436Y-74141142D01*
X84355436Y-74141142D02*
X84317341Y-74103047D01*
X84317341Y-74103047D02*
X84241150Y-74064952D01*
X83034836Y-99198295D02*
X83034836Y-99769723D01*
X83034836Y-99769723D02*
X82996741Y-99884009D01*
X82996741Y-99884009D02*
X82920550Y-99960200D01*
X82920550Y-99960200D02*
X82806265Y-99998295D01*
X82806265Y-99998295D02*
X82730074Y-99998295D01*
X83796741Y-99998295D02*
X83415789Y-99998295D01*
X83415789Y-99998295D02*
X83415789Y-99198295D01*
X82933265Y-79576695D02*
X82933265Y-78776695D01*
X83390408Y-79576695D02*
X83047550Y-79119552D01*
X83390408Y-78776695D02*
X82933265Y-79233838D01*
X83695169Y-78852885D02*
X83733265Y-78814790D01*
X83733265Y-78814790D02*
X83809455Y-78776695D01*
X83809455Y-78776695D02*
X83999931Y-78776695D01*
X83999931Y-78776695D02*
X84076122Y-78814790D01*
X84076122Y-78814790D02*
X84114217Y-78852885D01*
X84114217Y-78852885D02*
X84152312Y-78929076D01*
X84152312Y-78929076D02*
X84152312Y-79005266D01*
X84152312Y-79005266D02*
X84114217Y-79119552D01*
X84114217Y-79119552D02*
X83657074Y-79576695D01*
X83657074Y-79576695D02*
X84152312Y-79576695D01*
X83187236Y-96607495D02*
X83187236Y-97178923D01*
X83187236Y-97178923D02*
X83149141Y-97293209D01*
X83149141Y-97293209D02*
X83072950Y-97369400D01*
X83072950Y-97369400D02*
X82958665Y-97407495D01*
X82958665Y-97407495D02*
X82882474Y-97407495D01*
X83568189Y-96607495D02*
X83568189Y-97255114D01*
X83568189Y-97255114D02*
X83606284Y-97331304D01*
X83606284Y-97331304D02*
X83644379Y-97369400D01*
X83644379Y-97369400D02*
X83720570Y-97407495D01*
X83720570Y-97407495D02*
X83872951Y-97407495D01*
X83872951Y-97407495D02*
X83949141Y-97369400D01*
X83949141Y-97369400D02*
X83987236Y-97331304D01*
X83987236Y-97331304D02*
X84025332Y-97255114D01*
X84025332Y-97255114D02*
X84025332Y-96607495D01*
X83263436Y-89012895D02*
X83263436Y-89584323D01*
X83263436Y-89584323D02*
X83225341Y-89698609D01*
X83225341Y-89698609D02*
X83149150Y-89774800D01*
X83149150Y-89774800D02*
X83034865Y-89812895D01*
X83034865Y-89812895D02*
X82958674Y-89812895D01*
X83644389Y-89812895D02*
X83644389Y-89012895D01*
X83644389Y-89012895D02*
X83949151Y-89012895D01*
X83949151Y-89012895D02*
X84025341Y-89050990D01*
X84025341Y-89050990D02*
X84063436Y-89089085D01*
X84063436Y-89089085D02*
X84101532Y-89165276D01*
X84101532Y-89165276D02*
X84101532Y-89279561D01*
X84101532Y-89279561D02*
X84063436Y-89355752D01*
X84063436Y-89355752D02*
X84025341Y-89393847D01*
X84025341Y-89393847D02*
X83949151Y-89431942D01*
X83949151Y-89431942D02*
X83644389Y-89431942D01*
X83479312Y-76376390D02*
X83403122Y-76338295D01*
X83403122Y-76338295D02*
X83288836Y-76338295D01*
X83288836Y-76338295D02*
X83174550Y-76376390D01*
X83174550Y-76376390D02*
X83098360Y-76452580D01*
X83098360Y-76452580D02*
X83060265Y-76528771D01*
X83060265Y-76528771D02*
X83022169Y-76681152D01*
X83022169Y-76681152D02*
X83022169Y-76795438D01*
X83022169Y-76795438D02*
X83060265Y-76947819D01*
X83060265Y-76947819D02*
X83098360Y-77024009D01*
X83098360Y-77024009D02*
X83174550Y-77100200D01*
X83174550Y-77100200D02*
X83288836Y-77138295D01*
X83288836Y-77138295D02*
X83365027Y-77138295D01*
X83365027Y-77138295D02*
X83479312Y-77100200D01*
X83479312Y-77100200D02*
X83517408Y-77062104D01*
X83517408Y-77062104D02*
X83517408Y-76795438D01*
X83517408Y-76795438D02*
X83365027Y-76795438D01*
X83136465Y-82142095D02*
X83136465Y-81342095D01*
X83593608Y-82142095D02*
X83250750Y-81684952D01*
X83593608Y-81342095D02*
X83136465Y-81799238D01*
X84355512Y-82142095D02*
X83898369Y-82142095D01*
X84126941Y-82142095D02*
X84126941Y-81342095D01*
X84126941Y-81342095D02*
X84050750Y-81456380D01*
X84050750Y-81456380D02*
X83974560Y-81532571D01*
X83974560Y-81532571D02*
X83898369Y-81570666D01*
X83517436Y-86701495D02*
X83517436Y-87272923D01*
X83517436Y-87272923D02*
X83479341Y-87387209D01*
X83479341Y-87387209D02*
X83403150Y-87463400D01*
X83403150Y-87463400D02*
X83288865Y-87501495D01*
X83288865Y-87501495D02*
X83212674Y-87501495D01*
X83898389Y-87501495D02*
X83898389Y-86701495D01*
X83898389Y-86701495D02*
X84088865Y-86701495D01*
X84088865Y-86701495D02*
X84203151Y-86739590D01*
X84203151Y-86739590D02*
X84279341Y-86815780D01*
X84279341Y-86815780D02*
X84317436Y-86891971D01*
X84317436Y-86891971D02*
X84355532Y-87044352D01*
X84355532Y-87044352D02*
X84355532Y-87158638D01*
X84355532Y-87158638D02*
X84317436Y-87311019D01*
X84317436Y-87311019D02*
X84279341Y-87387209D01*
X84279341Y-87387209D02*
X84203151Y-87463400D01*
X84203151Y-87463400D02*
X84088865Y-87501495D01*
X84088865Y-87501495D02*
X83898389Y-87501495D01*
X83542836Y-83094695D02*
X83542836Y-83666123D01*
X83542836Y-83666123D02*
X83504741Y-83780409D01*
X83504741Y-83780409D02*
X83428550Y-83856600D01*
X83428550Y-83856600D02*
X83314265Y-83894695D01*
X83314265Y-83894695D02*
X83238074Y-83894695D01*
X84380932Y-83894695D02*
X84114265Y-83513742D01*
X83923789Y-83894695D02*
X83923789Y-83094695D01*
X83923789Y-83094695D02*
X84228551Y-83094695D01*
X84228551Y-83094695D02*
X84304741Y-83132790D01*
X84304741Y-83132790D02*
X84342836Y-83170885D01*
X84342836Y-83170885D02*
X84380932Y-83247076D01*
X84380932Y-83247076D02*
X84380932Y-83361361D01*
X84380932Y-83361361D02*
X84342836Y-83437552D01*
X84342836Y-83437552D02*
X84304741Y-83475647D01*
X84304741Y-83475647D02*
X84228551Y-83513742D01*
X84228551Y-83513742D02*
X83923789Y-83513742D01*
X104104179Y-73468095D02*
X104370846Y-74268095D01*
X104370846Y-74268095D02*
X104637512Y-73468095D01*
X105170845Y-73849047D02*
X105285131Y-73887142D01*
X105285131Y-73887142D02*
X105323226Y-73925238D01*
X105323226Y-73925238D02*
X105361322Y-74001428D01*
X105361322Y-74001428D02*
X105361322Y-74115714D01*
X105361322Y-74115714D02*
X105323226Y-74191904D01*
X105323226Y-74191904D02*
X105285131Y-74230000D01*
X105285131Y-74230000D02*
X105208941Y-74268095D01*
X105208941Y-74268095D02*
X104904179Y-74268095D01*
X104904179Y-74268095D02*
X104904179Y-73468095D01*
X104904179Y-73468095D02*
X105170845Y-73468095D01*
X105170845Y-73468095D02*
X105247036Y-73506190D01*
X105247036Y-73506190D02*
X105285131Y-73544285D01*
X105285131Y-73544285D02*
X105323226Y-73620476D01*
X105323226Y-73620476D02*
X105323226Y-73696666D01*
X105323226Y-73696666D02*
X105285131Y-73772857D01*
X105285131Y-73772857D02*
X105247036Y-73810952D01*
X105247036Y-73810952D02*
X105170845Y-73849047D01*
X105170845Y-73849047D02*
X104904179Y-73849047D01*
X105704179Y-73468095D02*
X105704179Y-74115714D01*
X105704179Y-74115714D02*
X105742274Y-74191904D01*
X105742274Y-74191904D02*
X105780369Y-74230000D01*
X105780369Y-74230000D02*
X105856560Y-74268095D01*
X105856560Y-74268095D02*
X106008941Y-74268095D01*
X106008941Y-74268095D02*
X106085131Y-74230000D01*
X106085131Y-74230000D02*
X106123226Y-74191904D01*
X106123226Y-74191904D02*
X106161322Y-74115714D01*
X106161322Y-74115714D02*
X106161322Y-73468095D01*
X106504178Y-74230000D02*
X106618464Y-74268095D01*
X106618464Y-74268095D02*
X106808940Y-74268095D01*
X106808940Y-74268095D02*
X106885131Y-74230000D01*
X106885131Y-74230000D02*
X106923226Y-74191904D01*
X106923226Y-74191904D02*
X106961321Y-74115714D01*
X106961321Y-74115714D02*
X106961321Y-74039523D01*
X106961321Y-74039523D02*
X106923226Y-73963333D01*
X106923226Y-73963333D02*
X106885131Y-73925238D01*
X106885131Y-73925238D02*
X106808940Y-73887142D01*
X106808940Y-73887142D02*
X106656559Y-73849047D01*
X106656559Y-73849047D02*
X106580369Y-73810952D01*
X106580369Y-73810952D02*
X106542274Y-73772857D01*
X106542274Y-73772857D02*
X106504178Y-73696666D01*
X106504178Y-73696666D02*
X106504178Y-73620476D01*
X106504178Y-73620476D02*
X106542274Y-73544285D01*
X106542274Y-73544285D02*
X106580369Y-73506190D01*
X106580369Y-73506190D02*
X106656559Y-73468095D01*
X106656559Y-73468095D02*
X106847036Y-73468095D01*
X106847036Y-73468095D02*
X106961321Y-73506190D01*
X107532750Y-74572857D02*
X107494655Y-74534761D01*
X107494655Y-74534761D02*
X107418464Y-74420476D01*
X107418464Y-74420476D02*
X107380369Y-74344285D01*
X107380369Y-74344285D02*
X107342274Y-74230000D01*
X107342274Y-74230000D02*
X107304179Y-74039523D01*
X107304179Y-74039523D02*
X107304179Y-73887142D01*
X107304179Y-73887142D02*
X107342274Y-73696666D01*
X107342274Y-73696666D02*
X107380369Y-73582380D01*
X107380369Y-73582380D02*
X107418464Y-73506190D01*
X107418464Y-73506190D02*
X107494655Y-73391904D01*
X107494655Y-73391904D02*
X107532750Y-73353809D01*
X108218464Y-73468095D02*
X107837512Y-73468095D01*
X107837512Y-73468095D02*
X107799416Y-73849047D01*
X107799416Y-73849047D02*
X107837512Y-73810952D01*
X107837512Y-73810952D02*
X107913702Y-73772857D01*
X107913702Y-73772857D02*
X108104178Y-73772857D01*
X108104178Y-73772857D02*
X108180369Y-73810952D01*
X108180369Y-73810952D02*
X108218464Y-73849047D01*
X108218464Y-73849047D02*
X108256559Y-73925238D01*
X108256559Y-73925238D02*
X108256559Y-74115714D01*
X108256559Y-74115714D02*
X108218464Y-74191904D01*
X108218464Y-74191904D02*
X108180369Y-74230000D01*
X108180369Y-74230000D02*
X108104178Y-74268095D01*
X108104178Y-74268095D02*
X107913702Y-74268095D01*
X107913702Y-74268095D02*
X107837512Y-74230000D01*
X107837512Y-74230000D02*
X107799416Y-74191904D01*
X108485131Y-73468095D02*
X108751798Y-74268095D01*
X108751798Y-74268095D02*
X109018464Y-73468095D01*
X109208940Y-74572857D02*
X109247035Y-74534761D01*
X109247035Y-74534761D02*
X109323226Y-74420476D01*
X109323226Y-74420476D02*
X109361321Y-74344285D01*
X109361321Y-74344285D02*
X109399416Y-74230000D01*
X109399416Y-74230000D02*
X109437512Y-74039523D01*
X109437512Y-74039523D02*
X109437512Y-73887142D01*
X109437512Y-73887142D02*
X109399416Y-73696666D01*
X109399416Y-73696666D02*
X109361321Y-73582380D01*
X109361321Y-73582380D02*
X109323226Y-73506190D01*
X109323226Y-73506190D02*
X109247035Y-73391904D01*
X109247035Y-73391904D02*
X109208940Y-73353809D01*
X104675665Y-83958295D02*
X104675665Y-84605914D01*
X104675665Y-84605914D02*
X104713760Y-84682104D01*
X104713760Y-84682104D02*
X104751855Y-84720200D01*
X104751855Y-84720200D02*
X104828046Y-84758295D01*
X104828046Y-84758295D02*
X104980427Y-84758295D01*
X104980427Y-84758295D02*
X105056617Y-84720200D01*
X105056617Y-84720200D02*
X105094712Y-84682104D01*
X105094712Y-84682104D02*
X105132808Y-84605914D01*
X105132808Y-84605914D02*
X105132808Y-83958295D01*
X105970903Y-84758295D02*
X105704236Y-84377342D01*
X105513760Y-84758295D02*
X105513760Y-83958295D01*
X105513760Y-83958295D02*
X105818522Y-83958295D01*
X105818522Y-83958295D02*
X105894712Y-83996390D01*
X105894712Y-83996390D02*
X105932807Y-84034485D01*
X105932807Y-84034485D02*
X105970903Y-84110676D01*
X105970903Y-84110676D02*
X105970903Y-84224961D01*
X105970903Y-84224961D02*
X105932807Y-84301152D01*
X105932807Y-84301152D02*
X105894712Y-84339247D01*
X105894712Y-84339247D02*
X105818522Y-84377342D01*
X105818522Y-84377342D02*
X105513760Y-84377342D01*
X106237569Y-83958295D02*
X106770903Y-84758295D01*
X106770903Y-83958295D02*
X106237569Y-84758295D01*
X105082017Y-97356695D02*
X104701065Y-97356695D01*
X104701065Y-97356695D02*
X104701065Y-96556695D01*
X105348684Y-97356695D02*
X105348684Y-96556695D01*
X105348684Y-96556695D02*
X105539160Y-96556695D01*
X105539160Y-96556695D02*
X105653446Y-96594790D01*
X105653446Y-96594790D02*
X105729636Y-96670980D01*
X105729636Y-96670980D02*
X105767731Y-96747171D01*
X105767731Y-96747171D02*
X105805827Y-96899552D01*
X105805827Y-96899552D02*
X105805827Y-97013838D01*
X105805827Y-97013838D02*
X105767731Y-97166219D01*
X105767731Y-97166219D02*
X105729636Y-97242409D01*
X105729636Y-97242409D02*
X105653446Y-97318600D01*
X105653446Y-97318600D02*
X105539160Y-97356695D01*
X105539160Y-97356695D02*
X105348684Y-97356695D01*
X106605827Y-97280504D02*
X106567731Y-97318600D01*
X106567731Y-97318600D02*
X106453446Y-97356695D01*
X106453446Y-97356695D02*
X106377255Y-97356695D01*
X106377255Y-97356695D02*
X106262969Y-97318600D01*
X106262969Y-97318600D02*
X106186779Y-97242409D01*
X106186779Y-97242409D02*
X106148684Y-97166219D01*
X106148684Y-97166219D02*
X106110588Y-97013838D01*
X106110588Y-97013838D02*
X106110588Y-96899552D01*
X106110588Y-96899552D02*
X106148684Y-96747171D01*
X106148684Y-96747171D02*
X106186779Y-96670980D01*
X106186779Y-96670980D02*
X106262969Y-96594790D01*
X106262969Y-96594790D02*
X106377255Y-96556695D01*
X106377255Y-96556695D02*
X106453446Y-96556695D01*
X106453446Y-96556695D02*
X106567731Y-96594790D01*
X106567731Y-96594790D02*
X106605827Y-96632885D01*
X105107417Y-89812895D02*
X104726465Y-89812895D01*
X104726465Y-89812895D02*
X104726465Y-89012895D01*
X105831227Y-89736704D02*
X105793131Y-89774800D01*
X105793131Y-89774800D02*
X105678846Y-89812895D01*
X105678846Y-89812895D02*
X105602655Y-89812895D01*
X105602655Y-89812895D02*
X105488369Y-89774800D01*
X105488369Y-89774800D02*
X105412179Y-89698609D01*
X105412179Y-89698609D02*
X105374084Y-89622419D01*
X105374084Y-89622419D02*
X105335988Y-89470038D01*
X105335988Y-89470038D02*
X105335988Y-89355752D01*
X105335988Y-89355752D02*
X105374084Y-89203371D01*
X105374084Y-89203371D02*
X105412179Y-89127180D01*
X105412179Y-89127180D02*
X105488369Y-89050990D01*
X105488369Y-89050990D02*
X105602655Y-89012895D01*
X105602655Y-89012895D02*
X105678846Y-89012895D01*
X105678846Y-89012895D02*
X105793131Y-89050990D01*
X105793131Y-89050990D02*
X105831227Y-89089085D01*
X106555036Y-89812895D02*
X106174084Y-89812895D01*
X106174084Y-89812895D02*
X106174084Y-89012895D01*
X106821703Y-89812895D02*
X106821703Y-89012895D01*
X107278846Y-89812895D02*
X106935988Y-89355752D01*
X107278846Y-89012895D02*
X106821703Y-89470038D01*
X104675674Y-78776695D02*
X105170912Y-78776695D01*
X105170912Y-78776695D02*
X104904246Y-79081457D01*
X104904246Y-79081457D02*
X105018531Y-79081457D01*
X105018531Y-79081457D02*
X105094722Y-79119552D01*
X105094722Y-79119552D02*
X105132817Y-79157647D01*
X105132817Y-79157647D02*
X105170912Y-79233838D01*
X105170912Y-79233838D02*
X105170912Y-79424314D01*
X105170912Y-79424314D02*
X105132817Y-79500504D01*
X105132817Y-79500504D02*
X105094722Y-79538600D01*
X105094722Y-79538600D02*
X105018531Y-79576695D01*
X105018531Y-79576695D02*
X104789960Y-79576695D01*
X104789960Y-79576695D02*
X104713769Y-79538600D01*
X104713769Y-79538600D02*
X104675674Y-79500504D01*
X105437579Y-79043361D02*
X105628055Y-79576695D01*
X105628055Y-79576695D02*
X105818532Y-79043361D01*
X106047103Y-78776695D02*
X106542341Y-78776695D01*
X106542341Y-78776695D02*
X106275675Y-79081457D01*
X106275675Y-79081457D02*
X106389960Y-79081457D01*
X106389960Y-79081457D02*
X106466151Y-79119552D01*
X106466151Y-79119552D02*
X106504246Y-79157647D01*
X106504246Y-79157647D02*
X106542341Y-79233838D01*
X106542341Y-79233838D02*
X106542341Y-79424314D01*
X106542341Y-79424314D02*
X106504246Y-79500504D01*
X106504246Y-79500504D02*
X106466151Y-79538600D01*
X106466151Y-79538600D02*
X106389960Y-79576695D01*
X106389960Y-79576695D02*
X106161389Y-79576695D01*
X106161389Y-79576695D02*
X106085198Y-79538600D01*
X106085198Y-79538600D02*
X106047103Y-79500504D01*
X105132817Y-92200495D02*
X104751865Y-92200495D01*
X104751865Y-92200495D02*
X104751865Y-91400495D01*
X105399484Y-92200495D02*
X105399484Y-91400495D01*
X105399484Y-91400495D02*
X105666150Y-91971923D01*
X105666150Y-91971923D02*
X105932817Y-91400495D01*
X105932817Y-91400495D02*
X105932817Y-92200495D01*
X106466151Y-91400495D02*
X106618532Y-91400495D01*
X106618532Y-91400495D02*
X106694722Y-91438590D01*
X106694722Y-91438590D02*
X106770913Y-91514780D01*
X106770913Y-91514780D02*
X106809008Y-91667161D01*
X106809008Y-91667161D02*
X106809008Y-91933828D01*
X106809008Y-91933828D02*
X106770913Y-92086209D01*
X106770913Y-92086209D02*
X106694722Y-92162400D01*
X106694722Y-92162400D02*
X106618532Y-92200495D01*
X106618532Y-92200495D02*
X106466151Y-92200495D01*
X106466151Y-92200495D02*
X106389960Y-92162400D01*
X106389960Y-92162400D02*
X106313770Y-92086209D01*
X106313770Y-92086209D02*
X106275674Y-91933828D01*
X106275674Y-91933828D02*
X106275674Y-91667161D01*
X106275674Y-91667161D02*
X106313770Y-91514780D01*
X106313770Y-91514780D02*
X106389960Y-91438590D01*
X106389960Y-91438590D02*
X106466151Y-91400495D01*
X107113769Y-92162400D02*
X107228055Y-92200495D01*
X107228055Y-92200495D02*
X107418531Y-92200495D01*
X107418531Y-92200495D02*
X107494722Y-92162400D01*
X107494722Y-92162400D02*
X107532817Y-92124304D01*
X107532817Y-92124304D02*
X107570912Y-92048114D01*
X107570912Y-92048114D02*
X107570912Y-91971923D01*
X107570912Y-91971923D02*
X107532817Y-91895733D01*
X107532817Y-91895733D02*
X107494722Y-91857638D01*
X107494722Y-91857638D02*
X107418531Y-91819542D01*
X107418531Y-91819542D02*
X107266150Y-91781447D01*
X107266150Y-91781447D02*
X107189960Y-91743352D01*
X107189960Y-91743352D02*
X107151865Y-91705257D01*
X107151865Y-91705257D02*
X107113769Y-91629066D01*
X107113769Y-91629066D02*
X107113769Y-91552876D01*
X107113769Y-91552876D02*
X107151865Y-91476685D01*
X107151865Y-91476685D02*
X107189960Y-91438590D01*
X107189960Y-91438590D02*
X107266150Y-91400495D01*
X107266150Y-91400495D02*
X107456627Y-91400495D01*
X107456627Y-91400495D02*
X107570912Y-91438590D01*
X105158217Y-94994495D02*
X104777265Y-94994495D01*
X104777265Y-94994495D02*
X104777265Y-94194495D01*
X105882027Y-94994495D02*
X105615360Y-94613542D01*
X105424884Y-94994495D02*
X105424884Y-94194495D01*
X105424884Y-94194495D02*
X105729646Y-94194495D01*
X105729646Y-94194495D02*
X105805836Y-94232590D01*
X105805836Y-94232590D02*
X105843931Y-94270685D01*
X105843931Y-94270685D02*
X105882027Y-94346876D01*
X105882027Y-94346876D02*
X105882027Y-94461161D01*
X105882027Y-94461161D02*
X105843931Y-94537352D01*
X105843931Y-94537352D02*
X105805836Y-94575447D01*
X105805836Y-94575447D02*
X105729646Y-94613542D01*
X105729646Y-94613542D02*
X105424884Y-94613542D01*
X106186788Y-94956400D02*
X106301074Y-94994495D01*
X106301074Y-94994495D02*
X106491550Y-94994495D01*
X106491550Y-94994495D02*
X106567741Y-94956400D01*
X106567741Y-94956400D02*
X106605836Y-94918304D01*
X106605836Y-94918304D02*
X106643931Y-94842114D01*
X106643931Y-94842114D02*
X106643931Y-94765923D01*
X106643931Y-94765923D02*
X106605836Y-94689733D01*
X106605836Y-94689733D02*
X106567741Y-94651638D01*
X106567741Y-94651638D02*
X106491550Y-94613542D01*
X106491550Y-94613542D02*
X106339169Y-94575447D01*
X106339169Y-94575447D02*
X106262979Y-94537352D01*
X106262979Y-94537352D02*
X106224884Y-94499257D01*
X106224884Y-94499257D02*
X106186788Y-94423066D01*
X106186788Y-94423066D02*
X106186788Y-94346876D01*
X106186788Y-94346876D02*
X106224884Y-94270685D01*
X106224884Y-94270685D02*
X106262979Y-94232590D01*
X106262979Y-94232590D02*
X106339169Y-94194495D01*
X106339169Y-94194495D02*
X106529646Y-94194495D01*
X106529646Y-94194495D02*
X106643931Y-94232590D01*
X106872503Y-94194495D02*
X107329646Y-94194495D01*
X107101074Y-94994495D02*
X107101074Y-94194495D01*
X105183617Y-87196695D02*
X104802665Y-87196695D01*
X104802665Y-87196695D02*
X104802665Y-86396695D01*
X105907427Y-87120504D02*
X105869331Y-87158600D01*
X105869331Y-87158600D02*
X105755046Y-87196695D01*
X105755046Y-87196695D02*
X105678855Y-87196695D01*
X105678855Y-87196695D02*
X105564569Y-87158600D01*
X105564569Y-87158600D02*
X105488379Y-87082409D01*
X105488379Y-87082409D02*
X105450284Y-87006219D01*
X105450284Y-87006219D02*
X105412188Y-86853838D01*
X105412188Y-86853838D02*
X105412188Y-86739552D01*
X105412188Y-86739552D02*
X105450284Y-86587171D01*
X105450284Y-86587171D02*
X105488379Y-86510980D01*
X105488379Y-86510980D02*
X105564569Y-86434790D01*
X105564569Y-86434790D02*
X105678855Y-86396695D01*
X105678855Y-86396695D02*
X105755046Y-86396695D01*
X105755046Y-86396695D02*
X105869331Y-86434790D01*
X105869331Y-86434790D02*
X105907427Y-86472885D01*
X106212188Y-87158600D02*
X106326474Y-87196695D01*
X106326474Y-87196695D02*
X106516950Y-87196695D01*
X106516950Y-87196695D02*
X106593141Y-87158600D01*
X106593141Y-87158600D02*
X106631236Y-87120504D01*
X106631236Y-87120504D02*
X106669331Y-87044314D01*
X106669331Y-87044314D02*
X106669331Y-86968123D01*
X106669331Y-86968123D02*
X106631236Y-86891933D01*
X106631236Y-86891933D02*
X106593141Y-86853838D01*
X106593141Y-86853838D02*
X106516950Y-86815742D01*
X106516950Y-86815742D02*
X106364569Y-86777647D01*
X106364569Y-86777647D02*
X106288379Y-86739552D01*
X106288379Y-86739552D02*
X106250284Y-86701457D01*
X106250284Y-86701457D02*
X106212188Y-86625266D01*
X106212188Y-86625266D02*
X106212188Y-86549076D01*
X106212188Y-86549076D02*
X106250284Y-86472885D01*
X106250284Y-86472885D02*
X106288379Y-86434790D01*
X106288379Y-86434790D02*
X106364569Y-86396695D01*
X106364569Y-86396695D02*
X106555046Y-86396695D01*
X106555046Y-86396695D02*
X106669331Y-86434790D01*
X107583617Y-86358600D02*
X106897903Y-87387171D01*
X108116950Y-86777647D02*
X108231236Y-86815742D01*
X108231236Y-86815742D02*
X108269331Y-86853838D01*
X108269331Y-86853838D02*
X108307427Y-86930028D01*
X108307427Y-86930028D02*
X108307427Y-87044314D01*
X108307427Y-87044314D02*
X108269331Y-87120504D01*
X108269331Y-87120504D02*
X108231236Y-87158600D01*
X108231236Y-87158600D02*
X108155046Y-87196695D01*
X108155046Y-87196695D02*
X107850284Y-87196695D01*
X107850284Y-87196695D02*
X107850284Y-86396695D01*
X107850284Y-86396695D02*
X108116950Y-86396695D01*
X108116950Y-86396695D02*
X108193141Y-86434790D01*
X108193141Y-86434790D02*
X108231236Y-86472885D01*
X108231236Y-86472885D02*
X108269331Y-86549076D01*
X108269331Y-86549076D02*
X108269331Y-86625266D01*
X108269331Y-86625266D02*
X108231236Y-86701457D01*
X108231236Y-86701457D02*
X108193141Y-86739552D01*
X108193141Y-86739552D02*
X108116950Y-86777647D01*
X108116950Y-86777647D02*
X107850284Y-86777647D01*
X109031236Y-87196695D02*
X108650284Y-87196695D01*
X108650284Y-87196695D02*
X108650284Y-86396695D01*
X104802665Y-100023695D02*
X104802665Y-99223695D01*
X105259808Y-100023695D02*
X104916950Y-99566552D01*
X105259808Y-99223695D02*
X104802665Y-99680838D01*
X105526474Y-99223695D02*
X106021712Y-99223695D01*
X106021712Y-99223695D02*
X105755046Y-99528457D01*
X105755046Y-99528457D02*
X105869331Y-99528457D01*
X105869331Y-99528457D02*
X105945522Y-99566552D01*
X105945522Y-99566552D02*
X105983617Y-99604647D01*
X105983617Y-99604647D02*
X106021712Y-99680838D01*
X106021712Y-99680838D02*
X106021712Y-99871314D01*
X106021712Y-99871314D02*
X105983617Y-99947504D01*
X105983617Y-99947504D02*
X105945522Y-99985600D01*
X105945522Y-99985600D02*
X105869331Y-100023695D01*
X105869331Y-100023695D02*
X105640760Y-100023695D01*
X105640760Y-100023695D02*
X105564569Y-99985600D01*
X105564569Y-99985600D02*
X105526474Y-99947504D01*
X104828065Y-81342095D02*
X104828065Y-81989714D01*
X104828065Y-81989714D02*
X104866160Y-82065904D01*
X104866160Y-82065904D02*
X104904255Y-82104000D01*
X104904255Y-82104000D02*
X104980446Y-82142095D01*
X104980446Y-82142095D02*
X105132827Y-82142095D01*
X105132827Y-82142095D02*
X105209017Y-82104000D01*
X105209017Y-82104000D02*
X105247112Y-82065904D01*
X105247112Y-82065904D02*
X105285208Y-81989714D01*
X105285208Y-81989714D02*
X105285208Y-81342095D01*
X105551874Y-81342095D02*
X106009017Y-81342095D01*
X105780445Y-82142095D02*
X105780445Y-81342095D01*
X106199493Y-81342095D02*
X106732827Y-82142095D01*
X106732827Y-81342095D02*
X106199493Y-82142095D01*
X105297912Y-76706590D02*
X105221722Y-76668495D01*
X105221722Y-76668495D02*
X105107436Y-76668495D01*
X105107436Y-76668495D02*
X104993150Y-76706590D01*
X104993150Y-76706590D02*
X104916960Y-76782780D01*
X104916960Y-76782780D02*
X104878865Y-76858971D01*
X104878865Y-76858971D02*
X104840769Y-77011352D01*
X104840769Y-77011352D02*
X104840769Y-77125638D01*
X104840769Y-77125638D02*
X104878865Y-77278019D01*
X104878865Y-77278019D02*
X104916960Y-77354209D01*
X104916960Y-77354209D02*
X104993150Y-77430400D01*
X104993150Y-77430400D02*
X105107436Y-77468495D01*
X105107436Y-77468495D02*
X105183627Y-77468495D01*
X105183627Y-77468495D02*
X105297912Y-77430400D01*
X105297912Y-77430400D02*
X105336008Y-77392304D01*
X105336008Y-77392304D02*
X105336008Y-77125638D01*
X105336008Y-77125638D02*
X105183627Y-77125638D01*
X84377295Y-95781134D02*
X83577295Y-95781134D01*
X83653485Y-95438278D02*
X83615390Y-95400182D01*
X83615390Y-95400182D02*
X83577295Y-95323992D01*
X83577295Y-95323992D02*
X83577295Y-95133516D01*
X83577295Y-95133516D02*
X83615390Y-95057325D01*
X83615390Y-95057325D02*
X83653485Y-95019230D01*
X83653485Y-95019230D02*
X83729676Y-94981135D01*
X83729676Y-94981135D02*
X83805866Y-94981135D01*
X83805866Y-94981135D02*
X83920152Y-95019230D01*
X83920152Y-95019230D02*
X84377295Y-95476373D01*
X84377295Y-95476373D02*
X84377295Y-94981135D01*
X84377295Y-94638277D02*
X83577295Y-94638277D01*
X83577295Y-94638277D02*
X83577295Y-94447801D01*
X83577295Y-94447801D02*
X83615390Y-94333515D01*
X83615390Y-94333515D02*
X83691580Y-94257325D01*
X83691580Y-94257325D02*
X83767771Y-94219230D01*
X83767771Y-94219230D02*
X83920152Y-94181134D01*
X83920152Y-94181134D02*
X84034438Y-94181134D01*
X84034438Y-94181134D02*
X84186819Y-94219230D01*
X84186819Y-94219230D02*
X84263009Y-94257325D01*
X84263009Y-94257325D02*
X84339200Y-94333515D01*
X84339200Y-94333515D02*
X84377295Y-94447801D01*
X84377295Y-94447801D02*
X84377295Y-94638277D01*
X84148723Y-93876373D02*
X84148723Y-93495420D01*
X84377295Y-93952563D02*
X83577295Y-93685896D01*
X83577295Y-93685896D02*
X84377295Y-93419230D01*
X164296265Y-120267657D02*
X164343884Y-120220038D01*
X164343884Y-120220038D02*
X164439122Y-120172419D01*
X164439122Y-120172419D02*
X164677217Y-120172419D01*
X164677217Y-120172419D02*
X164772455Y-120220038D01*
X164772455Y-120220038D02*
X164820074Y-120267657D01*
X164820074Y-120267657D02*
X164867693Y-120362895D01*
X164867693Y-120362895D02*
X164867693Y-120458133D01*
X164867693Y-120458133D02*
X164820074Y-120600990D01*
X164820074Y-120600990D02*
X164248646Y-121172419D01*
X164248646Y-121172419D02*
X164867693Y-121172419D01*
X165296265Y-121077180D02*
X165343884Y-121124800D01*
X165343884Y-121124800D02*
X165296265Y-121172419D01*
X165296265Y-121172419D02*
X165248646Y-121124800D01*
X165248646Y-121124800D02*
X165296265Y-121077180D01*
X165296265Y-121077180D02*
X165296265Y-121172419D01*
X165915312Y-120600990D02*
X165820074Y-120553371D01*
X165820074Y-120553371D02*
X165772455Y-120505752D01*
X165772455Y-120505752D02*
X165724836Y-120410514D01*
X165724836Y-120410514D02*
X165724836Y-120362895D01*
X165724836Y-120362895D02*
X165772455Y-120267657D01*
X165772455Y-120267657D02*
X165820074Y-120220038D01*
X165820074Y-120220038D02*
X165915312Y-120172419D01*
X165915312Y-120172419D02*
X166105788Y-120172419D01*
X166105788Y-120172419D02*
X166201026Y-120220038D01*
X166201026Y-120220038D02*
X166248645Y-120267657D01*
X166248645Y-120267657D02*
X166296264Y-120362895D01*
X166296264Y-120362895D02*
X166296264Y-120410514D01*
X166296264Y-120410514D02*
X166248645Y-120505752D01*
X166248645Y-120505752D02*
X166201026Y-120553371D01*
X166201026Y-120553371D02*
X166105788Y-120600990D01*
X166105788Y-120600990D02*
X165915312Y-120600990D01*
X165915312Y-120600990D02*
X165820074Y-120648609D01*
X165820074Y-120648609D02*
X165772455Y-120696228D01*
X165772455Y-120696228D02*
X165724836Y-120791466D01*
X165724836Y-120791466D02*
X165724836Y-120981942D01*
X165724836Y-120981942D02*
X165772455Y-121077180D01*
X165772455Y-121077180D02*
X165820074Y-121124800D01*
X165820074Y-121124800D02*
X165915312Y-121172419D01*
X165915312Y-121172419D02*
X166105788Y-121172419D01*
X166105788Y-121172419D02*
X166201026Y-121124800D01*
X166201026Y-121124800D02*
X166248645Y-121077180D01*
X166248645Y-121077180D02*
X166296264Y-120981942D01*
X166296264Y-120981942D02*
X166296264Y-120791466D01*
X166296264Y-120791466D02*
X166248645Y-120696228D01*
X166248645Y-120696228D02*
X166201026Y-120648609D01*
X166201026Y-120648609D02*
X166105788Y-120600990D01*
X166772455Y-120172419D02*
X166677217Y-120362895D01*
X168439121Y-121172419D02*
X167962931Y-121172419D01*
X167962931Y-121172419D02*
X167962931Y-120172419D01*
X169343883Y-121077180D02*
X169296264Y-121124800D01*
X169296264Y-121124800D02*
X169153407Y-121172419D01*
X169153407Y-121172419D02*
X169058169Y-121172419D01*
X169058169Y-121172419D02*
X168915312Y-121124800D01*
X168915312Y-121124800D02*
X168820074Y-121029561D01*
X168820074Y-121029561D02*
X168772455Y-120934323D01*
X168772455Y-120934323D02*
X168724836Y-120743847D01*
X168724836Y-120743847D02*
X168724836Y-120600990D01*
X168724836Y-120600990D02*
X168772455Y-120410514D01*
X168772455Y-120410514D02*
X168820074Y-120315276D01*
X168820074Y-120315276D02*
X168915312Y-120220038D01*
X168915312Y-120220038D02*
X169058169Y-120172419D01*
X169058169Y-120172419D02*
X169153407Y-120172419D01*
X169153407Y-120172419D02*
X169296264Y-120220038D01*
X169296264Y-120220038D02*
X169343883Y-120267657D01*
X169772455Y-121172419D02*
X169772455Y-120172419D01*
X169772455Y-120172419D02*
X170010550Y-120172419D01*
X170010550Y-120172419D02*
X170153407Y-120220038D01*
X170153407Y-120220038D02*
X170248645Y-120315276D01*
X170248645Y-120315276D02*
X170296264Y-120410514D01*
X170296264Y-120410514D02*
X170343883Y-120600990D01*
X170343883Y-120600990D02*
X170343883Y-120743847D01*
X170343883Y-120743847D02*
X170296264Y-120934323D01*
X170296264Y-120934323D02*
X170248645Y-121029561D01*
X170248645Y-121029561D02*
X170153407Y-121124800D01*
X170153407Y-121124800D02*
X170010550Y-121172419D01*
X170010550Y-121172419D02*
X169772455Y-121172419D01*
D13*
X70769673Y-78947331D02*
X70769673Y-77947331D01*
X70769673Y-77947331D02*
X71150625Y-77947331D01*
X71150625Y-77947331D02*
X71245863Y-77994950D01*
X71245863Y-77994950D02*
X71293482Y-78042569D01*
X71293482Y-78042569D02*
X71341101Y-78137807D01*
X71341101Y-78137807D02*
X71341101Y-78280664D01*
X71341101Y-78280664D02*
X71293482Y-78375902D01*
X71293482Y-78375902D02*
X71245863Y-78423521D01*
X71245863Y-78423521D02*
X71150625Y-78471140D01*
X71150625Y-78471140D02*
X70769673Y-78471140D01*
X71769673Y-78947331D02*
X71769673Y-78280664D01*
X71769673Y-77947331D02*
X71722054Y-77994950D01*
X71722054Y-77994950D02*
X71769673Y-78042569D01*
X71769673Y-78042569D02*
X71817292Y-77994950D01*
X71817292Y-77994950D02*
X71769673Y-77947331D01*
X71769673Y-77947331D02*
X71769673Y-78042569D01*
X72674434Y-78899712D02*
X72579196Y-78947331D01*
X72579196Y-78947331D02*
X72388720Y-78947331D01*
X72388720Y-78947331D02*
X72293482Y-78899712D01*
X72293482Y-78899712D02*
X72245863Y-78852092D01*
X72245863Y-78852092D02*
X72198244Y-78756854D01*
X72198244Y-78756854D02*
X72198244Y-78471140D01*
X72198244Y-78471140D02*
X72245863Y-78375902D01*
X72245863Y-78375902D02*
X72293482Y-78328283D01*
X72293482Y-78328283D02*
X72388720Y-78280664D01*
X72388720Y-78280664D02*
X72579196Y-78280664D01*
X72579196Y-78280664D02*
X72674434Y-78328283D01*
X73245863Y-78947331D02*
X73150625Y-78899712D01*
X73150625Y-78899712D02*
X73103006Y-78852092D01*
X73103006Y-78852092D02*
X73055387Y-78756854D01*
X73055387Y-78756854D02*
X73055387Y-78471140D01*
X73055387Y-78471140D02*
X73103006Y-78375902D01*
X73103006Y-78375902D02*
X73150625Y-78328283D01*
X73150625Y-78328283D02*
X73245863Y-78280664D01*
X73245863Y-78280664D02*
X73388720Y-78280664D01*
X73388720Y-78280664D02*
X73483958Y-78328283D01*
X73483958Y-78328283D02*
X73531577Y-78375902D01*
X73531577Y-78375902D02*
X73579196Y-78471140D01*
X73579196Y-78471140D02*
X73579196Y-78756854D01*
X73579196Y-78756854D02*
X73531577Y-78852092D01*
X73531577Y-78852092D02*
X73483958Y-78899712D01*
X73483958Y-78899712D02*
X73388720Y-78947331D01*
X73388720Y-78947331D02*
X73245863Y-78947331D01*
X74769673Y-78947331D02*
X74769673Y-77947331D01*
X74769673Y-77947331D02*
X75103006Y-78661616D01*
X75103006Y-78661616D02*
X75436339Y-77947331D01*
X75436339Y-77947331D02*
X75436339Y-78947331D01*
X75912530Y-78947331D02*
X75912530Y-78280664D01*
X75912530Y-77947331D02*
X75864911Y-77994950D01*
X75864911Y-77994950D02*
X75912530Y-78042569D01*
X75912530Y-78042569D02*
X75960149Y-77994950D01*
X75960149Y-77994950D02*
X75912530Y-77947331D01*
X75912530Y-77947331D02*
X75912530Y-78042569D01*
X76388720Y-78280664D02*
X76388720Y-78947331D01*
X76388720Y-78375902D02*
X76436339Y-78328283D01*
X76436339Y-78328283D02*
X76531577Y-78280664D01*
X76531577Y-78280664D02*
X76674434Y-78280664D01*
X76674434Y-78280664D02*
X76769672Y-78328283D01*
X76769672Y-78328283D02*
X76817291Y-78423521D01*
X76817291Y-78423521D02*
X76817291Y-78947331D01*
X77293482Y-78947331D02*
X77293482Y-78280664D01*
X77293482Y-77947331D02*
X77245863Y-77994950D01*
X77245863Y-77994950D02*
X77293482Y-78042569D01*
X77293482Y-78042569D02*
X77341101Y-77994950D01*
X77341101Y-77994950D02*
X77293482Y-77947331D01*
X77293482Y-77947331D02*
X77293482Y-78042569D01*
X78531577Y-78566378D02*
X79293482Y-78566378D01*
X79769672Y-78280664D02*
X80531577Y-78566378D01*
X80531577Y-78566378D02*
X79769672Y-78852092D01*
X70769673Y-80557275D02*
X70769673Y-79557275D01*
X70769673Y-79557275D02*
X71103006Y-80271560D01*
X71103006Y-80271560D02*
X71436339Y-79557275D01*
X71436339Y-79557275D02*
X71436339Y-80557275D01*
X71912530Y-80557275D02*
X71912530Y-79890608D01*
X71912530Y-79557275D02*
X71864911Y-79604894D01*
X71864911Y-79604894D02*
X71912530Y-79652513D01*
X71912530Y-79652513D02*
X71960149Y-79604894D01*
X71960149Y-79604894D02*
X71912530Y-79557275D01*
X71912530Y-79557275D02*
X71912530Y-79652513D01*
X72817291Y-80509656D02*
X72722053Y-80557275D01*
X72722053Y-80557275D02*
X72531577Y-80557275D01*
X72531577Y-80557275D02*
X72436339Y-80509656D01*
X72436339Y-80509656D02*
X72388720Y-80462036D01*
X72388720Y-80462036D02*
X72341101Y-80366798D01*
X72341101Y-80366798D02*
X72341101Y-80081084D01*
X72341101Y-80081084D02*
X72388720Y-79985846D01*
X72388720Y-79985846D02*
X72436339Y-79938227D01*
X72436339Y-79938227D02*
X72531577Y-79890608D01*
X72531577Y-79890608D02*
X72722053Y-79890608D01*
X72722053Y-79890608D02*
X72817291Y-79938227D01*
X73245863Y-80557275D02*
X73245863Y-79890608D01*
X73245863Y-80081084D02*
X73293482Y-79985846D01*
X73293482Y-79985846D02*
X73341101Y-79938227D01*
X73341101Y-79938227D02*
X73436339Y-79890608D01*
X73436339Y-79890608D02*
X73531577Y-79890608D01*
X74007768Y-80557275D02*
X73912530Y-80509656D01*
X73912530Y-80509656D02*
X73864911Y-80462036D01*
X73864911Y-80462036D02*
X73817292Y-80366798D01*
X73817292Y-80366798D02*
X73817292Y-80081084D01*
X73817292Y-80081084D02*
X73864911Y-79985846D01*
X73864911Y-79985846D02*
X73912530Y-79938227D01*
X73912530Y-79938227D02*
X74007768Y-79890608D01*
X74007768Y-79890608D02*
X74150625Y-79890608D01*
X74150625Y-79890608D02*
X74245863Y-79938227D01*
X74245863Y-79938227D02*
X74293482Y-79985846D01*
X74293482Y-79985846D02*
X74341101Y-80081084D01*
X74341101Y-80081084D02*
X74341101Y-80366798D01*
X74341101Y-80366798D02*
X74293482Y-80462036D01*
X74293482Y-80462036D02*
X74245863Y-80509656D01*
X74245863Y-80509656D02*
X74150625Y-80557275D01*
X74150625Y-80557275D02*
X74007768Y-80557275D01*
X74722054Y-80509656D02*
X74864911Y-80557275D01*
X74864911Y-80557275D02*
X75103006Y-80557275D01*
X75103006Y-80557275D02*
X75198244Y-80509656D01*
X75198244Y-80509656D02*
X75245863Y-80462036D01*
X75245863Y-80462036D02*
X75293482Y-80366798D01*
X75293482Y-80366798D02*
X75293482Y-80271560D01*
X75293482Y-80271560D02*
X75245863Y-80176322D01*
X75245863Y-80176322D02*
X75198244Y-80128703D01*
X75198244Y-80128703D02*
X75103006Y-80081084D01*
X75103006Y-80081084D02*
X74912530Y-80033465D01*
X74912530Y-80033465D02*
X74817292Y-79985846D01*
X74817292Y-79985846D02*
X74769673Y-79938227D01*
X74769673Y-79938227D02*
X74722054Y-79842989D01*
X74722054Y-79842989D02*
X74722054Y-79747751D01*
X74722054Y-79747751D02*
X74769673Y-79652513D01*
X74769673Y-79652513D02*
X74817292Y-79604894D01*
X74817292Y-79604894D02*
X74912530Y-79557275D01*
X74912530Y-79557275D02*
X75150625Y-79557275D01*
X75150625Y-79557275D02*
X75293482Y-79604894D01*
X75722054Y-80557275D02*
X75722054Y-79557275D01*
X75722054Y-79557275D02*
X75960149Y-79557275D01*
X75960149Y-79557275D02*
X76103006Y-79604894D01*
X76103006Y-79604894D02*
X76198244Y-79700132D01*
X76198244Y-79700132D02*
X76245863Y-79795370D01*
X76245863Y-79795370D02*
X76293482Y-79985846D01*
X76293482Y-79985846D02*
X76293482Y-80128703D01*
X76293482Y-80128703D02*
X76245863Y-80319179D01*
X76245863Y-80319179D02*
X76198244Y-80414417D01*
X76198244Y-80414417D02*
X76103006Y-80509656D01*
X76103006Y-80509656D02*
X75960149Y-80557275D01*
X75960149Y-80557275D02*
X75722054Y-80557275D01*
X70626816Y-81500552D02*
X71007768Y-81500552D01*
X70769673Y-81167219D02*
X70769673Y-82024361D01*
X70769673Y-82024361D02*
X70817292Y-82119600D01*
X70817292Y-82119600D02*
X70912530Y-82167219D01*
X70912530Y-82167219D02*
X71007768Y-82167219D01*
X71341102Y-82167219D02*
X71341102Y-81167219D01*
X71769673Y-82167219D02*
X71769673Y-81643409D01*
X71769673Y-81643409D02*
X71722054Y-81548171D01*
X71722054Y-81548171D02*
X71626816Y-81500552D01*
X71626816Y-81500552D02*
X71483959Y-81500552D01*
X71483959Y-81500552D02*
X71388721Y-81548171D01*
X71388721Y-81548171D02*
X71341102Y-81595790D01*
X72245864Y-82167219D02*
X72245864Y-81500552D01*
X72245864Y-81167219D02*
X72198245Y-81214838D01*
X72198245Y-81214838D02*
X72245864Y-81262457D01*
X72245864Y-81262457D02*
X72293483Y-81214838D01*
X72293483Y-81214838D02*
X72245864Y-81167219D01*
X72245864Y-81167219D02*
X72245864Y-81262457D01*
X72674435Y-82119600D02*
X72769673Y-82167219D01*
X72769673Y-82167219D02*
X72960149Y-82167219D01*
X72960149Y-82167219D02*
X73055387Y-82119600D01*
X73055387Y-82119600D02*
X73103006Y-82024361D01*
X73103006Y-82024361D02*
X73103006Y-81976742D01*
X73103006Y-81976742D02*
X73055387Y-81881504D01*
X73055387Y-81881504D02*
X72960149Y-81833885D01*
X72960149Y-81833885D02*
X72817292Y-81833885D01*
X72817292Y-81833885D02*
X72722054Y-81786266D01*
X72722054Y-81786266D02*
X72674435Y-81691028D01*
X72674435Y-81691028D02*
X72674435Y-81643409D01*
X72674435Y-81643409D02*
X72722054Y-81548171D01*
X72722054Y-81548171D02*
X72817292Y-81500552D01*
X72817292Y-81500552D02*
X72960149Y-81500552D01*
X72960149Y-81500552D02*
X73055387Y-81548171D01*
X74245864Y-82119600D02*
X74341102Y-82167219D01*
X74341102Y-82167219D02*
X74531578Y-82167219D01*
X74531578Y-82167219D02*
X74626816Y-82119600D01*
X74626816Y-82119600D02*
X74674435Y-82024361D01*
X74674435Y-82024361D02*
X74674435Y-81976742D01*
X74674435Y-81976742D02*
X74626816Y-81881504D01*
X74626816Y-81881504D02*
X74531578Y-81833885D01*
X74531578Y-81833885D02*
X74388721Y-81833885D01*
X74388721Y-81833885D02*
X74293483Y-81786266D01*
X74293483Y-81786266D02*
X74245864Y-81691028D01*
X74245864Y-81691028D02*
X74245864Y-81643409D01*
X74245864Y-81643409D02*
X74293483Y-81548171D01*
X74293483Y-81548171D02*
X74388721Y-81500552D01*
X74388721Y-81500552D02*
X74531578Y-81500552D01*
X74531578Y-81500552D02*
X74626816Y-81548171D01*
X75103007Y-82167219D02*
X75103007Y-81500552D01*
X75103007Y-81167219D02*
X75055388Y-81214838D01*
X75055388Y-81214838D02*
X75103007Y-81262457D01*
X75103007Y-81262457D02*
X75150626Y-81214838D01*
X75150626Y-81214838D02*
X75103007Y-81167219D01*
X75103007Y-81167219D02*
X75103007Y-81262457D01*
X76007768Y-82167219D02*
X76007768Y-81167219D01*
X76007768Y-82119600D02*
X75912530Y-82167219D01*
X75912530Y-82167219D02*
X75722054Y-82167219D01*
X75722054Y-82167219D02*
X75626816Y-82119600D01*
X75626816Y-82119600D02*
X75579197Y-82071980D01*
X75579197Y-82071980D02*
X75531578Y-81976742D01*
X75531578Y-81976742D02*
X75531578Y-81691028D01*
X75531578Y-81691028D02*
X75579197Y-81595790D01*
X75579197Y-81595790D02*
X75626816Y-81548171D01*
X75626816Y-81548171D02*
X75722054Y-81500552D01*
X75722054Y-81500552D02*
X75912530Y-81500552D01*
X75912530Y-81500552D02*
X76007768Y-81548171D01*
X76864911Y-82119600D02*
X76769673Y-82167219D01*
X76769673Y-82167219D02*
X76579197Y-82167219D01*
X76579197Y-82167219D02*
X76483959Y-82119600D01*
X76483959Y-82119600D02*
X76436340Y-82024361D01*
X76436340Y-82024361D02*
X76436340Y-81643409D01*
X76436340Y-81643409D02*
X76483959Y-81548171D01*
X76483959Y-81548171D02*
X76579197Y-81500552D01*
X76579197Y-81500552D02*
X76769673Y-81500552D01*
X76769673Y-81500552D02*
X76864911Y-81548171D01*
X76864911Y-81548171D02*
X76912530Y-81643409D01*
X76912530Y-81643409D02*
X76912530Y-81738647D01*
X76912530Y-81738647D02*
X76436340Y-81833885D01*
X78531578Y-81500552D02*
X78531578Y-82167219D01*
X78103007Y-81500552D02*
X78103007Y-82024361D01*
X78103007Y-82024361D02*
X78150626Y-82119600D01*
X78150626Y-82119600D02*
X78245864Y-82167219D01*
X78245864Y-82167219D02*
X78388721Y-82167219D01*
X78388721Y-82167219D02*
X78483959Y-82119600D01*
X78483959Y-82119600D02*
X78531578Y-82071980D01*
X79007769Y-81500552D02*
X79007769Y-82500552D01*
X79007769Y-81548171D02*
X79103007Y-81500552D01*
X79103007Y-81500552D02*
X79293483Y-81500552D01*
X79293483Y-81500552D02*
X79388721Y-81548171D01*
X79388721Y-81548171D02*
X79436340Y-81595790D01*
X79436340Y-81595790D02*
X79483959Y-81691028D01*
X79483959Y-81691028D02*
X79483959Y-81976742D01*
X79483959Y-81976742D02*
X79436340Y-82071980D01*
X79436340Y-82071980D02*
X79388721Y-82119600D01*
X79388721Y-82119600D02*
X79293483Y-82167219D01*
X79293483Y-82167219D02*
X79103007Y-82167219D01*
X79103007Y-82167219D02*
X79007769Y-82119600D01*
X110741578Y-76671000D02*
X109979673Y-76956714D01*
X109979673Y-76956714D02*
X110741578Y-77242428D01*
X111217768Y-76956714D02*
X111979673Y-76956714D01*
X112455863Y-76956714D02*
X113217768Y-76956714D01*
X113693958Y-76956714D02*
X114455863Y-76956714D01*
X114932053Y-76956714D02*
X115693958Y-76956714D01*
X116170148Y-76956714D02*
X116932053Y-76956714D01*
X117408243Y-76956714D02*
X118170148Y-76956714D01*
X109836816Y-77947611D02*
X110408244Y-77947611D01*
X110122530Y-78947611D02*
X110122530Y-77947611D01*
X111170149Y-78947611D02*
X111170149Y-78423801D01*
X111170149Y-78423801D02*
X111122530Y-78328563D01*
X111122530Y-78328563D02*
X111027292Y-78280944D01*
X111027292Y-78280944D02*
X110836816Y-78280944D01*
X110836816Y-78280944D02*
X110741578Y-78328563D01*
X111170149Y-78899992D02*
X111074911Y-78947611D01*
X111074911Y-78947611D02*
X110836816Y-78947611D01*
X110836816Y-78947611D02*
X110741578Y-78899992D01*
X110741578Y-78899992D02*
X110693959Y-78804753D01*
X110693959Y-78804753D02*
X110693959Y-78709515D01*
X110693959Y-78709515D02*
X110741578Y-78614277D01*
X110741578Y-78614277D02*
X110836816Y-78566658D01*
X110836816Y-78566658D02*
X111074911Y-78566658D01*
X111074911Y-78566658D02*
X111170149Y-78519039D01*
X111646340Y-78280944D02*
X111646340Y-79280944D01*
X111646340Y-78328563D02*
X111741578Y-78280944D01*
X111741578Y-78280944D02*
X111932054Y-78280944D01*
X111932054Y-78280944D02*
X112027292Y-78328563D01*
X112027292Y-78328563D02*
X112074911Y-78376182D01*
X112074911Y-78376182D02*
X112122530Y-78471420D01*
X112122530Y-78471420D02*
X112122530Y-78757134D01*
X112122530Y-78757134D02*
X112074911Y-78852372D01*
X112074911Y-78852372D02*
X112027292Y-78899992D01*
X112027292Y-78899992D02*
X111932054Y-78947611D01*
X111932054Y-78947611D02*
X111741578Y-78947611D01*
X111741578Y-78947611D02*
X111646340Y-78899992D01*
X112932054Y-78899992D02*
X112836816Y-78947611D01*
X112836816Y-78947611D02*
X112646340Y-78947611D01*
X112646340Y-78947611D02*
X112551102Y-78899992D01*
X112551102Y-78899992D02*
X112503483Y-78804753D01*
X112503483Y-78804753D02*
X112503483Y-78423801D01*
X112503483Y-78423801D02*
X112551102Y-78328563D01*
X112551102Y-78328563D02*
X112646340Y-78280944D01*
X112646340Y-78280944D02*
X112836816Y-78280944D01*
X112836816Y-78280944D02*
X112932054Y-78328563D01*
X112932054Y-78328563D02*
X112979673Y-78423801D01*
X112979673Y-78423801D02*
X112979673Y-78519039D01*
X112979673Y-78519039D02*
X112503483Y-78614277D01*
X114313007Y-78947611D02*
X114217769Y-78899992D01*
X114217769Y-78899992D02*
X114170150Y-78852372D01*
X114170150Y-78852372D02*
X114122531Y-78757134D01*
X114122531Y-78757134D02*
X114122531Y-78471420D01*
X114122531Y-78471420D02*
X114170150Y-78376182D01*
X114170150Y-78376182D02*
X114217769Y-78328563D01*
X114217769Y-78328563D02*
X114313007Y-78280944D01*
X114313007Y-78280944D02*
X114455864Y-78280944D01*
X114455864Y-78280944D02*
X114551102Y-78328563D01*
X114551102Y-78328563D02*
X114598721Y-78376182D01*
X114598721Y-78376182D02*
X114646340Y-78471420D01*
X114646340Y-78471420D02*
X114646340Y-78757134D01*
X114646340Y-78757134D02*
X114598721Y-78852372D01*
X114598721Y-78852372D02*
X114551102Y-78899992D01*
X114551102Y-78899992D02*
X114455864Y-78947611D01*
X114455864Y-78947611D02*
X114313007Y-78947611D01*
X114979674Y-78280944D02*
X115217769Y-78947611D01*
X115217769Y-78947611D02*
X115455864Y-78280944D01*
X116217769Y-78899992D02*
X116122531Y-78947611D01*
X116122531Y-78947611D02*
X115932055Y-78947611D01*
X115932055Y-78947611D02*
X115836817Y-78899992D01*
X115836817Y-78899992D02*
X115789198Y-78804753D01*
X115789198Y-78804753D02*
X115789198Y-78423801D01*
X115789198Y-78423801D02*
X115836817Y-78328563D01*
X115836817Y-78328563D02*
X115932055Y-78280944D01*
X115932055Y-78280944D02*
X116122531Y-78280944D01*
X116122531Y-78280944D02*
X116217769Y-78328563D01*
X116217769Y-78328563D02*
X116265388Y-78423801D01*
X116265388Y-78423801D02*
X116265388Y-78519039D01*
X116265388Y-78519039D02*
X115789198Y-78614277D01*
X116693960Y-78947611D02*
X116693960Y-78280944D01*
X116693960Y-78471420D02*
X116741579Y-78376182D01*
X116741579Y-78376182D02*
X116789198Y-78328563D01*
X116789198Y-78328563D02*
X116884436Y-78280944D01*
X116884436Y-78280944D02*
X116979674Y-78280944D01*
X118074913Y-78280944D02*
X118074913Y-79280944D01*
X118074913Y-78328563D02*
X118170151Y-78280944D01*
X118170151Y-78280944D02*
X118360627Y-78280944D01*
X118360627Y-78280944D02*
X118455865Y-78328563D01*
X118455865Y-78328563D02*
X118503484Y-78376182D01*
X118503484Y-78376182D02*
X118551103Y-78471420D01*
X118551103Y-78471420D02*
X118551103Y-78757134D01*
X118551103Y-78757134D02*
X118503484Y-78852372D01*
X118503484Y-78852372D02*
X118455865Y-78899992D01*
X118455865Y-78899992D02*
X118360627Y-78947611D01*
X118360627Y-78947611D02*
X118170151Y-78947611D01*
X118170151Y-78947611D02*
X118074913Y-78899992D01*
X118979675Y-78947611D02*
X118979675Y-78280944D01*
X118979675Y-77947611D02*
X118932056Y-77995230D01*
X118932056Y-77995230D02*
X118979675Y-78042849D01*
X118979675Y-78042849D02*
X119027294Y-77995230D01*
X119027294Y-77995230D02*
X118979675Y-77947611D01*
X118979675Y-77947611D02*
X118979675Y-78042849D01*
X119455865Y-78280944D02*
X119455865Y-78947611D01*
X119455865Y-78376182D02*
X119503484Y-78328563D01*
X119503484Y-78328563D02*
X119598722Y-78280944D01*
X119598722Y-78280944D02*
X119741579Y-78280944D01*
X119741579Y-78280944D02*
X119836817Y-78328563D01*
X119836817Y-78328563D02*
X119884436Y-78423801D01*
X119884436Y-78423801D02*
X119884436Y-78947611D01*
X120313008Y-78899992D02*
X120408246Y-78947611D01*
X120408246Y-78947611D02*
X120598722Y-78947611D01*
X120598722Y-78947611D02*
X120693960Y-78899992D01*
X120693960Y-78899992D02*
X120741579Y-78804753D01*
X120741579Y-78804753D02*
X120741579Y-78757134D01*
X120741579Y-78757134D02*
X120693960Y-78661896D01*
X120693960Y-78661896D02*
X120598722Y-78614277D01*
X120598722Y-78614277D02*
X120455865Y-78614277D01*
X120455865Y-78614277D02*
X120360627Y-78566658D01*
X120360627Y-78566658D02*
X120313008Y-78471420D01*
X120313008Y-78471420D02*
X120313008Y-78423801D01*
X120313008Y-78423801D02*
X120360627Y-78328563D01*
X120360627Y-78328563D02*
X120455865Y-78280944D01*
X120455865Y-78280944D02*
X120598722Y-78280944D01*
X120598722Y-78280944D02*
X120693960Y-78328563D01*
X109979673Y-80557555D02*
X109979673Y-79890888D01*
X109979673Y-79557555D02*
X109932054Y-79605174D01*
X109932054Y-79605174D02*
X109979673Y-79652793D01*
X109979673Y-79652793D02*
X110027292Y-79605174D01*
X110027292Y-79605174D02*
X109979673Y-79557555D01*
X109979673Y-79557555D02*
X109979673Y-79652793D01*
X110313006Y-79890888D02*
X110693958Y-79890888D01*
X110455863Y-80557555D02*
X110455863Y-79700412D01*
X110455863Y-79700412D02*
X110503482Y-79605174D01*
X110503482Y-79605174D02*
X110598720Y-79557555D01*
X110598720Y-79557555D02*
X110693958Y-79557555D01*
X112217768Y-79890888D02*
X112217768Y-80557555D01*
X111789197Y-79890888D02*
X111789197Y-80414697D01*
X111789197Y-80414697D02*
X111836816Y-80509936D01*
X111836816Y-80509936D02*
X111932054Y-80557555D01*
X111932054Y-80557555D02*
X112074911Y-80557555D01*
X112074911Y-80557555D02*
X112170149Y-80509936D01*
X112170149Y-80509936D02*
X112217768Y-80462316D01*
X112646340Y-80509936D02*
X112741578Y-80557555D01*
X112741578Y-80557555D02*
X112932054Y-80557555D01*
X112932054Y-80557555D02*
X113027292Y-80509936D01*
X113027292Y-80509936D02*
X113074911Y-80414697D01*
X113074911Y-80414697D02*
X113074911Y-80367078D01*
X113074911Y-80367078D02*
X113027292Y-80271840D01*
X113027292Y-80271840D02*
X112932054Y-80224221D01*
X112932054Y-80224221D02*
X112789197Y-80224221D01*
X112789197Y-80224221D02*
X112693959Y-80176602D01*
X112693959Y-80176602D02*
X112646340Y-80081364D01*
X112646340Y-80081364D02*
X112646340Y-80033745D01*
X112646340Y-80033745D02*
X112693959Y-79938507D01*
X112693959Y-79938507D02*
X112789197Y-79890888D01*
X112789197Y-79890888D02*
X112932054Y-79890888D01*
X112932054Y-79890888D02*
X113027292Y-79938507D01*
X113503483Y-80557555D02*
X113503483Y-79890888D01*
X113503483Y-79557555D02*
X113455864Y-79605174D01*
X113455864Y-79605174D02*
X113503483Y-79652793D01*
X113503483Y-79652793D02*
X113551102Y-79605174D01*
X113551102Y-79605174D02*
X113503483Y-79557555D01*
X113503483Y-79557555D02*
X113503483Y-79652793D01*
X113979673Y-79890888D02*
X113979673Y-80557555D01*
X113979673Y-79986126D02*
X114027292Y-79938507D01*
X114027292Y-79938507D02*
X114122530Y-79890888D01*
X114122530Y-79890888D02*
X114265387Y-79890888D01*
X114265387Y-79890888D02*
X114360625Y-79938507D01*
X114360625Y-79938507D02*
X114408244Y-80033745D01*
X114408244Y-80033745D02*
X114408244Y-80557555D01*
X115313006Y-79890888D02*
X115313006Y-80700412D01*
X115313006Y-80700412D02*
X115265387Y-80795650D01*
X115265387Y-80795650D02*
X115217768Y-80843269D01*
X115217768Y-80843269D02*
X115122530Y-80890888D01*
X115122530Y-80890888D02*
X114979673Y-80890888D01*
X114979673Y-80890888D02*
X114884435Y-80843269D01*
X115313006Y-80509936D02*
X115217768Y-80557555D01*
X115217768Y-80557555D02*
X115027292Y-80557555D01*
X115027292Y-80557555D02*
X114932054Y-80509936D01*
X114932054Y-80509936D02*
X114884435Y-80462316D01*
X114884435Y-80462316D02*
X114836816Y-80367078D01*
X114836816Y-80367078D02*
X114836816Y-80081364D01*
X114836816Y-80081364D02*
X114884435Y-79986126D01*
X114884435Y-79986126D02*
X114932054Y-79938507D01*
X114932054Y-79938507D02*
X115027292Y-79890888D01*
X115027292Y-79890888D02*
X115217768Y-79890888D01*
X115217768Y-79890888D02*
X115313006Y-79938507D01*
X109836816Y-81500832D02*
X110217768Y-81500832D01*
X109979673Y-81167499D02*
X109979673Y-82024641D01*
X109979673Y-82024641D02*
X110027292Y-82119880D01*
X110027292Y-82119880D02*
X110122530Y-82167499D01*
X110122530Y-82167499D02*
X110217768Y-82167499D01*
X110551102Y-82167499D02*
X110551102Y-81167499D01*
X110979673Y-82167499D02*
X110979673Y-81643689D01*
X110979673Y-81643689D02*
X110932054Y-81548451D01*
X110932054Y-81548451D02*
X110836816Y-81500832D01*
X110836816Y-81500832D02*
X110693959Y-81500832D01*
X110693959Y-81500832D02*
X110598721Y-81548451D01*
X110598721Y-81548451D02*
X110551102Y-81596070D01*
X111455864Y-82167499D02*
X111455864Y-81500832D01*
X111455864Y-81691308D02*
X111503483Y-81596070D01*
X111503483Y-81596070D02*
X111551102Y-81548451D01*
X111551102Y-81548451D02*
X111646340Y-81500832D01*
X111646340Y-81500832D02*
X111741578Y-81500832D01*
X112217769Y-82167499D02*
X112122531Y-82119880D01*
X112122531Y-82119880D02*
X112074912Y-82072260D01*
X112074912Y-82072260D02*
X112027293Y-81977022D01*
X112027293Y-81977022D02*
X112027293Y-81691308D01*
X112027293Y-81691308D02*
X112074912Y-81596070D01*
X112074912Y-81596070D02*
X112122531Y-81548451D01*
X112122531Y-81548451D02*
X112217769Y-81500832D01*
X112217769Y-81500832D02*
X112360626Y-81500832D01*
X112360626Y-81500832D02*
X112455864Y-81548451D01*
X112455864Y-81548451D02*
X112503483Y-81596070D01*
X112503483Y-81596070D02*
X112551102Y-81691308D01*
X112551102Y-81691308D02*
X112551102Y-81977022D01*
X112551102Y-81977022D02*
X112503483Y-82072260D01*
X112503483Y-82072260D02*
X112455864Y-82119880D01*
X112455864Y-82119880D02*
X112360626Y-82167499D01*
X112360626Y-82167499D02*
X112217769Y-82167499D01*
X113408245Y-81500832D02*
X113408245Y-82167499D01*
X112979674Y-81500832D02*
X112979674Y-82024641D01*
X112979674Y-82024641D02*
X113027293Y-82119880D01*
X113027293Y-82119880D02*
X113122531Y-82167499D01*
X113122531Y-82167499D02*
X113265388Y-82167499D01*
X113265388Y-82167499D02*
X113360626Y-82119880D01*
X113360626Y-82119880D02*
X113408245Y-82072260D01*
X114313007Y-81500832D02*
X114313007Y-82310356D01*
X114313007Y-82310356D02*
X114265388Y-82405594D01*
X114265388Y-82405594D02*
X114217769Y-82453213D01*
X114217769Y-82453213D02*
X114122531Y-82500832D01*
X114122531Y-82500832D02*
X113979674Y-82500832D01*
X113979674Y-82500832D02*
X113884436Y-82453213D01*
X114313007Y-82119880D02*
X114217769Y-82167499D01*
X114217769Y-82167499D02*
X114027293Y-82167499D01*
X114027293Y-82167499D02*
X113932055Y-82119880D01*
X113932055Y-82119880D02*
X113884436Y-82072260D01*
X113884436Y-82072260D02*
X113836817Y-81977022D01*
X113836817Y-81977022D02*
X113836817Y-81691308D01*
X113836817Y-81691308D02*
X113884436Y-81596070D01*
X113884436Y-81596070D02*
X113932055Y-81548451D01*
X113932055Y-81548451D02*
X114027293Y-81500832D01*
X114027293Y-81500832D02*
X114217769Y-81500832D01*
X114217769Y-81500832D02*
X114313007Y-81548451D01*
X114789198Y-82167499D02*
X114789198Y-81167499D01*
X115217769Y-82167499D02*
X115217769Y-81643689D01*
X115217769Y-81643689D02*
X115170150Y-81548451D01*
X115170150Y-81548451D02*
X115074912Y-81500832D01*
X115074912Y-81500832D02*
X114932055Y-81500832D01*
X114932055Y-81500832D02*
X114836817Y-81548451D01*
X114836817Y-81548451D02*
X114789198Y-81596070D01*
X115693960Y-81786546D02*
X116455865Y-81786546D01*
X116932055Y-82167499D02*
X116932055Y-81167499D01*
X117360626Y-82167499D02*
X117360626Y-81643689D01*
X117360626Y-81643689D02*
X117313007Y-81548451D01*
X117313007Y-81548451D02*
X117217769Y-81500832D01*
X117217769Y-81500832D02*
X117074912Y-81500832D01*
X117074912Y-81500832D02*
X116979674Y-81548451D01*
X116979674Y-81548451D02*
X116932055Y-81596070D01*
X117979674Y-82167499D02*
X117884436Y-82119880D01*
X117884436Y-82119880D02*
X117836817Y-82072260D01*
X117836817Y-82072260D02*
X117789198Y-81977022D01*
X117789198Y-81977022D02*
X117789198Y-81691308D01*
X117789198Y-81691308D02*
X117836817Y-81596070D01*
X117836817Y-81596070D02*
X117884436Y-81548451D01*
X117884436Y-81548451D02*
X117979674Y-81500832D01*
X117979674Y-81500832D02*
X118122531Y-81500832D01*
X118122531Y-81500832D02*
X118217769Y-81548451D01*
X118217769Y-81548451D02*
X118265388Y-81596070D01*
X118265388Y-81596070D02*
X118313007Y-81691308D01*
X118313007Y-81691308D02*
X118313007Y-81977022D01*
X118313007Y-81977022D02*
X118265388Y-82072260D01*
X118265388Y-82072260D02*
X118217769Y-82119880D01*
X118217769Y-82119880D02*
X118122531Y-82167499D01*
X118122531Y-82167499D02*
X117979674Y-82167499D01*
X118884436Y-82167499D02*
X118789198Y-82119880D01*
X118789198Y-82119880D02*
X118741579Y-82024641D01*
X118741579Y-82024641D02*
X118741579Y-81167499D01*
X119646341Y-82119880D02*
X119551103Y-82167499D01*
X119551103Y-82167499D02*
X119360627Y-82167499D01*
X119360627Y-82167499D02*
X119265389Y-82119880D01*
X119265389Y-82119880D02*
X119217770Y-82024641D01*
X119217770Y-82024641D02*
X119217770Y-81643689D01*
X119217770Y-81643689D02*
X119265389Y-81548451D01*
X119265389Y-81548451D02*
X119360627Y-81500832D01*
X119360627Y-81500832D02*
X119551103Y-81500832D01*
X119551103Y-81500832D02*
X119646341Y-81548451D01*
X119646341Y-81548451D02*
X119693960Y-81643689D01*
X119693960Y-81643689D02*
X119693960Y-81738927D01*
X119693960Y-81738927D02*
X119217770Y-81834165D01*
X120884437Y-81500832D02*
X120884437Y-82500832D01*
X120884437Y-81548451D02*
X120979675Y-81500832D01*
X120979675Y-81500832D02*
X121170151Y-81500832D01*
X121170151Y-81500832D02*
X121265389Y-81548451D01*
X121265389Y-81548451D02*
X121313008Y-81596070D01*
X121313008Y-81596070D02*
X121360627Y-81691308D01*
X121360627Y-81691308D02*
X121360627Y-81977022D01*
X121360627Y-81977022D02*
X121313008Y-82072260D01*
X121313008Y-82072260D02*
X121265389Y-82119880D01*
X121265389Y-82119880D02*
X121170151Y-82167499D01*
X121170151Y-82167499D02*
X120979675Y-82167499D01*
X120979675Y-82167499D02*
X120884437Y-82119880D01*
X121789199Y-82167499D02*
X121789199Y-81500832D01*
X121789199Y-81167499D02*
X121741580Y-81215118D01*
X121741580Y-81215118D02*
X121789199Y-81262737D01*
X121789199Y-81262737D02*
X121836818Y-81215118D01*
X121836818Y-81215118D02*
X121789199Y-81167499D01*
X121789199Y-81167499D02*
X121789199Y-81262737D01*
X122265389Y-81500832D02*
X122265389Y-82167499D01*
X122265389Y-81596070D02*
X122313008Y-81548451D01*
X122313008Y-81548451D02*
X122408246Y-81500832D01*
X122408246Y-81500832D02*
X122551103Y-81500832D01*
X122551103Y-81500832D02*
X122646341Y-81548451D01*
X122646341Y-81548451D02*
X122693960Y-81643689D01*
X122693960Y-81643689D02*
X122693960Y-82167499D01*
X123932056Y-82167499D02*
X123932056Y-81167499D01*
X124360627Y-82167499D02*
X124360627Y-81643689D01*
X124360627Y-81643689D02*
X124313008Y-81548451D01*
X124313008Y-81548451D02*
X124217770Y-81500832D01*
X124217770Y-81500832D02*
X124074913Y-81500832D01*
X124074913Y-81500832D02*
X123979675Y-81548451D01*
X123979675Y-81548451D02*
X123932056Y-81596070D01*
X125217770Y-82119880D02*
X125122532Y-82167499D01*
X125122532Y-82167499D02*
X124932056Y-82167499D01*
X124932056Y-82167499D02*
X124836818Y-82119880D01*
X124836818Y-82119880D02*
X124789199Y-82024641D01*
X124789199Y-82024641D02*
X124789199Y-81643689D01*
X124789199Y-81643689D02*
X124836818Y-81548451D01*
X124836818Y-81548451D02*
X124932056Y-81500832D01*
X124932056Y-81500832D02*
X125122532Y-81500832D01*
X125122532Y-81500832D02*
X125217770Y-81548451D01*
X125217770Y-81548451D02*
X125265389Y-81643689D01*
X125265389Y-81643689D02*
X125265389Y-81738927D01*
X125265389Y-81738927D02*
X124789199Y-81834165D01*
X126122532Y-82167499D02*
X126122532Y-81643689D01*
X126122532Y-81643689D02*
X126074913Y-81548451D01*
X126074913Y-81548451D02*
X125979675Y-81500832D01*
X125979675Y-81500832D02*
X125789199Y-81500832D01*
X125789199Y-81500832D02*
X125693961Y-81548451D01*
X126122532Y-82119880D02*
X126027294Y-82167499D01*
X126027294Y-82167499D02*
X125789199Y-82167499D01*
X125789199Y-82167499D02*
X125693961Y-82119880D01*
X125693961Y-82119880D02*
X125646342Y-82024641D01*
X125646342Y-82024641D02*
X125646342Y-81929403D01*
X125646342Y-81929403D02*
X125693961Y-81834165D01*
X125693961Y-81834165D02*
X125789199Y-81786546D01*
X125789199Y-81786546D02*
X126027294Y-81786546D01*
X126027294Y-81786546D02*
X126122532Y-81738927D01*
X127027294Y-82167499D02*
X127027294Y-81167499D01*
X127027294Y-82119880D02*
X126932056Y-82167499D01*
X126932056Y-82167499D02*
X126741580Y-82167499D01*
X126741580Y-82167499D02*
X126646342Y-82119880D01*
X126646342Y-82119880D02*
X126598723Y-82072260D01*
X126598723Y-82072260D02*
X126551104Y-81977022D01*
X126551104Y-81977022D02*
X126551104Y-81691308D01*
X126551104Y-81691308D02*
X126598723Y-81596070D01*
X126598723Y-81596070D02*
X126646342Y-81548451D01*
X126646342Y-81548451D02*
X126741580Y-81500832D01*
X126741580Y-81500832D02*
X126932056Y-81500832D01*
X126932056Y-81500832D02*
X127027294Y-81548451D01*
X127884437Y-82119880D02*
X127789199Y-82167499D01*
X127789199Y-82167499D02*
X127598723Y-82167499D01*
X127598723Y-82167499D02*
X127503485Y-82119880D01*
X127503485Y-82119880D02*
X127455866Y-82024641D01*
X127455866Y-82024641D02*
X127455866Y-81643689D01*
X127455866Y-81643689D02*
X127503485Y-81548451D01*
X127503485Y-81548451D02*
X127598723Y-81500832D01*
X127598723Y-81500832D02*
X127789199Y-81500832D01*
X127789199Y-81500832D02*
X127884437Y-81548451D01*
X127884437Y-81548451D02*
X127932056Y-81643689D01*
X127932056Y-81643689D02*
X127932056Y-81738927D01*
X127932056Y-81738927D02*
X127455866Y-81834165D01*
X128360628Y-82167499D02*
X128360628Y-81500832D01*
X128360628Y-81691308D02*
X128408247Y-81596070D01*
X128408247Y-81596070D02*
X128455866Y-81548451D01*
X128455866Y-81548451D02*
X128551104Y-81500832D01*
X128551104Y-81500832D02*
X128646342Y-81500832D01*
X110408244Y-83777443D02*
X110408244Y-83253633D01*
X110408244Y-83253633D02*
X110360625Y-83158395D01*
X110360625Y-83158395D02*
X110265387Y-83110776D01*
X110265387Y-83110776D02*
X110074911Y-83110776D01*
X110074911Y-83110776D02*
X109979673Y-83158395D01*
X110408244Y-83729824D02*
X110313006Y-83777443D01*
X110313006Y-83777443D02*
X110074911Y-83777443D01*
X110074911Y-83777443D02*
X109979673Y-83729824D01*
X109979673Y-83729824D02*
X109932054Y-83634585D01*
X109932054Y-83634585D02*
X109932054Y-83539347D01*
X109932054Y-83539347D02*
X109979673Y-83444109D01*
X109979673Y-83444109D02*
X110074911Y-83396490D01*
X110074911Y-83396490D02*
X110313006Y-83396490D01*
X110313006Y-83396490D02*
X110408244Y-83348871D01*
X110884435Y-83110776D02*
X110884435Y-83777443D01*
X110884435Y-83206014D02*
X110932054Y-83158395D01*
X110932054Y-83158395D02*
X111027292Y-83110776D01*
X111027292Y-83110776D02*
X111170149Y-83110776D01*
X111170149Y-83110776D02*
X111265387Y-83158395D01*
X111265387Y-83158395D02*
X111313006Y-83253633D01*
X111313006Y-83253633D02*
X111313006Y-83777443D01*
X112217768Y-83777443D02*
X112217768Y-82777443D01*
X112217768Y-83729824D02*
X112122530Y-83777443D01*
X112122530Y-83777443D02*
X111932054Y-83777443D01*
X111932054Y-83777443D02*
X111836816Y-83729824D01*
X111836816Y-83729824D02*
X111789197Y-83682204D01*
X111789197Y-83682204D02*
X111741578Y-83586966D01*
X111741578Y-83586966D02*
X111741578Y-83301252D01*
X111741578Y-83301252D02*
X111789197Y-83206014D01*
X111789197Y-83206014D02*
X111836816Y-83158395D01*
X111836816Y-83158395D02*
X111932054Y-83110776D01*
X111932054Y-83110776D02*
X112122530Y-83110776D01*
X112122530Y-83110776D02*
X112217768Y-83158395D01*
X113455864Y-83110776D02*
X113455864Y-83777443D01*
X113455864Y-83206014D02*
X113503483Y-83158395D01*
X113503483Y-83158395D02*
X113598721Y-83110776D01*
X113598721Y-83110776D02*
X113741578Y-83110776D01*
X113741578Y-83110776D02*
X113836816Y-83158395D01*
X113836816Y-83158395D02*
X113884435Y-83253633D01*
X113884435Y-83253633D02*
X113884435Y-83777443D01*
X114503483Y-83777443D02*
X114408245Y-83729824D01*
X114408245Y-83729824D02*
X114360626Y-83682204D01*
X114360626Y-83682204D02*
X114313007Y-83586966D01*
X114313007Y-83586966D02*
X114313007Y-83301252D01*
X114313007Y-83301252D02*
X114360626Y-83206014D01*
X114360626Y-83206014D02*
X114408245Y-83158395D01*
X114408245Y-83158395D02*
X114503483Y-83110776D01*
X114503483Y-83110776D02*
X114646340Y-83110776D01*
X114646340Y-83110776D02*
X114741578Y-83158395D01*
X114741578Y-83158395D02*
X114789197Y-83206014D01*
X114789197Y-83206014D02*
X114836816Y-83301252D01*
X114836816Y-83301252D02*
X114836816Y-83586966D01*
X114836816Y-83586966D02*
X114789197Y-83682204D01*
X114789197Y-83682204D02*
X114741578Y-83729824D01*
X114741578Y-83729824D02*
X114646340Y-83777443D01*
X114646340Y-83777443D02*
X114503483Y-83777443D01*
X115122531Y-83110776D02*
X115503483Y-83110776D01*
X115265388Y-82777443D02*
X115265388Y-83634585D01*
X115265388Y-83634585D02*
X115313007Y-83729824D01*
X115313007Y-83729824D02*
X115408245Y-83777443D01*
X115408245Y-83777443D02*
X115503483Y-83777443D01*
X117027293Y-83110776D02*
X117027293Y-83777443D01*
X116598722Y-83110776D02*
X116598722Y-83634585D01*
X116598722Y-83634585D02*
X116646341Y-83729824D01*
X116646341Y-83729824D02*
X116741579Y-83777443D01*
X116741579Y-83777443D02*
X116884436Y-83777443D01*
X116884436Y-83777443D02*
X116979674Y-83729824D01*
X116979674Y-83729824D02*
X117027293Y-83682204D01*
X117455865Y-83729824D02*
X117551103Y-83777443D01*
X117551103Y-83777443D02*
X117741579Y-83777443D01*
X117741579Y-83777443D02*
X117836817Y-83729824D01*
X117836817Y-83729824D02*
X117884436Y-83634585D01*
X117884436Y-83634585D02*
X117884436Y-83586966D01*
X117884436Y-83586966D02*
X117836817Y-83491728D01*
X117836817Y-83491728D02*
X117741579Y-83444109D01*
X117741579Y-83444109D02*
X117598722Y-83444109D01*
X117598722Y-83444109D02*
X117503484Y-83396490D01*
X117503484Y-83396490D02*
X117455865Y-83301252D01*
X117455865Y-83301252D02*
X117455865Y-83253633D01*
X117455865Y-83253633D02*
X117503484Y-83158395D01*
X117503484Y-83158395D02*
X117598722Y-83110776D01*
X117598722Y-83110776D02*
X117741579Y-83110776D01*
X117741579Y-83110776D02*
X117836817Y-83158395D01*
X118313008Y-83777443D02*
X118313008Y-83110776D01*
X118313008Y-82777443D02*
X118265389Y-82825062D01*
X118265389Y-82825062D02*
X118313008Y-82872681D01*
X118313008Y-82872681D02*
X118360627Y-82825062D01*
X118360627Y-82825062D02*
X118313008Y-82777443D01*
X118313008Y-82777443D02*
X118313008Y-82872681D01*
X118789198Y-83110776D02*
X118789198Y-83777443D01*
X118789198Y-83206014D02*
X118836817Y-83158395D01*
X118836817Y-83158395D02*
X118932055Y-83110776D01*
X118932055Y-83110776D02*
X119074912Y-83110776D01*
X119074912Y-83110776D02*
X119170150Y-83158395D01*
X119170150Y-83158395D02*
X119217769Y-83253633D01*
X119217769Y-83253633D02*
X119217769Y-83777443D01*
X120122531Y-83110776D02*
X120122531Y-83920300D01*
X120122531Y-83920300D02*
X120074912Y-84015538D01*
X120074912Y-84015538D02*
X120027293Y-84063157D01*
X120027293Y-84063157D02*
X119932055Y-84110776D01*
X119932055Y-84110776D02*
X119789198Y-84110776D01*
X119789198Y-84110776D02*
X119693960Y-84063157D01*
X120122531Y-83729824D02*
X120027293Y-83777443D01*
X120027293Y-83777443D02*
X119836817Y-83777443D01*
X119836817Y-83777443D02*
X119741579Y-83729824D01*
X119741579Y-83729824D02*
X119693960Y-83682204D01*
X119693960Y-83682204D02*
X119646341Y-83586966D01*
X119646341Y-83586966D02*
X119646341Y-83301252D01*
X119646341Y-83301252D02*
X119693960Y-83206014D01*
X119693960Y-83206014D02*
X119741579Y-83158395D01*
X119741579Y-83158395D02*
X119836817Y-83110776D01*
X119836817Y-83110776D02*
X120027293Y-83110776D01*
X120027293Y-83110776D02*
X120122531Y-83158395D01*
X110408244Y-85339768D02*
X110313006Y-85387387D01*
X110313006Y-85387387D02*
X110122530Y-85387387D01*
X110122530Y-85387387D02*
X110027292Y-85339768D01*
X110027292Y-85339768D02*
X109979673Y-85292148D01*
X109979673Y-85292148D02*
X109932054Y-85196910D01*
X109932054Y-85196910D02*
X109932054Y-84911196D01*
X109932054Y-84911196D02*
X109979673Y-84815958D01*
X109979673Y-84815958D02*
X110027292Y-84768339D01*
X110027292Y-84768339D02*
X110122530Y-84720720D01*
X110122530Y-84720720D02*
X110313006Y-84720720D01*
X110313006Y-84720720D02*
X110408244Y-84768339D01*
X111265387Y-85387387D02*
X111265387Y-84863577D01*
X111265387Y-84863577D02*
X111217768Y-84768339D01*
X111217768Y-84768339D02*
X111122530Y-84720720D01*
X111122530Y-84720720D02*
X110932054Y-84720720D01*
X110932054Y-84720720D02*
X110836816Y-84768339D01*
X111265387Y-85339768D02*
X111170149Y-85387387D01*
X111170149Y-85387387D02*
X110932054Y-85387387D01*
X110932054Y-85387387D02*
X110836816Y-85339768D01*
X110836816Y-85339768D02*
X110789197Y-85244529D01*
X110789197Y-85244529D02*
X110789197Y-85149291D01*
X110789197Y-85149291D02*
X110836816Y-85054053D01*
X110836816Y-85054053D02*
X110932054Y-85006434D01*
X110932054Y-85006434D02*
X111170149Y-85006434D01*
X111170149Y-85006434D02*
X111265387Y-84958815D01*
X111693959Y-85339768D02*
X111789197Y-85387387D01*
X111789197Y-85387387D02*
X111979673Y-85387387D01*
X111979673Y-85387387D02*
X112074911Y-85339768D01*
X112074911Y-85339768D02*
X112122530Y-85244529D01*
X112122530Y-85244529D02*
X112122530Y-85196910D01*
X112122530Y-85196910D02*
X112074911Y-85101672D01*
X112074911Y-85101672D02*
X111979673Y-85054053D01*
X111979673Y-85054053D02*
X111836816Y-85054053D01*
X111836816Y-85054053D02*
X111741578Y-85006434D01*
X111741578Y-85006434D02*
X111693959Y-84911196D01*
X111693959Y-84911196D02*
X111693959Y-84863577D01*
X111693959Y-84863577D02*
X111741578Y-84768339D01*
X111741578Y-84768339D02*
X111836816Y-84720720D01*
X111836816Y-84720720D02*
X111979673Y-84720720D01*
X111979673Y-84720720D02*
X112074911Y-84768339D01*
X112932054Y-85339768D02*
X112836816Y-85387387D01*
X112836816Y-85387387D02*
X112646340Y-85387387D01*
X112646340Y-85387387D02*
X112551102Y-85339768D01*
X112551102Y-85339768D02*
X112503483Y-85244529D01*
X112503483Y-85244529D02*
X112503483Y-84863577D01*
X112503483Y-84863577D02*
X112551102Y-84768339D01*
X112551102Y-84768339D02*
X112646340Y-84720720D01*
X112646340Y-84720720D02*
X112836816Y-84720720D01*
X112836816Y-84720720D02*
X112932054Y-84768339D01*
X112932054Y-84768339D02*
X112979673Y-84863577D01*
X112979673Y-84863577D02*
X112979673Y-84958815D01*
X112979673Y-84958815D02*
X112503483Y-85054053D01*
X114027293Y-84720720D02*
X114408245Y-84720720D01*
X114170150Y-84387387D02*
X114170150Y-85244529D01*
X114170150Y-85244529D02*
X114217769Y-85339768D01*
X114217769Y-85339768D02*
X114313007Y-85387387D01*
X114313007Y-85387387D02*
X114408245Y-85387387D01*
X114884436Y-85387387D02*
X114789198Y-85339768D01*
X114789198Y-85339768D02*
X114741579Y-85292148D01*
X114741579Y-85292148D02*
X114693960Y-85196910D01*
X114693960Y-85196910D02*
X114693960Y-84911196D01*
X114693960Y-84911196D02*
X114741579Y-84815958D01*
X114741579Y-84815958D02*
X114789198Y-84768339D01*
X114789198Y-84768339D02*
X114884436Y-84720720D01*
X114884436Y-84720720D02*
X115027293Y-84720720D01*
X115027293Y-84720720D02*
X115122531Y-84768339D01*
X115122531Y-84768339D02*
X115170150Y-84815958D01*
X115170150Y-84815958D02*
X115217769Y-84911196D01*
X115217769Y-84911196D02*
X115217769Y-85196910D01*
X115217769Y-85196910D02*
X115170150Y-85292148D01*
X115170150Y-85292148D02*
X115122531Y-85339768D01*
X115122531Y-85339768D02*
X115027293Y-85387387D01*
X115027293Y-85387387D02*
X114884436Y-85387387D01*
X116408246Y-84720720D02*
X116408246Y-85720720D01*
X116408246Y-84768339D02*
X116503484Y-84720720D01*
X116503484Y-84720720D02*
X116693960Y-84720720D01*
X116693960Y-84720720D02*
X116789198Y-84768339D01*
X116789198Y-84768339D02*
X116836817Y-84815958D01*
X116836817Y-84815958D02*
X116884436Y-84911196D01*
X116884436Y-84911196D02*
X116884436Y-85196910D01*
X116884436Y-85196910D02*
X116836817Y-85292148D01*
X116836817Y-85292148D02*
X116789198Y-85339768D01*
X116789198Y-85339768D02*
X116693960Y-85387387D01*
X116693960Y-85387387D02*
X116503484Y-85387387D01*
X116503484Y-85387387D02*
X116408246Y-85339768D01*
X117313008Y-85387387D02*
X117313008Y-84720720D01*
X117313008Y-84911196D02*
X117360627Y-84815958D01*
X117360627Y-84815958D02*
X117408246Y-84768339D01*
X117408246Y-84768339D02*
X117503484Y-84720720D01*
X117503484Y-84720720D02*
X117598722Y-84720720D01*
X118313008Y-85339768D02*
X118217770Y-85387387D01*
X118217770Y-85387387D02*
X118027294Y-85387387D01*
X118027294Y-85387387D02*
X117932056Y-85339768D01*
X117932056Y-85339768D02*
X117884437Y-85244529D01*
X117884437Y-85244529D02*
X117884437Y-84863577D01*
X117884437Y-84863577D02*
X117932056Y-84768339D01*
X117932056Y-84768339D02*
X118027294Y-84720720D01*
X118027294Y-84720720D02*
X118217770Y-84720720D01*
X118217770Y-84720720D02*
X118313008Y-84768339D01*
X118313008Y-84768339D02*
X118360627Y-84863577D01*
X118360627Y-84863577D02*
X118360627Y-84958815D01*
X118360627Y-84958815D02*
X117884437Y-85054053D01*
X118693961Y-84720720D02*
X118932056Y-85387387D01*
X118932056Y-85387387D02*
X119170151Y-84720720D01*
X119932056Y-85339768D02*
X119836818Y-85387387D01*
X119836818Y-85387387D02*
X119646342Y-85387387D01*
X119646342Y-85387387D02*
X119551104Y-85339768D01*
X119551104Y-85339768D02*
X119503485Y-85244529D01*
X119503485Y-85244529D02*
X119503485Y-84863577D01*
X119503485Y-84863577D02*
X119551104Y-84768339D01*
X119551104Y-84768339D02*
X119646342Y-84720720D01*
X119646342Y-84720720D02*
X119836818Y-84720720D01*
X119836818Y-84720720D02*
X119932056Y-84768339D01*
X119932056Y-84768339D02*
X119979675Y-84863577D01*
X119979675Y-84863577D02*
X119979675Y-84958815D01*
X119979675Y-84958815D02*
X119503485Y-85054053D01*
X120408247Y-84720720D02*
X120408247Y-85387387D01*
X120408247Y-84815958D02*
X120455866Y-84768339D01*
X120455866Y-84768339D02*
X120551104Y-84720720D01*
X120551104Y-84720720D02*
X120693961Y-84720720D01*
X120693961Y-84720720D02*
X120789199Y-84768339D01*
X120789199Y-84768339D02*
X120836818Y-84863577D01*
X120836818Y-84863577D02*
X120836818Y-85387387D01*
X121170152Y-84720720D02*
X121551104Y-84720720D01*
X121313009Y-84387387D02*
X121313009Y-85244529D01*
X121313009Y-85244529D02*
X121360628Y-85339768D01*
X121360628Y-85339768D02*
X121455866Y-85387387D01*
X121455866Y-85387387D02*
X121551104Y-85387387D01*
X109932054Y-86949712D02*
X110027292Y-86997331D01*
X110027292Y-86997331D02*
X110217768Y-86997331D01*
X110217768Y-86997331D02*
X110313006Y-86949712D01*
X110313006Y-86949712D02*
X110360625Y-86854473D01*
X110360625Y-86854473D02*
X110360625Y-86806854D01*
X110360625Y-86806854D02*
X110313006Y-86711616D01*
X110313006Y-86711616D02*
X110217768Y-86663997D01*
X110217768Y-86663997D02*
X110074911Y-86663997D01*
X110074911Y-86663997D02*
X109979673Y-86616378D01*
X109979673Y-86616378D02*
X109932054Y-86521140D01*
X109932054Y-86521140D02*
X109932054Y-86473521D01*
X109932054Y-86473521D02*
X109979673Y-86378283D01*
X109979673Y-86378283D02*
X110074911Y-86330664D01*
X110074911Y-86330664D02*
X110217768Y-86330664D01*
X110217768Y-86330664D02*
X110313006Y-86378283D01*
X110789197Y-86997331D02*
X110789197Y-85997331D01*
X111217768Y-86997331D02*
X111217768Y-86473521D01*
X111217768Y-86473521D02*
X111170149Y-86378283D01*
X111170149Y-86378283D02*
X111074911Y-86330664D01*
X111074911Y-86330664D02*
X110932054Y-86330664D01*
X110932054Y-86330664D02*
X110836816Y-86378283D01*
X110836816Y-86378283D02*
X110789197Y-86425902D01*
X111836816Y-86997331D02*
X111741578Y-86949712D01*
X111741578Y-86949712D02*
X111693959Y-86902092D01*
X111693959Y-86902092D02*
X111646340Y-86806854D01*
X111646340Y-86806854D02*
X111646340Y-86521140D01*
X111646340Y-86521140D02*
X111693959Y-86425902D01*
X111693959Y-86425902D02*
X111741578Y-86378283D01*
X111741578Y-86378283D02*
X111836816Y-86330664D01*
X111836816Y-86330664D02*
X111979673Y-86330664D01*
X111979673Y-86330664D02*
X112074911Y-86378283D01*
X112074911Y-86378283D02*
X112122530Y-86425902D01*
X112122530Y-86425902D02*
X112170149Y-86521140D01*
X112170149Y-86521140D02*
X112170149Y-86806854D01*
X112170149Y-86806854D02*
X112122530Y-86902092D01*
X112122530Y-86902092D02*
X112074911Y-86949712D01*
X112074911Y-86949712D02*
X111979673Y-86997331D01*
X111979673Y-86997331D02*
X111836816Y-86997331D01*
X112598721Y-86997331D02*
X112598721Y-86330664D01*
X112598721Y-86521140D02*
X112646340Y-86425902D01*
X112646340Y-86425902D02*
X112693959Y-86378283D01*
X112693959Y-86378283D02*
X112789197Y-86330664D01*
X112789197Y-86330664D02*
X112884435Y-86330664D01*
X113074912Y-86330664D02*
X113455864Y-86330664D01*
X113217769Y-85997331D02*
X113217769Y-86854473D01*
X113217769Y-86854473D02*
X113265388Y-86949712D01*
X113265388Y-86949712D02*
X113360626Y-86997331D01*
X113360626Y-86997331D02*
X113455864Y-86997331D01*
X113789198Y-86997331D02*
X113789198Y-86330664D01*
X113789198Y-85997331D02*
X113741579Y-86044950D01*
X113741579Y-86044950D02*
X113789198Y-86092569D01*
X113789198Y-86092569D02*
X113836817Y-86044950D01*
X113836817Y-86044950D02*
X113789198Y-85997331D01*
X113789198Y-85997331D02*
X113789198Y-86092569D01*
X114265388Y-86330664D02*
X114265388Y-86997331D01*
X114265388Y-86425902D02*
X114313007Y-86378283D01*
X114313007Y-86378283D02*
X114408245Y-86330664D01*
X114408245Y-86330664D02*
X114551102Y-86330664D01*
X114551102Y-86330664D02*
X114646340Y-86378283D01*
X114646340Y-86378283D02*
X114693959Y-86473521D01*
X114693959Y-86473521D02*
X114693959Y-86997331D01*
X115598721Y-86330664D02*
X115598721Y-87140188D01*
X115598721Y-87140188D02*
X115551102Y-87235426D01*
X115551102Y-87235426D02*
X115503483Y-87283045D01*
X115503483Y-87283045D02*
X115408245Y-87330664D01*
X115408245Y-87330664D02*
X115265388Y-87330664D01*
X115265388Y-87330664D02*
X115170150Y-87283045D01*
X115598721Y-86949712D02*
X115503483Y-86997331D01*
X115503483Y-86997331D02*
X115313007Y-86997331D01*
X115313007Y-86997331D02*
X115217769Y-86949712D01*
X115217769Y-86949712D02*
X115170150Y-86902092D01*
X115170150Y-86902092D02*
X115122531Y-86806854D01*
X115122531Y-86806854D02*
X115122531Y-86521140D01*
X115122531Y-86521140D02*
X115170150Y-86425902D01*
X115170150Y-86425902D02*
X115217769Y-86378283D01*
X115217769Y-86378283D02*
X115313007Y-86330664D01*
X115313007Y-86330664D02*
X115503483Y-86330664D01*
X115503483Y-86330664D02*
X115598721Y-86378283D01*
X116741579Y-85997331D02*
X117360626Y-85997331D01*
X117360626Y-85997331D02*
X117027293Y-86378283D01*
X117027293Y-86378283D02*
X117170150Y-86378283D01*
X117170150Y-86378283D02*
X117265388Y-86425902D01*
X117265388Y-86425902D02*
X117313007Y-86473521D01*
X117313007Y-86473521D02*
X117360626Y-86568759D01*
X117360626Y-86568759D02*
X117360626Y-86806854D01*
X117360626Y-86806854D02*
X117313007Y-86902092D01*
X117313007Y-86902092D02*
X117265388Y-86949712D01*
X117265388Y-86949712D02*
X117170150Y-86997331D01*
X117170150Y-86997331D02*
X116884436Y-86997331D01*
X116884436Y-86997331D02*
X116789198Y-86949712D01*
X116789198Y-86949712D02*
X116741579Y-86902092D01*
X117693960Y-86330664D02*
X117932055Y-86997331D01*
X117932055Y-86997331D02*
X118170150Y-86330664D01*
X118455865Y-85997331D02*
X119074912Y-85997331D01*
X119074912Y-85997331D02*
X118741579Y-86378283D01*
X118741579Y-86378283D02*
X118884436Y-86378283D01*
X118884436Y-86378283D02*
X118979674Y-86425902D01*
X118979674Y-86425902D02*
X119027293Y-86473521D01*
X119027293Y-86473521D02*
X119074912Y-86568759D01*
X119074912Y-86568759D02*
X119074912Y-86806854D01*
X119074912Y-86806854D02*
X119027293Y-86902092D01*
X119027293Y-86902092D02*
X118979674Y-86949712D01*
X118979674Y-86949712D02*
X118884436Y-86997331D01*
X118884436Y-86997331D02*
X118598722Y-86997331D01*
X118598722Y-86997331D02*
X118503484Y-86949712D01*
X118503484Y-86949712D02*
X118455865Y-86902092D01*
X120122532Y-86330664D02*
X120503484Y-86330664D01*
X120265389Y-85997331D02*
X120265389Y-86854473D01*
X120265389Y-86854473D02*
X120313008Y-86949712D01*
X120313008Y-86949712D02*
X120408246Y-86997331D01*
X120408246Y-86997331D02*
X120503484Y-86997331D01*
X120979675Y-86997331D02*
X120884437Y-86949712D01*
X120884437Y-86949712D02*
X120836818Y-86902092D01*
X120836818Y-86902092D02*
X120789199Y-86806854D01*
X120789199Y-86806854D02*
X120789199Y-86521140D01*
X120789199Y-86521140D02*
X120836818Y-86425902D01*
X120836818Y-86425902D02*
X120884437Y-86378283D01*
X120884437Y-86378283D02*
X120979675Y-86330664D01*
X120979675Y-86330664D02*
X121122532Y-86330664D01*
X121122532Y-86330664D02*
X121217770Y-86378283D01*
X121217770Y-86378283D02*
X121265389Y-86425902D01*
X121265389Y-86425902D02*
X121313008Y-86521140D01*
X121313008Y-86521140D02*
X121313008Y-86806854D01*
X121313008Y-86806854D02*
X121265389Y-86902092D01*
X121265389Y-86902092D02*
X121217770Y-86949712D01*
X121217770Y-86949712D02*
X121122532Y-86997331D01*
X121122532Y-86997331D02*
X120979675Y-86997331D01*
X110503482Y-87654894D02*
X110408244Y-87607275D01*
X110408244Y-87607275D02*
X110265387Y-87607275D01*
X110265387Y-87607275D02*
X110122530Y-87654894D01*
X110122530Y-87654894D02*
X110027292Y-87750132D01*
X110027292Y-87750132D02*
X109979673Y-87845370D01*
X109979673Y-87845370D02*
X109932054Y-88035846D01*
X109932054Y-88035846D02*
X109932054Y-88178703D01*
X109932054Y-88178703D02*
X109979673Y-88369179D01*
X109979673Y-88369179D02*
X110027292Y-88464417D01*
X110027292Y-88464417D02*
X110122530Y-88559656D01*
X110122530Y-88559656D02*
X110265387Y-88607275D01*
X110265387Y-88607275D02*
X110360625Y-88607275D01*
X110360625Y-88607275D02*
X110503482Y-88559656D01*
X110503482Y-88559656D02*
X110551101Y-88512036D01*
X110551101Y-88512036D02*
X110551101Y-88178703D01*
X110551101Y-88178703D02*
X110360625Y-88178703D01*
X110979673Y-88607275D02*
X110979673Y-87607275D01*
X110979673Y-87607275D02*
X111551101Y-88607275D01*
X111551101Y-88607275D02*
X111551101Y-87607275D01*
X112027292Y-88607275D02*
X112027292Y-87607275D01*
X112027292Y-87607275D02*
X112265387Y-87607275D01*
X112265387Y-87607275D02*
X112408244Y-87654894D01*
X112408244Y-87654894D02*
X112503482Y-87750132D01*
X112503482Y-87750132D02*
X112551101Y-87845370D01*
X112551101Y-87845370D02*
X112598720Y-88035846D01*
X112598720Y-88035846D02*
X112598720Y-88178703D01*
X112598720Y-88178703D02*
X112551101Y-88369179D01*
X112551101Y-88369179D02*
X112503482Y-88464417D01*
X112503482Y-88464417D02*
X112408244Y-88559656D01*
X112408244Y-88559656D02*
X112265387Y-88607275D01*
X112265387Y-88607275D02*
X112027292Y-88607275D01*
X113693959Y-87940608D02*
X113932054Y-88607275D01*
X113932054Y-88607275D02*
X114170149Y-87940608D01*
X114551102Y-88607275D02*
X114551102Y-87940608D01*
X114551102Y-87607275D02*
X114503483Y-87654894D01*
X114503483Y-87654894D02*
X114551102Y-87702513D01*
X114551102Y-87702513D02*
X114598721Y-87654894D01*
X114598721Y-87654894D02*
X114551102Y-87607275D01*
X114551102Y-87607275D02*
X114551102Y-87702513D01*
X115455863Y-88607275D02*
X115455863Y-88083465D01*
X115455863Y-88083465D02*
X115408244Y-87988227D01*
X115408244Y-87988227D02*
X115313006Y-87940608D01*
X115313006Y-87940608D02*
X115122530Y-87940608D01*
X115122530Y-87940608D02*
X115027292Y-87988227D01*
X115455863Y-88559656D02*
X115360625Y-88607275D01*
X115360625Y-88607275D02*
X115122530Y-88607275D01*
X115122530Y-88607275D02*
X115027292Y-88559656D01*
X115027292Y-88559656D02*
X114979673Y-88464417D01*
X114979673Y-88464417D02*
X114979673Y-88369179D01*
X114979673Y-88369179D02*
X115027292Y-88273941D01*
X115027292Y-88273941D02*
X115122530Y-88226322D01*
X115122530Y-88226322D02*
X115360625Y-88226322D01*
X115360625Y-88226322D02*
X115455863Y-88178703D01*
X117170149Y-88607275D02*
X116693959Y-88607275D01*
X116693959Y-88607275D02*
X116693959Y-87607275D01*
X118074911Y-88512036D02*
X118027292Y-88559656D01*
X118027292Y-88559656D02*
X117884435Y-88607275D01*
X117884435Y-88607275D02*
X117789197Y-88607275D01*
X117789197Y-88607275D02*
X117646340Y-88559656D01*
X117646340Y-88559656D02*
X117551102Y-88464417D01*
X117551102Y-88464417D02*
X117503483Y-88369179D01*
X117503483Y-88369179D02*
X117455864Y-88178703D01*
X117455864Y-88178703D02*
X117455864Y-88035846D01*
X117455864Y-88035846D02*
X117503483Y-87845370D01*
X117503483Y-87845370D02*
X117551102Y-87750132D01*
X117551102Y-87750132D02*
X117646340Y-87654894D01*
X117646340Y-87654894D02*
X117789197Y-87607275D01*
X117789197Y-87607275D02*
X117884435Y-87607275D01*
X117884435Y-87607275D02*
X118027292Y-87654894D01*
X118027292Y-87654894D02*
X118074911Y-87702513D01*
X118503483Y-88607275D02*
X118503483Y-87607275D01*
X118503483Y-87607275D02*
X118741578Y-87607275D01*
X118741578Y-87607275D02*
X118884435Y-87654894D01*
X118884435Y-87654894D02*
X118979673Y-87750132D01*
X118979673Y-87750132D02*
X119027292Y-87845370D01*
X119027292Y-87845370D02*
X119074911Y-88035846D01*
X119074911Y-88035846D02*
X119074911Y-88178703D01*
X119074911Y-88178703D02*
X119027292Y-88369179D01*
X119027292Y-88369179D02*
X118979673Y-88464417D01*
X118979673Y-88464417D02*
X118884435Y-88559656D01*
X118884435Y-88559656D02*
X118741578Y-88607275D01*
X118741578Y-88607275D02*
X118503483Y-88607275D01*
X120265388Y-88607275D02*
X120265388Y-87607275D01*
X120693959Y-88607275D02*
X120693959Y-88083465D01*
X120693959Y-88083465D02*
X120646340Y-87988227D01*
X120646340Y-87988227D02*
X120551102Y-87940608D01*
X120551102Y-87940608D02*
X120408245Y-87940608D01*
X120408245Y-87940608D02*
X120313007Y-87988227D01*
X120313007Y-87988227D02*
X120265388Y-88035846D01*
X121313007Y-88607275D02*
X121217769Y-88559656D01*
X121217769Y-88559656D02*
X121170150Y-88512036D01*
X121170150Y-88512036D02*
X121122531Y-88416798D01*
X121122531Y-88416798D02*
X121122531Y-88131084D01*
X121122531Y-88131084D02*
X121170150Y-88035846D01*
X121170150Y-88035846D02*
X121217769Y-87988227D01*
X121217769Y-87988227D02*
X121313007Y-87940608D01*
X121313007Y-87940608D02*
X121455864Y-87940608D01*
X121455864Y-87940608D02*
X121551102Y-87988227D01*
X121551102Y-87988227D02*
X121598721Y-88035846D01*
X121598721Y-88035846D02*
X121646340Y-88131084D01*
X121646340Y-88131084D02*
X121646340Y-88416798D01*
X121646340Y-88416798D02*
X121598721Y-88512036D01*
X121598721Y-88512036D02*
X121551102Y-88559656D01*
X121551102Y-88559656D02*
X121455864Y-88607275D01*
X121455864Y-88607275D02*
X121313007Y-88607275D01*
X122503483Y-87940608D02*
X122503483Y-88607275D01*
X122074912Y-87940608D02*
X122074912Y-88464417D01*
X122074912Y-88464417D02*
X122122531Y-88559656D01*
X122122531Y-88559656D02*
X122217769Y-88607275D01*
X122217769Y-88607275D02*
X122360626Y-88607275D01*
X122360626Y-88607275D02*
X122455864Y-88559656D01*
X122455864Y-88559656D02*
X122503483Y-88512036D01*
X122932055Y-88559656D02*
X123027293Y-88607275D01*
X123027293Y-88607275D02*
X123217769Y-88607275D01*
X123217769Y-88607275D02*
X123313007Y-88559656D01*
X123313007Y-88559656D02*
X123360626Y-88464417D01*
X123360626Y-88464417D02*
X123360626Y-88416798D01*
X123360626Y-88416798D02*
X123313007Y-88321560D01*
X123313007Y-88321560D02*
X123217769Y-88273941D01*
X123217769Y-88273941D02*
X123074912Y-88273941D01*
X123074912Y-88273941D02*
X122979674Y-88226322D01*
X122979674Y-88226322D02*
X122932055Y-88131084D01*
X122932055Y-88131084D02*
X122932055Y-88083465D01*
X122932055Y-88083465D02*
X122979674Y-87988227D01*
X122979674Y-87988227D02*
X123074912Y-87940608D01*
X123074912Y-87940608D02*
X123217769Y-87940608D01*
X123217769Y-87940608D02*
X123313007Y-87988227D01*
X123789198Y-88607275D02*
X123789198Y-87940608D01*
X123789198Y-87607275D02*
X123741579Y-87654894D01*
X123741579Y-87654894D02*
X123789198Y-87702513D01*
X123789198Y-87702513D02*
X123836817Y-87654894D01*
X123836817Y-87654894D02*
X123789198Y-87607275D01*
X123789198Y-87607275D02*
X123789198Y-87702513D01*
X124265388Y-87940608D02*
X124265388Y-88607275D01*
X124265388Y-88035846D02*
X124313007Y-87988227D01*
X124313007Y-87988227D02*
X124408245Y-87940608D01*
X124408245Y-87940608D02*
X124551102Y-87940608D01*
X124551102Y-87940608D02*
X124646340Y-87988227D01*
X124646340Y-87988227D02*
X124693959Y-88083465D01*
X124693959Y-88083465D02*
X124693959Y-88607275D01*
X125598721Y-87940608D02*
X125598721Y-88750132D01*
X125598721Y-88750132D02*
X125551102Y-88845370D01*
X125551102Y-88845370D02*
X125503483Y-88892989D01*
X125503483Y-88892989D02*
X125408245Y-88940608D01*
X125408245Y-88940608D02*
X125265388Y-88940608D01*
X125265388Y-88940608D02*
X125170150Y-88892989D01*
X125598721Y-88559656D02*
X125503483Y-88607275D01*
X125503483Y-88607275D02*
X125313007Y-88607275D01*
X125313007Y-88607275D02*
X125217769Y-88559656D01*
X125217769Y-88559656D02*
X125170150Y-88512036D01*
X125170150Y-88512036D02*
X125122531Y-88416798D01*
X125122531Y-88416798D02*
X125122531Y-88131084D01*
X125122531Y-88131084D02*
X125170150Y-88035846D01*
X125170150Y-88035846D02*
X125217769Y-87988227D01*
X125217769Y-87988227D02*
X125313007Y-87940608D01*
X125313007Y-87940608D02*
X125503483Y-87940608D01*
X125503483Y-87940608D02*
X125598721Y-87988227D01*
X110741578Y-89550552D02*
X109979673Y-89836266D01*
X109979673Y-89836266D02*
X110741578Y-90121980D01*
X111217768Y-89836266D02*
X111979673Y-89836266D01*
X112455863Y-89836266D02*
X113217768Y-89836266D01*
X113693958Y-89836266D02*
X114455863Y-89836266D01*
X114932053Y-89836266D02*
X115693958Y-89836266D01*
X116170148Y-89836266D02*
X116932053Y-89836266D01*
X117408243Y-89836266D02*
X118170148Y-89836266D01*
X118646338Y-89836266D02*
X119408243Y-89836266D01*
X119884433Y-89836266D02*
X120646338Y-89836266D01*
X121122528Y-89836266D02*
X121884433Y-89836266D01*
X122360623Y-89836266D02*
X123122528Y-89836266D01*
D14*
X64213668Y-86275828D02*
X65213668Y-86275828D01*
X65213668Y-86275828D02*
X65213668Y-86656780D01*
X65213668Y-86656780D02*
X65166049Y-86752018D01*
X65166049Y-86752018D02*
X65118430Y-86799637D01*
X65118430Y-86799637D02*
X65023192Y-86847256D01*
X65023192Y-86847256D02*
X64880335Y-86847256D01*
X64880335Y-86847256D02*
X64785097Y-86799637D01*
X64785097Y-86799637D02*
X64737478Y-86752018D01*
X64737478Y-86752018D02*
X64689859Y-86656780D01*
X64689859Y-86656780D02*
X64689859Y-86275828D01*
X64213668Y-87275828D02*
X64880335Y-87275828D01*
X65213668Y-87275828D02*
X65166049Y-87228209D01*
X65166049Y-87228209D02*
X65118430Y-87275828D01*
X65118430Y-87275828D02*
X65166049Y-87323447D01*
X65166049Y-87323447D02*
X65213668Y-87275828D01*
X65213668Y-87275828D02*
X65118430Y-87275828D01*
X64261288Y-88180589D02*
X64213668Y-88085351D01*
X64213668Y-88085351D02*
X64213668Y-87894875D01*
X64213668Y-87894875D02*
X64261288Y-87799637D01*
X64261288Y-87799637D02*
X64308907Y-87752018D01*
X64308907Y-87752018D02*
X64404145Y-87704399D01*
X64404145Y-87704399D02*
X64689859Y-87704399D01*
X64689859Y-87704399D02*
X64785097Y-87752018D01*
X64785097Y-87752018D02*
X64832716Y-87799637D01*
X64832716Y-87799637D02*
X64880335Y-87894875D01*
X64880335Y-87894875D02*
X64880335Y-88085351D01*
X64880335Y-88085351D02*
X64832716Y-88180589D01*
X64213668Y-88752018D02*
X64261288Y-88656780D01*
X64261288Y-88656780D02*
X64308907Y-88609161D01*
X64308907Y-88609161D02*
X64404145Y-88561542D01*
X64404145Y-88561542D02*
X64689859Y-88561542D01*
X64689859Y-88561542D02*
X64785097Y-88609161D01*
X64785097Y-88609161D02*
X64832716Y-88656780D01*
X64832716Y-88656780D02*
X64880335Y-88752018D01*
X64880335Y-88752018D02*
X64880335Y-88894875D01*
X64880335Y-88894875D02*
X64832716Y-88990113D01*
X64832716Y-88990113D02*
X64785097Y-89037732D01*
X64785097Y-89037732D02*
X64689859Y-89085351D01*
X64689859Y-89085351D02*
X64404145Y-89085351D01*
X64404145Y-89085351D02*
X64308907Y-89037732D01*
X64308907Y-89037732D02*
X64261288Y-88990113D01*
X64261288Y-88990113D02*
X64213668Y-88894875D01*
X64213668Y-88894875D02*
X64213668Y-88752018D01*
X64594621Y-89513923D02*
X64594621Y-90275828D01*
X64213668Y-90752018D02*
X65213668Y-90752018D01*
X65213668Y-90752018D02*
X64499383Y-91085351D01*
X64499383Y-91085351D02*
X65213668Y-91418684D01*
X65213668Y-91418684D02*
X64213668Y-91418684D01*
X64213668Y-91894875D02*
X64880335Y-91894875D01*
X65213668Y-91894875D02*
X65166049Y-91847256D01*
X65166049Y-91847256D02*
X65118430Y-91894875D01*
X65118430Y-91894875D02*
X65166049Y-91942494D01*
X65166049Y-91942494D02*
X65213668Y-91894875D01*
X65213668Y-91894875D02*
X65118430Y-91894875D01*
X64880335Y-92371065D02*
X64213668Y-92371065D01*
X64785097Y-92371065D02*
X64832716Y-92418684D01*
X64832716Y-92418684D02*
X64880335Y-92513922D01*
X64880335Y-92513922D02*
X64880335Y-92656779D01*
X64880335Y-92656779D02*
X64832716Y-92752017D01*
X64832716Y-92752017D02*
X64737478Y-92799636D01*
X64737478Y-92799636D02*
X64213668Y-92799636D01*
X64213668Y-93275827D02*
X64880335Y-93275827D01*
X65213668Y-93275827D02*
X65166049Y-93228208D01*
X65166049Y-93228208D02*
X65118430Y-93275827D01*
X65118430Y-93275827D02*
X65166049Y-93323446D01*
X65166049Y-93323446D02*
X65213668Y-93275827D01*
X65213668Y-93275827D02*
X65118430Y-93275827D01*
X64261288Y-94466303D02*
X64213668Y-94609160D01*
X64213668Y-94609160D02*
X64213668Y-94847255D01*
X64213668Y-94847255D02*
X64261288Y-94942493D01*
X64261288Y-94942493D02*
X64308907Y-94990112D01*
X64308907Y-94990112D02*
X64404145Y-95037731D01*
X64404145Y-95037731D02*
X64499383Y-95037731D01*
X64499383Y-95037731D02*
X64594621Y-94990112D01*
X64594621Y-94990112D02*
X64642240Y-94942493D01*
X64642240Y-94942493D02*
X64689859Y-94847255D01*
X64689859Y-94847255D02*
X64737478Y-94656779D01*
X64737478Y-94656779D02*
X64785097Y-94561541D01*
X64785097Y-94561541D02*
X64832716Y-94513922D01*
X64832716Y-94513922D02*
X64927954Y-94466303D01*
X64927954Y-94466303D02*
X65023192Y-94466303D01*
X65023192Y-94466303D02*
X65118430Y-94513922D01*
X65118430Y-94513922D02*
X65166049Y-94561541D01*
X65166049Y-94561541D02*
X65213668Y-94656779D01*
X65213668Y-94656779D02*
X65213668Y-94894874D01*
X65213668Y-94894874D02*
X65166049Y-95037731D01*
X64213668Y-95466303D02*
X64880335Y-95466303D01*
X64785097Y-95466303D02*
X64832716Y-95513922D01*
X64832716Y-95513922D02*
X64880335Y-95609160D01*
X64880335Y-95609160D02*
X64880335Y-95752017D01*
X64880335Y-95752017D02*
X64832716Y-95847255D01*
X64832716Y-95847255D02*
X64737478Y-95894874D01*
X64737478Y-95894874D02*
X64213668Y-95894874D01*
X64737478Y-95894874D02*
X64832716Y-95942493D01*
X64832716Y-95942493D02*
X64880335Y-96037731D01*
X64880335Y-96037731D02*
X64880335Y-96180588D01*
X64880335Y-96180588D02*
X64832716Y-96275827D01*
X64832716Y-96275827D02*
X64737478Y-96323446D01*
X64737478Y-96323446D02*
X64213668Y-96323446D01*
X64213668Y-97228207D02*
X64737478Y-97228207D01*
X64737478Y-97228207D02*
X64832716Y-97180588D01*
X64832716Y-97180588D02*
X64880335Y-97085350D01*
X64880335Y-97085350D02*
X64880335Y-96894874D01*
X64880335Y-96894874D02*
X64832716Y-96799636D01*
X64261288Y-97228207D02*
X64213668Y-97132969D01*
X64213668Y-97132969D02*
X64213668Y-96894874D01*
X64213668Y-96894874D02*
X64261288Y-96799636D01*
X64261288Y-96799636D02*
X64356526Y-96752017D01*
X64356526Y-96752017D02*
X64451764Y-96752017D01*
X64451764Y-96752017D02*
X64547002Y-96799636D01*
X64547002Y-96799636D02*
X64594621Y-96894874D01*
X64594621Y-96894874D02*
X64594621Y-97132969D01*
X64594621Y-97132969D02*
X64642240Y-97228207D01*
X64213668Y-97704398D02*
X64880335Y-97704398D01*
X64689859Y-97704398D02*
X64785097Y-97752017D01*
X64785097Y-97752017D02*
X64832716Y-97799636D01*
X64832716Y-97799636D02*
X64880335Y-97894874D01*
X64880335Y-97894874D02*
X64880335Y-97990112D01*
X64880335Y-98180589D02*
X64880335Y-98561541D01*
X65213668Y-98323446D02*
X64356526Y-98323446D01*
X64356526Y-98323446D02*
X64261288Y-98371065D01*
X64261288Y-98371065D02*
X64213668Y-98466303D01*
X64213668Y-98466303D02*
X64213668Y-98561541D01*
X64261288Y-99323446D02*
X64213668Y-99228208D01*
X64213668Y-99228208D02*
X64213668Y-99037732D01*
X64213668Y-99037732D02*
X64261288Y-98942494D01*
X64261288Y-98942494D02*
X64308907Y-98894875D01*
X64308907Y-98894875D02*
X64404145Y-98847256D01*
X64404145Y-98847256D02*
X64689859Y-98847256D01*
X64689859Y-98847256D02*
X64785097Y-98894875D01*
X64785097Y-98894875D02*
X64832716Y-98942494D01*
X64832716Y-98942494D02*
X64880335Y-99037732D01*
X64880335Y-99037732D02*
X64880335Y-99228208D01*
X64880335Y-99228208D02*
X64832716Y-99323446D01*
X64213668Y-100180589D02*
X64737478Y-100180589D01*
X64737478Y-100180589D02*
X64832716Y-100132970D01*
X64832716Y-100132970D02*
X64880335Y-100037732D01*
X64880335Y-100037732D02*
X64880335Y-99847256D01*
X64880335Y-99847256D02*
X64832716Y-99752018D01*
X64261288Y-100180589D02*
X64213668Y-100085351D01*
X64213668Y-100085351D02*
X64213668Y-99847256D01*
X64213668Y-99847256D02*
X64261288Y-99752018D01*
X64261288Y-99752018D02*
X64356526Y-99704399D01*
X64356526Y-99704399D02*
X64451764Y-99704399D01*
X64451764Y-99704399D02*
X64547002Y-99752018D01*
X64547002Y-99752018D02*
X64594621Y-99847256D01*
X64594621Y-99847256D02*
X64594621Y-100085351D01*
X64594621Y-100085351D02*
X64642240Y-100180589D01*
X64213668Y-100656780D02*
X64880335Y-100656780D01*
X64689859Y-100656780D02*
X64785097Y-100704399D01*
X64785097Y-100704399D02*
X64832716Y-100752018D01*
X64832716Y-100752018D02*
X64880335Y-100847256D01*
X64880335Y-100847256D02*
X64880335Y-100942494D01*
X64213668Y-101704399D02*
X65213668Y-101704399D01*
X64261288Y-101704399D02*
X64213668Y-101609161D01*
X64213668Y-101609161D02*
X64213668Y-101418685D01*
X64213668Y-101418685D02*
X64261288Y-101323447D01*
X64261288Y-101323447D02*
X64308907Y-101275828D01*
X64308907Y-101275828D02*
X64404145Y-101228209D01*
X64404145Y-101228209D02*
X64689859Y-101228209D01*
X64689859Y-101228209D02*
X64785097Y-101275828D01*
X64785097Y-101275828D02*
X64832716Y-101323447D01*
X64832716Y-101323447D02*
X64880335Y-101418685D01*
X64880335Y-101418685D02*
X64880335Y-101609161D01*
X64880335Y-101609161D02*
X64832716Y-101704399D01*
X64213668Y-102942495D02*
X65213668Y-102942495D01*
X65213668Y-102942495D02*
X65213668Y-103180590D01*
X65213668Y-103180590D02*
X65166049Y-103323447D01*
X65166049Y-103323447D02*
X65070811Y-103418685D01*
X65070811Y-103418685D02*
X64975573Y-103466304D01*
X64975573Y-103466304D02*
X64785097Y-103513923D01*
X64785097Y-103513923D02*
X64642240Y-103513923D01*
X64642240Y-103513923D02*
X64451764Y-103466304D01*
X64451764Y-103466304D02*
X64356526Y-103418685D01*
X64356526Y-103418685D02*
X64261288Y-103323447D01*
X64261288Y-103323447D02*
X64213668Y-103180590D01*
X64213668Y-103180590D02*
X64213668Y-102942495D01*
X64213668Y-103942495D02*
X64880335Y-103942495D01*
X65213668Y-103942495D02*
X65166049Y-103894876D01*
X65166049Y-103894876D02*
X65118430Y-103942495D01*
X65118430Y-103942495D02*
X65166049Y-103990114D01*
X65166049Y-103990114D02*
X65213668Y-103942495D01*
X65213668Y-103942495D02*
X65118430Y-103942495D01*
X64261288Y-104371066D02*
X64213668Y-104466304D01*
X64213668Y-104466304D02*
X64213668Y-104656780D01*
X64213668Y-104656780D02*
X64261288Y-104752018D01*
X64261288Y-104752018D02*
X64356526Y-104799637D01*
X64356526Y-104799637D02*
X64404145Y-104799637D01*
X64404145Y-104799637D02*
X64499383Y-104752018D01*
X64499383Y-104752018D02*
X64547002Y-104656780D01*
X64547002Y-104656780D02*
X64547002Y-104513923D01*
X64547002Y-104513923D02*
X64594621Y-104418685D01*
X64594621Y-104418685D02*
X64689859Y-104371066D01*
X64689859Y-104371066D02*
X64737478Y-104371066D01*
X64737478Y-104371066D02*
X64832716Y-104418685D01*
X64832716Y-104418685D02*
X64880335Y-104513923D01*
X64880335Y-104513923D02*
X64880335Y-104656780D01*
X64880335Y-104656780D02*
X64832716Y-104752018D01*
X64880335Y-105228209D02*
X63880335Y-105228209D01*
X64832716Y-105228209D02*
X64880335Y-105323447D01*
X64880335Y-105323447D02*
X64880335Y-105513923D01*
X64880335Y-105513923D02*
X64832716Y-105609161D01*
X64832716Y-105609161D02*
X64785097Y-105656780D01*
X64785097Y-105656780D02*
X64689859Y-105704399D01*
X64689859Y-105704399D02*
X64404145Y-105704399D01*
X64404145Y-105704399D02*
X64308907Y-105656780D01*
X64308907Y-105656780D02*
X64261288Y-105609161D01*
X64261288Y-105609161D02*
X64213668Y-105513923D01*
X64213668Y-105513923D02*
X64213668Y-105323447D01*
X64213668Y-105323447D02*
X64261288Y-105228209D01*
X64213668Y-106275828D02*
X64261288Y-106180590D01*
X64261288Y-106180590D02*
X64356526Y-106132971D01*
X64356526Y-106132971D02*
X65213668Y-106132971D01*
X64213668Y-107085352D02*
X64737478Y-107085352D01*
X64737478Y-107085352D02*
X64832716Y-107037733D01*
X64832716Y-107037733D02*
X64880335Y-106942495D01*
X64880335Y-106942495D02*
X64880335Y-106752019D01*
X64880335Y-106752019D02*
X64832716Y-106656781D01*
X64261288Y-107085352D02*
X64213668Y-106990114D01*
X64213668Y-106990114D02*
X64213668Y-106752019D01*
X64213668Y-106752019D02*
X64261288Y-106656781D01*
X64261288Y-106656781D02*
X64356526Y-106609162D01*
X64356526Y-106609162D02*
X64451764Y-106609162D01*
X64451764Y-106609162D02*
X64547002Y-106656781D01*
X64547002Y-106656781D02*
X64594621Y-106752019D01*
X64594621Y-106752019D02*
X64594621Y-106990114D01*
X64594621Y-106990114D02*
X64642240Y-107085352D01*
X64880335Y-107466305D02*
X64213668Y-107704400D01*
X64880335Y-107942495D02*
X64213668Y-107704400D01*
X64213668Y-107704400D02*
X63975573Y-107609162D01*
X63975573Y-107609162D02*
X63927954Y-107561543D01*
X63927954Y-107561543D02*
X63880335Y-107466305D01*
X64213668Y-109085353D02*
X65213668Y-109085353D01*
X64737478Y-109085353D02*
X64737478Y-109656781D01*
X64213668Y-109656781D02*
X65213668Y-109656781D01*
X64213668Y-110561543D02*
X64737478Y-110561543D01*
X64737478Y-110561543D02*
X64832716Y-110513924D01*
X64832716Y-110513924D02*
X64880335Y-110418686D01*
X64880335Y-110418686D02*
X64880335Y-110228210D01*
X64880335Y-110228210D02*
X64832716Y-110132972D01*
X64261288Y-110561543D02*
X64213668Y-110466305D01*
X64213668Y-110466305D02*
X64213668Y-110228210D01*
X64213668Y-110228210D02*
X64261288Y-110132972D01*
X64261288Y-110132972D02*
X64356526Y-110085353D01*
X64356526Y-110085353D02*
X64451764Y-110085353D01*
X64451764Y-110085353D02*
X64547002Y-110132972D01*
X64547002Y-110132972D02*
X64594621Y-110228210D01*
X64594621Y-110228210D02*
X64594621Y-110466305D01*
X64594621Y-110466305D02*
X64642240Y-110561543D01*
X64880335Y-110894877D02*
X64880335Y-111275829D01*
X65213668Y-111037734D02*
X64356526Y-111037734D01*
X64356526Y-111037734D02*
X64261288Y-111085353D01*
X64261288Y-111085353D02*
X64213668Y-111180591D01*
X64213668Y-111180591D02*
X64213668Y-111275829D01*
X63508486Y-90442494D02*
X63556105Y-90490113D01*
X63556105Y-90490113D02*
X63603724Y-90585351D01*
X63603724Y-90585351D02*
X63603724Y-90823446D01*
X63603724Y-90823446D02*
X63556105Y-90918684D01*
X63556105Y-90918684D02*
X63508486Y-90966303D01*
X63508486Y-90966303D02*
X63413248Y-91013922D01*
X63413248Y-91013922D02*
X63318010Y-91013922D01*
X63318010Y-91013922D02*
X63175153Y-90966303D01*
X63175153Y-90966303D02*
X62603724Y-90394875D01*
X62603724Y-90394875D02*
X62603724Y-91013922D01*
X63603724Y-91632970D02*
X63603724Y-91728208D01*
X63603724Y-91728208D02*
X63556105Y-91823446D01*
X63556105Y-91823446D02*
X63508486Y-91871065D01*
X63508486Y-91871065D02*
X63413248Y-91918684D01*
X63413248Y-91918684D02*
X63222772Y-91966303D01*
X63222772Y-91966303D02*
X62984677Y-91966303D01*
X62984677Y-91966303D02*
X62794201Y-91918684D01*
X62794201Y-91918684D02*
X62698963Y-91871065D01*
X62698963Y-91871065D02*
X62651344Y-91823446D01*
X62651344Y-91823446D02*
X62603724Y-91728208D01*
X62603724Y-91728208D02*
X62603724Y-91632970D01*
X62603724Y-91632970D02*
X62651344Y-91537732D01*
X62651344Y-91537732D02*
X62698963Y-91490113D01*
X62698963Y-91490113D02*
X62794201Y-91442494D01*
X62794201Y-91442494D02*
X62984677Y-91394875D01*
X62984677Y-91394875D02*
X63222772Y-91394875D01*
X63222772Y-91394875D02*
X63413248Y-91442494D01*
X63413248Y-91442494D02*
X63508486Y-91490113D01*
X63508486Y-91490113D02*
X63556105Y-91537732D01*
X63556105Y-91537732D02*
X63603724Y-91632970D01*
X63508486Y-92347256D02*
X63556105Y-92394875D01*
X63556105Y-92394875D02*
X63603724Y-92490113D01*
X63603724Y-92490113D02*
X63603724Y-92728208D01*
X63603724Y-92728208D02*
X63556105Y-92823446D01*
X63556105Y-92823446D02*
X63508486Y-92871065D01*
X63508486Y-92871065D02*
X63413248Y-92918684D01*
X63413248Y-92918684D02*
X63318010Y-92918684D01*
X63318010Y-92918684D02*
X63175153Y-92871065D01*
X63175153Y-92871065D02*
X62603724Y-92299637D01*
X62603724Y-92299637D02*
X62603724Y-92918684D01*
X63603724Y-93775827D02*
X63603724Y-93585351D01*
X63603724Y-93585351D02*
X63556105Y-93490113D01*
X63556105Y-93490113D02*
X63508486Y-93442494D01*
X63508486Y-93442494D02*
X63365629Y-93347256D01*
X63365629Y-93347256D02*
X63175153Y-93299637D01*
X63175153Y-93299637D02*
X62794201Y-93299637D01*
X62794201Y-93299637D02*
X62698963Y-93347256D01*
X62698963Y-93347256D02*
X62651344Y-93394875D01*
X62651344Y-93394875D02*
X62603724Y-93490113D01*
X62603724Y-93490113D02*
X62603724Y-93680589D01*
X62603724Y-93680589D02*
X62651344Y-93775827D01*
X62651344Y-93775827D02*
X62698963Y-93823446D01*
X62698963Y-93823446D02*
X62794201Y-93871065D01*
X62794201Y-93871065D02*
X63032296Y-93871065D01*
X63032296Y-93871065D02*
X63127534Y-93823446D01*
X63127534Y-93823446D02*
X63175153Y-93775827D01*
X63175153Y-93775827D02*
X63222772Y-93680589D01*
X63222772Y-93680589D02*
X63222772Y-93490113D01*
X63222772Y-93490113D02*
X63175153Y-93394875D01*
X63175153Y-93394875D02*
X63127534Y-93347256D01*
X63127534Y-93347256D02*
X63032296Y-93299637D01*
X62651344Y-95013923D02*
X62603724Y-95156780D01*
X62603724Y-95156780D02*
X62603724Y-95394875D01*
X62603724Y-95394875D02*
X62651344Y-95490113D01*
X62651344Y-95490113D02*
X62698963Y-95537732D01*
X62698963Y-95537732D02*
X62794201Y-95585351D01*
X62794201Y-95585351D02*
X62889439Y-95585351D01*
X62889439Y-95585351D02*
X62984677Y-95537732D01*
X62984677Y-95537732D02*
X63032296Y-95490113D01*
X63032296Y-95490113D02*
X63079915Y-95394875D01*
X63079915Y-95394875D02*
X63127534Y-95204399D01*
X63127534Y-95204399D02*
X63175153Y-95109161D01*
X63175153Y-95109161D02*
X63222772Y-95061542D01*
X63222772Y-95061542D02*
X63318010Y-95013923D01*
X63318010Y-95013923D02*
X63413248Y-95013923D01*
X63413248Y-95013923D02*
X63508486Y-95061542D01*
X63508486Y-95061542D02*
X63556105Y-95109161D01*
X63556105Y-95109161D02*
X63603724Y-95204399D01*
X63603724Y-95204399D02*
X63603724Y-95442494D01*
X63603724Y-95442494D02*
X63556105Y-95585351D01*
X63270391Y-95871066D02*
X63270391Y-96252018D01*
X63603724Y-96013923D02*
X62746582Y-96013923D01*
X62746582Y-96013923D02*
X62651344Y-96061542D01*
X62651344Y-96061542D02*
X62603724Y-96156780D01*
X62603724Y-96156780D02*
X62603724Y-96252018D01*
X62651344Y-96966304D02*
X62603724Y-96871066D01*
X62603724Y-96871066D02*
X62603724Y-96680590D01*
X62603724Y-96680590D02*
X62651344Y-96585352D01*
X62651344Y-96585352D02*
X62746582Y-96537733D01*
X62746582Y-96537733D02*
X63127534Y-96537733D01*
X63127534Y-96537733D02*
X63222772Y-96585352D01*
X63222772Y-96585352D02*
X63270391Y-96680590D01*
X63270391Y-96680590D02*
X63270391Y-96871066D01*
X63270391Y-96871066D02*
X63222772Y-96966304D01*
X63222772Y-96966304D02*
X63127534Y-97013923D01*
X63127534Y-97013923D02*
X63032296Y-97013923D01*
X63032296Y-97013923D02*
X62937058Y-96537733D01*
X63270391Y-97442495D02*
X62270391Y-97442495D01*
X63222772Y-97442495D02*
X63270391Y-97537733D01*
X63270391Y-97537733D02*
X63270391Y-97728209D01*
X63270391Y-97728209D02*
X63222772Y-97823447D01*
X63222772Y-97823447D02*
X63175153Y-97871066D01*
X63175153Y-97871066D02*
X63079915Y-97918685D01*
X63079915Y-97918685D02*
X62794201Y-97918685D01*
X62794201Y-97918685D02*
X62698963Y-97871066D01*
X62698963Y-97871066D02*
X62651344Y-97823447D01*
X62651344Y-97823447D02*
X62603724Y-97728209D01*
X62603724Y-97728209D02*
X62603724Y-97537733D01*
X62603724Y-97537733D02*
X62651344Y-97442495D01*
X62603724Y-98347257D02*
X63603724Y-98347257D01*
X62603724Y-98775828D02*
X63127534Y-98775828D01*
X63127534Y-98775828D02*
X63222772Y-98728209D01*
X63222772Y-98728209D02*
X63270391Y-98632971D01*
X63270391Y-98632971D02*
X63270391Y-98490114D01*
X63270391Y-98490114D02*
X63222772Y-98394876D01*
X63222772Y-98394876D02*
X63175153Y-98347257D01*
X62651344Y-99632971D02*
X62603724Y-99537733D01*
X62603724Y-99537733D02*
X62603724Y-99347257D01*
X62603724Y-99347257D02*
X62651344Y-99252019D01*
X62651344Y-99252019D02*
X62746582Y-99204400D01*
X62746582Y-99204400D02*
X63127534Y-99204400D01*
X63127534Y-99204400D02*
X63222772Y-99252019D01*
X63222772Y-99252019D02*
X63270391Y-99347257D01*
X63270391Y-99347257D02*
X63270391Y-99537733D01*
X63270391Y-99537733D02*
X63222772Y-99632971D01*
X63222772Y-99632971D02*
X63127534Y-99680590D01*
X63127534Y-99680590D02*
X63032296Y-99680590D01*
X63032296Y-99680590D02*
X62937058Y-99204400D01*
X63270391Y-100109162D02*
X62603724Y-100109162D01*
X63175153Y-100109162D02*
X63222772Y-100156781D01*
X63222772Y-100156781D02*
X63270391Y-100252019D01*
X63270391Y-100252019D02*
X63270391Y-100394876D01*
X63270391Y-100394876D02*
X63222772Y-100490114D01*
X63222772Y-100490114D02*
X63127534Y-100537733D01*
X63127534Y-100537733D02*
X62603724Y-100537733D01*
X62603724Y-102347257D02*
X63079915Y-102013924D01*
X62603724Y-101775829D02*
X63603724Y-101775829D01*
X63603724Y-101775829D02*
X63603724Y-102156781D01*
X63603724Y-102156781D02*
X63556105Y-102252019D01*
X63556105Y-102252019D02*
X63508486Y-102299638D01*
X63508486Y-102299638D02*
X63413248Y-102347257D01*
X63413248Y-102347257D02*
X63270391Y-102347257D01*
X63270391Y-102347257D02*
X63175153Y-102299638D01*
X63175153Y-102299638D02*
X63127534Y-102252019D01*
X63127534Y-102252019D02*
X63079915Y-102156781D01*
X63079915Y-102156781D02*
X63079915Y-101775829D01*
X62603724Y-102918686D02*
X62651344Y-102823448D01*
X62651344Y-102823448D02*
X62698963Y-102775829D01*
X62698963Y-102775829D02*
X62794201Y-102728210D01*
X62794201Y-102728210D02*
X63079915Y-102728210D01*
X63079915Y-102728210D02*
X63175153Y-102775829D01*
X63175153Y-102775829D02*
X63222772Y-102823448D01*
X63222772Y-102823448D02*
X63270391Y-102918686D01*
X63270391Y-102918686D02*
X63270391Y-103061543D01*
X63270391Y-103061543D02*
X63222772Y-103156781D01*
X63222772Y-103156781D02*
X63175153Y-103204400D01*
X63175153Y-103204400D02*
X63079915Y-103252019D01*
X63079915Y-103252019D02*
X62794201Y-103252019D01*
X62794201Y-103252019D02*
X62698963Y-103204400D01*
X62698963Y-103204400D02*
X62651344Y-103156781D01*
X62651344Y-103156781D02*
X62603724Y-103061543D01*
X62603724Y-103061543D02*
X62603724Y-102918686D01*
X63270391Y-103537734D02*
X63270391Y-103918686D01*
X63603724Y-103680591D02*
X62746582Y-103680591D01*
X62746582Y-103680591D02*
X62651344Y-103728210D01*
X62651344Y-103728210D02*
X62603724Y-103823448D01*
X62603724Y-103823448D02*
X62603724Y-103918686D01*
X62603724Y-104252020D02*
X63603724Y-104252020D01*
X62603724Y-104680591D02*
X63127534Y-104680591D01*
X63127534Y-104680591D02*
X63222772Y-104632972D01*
X63222772Y-104632972D02*
X63270391Y-104537734D01*
X63270391Y-104537734D02*
X63270391Y-104394877D01*
X63270391Y-104394877D02*
X63222772Y-104299639D01*
X63222772Y-104299639D02*
X63175153Y-104252020D01*
X62651344Y-105537734D02*
X62603724Y-105442496D01*
X62603724Y-105442496D02*
X62603724Y-105252020D01*
X62603724Y-105252020D02*
X62651344Y-105156782D01*
X62651344Y-105156782D02*
X62746582Y-105109163D01*
X62746582Y-105109163D02*
X63127534Y-105109163D01*
X63127534Y-105109163D02*
X63222772Y-105156782D01*
X63222772Y-105156782D02*
X63270391Y-105252020D01*
X63270391Y-105252020D02*
X63270391Y-105442496D01*
X63270391Y-105442496D02*
X63222772Y-105537734D01*
X63222772Y-105537734D02*
X63127534Y-105585353D01*
X63127534Y-105585353D02*
X63032296Y-105585353D01*
X63032296Y-105585353D02*
X62937058Y-105109163D01*
X62603724Y-106013925D02*
X63270391Y-106013925D01*
X63079915Y-106013925D02*
X63175153Y-106061544D01*
X63175153Y-106061544D02*
X63222772Y-106109163D01*
X63222772Y-106109163D02*
X63270391Y-106204401D01*
X63270391Y-106204401D02*
X63270391Y-106299639D01*
X63270391Y-106537735D02*
X62603724Y-106775830D01*
X63270391Y-107013925D02*
X62603724Y-106775830D01*
X62603724Y-106775830D02*
X62365629Y-106680592D01*
X62365629Y-106680592D02*
X62318010Y-106632973D01*
X62318010Y-106632973D02*
X62270391Y-106537735D01*
X61660447Y-96561543D02*
X60993780Y-96799638D01*
X60993780Y-96799638D02*
X61660447Y-97037733D01*
X60993780Y-97942495D02*
X60993780Y-97371067D01*
X60993780Y-97656781D02*
X61993780Y-97656781D01*
X61993780Y-97656781D02*
X61850923Y-97561543D01*
X61850923Y-97561543D02*
X61755685Y-97466305D01*
X61755685Y-97466305D02*
X61708066Y-97371067D01*
X61089019Y-98371067D02*
X61041400Y-98418686D01*
X61041400Y-98418686D02*
X60993780Y-98371067D01*
X60993780Y-98371067D02*
X61041400Y-98323448D01*
X61041400Y-98323448D02*
X61089019Y-98371067D01*
X61089019Y-98371067D02*
X60993780Y-98371067D01*
X61993780Y-99037733D02*
X61993780Y-99132971D01*
X61993780Y-99132971D02*
X61946161Y-99228209D01*
X61946161Y-99228209D02*
X61898542Y-99275828D01*
X61898542Y-99275828D02*
X61803304Y-99323447D01*
X61803304Y-99323447D02*
X61612828Y-99371066D01*
X61612828Y-99371066D02*
X61374733Y-99371066D01*
X61374733Y-99371066D02*
X61184257Y-99323447D01*
X61184257Y-99323447D02*
X61089019Y-99275828D01*
X61089019Y-99275828D02*
X61041400Y-99228209D01*
X61041400Y-99228209D02*
X60993780Y-99132971D01*
X60993780Y-99132971D02*
X60993780Y-99037733D01*
X60993780Y-99037733D02*
X61041400Y-98942495D01*
X61041400Y-98942495D02*
X61089019Y-98894876D01*
X61089019Y-98894876D02*
X61184257Y-98847257D01*
X61184257Y-98847257D02*
X61374733Y-98799638D01*
X61374733Y-98799638D02*
X61612828Y-98799638D01*
X61612828Y-98799638D02*
X61803304Y-98847257D01*
X61803304Y-98847257D02*
X61898542Y-98894876D01*
X61898542Y-98894876D02*
X61946161Y-98942495D01*
X61946161Y-98942495D02*
X61993780Y-99037733D01*
X61089019Y-99799638D02*
X61041400Y-99847257D01*
X61041400Y-99847257D02*
X60993780Y-99799638D01*
X60993780Y-99799638D02*
X61041400Y-99752019D01*
X61041400Y-99752019D02*
X61089019Y-99799638D01*
X61089019Y-99799638D02*
X60993780Y-99799638D01*
X60993780Y-100799637D02*
X60993780Y-100228209D01*
X60993780Y-100513923D02*
X61993780Y-100513923D01*
X61993780Y-100513923D02*
X61850923Y-100418685D01*
X61850923Y-100418685D02*
X61755685Y-100323447D01*
X61755685Y-100323447D02*
X61708066Y-100228209D01*
D15*
X83206110Y-123283000D02*
X84348968Y-123283000D01*
X83777539Y-123854428D02*
X83777539Y-122711571D01*
D16*
X78727344Y-101054168D02*
X78794687Y-101188855D01*
X78794687Y-101188855D02*
X78963046Y-101357213D01*
X78963046Y-101357213D02*
X79064061Y-101390885D01*
X79064061Y-101390885D02*
X79131405Y-101390885D01*
X79131405Y-101390885D02*
X79232420Y-101357213D01*
X79232420Y-101357213D02*
X79299764Y-101289870D01*
X79299764Y-101289870D02*
X79333435Y-101188855D01*
X79333435Y-101188855D02*
X79333435Y-101121511D01*
X79333435Y-101121511D02*
X79299764Y-101020496D01*
X79299764Y-101020496D02*
X79198748Y-100852137D01*
X79198748Y-100852137D02*
X79165077Y-100751122D01*
X79165077Y-100751122D02*
X79165077Y-100683778D01*
X79165077Y-100683778D02*
X79198748Y-100582763D01*
X79198748Y-100582763D02*
X79266092Y-100515420D01*
X79266092Y-100515420D02*
X79367107Y-100481748D01*
X79367107Y-100481748D02*
X79434451Y-100481748D01*
X79434451Y-100481748D02*
X79535466Y-100515420D01*
X79535466Y-100515420D02*
X79703825Y-100683778D01*
X79703825Y-100683778D02*
X79771168Y-100818465D01*
X80040542Y-101020496D02*
X79501794Y-101895961D01*
X79501794Y-101895961D02*
X80141557Y-101525572D01*
X80141557Y-101525572D02*
X79771168Y-102165335D01*
X79771168Y-102165335D02*
X80646634Y-101626587D01*
X81252725Y-102232679D02*
X80916008Y-101895961D01*
X80916008Y-101895961D02*
X80545618Y-102199007D01*
X80545618Y-102199007D02*
X80612962Y-102199007D01*
X80612962Y-102199007D02*
X80713977Y-102232679D01*
X80713977Y-102232679D02*
X80882336Y-102401038D01*
X80882336Y-102401038D02*
X80916008Y-102502053D01*
X80916008Y-102502053D02*
X80916008Y-102569396D01*
X80916008Y-102569396D02*
X80882336Y-102670412D01*
X80882336Y-102670412D02*
X80713977Y-102838770D01*
X80713977Y-102838770D02*
X80612962Y-102872442D01*
X80612962Y-102872442D02*
X80545618Y-102872442D01*
X80545618Y-102872442D02*
X80444603Y-102838770D01*
X80444603Y-102838770D02*
X80276244Y-102670412D01*
X80276244Y-102670412D02*
X80242573Y-102569396D01*
X80242573Y-102569396D02*
X80242573Y-102502053D01*
X81724130Y-102704083D02*
X81791473Y-102771427D01*
X81791473Y-102771427D02*
X81825145Y-102872442D01*
X81825145Y-102872442D02*
X81825145Y-102939786D01*
X81825145Y-102939786D02*
X81791473Y-103040801D01*
X81791473Y-103040801D02*
X81690458Y-103209160D01*
X81690458Y-103209160D02*
X81522099Y-103377518D01*
X81522099Y-103377518D02*
X81353740Y-103478534D01*
X81353740Y-103478534D02*
X81252725Y-103512205D01*
X81252725Y-103512205D02*
X81185382Y-103512205D01*
X81185382Y-103512205D02*
X81084366Y-103478534D01*
X81084366Y-103478534D02*
X81017023Y-103411190D01*
X81017023Y-103411190D02*
X80983351Y-103310175D01*
X80983351Y-103310175D02*
X80983351Y-103242831D01*
X80983351Y-103242831D02*
X81017023Y-103141816D01*
X81017023Y-103141816D02*
X81118038Y-102973457D01*
X81118038Y-102973457D02*
X81286397Y-102805099D01*
X81286397Y-102805099D02*
X81454756Y-102704083D01*
X81454756Y-102704083D02*
X81555771Y-102670412D01*
X81555771Y-102670412D02*
X81623114Y-102670412D01*
X81623114Y-102670412D02*
X81724130Y-102704083D01*
X82195534Y-103175488D02*
X82633267Y-103613221D01*
X82633267Y-103613221D02*
X82128191Y-103646893D01*
X82128191Y-103646893D02*
X82229206Y-103747908D01*
X82229206Y-103747908D02*
X82262878Y-103848923D01*
X82262878Y-103848923D02*
X82262878Y-103916267D01*
X82262878Y-103916267D02*
X82229206Y-104017282D01*
X82229206Y-104017282D02*
X82060847Y-104185641D01*
X82060847Y-104185641D02*
X81959832Y-104219312D01*
X81959832Y-104219312D02*
X81892489Y-104219312D01*
X81892489Y-104219312D02*
X81791473Y-104185641D01*
X81791473Y-104185641D02*
X81589443Y-103983610D01*
X81589443Y-103983610D02*
X81555771Y-103882595D01*
X81555771Y-103882595D02*
X81555771Y-103815251D01*
X80184286Y-113977200D02*
X80327143Y-114024819D01*
X80327143Y-114024819D02*
X80565238Y-114024819D01*
X80565238Y-114024819D02*
X80660476Y-113977200D01*
X80660476Y-113977200D02*
X80708095Y-113929580D01*
X80708095Y-113929580D02*
X80755714Y-113834342D01*
X80755714Y-113834342D02*
X80755714Y-113739104D01*
X80755714Y-113739104D02*
X80708095Y-113643866D01*
X80708095Y-113643866D02*
X80660476Y-113596247D01*
X80660476Y-113596247D02*
X80565238Y-113548628D01*
X80565238Y-113548628D02*
X80374762Y-113501009D01*
X80374762Y-113501009D02*
X80279524Y-113453390D01*
X80279524Y-113453390D02*
X80231905Y-113405771D01*
X80231905Y-113405771D02*
X80184286Y-113310533D01*
X80184286Y-113310533D02*
X80184286Y-113215295D01*
X80184286Y-113215295D02*
X80231905Y-113120057D01*
X80231905Y-113120057D02*
X80279524Y-113072438D01*
X80279524Y-113072438D02*
X80374762Y-113024819D01*
X80374762Y-113024819D02*
X80612857Y-113024819D01*
X80612857Y-113024819D02*
X80755714Y-113072438D01*
X81089048Y-113024819D02*
X81327143Y-114024819D01*
X81327143Y-114024819D02*
X81517619Y-113310533D01*
X81517619Y-113310533D02*
X81708095Y-114024819D01*
X81708095Y-114024819D02*
X81946191Y-113024819D01*
X82803333Y-113024819D02*
X82327143Y-113024819D01*
X82327143Y-113024819D02*
X82279524Y-113501009D01*
X82279524Y-113501009D02*
X82327143Y-113453390D01*
X82327143Y-113453390D02*
X82422381Y-113405771D01*
X82422381Y-113405771D02*
X82660476Y-113405771D01*
X82660476Y-113405771D02*
X82755714Y-113453390D01*
X82755714Y-113453390D02*
X82803333Y-113501009D01*
X82803333Y-113501009D02*
X82850952Y-113596247D01*
X82850952Y-113596247D02*
X82850952Y-113834342D01*
X82850952Y-113834342D02*
X82803333Y-113929580D01*
X82803333Y-113929580D02*
X82755714Y-113977200D01*
X82755714Y-113977200D02*
X82660476Y-114024819D01*
X82660476Y-114024819D02*
X82422381Y-114024819D01*
X82422381Y-114024819D02*
X82327143Y-113977200D01*
X82327143Y-113977200D02*
X82279524Y-113929580D01*
X83470000Y-113024819D02*
X83565238Y-113024819D01*
X83565238Y-113024819D02*
X83660476Y-113072438D01*
X83660476Y-113072438D02*
X83708095Y-113120057D01*
X83708095Y-113120057D02*
X83755714Y-113215295D01*
X83755714Y-113215295D02*
X83803333Y-113405771D01*
X83803333Y-113405771D02*
X83803333Y-113643866D01*
X83803333Y-113643866D02*
X83755714Y-113834342D01*
X83755714Y-113834342D02*
X83708095Y-113929580D01*
X83708095Y-113929580D02*
X83660476Y-113977200D01*
X83660476Y-113977200D02*
X83565238Y-114024819D01*
X83565238Y-114024819D02*
X83470000Y-114024819D01*
X83470000Y-114024819D02*
X83374762Y-113977200D01*
X83374762Y-113977200D02*
X83327143Y-113929580D01*
X83327143Y-113929580D02*
X83279524Y-113834342D01*
X83279524Y-113834342D02*
X83231905Y-113643866D01*
X83231905Y-113643866D02*
X83231905Y-113405771D01*
X83231905Y-113405771D02*
X83279524Y-113215295D01*
X83279524Y-113215295D02*
X83327143Y-113120057D01*
X83327143Y-113120057D02*
X83374762Y-113072438D01*
X83374762Y-113072438D02*
X83470000Y-113024819D01*
X84660476Y-113358152D02*
X84660476Y-114024819D01*
X84422381Y-112977200D02*
X84184286Y-113691485D01*
X84184286Y-113691485D02*
X84803333Y-113691485D01*
X69787200Y-102829713D02*
X69834819Y-102686856D01*
X69834819Y-102686856D02*
X69834819Y-102448761D01*
X69834819Y-102448761D02*
X69787200Y-102353523D01*
X69787200Y-102353523D02*
X69739580Y-102305904D01*
X69739580Y-102305904D02*
X69644342Y-102258285D01*
X69644342Y-102258285D02*
X69549104Y-102258285D01*
X69549104Y-102258285D02*
X69453866Y-102305904D01*
X69453866Y-102305904D02*
X69406247Y-102353523D01*
X69406247Y-102353523D02*
X69358628Y-102448761D01*
X69358628Y-102448761D02*
X69311009Y-102639237D01*
X69311009Y-102639237D02*
X69263390Y-102734475D01*
X69263390Y-102734475D02*
X69215771Y-102782094D01*
X69215771Y-102782094D02*
X69120533Y-102829713D01*
X69120533Y-102829713D02*
X69025295Y-102829713D01*
X69025295Y-102829713D02*
X68930057Y-102782094D01*
X68930057Y-102782094D02*
X68882438Y-102734475D01*
X68882438Y-102734475D02*
X68834819Y-102639237D01*
X68834819Y-102639237D02*
X68834819Y-102401142D01*
X68834819Y-102401142D02*
X68882438Y-102258285D01*
X68834819Y-101924951D02*
X69834819Y-101686856D01*
X69834819Y-101686856D02*
X69120533Y-101496380D01*
X69120533Y-101496380D02*
X69834819Y-101305904D01*
X69834819Y-101305904D02*
X68834819Y-101067809D01*
X68834819Y-100210666D02*
X68834819Y-100686856D01*
X68834819Y-100686856D02*
X69311009Y-100734475D01*
X69311009Y-100734475D02*
X69263390Y-100686856D01*
X69263390Y-100686856D02*
X69215771Y-100591618D01*
X69215771Y-100591618D02*
X69215771Y-100353523D01*
X69215771Y-100353523D02*
X69263390Y-100258285D01*
X69263390Y-100258285D02*
X69311009Y-100210666D01*
X69311009Y-100210666D02*
X69406247Y-100163047D01*
X69406247Y-100163047D02*
X69644342Y-100163047D01*
X69644342Y-100163047D02*
X69739580Y-100210666D01*
X69739580Y-100210666D02*
X69787200Y-100258285D01*
X69787200Y-100258285D02*
X69834819Y-100353523D01*
X69834819Y-100353523D02*
X69834819Y-100591618D01*
X69834819Y-100591618D02*
X69787200Y-100686856D01*
X69787200Y-100686856D02*
X69739580Y-100734475D01*
X68834819Y-99543999D02*
X68834819Y-99448761D01*
X68834819Y-99448761D02*
X68882438Y-99353523D01*
X68882438Y-99353523D02*
X68930057Y-99305904D01*
X68930057Y-99305904D02*
X69025295Y-99258285D01*
X69025295Y-99258285D02*
X69215771Y-99210666D01*
X69215771Y-99210666D02*
X69453866Y-99210666D01*
X69453866Y-99210666D02*
X69644342Y-99258285D01*
X69644342Y-99258285D02*
X69739580Y-99305904D01*
X69739580Y-99305904D02*
X69787200Y-99353523D01*
X69787200Y-99353523D02*
X69834819Y-99448761D01*
X69834819Y-99448761D02*
X69834819Y-99543999D01*
X69834819Y-99543999D02*
X69787200Y-99639237D01*
X69787200Y-99639237D02*
X69739580Y-99686856D01*
X69739580Y-99686856D02*
X69644342Y-99734475D01*
X69644342Y-99734475D02*
X69453866Y-99782094D01*
X69453866Y-99782094D02*
X69215771Y-99782094D01*
X69215771Y-99782094D02*
X69025295Y-99734475D01*
X69025295Y-99734475D02*
X68930057Y-99686856D01*
X68930057Y-99686856D02*
X68882438Y-99639237D01*
X68882438Y-99639237D02*
X68834819Y-99543999D01*
X69834819Y-98258285D02*
X69834819Y-98829713D01*
X69834819Y-98543999D02*
X68834819Y-98543999D01*
X68834819Y-98543999D02*
X68977676Y-98639237D01*
X68977676Y-98639237D02*
X69072914Y-98734475D01*
X69072914Y-98734475D02*
X69120533Y-98829713D01*
X90551286Y-103886800D02*
X90694143Y-103934419D01*
X90694143Y-103934419D02*
X90932238Y-103934419D01*
X90932238Y-103934419D02*
X91027476Y-103886800D01*
X91027476Y-103886800D02*
X91075095Y-103839180D01*
X91075095Y-103839180D02*
X91122714Y-103743942D01*
X91122714Y-103743942D02*
X91122714Y-103648704D01*
X91122714Y-103648704D02*
X91075095Y-103553466D01*
X91075095Y-103553466D02*
X91027476Y-103505847D01*
X91027476Y-103505847D02*
X90932238Y-103458228D01*
X90932238Y-103458228D02*
X90741762Y-103410609D01*
X90741762Y-103410609D02*
X90646524Y-103362990D01*
X90646524Y-103362990D02*
X90598905Y-103315371D01*
X90598905Y-103315371D02*
X90551286Y-103220133D01*
X90551286Y-103220133D02*
X90551286Y-103124895D01*
X90551286Y-103124895D02*
X90598905Y-103029657D01*
X90598905Y-103029657D02*
X90646524Y-102982038D01*
X90646524Y-102982038D02*
X90741762Y-102934419D01*
X90741762Y-102934419D02*
X90979857Y-102934419D01*
X90979857Y-102934419D02*
X91122714Y-102982038D01*
X91456048Y-102934419D02*
X91694143Y-103934419D01*
X91694143Y-103934419D02*
X91884619Y-103220133D01*
X91884619Y-103220133D02*
X92075095Y-103934419D01*
X92075095Y-103934419D02*
X92313191Y-102934419D01*
X93170333Y-102934419D02*
X92694143Y-102934419D01*
X92694143Y-102934419D02*
X92646524Y-103410609D01*
X92646524Y-103410609D02*
X92694143Y-103362990D01*
X92694143Y-103362990D02*
X92789381Y-103315371D01*
X92789381Y-103315371D02*
X93027476Y-103315371D01*
X93027476Y-103315371D02*
X93122714Y-103362990D01*
X93122714Y-103362990D02*
X93170333Y-103410609D01*
X93170333Y-103410609D02*
X93217952Y-103505847D01*
X93217952Y-103505847D02*
X93217952Y-103743942D01*
X93217952Y-103743942D02*
X93170333Y-103839180D01*
X93170333Y-103839180D02*
X93122714Y-103886800D01*
X93122714Y-103886800D02*
X93027476Y-103934419D01*
X93027476Y-103934419D02*
X92789381Y-103934419D01*
X92789381Y-103934419D02*
X92694143Y-103886800D01*
X92694143Y-103886800D02*
X92646524Y-103839180D01*
X93837000Y-102934419D02*
X93932238Y-102934419D01*
X93932238Y-102934419D02*
X94027476Y-102982038D01*
X94027476Y-102982038D02*
X94075095Y-103029657D01*
X94075095Y-103029657D02*
X94122714Y-103124895D01*
X94122714Y-103124895D02*
X94170333Y-103315371D01*
X94170333Y-103315371D02*
X94170333Y-103553466D01*
X94170333Y-103553466D02*
X94122714Y-103743942D01*
X94122714Y-103743942D02*
X94075095Y-103839180D01*
X94075095Y-103839180D02*
X94027476Y-103886800D01*
X94027476Y-103886800D02*
X93932238Y-103934419D01*
X93932238Y-103934419D02*
X93837000Y-103934419D01*
X93837000Y-103934419D02*
X93741762Y-103886800D01*
X93741762Y-103886800D02*
X93694143Y-103839180D01*
X93694143Y-103839180D02*
X93646524Y-103743942D01*
X93646524Y-103743942D02*
X93598905Y-103553466D01*
X93598905Y-103553466D02*
X93598905Y-103315371D01*
X93598905Y-103315371D02*
X93646524Y-103124895D01*
X93646524Y-103124895D02*
X93694143Y-103029657D01*
X93694143Y-103029657D02*
X93741762Y-102982038D01*
X93741762Y-102982038D02*
X93837000Y-102934419D01*
X95075095Y-102934419D02*
X94598905Y-102934419D01*
X94598905Y-102934419D02*
X94551286Y-103410609D01*
X94551286Y-103410609D02*
X94598905Y-103362990D01*
X94598905Y-103362990D02*
X94694143Y-103315371D01*
X94694143Y-103315371D02*
X94932238Y-103315371D01*
X94932238Y-103315371D02*
X95027476Y-103362990D01*
X95027476Y-103362990D02*
X95075095Y-103410609D01*
X95075095Y-103410609D02*
X95122714Y-103505847D01*
X95122714Y-103505847D02*
X95122714Y-103743942D01*
X95122714Y-103743942D02*
X95075095Y-103839180D01*
X95075095Y-103839180D02*
X95027476Y-103886800D01*
X95027476Y-103886800D02*
X94932238Y-103934419D01*
X94932238Y-103934419D02*
X94694143Y-103934419D01*
X94694143Y-103934419D02*
X94598905Y-103886800D01*
X94598905Y-103886800D02*
X94551286Y-103839180D01*
X80277199Y-92335713D02*
X80324818Y-92192856D01*
X80324818Y-92192856D02*
X80324818Y-91954761D01*
X80324818Y-91954761D02*
X80277199Y-91859523D01*
X80277199Y-91859523D02*
X80229579Y-91811904D01*
X80229579Y-91811904D02*
X80134341Y-91764285D01*
X80134341Y-91764285D02*
X80039103Y-91764285D01*
X80039103Y-91764285D02*
X79943865Y-91811904D01*
X79943865Y-91811904D02*
X79896246Y-91859523D01*
X79896246Y-91859523D02*
X79848627Y-91954761D01*
X79848627Y-91954761D02*
X79801008Y-92145237D01*
X79801008Y-92145237D02*
X79753389Y-92240475D01*
X79753389Y-92240475D02*
X79705770Y-92288094D01*
X79705770Y-92288094D02*
X79610532Y-92335713D01*
X79610532Y-92335713D02*
X79515294Y-92335713D01*
X79515294Y-92335713D02*
X79420056Y-92288094D01*
X79420056Y-92288094D02*
X79372437Y-92240475D01*
X79372437Y-92240475D02*
X79324818Y-92145237D01*
X79324818Y-92145237D02*
X79324818Y-91907142D01*
X79324818Y-91907142D02*
X79372437Y-91764285D01*
X79324818Y-91430951D02*
X80324818Y-91192856D01*
X80324818Y-91192856D02*
X79610532Y-91002380D01*
X79610532Y-91002380D02*
X80324818Y-90811904D01*
X80324818Y-90811904D02*
X79324818Y-90573809D01*
X79324818Y-89716666D02*
X79324818Y-90192856D01*
X79324818Y-90192856D02*
X79801008Y-90240475D01*
X79801008Y-90240475D02*
X79753389Y-90192856D01*
X79753389Y-90192856D02*
X79705770Y-90097618D01*
X79705770Y-90097618D02*
X79705770Y-89859523D01*
X79705770Y-89859523D02*
X79753389Y-89764285D01*
X79753389Y-89764285D02*
X79801008Y-89716666D01*
X79801008Y-89716666D02*
X79896246Y-89669047D01*
X79896246Y-89669047D02*
X80134341Y-89669047D01*
X80134341Y-89669047D02*
X80229579Y-89716666D01*
X80229579Y-89716666D02*
X80277199Y-89764285D01*
X80277199Y-89764285D02*
X80324818Y-89859523D01*
X80324818Y-89859523D02*
X80324818Y-90097618D01*
X80324818Y-90097618D02*
X80277199Y-90192856D01*
X80277199Y-90192856D02*
X80229579Y-90240475D01*
X79324818Y-89049999D02*
X79324818Y-88954761D01*
X79324818Y-88954761D02*
X79372437Y-88859523D01*
X79372437Y-88859523D02*
X79420056Y-88811904D01*
X79420056Y-88811904D02*
X79515294Y-88764285D01*
X79515294Y-88764285D02*
X79705770Y-88716666D01*
X79705770Y-88716666D02*
X79943865Y-88716666D01*
X79943865Y-88716666D02*
X80134341Y-88764285D01*
X80134341Y-88764285D02*
X80229579Y-88811904D01*
X80229579Y-88811904D02*
X80277199Y-88859523D01*
X80277199Y-88859523D02*
X80324818Y-88954761D01*
X80324818Y-88954761D02*
X80324818Y-89049999D01*
X80324818Y-89049999D02*
X80277199Y-89145237D01*
X80277199Y-89145237D02*
X80229579Y-89192856D01*
X80229579Y-89192856D02*
X80134341Y-89240475D01*
X80134341Y-89240475D02*
X79943865Y-89288094D01*
X79943865Y-89288094D02*
X79705770Y-89288094D01*
X79705770Y-89288094D02*
X79515294Y-89240475D01*
X79515294Y-89240475D02*
X79420056Y-89192856D01*
X79420056Y-89192856D02*
X79372437Y-89145237D01*
X79372437Y-89145237D02*
X79324818Y-89049999D01*
X79420056Y-88335713D02*
X79372437Y-88288094D01*
X79372437Y-88288094D02*
X79324818Y-88192856D01*
X79324818Y-88192856D02*
X79324818Y-87954761D01*
X79324818Y-87954761D02*
X79372437Y-87859523D01*
X79372437Y-87859523D02*
X79420056Y-87811904D01*
X79420056Y-87811904D02*
X79515294Y-87764285D01*
X79515294Y-87764285D02*
X79610532Y-87764285D01*
X79610532Y-87764285D02*
X79753389Y-87811904D01*
X79753389Y-87811904D02*
X80324818Y-88383332D01*
X80324818Y-88383332D02*
X80324818Y-87764285D01*
X173713212Y-110925699D02*
X173847899Y-110858356D01*
X173847899Y-110858356D02*
X174016257Y-110689997D01*
X174016257Y-110689997D02*
X174049929Y-110588982D01*
X174049929Y-110588982D02*
X174049929Y-110521638D01*
X174049929Y-110521638D02*
X174016257Y-110420623D01*
X174016257Y-110420623D02*
X173948914Y-110353279D01*
X173948914Y-110353279D02*
X173847899Y-110319608D01*
X173847899Y-110319608D02*
X173780555Y-110319608D01*
X173780555Y-110319608D02*
X173679540Y-110353279D01*
X173679540Y-110353279D02*
X173511181Y-110454295D01*
X173511181Y-110454295D02*
X173410166Y-110487966D01*
X173410166Y-110487966D02*
X173342822Y-110487966D01*
X173342822Y-110487966D02*
X173241807Y-110454295D01*
X173241807Y-110454295D02*
X173174464Y-110386951D01*
X173174464Y-110386951D02*
X173140792Y-110285936D01*
X173140792Y-110285936D02*
X173140792Y-110218592D01*
X173140792Y-110218592D02*
X173174464Y-110117577D01*
X173174464Y-110117577D02*
X173342822Y-109949218D01*
X173342822Y-109949218D02*
X173477509Y-109881875D01*
X173679540Y-109612501D02*
X174555005Y-110151249D01*
X174555005Y-110151249D02*
X174184616Y-109511486D01*
X174184616Y-109511486D02*
X174824379Y-109881875D01*
X174824379Y-109881875D02*
X174285631Y-109006409D01*
X174891723Y-108400318D02*
X174555005Y-108737035D01*
X174555005Y-108737035D02*
X174858051Y-109107425D01*
X174858051Y-109107425D02*
X174858051Y-109040081D01*
X174858051Y-109040081D02*
X174891723Y-108939066D01*
X174891723Y-108939066D02*
X175060082Y-108770707D01*
X175060082Y-108770707D02*
X175161097Y-108737035D01*
X175161097Y-108737035D02*
X175228440Y-108737035D01*
X175228440Y-108737035D02*
X175329456Y-108770707D01*
X175329456Y-108770707D02*
X175497814Y-108939066D01*
X175497814Y-108939066D02*
X175531486Y-109040081D01*
X175531486Y-109040081D02*
X175531486Y-109107425D01*
X175531486Y-109107425D02*
X175497814Y-109208440D01*
X175497814Y-109208440D02*
X175329456Y-109376799D01*
X175329456Y-109376799D02*
X175228440Y-109410470D01*
X175228440Y-109410470D02*
X175161097Y-109410470D01*
X175363127Y-107928913D02*
X175430471Y-107861570D01*
X175430471Y-107861570D02*
X175531486Y-107827898D01*
X175531486Y-107827898D02*
X175598830Y-107827898D01*
X175598830Y-107827898D02*
X175699845Y-107861570D01*
X175699845Y-107861570D02*
X175868204Y-107962585D01*
X175868204Y-107962585D02*
X176036562Y-108130944D01*
X176036562Y-108130944D02*
X176137578Y-108299303D01*
X176137578Y-108299303D02*
X176171249Y-108400318D01*
X176171249Y-108400318D02*
X176171249Y-108467661D01*
X176171249Y-108467661D02*
X176137578Y-108568677D01*
X176137578Y-108568677D02*
X176070234Y-108636020D01*
X176070234Y-108636020D02*
X175969219Y-108669692D01*
X175969219Y-108669692D02*
X175901875Y-108669692D01*
X175901875Y-108669692D02*
X175800860Y-108636020D01*
X175800860Y-108636020D02*
X175632501Y-108535005D01*
X175632501Y-108535005D02*
X175464143Y-108366646D01*
X175464143Y-108366646D02*
X175363127Y-108198287D01*
X175363127Y-108198287D02*
X175329456Y-108097272D01*
X175329456Y-108097272D02*
X175329456Y-108029929D01*
X175329456Y-108029929D02*
X175363127Y-107928913D01*
X176305937Y-107592196D02*
X176204921Y-107625867D01*
X176204921Y-107625867D02*
X176137578Y-107625867D01*
X176137578Y-107625867D02*
X176036562Y-107592196D01*
X176036562Y-107592196D02*
X176002891Y-107558524D01*
X176002891Y-107558524D02*
X175969219Y-107457509D01*
X175969219Y-107457509D02*
X175969219Y-107390165D01*
X175969219Y-107390165D02*
X176002891Y-107289150D01*
X176002891Y-107289150D02*
X176137578Y-107154463D01*
X176137578Y-107154463D02*
X176238593Y-107120791D01*
X176238593Y-107120791D02*
X176305937Y-107120791D01*
X176305937Y-107120791D02*
X176406952Y-107154463D01*
X176406952Y-107154463D02*
X176440624Y-107188135D01*
X176440624Y-107188135D02*
X176474295Y-107289150D01*
X176474295Y-107289150D02*
X176474295Y-107356493D01*
X176474295Y-107356493D02*
X176440624Y-107457509D01*
X176440624Y-107457509D02*
X176305937Y-107592196D01*
X176305937Y-107592196D02*
X176272265Y-107693211D01*
X176272265Y-107693211D02*
X176272265Y-107760554D01*
X176272265Y-107760554D02*
X176305937Y-107861570D01*
X176305937Y-107861570D02*
X176440624Y-107996257D01*
X176440624Y-107996257D02*
X176541639Y-108029928D01*
X176541639Y-108029928D02*
X176608982Y-108029928D01*
X176608982Y-108029928D02*
X176709998Y-107996257D01*
X176709998Y-107996257D02*
X176844685Y-107861570D01*
X176844685Y-107861570D02*
X176878356Y-107760554D01*
X176878356Y-107760554D02*
X176878356Y-107693211D01*
X176878356Y-107693211D02*
X176844685Y-107592196D01*
X176844685Y-107592196D02*
X176709998Y-107457509D01*
X176709998Y-107457509D02*
X176608982Y-107423837D01*
X176608982Y-107423837D02*
X176541639Y-107423837D01*
X176541639Y-107423837D02*
X176440624Y-107457509D01*
X174687199Y-102815713D02*
X174734818Y-102672856D01*
X174734818Y-102672856D02*
X174734818Y-102434761D01*
X174734818Y-102434761D02*
X174687199Y-102339523D01*
X174687199Y-102339523D02*
X174639579Y-102291904D01*
X174639579Y-102291904D02*
X174544341Y-102244285D01*
X174544341Y-102244285D02*
X174449103Y-102244285D01*
X174449103Y-102244285D02*
X174353865Y-102291904D01*
X174353865Y-102291904D02*
X174306246Y-102339523D01*
X174306246Y-102339523D02*
X174258627Y-102434761D01*
X174258627Y-102434761D02*
X174211008Y-102625237D01*
X174211008Y-102625237D02*
X174163389Y-102720475D01*
X174163389Y-102720475D02*
X174115770Y-102768094D01*
X174115770Y-102768094D02*
X174020532Y-102815713D01*
X174020532Y-102815713D02*
X173925294Y-102815713D01*
X173925294Y-102815713D02*
X173830056Y-102768094D01*
X173830056Y-102768094D02*
X173782437Y-102720475D01*
X173782437Y-102720475D02*
X173734818Y-102625237D01*
X173734818Y-102625237D02*
X173734818Y-102387142D01*
X173734818Y-102387142D02*
X173782437Y-102244285D01*
X173734818Y-101910951D02*
X174734818Y-101672856D01*
X174734818Y-101672856D02*
X174020532Y-101482380D01*
X174020532Y-101482380D02*
X174734818Y-101291904D01*
X174734818Y-101291904D02*
X173734818Y-101053809D01*
X173734818Y-100196666D02*
X173734818Y-100672856D01*
X173734818Y-100672856D02*
X174211008Y-100720475D01*
X174211008Y-100720475D02*
X174163389Y-100672856D01*
X174163389Y-100672856D02*
X174115770Y-100577618D01*
X174115770Y-100577618D02*
X174115770Y-100339523D01*
X174115770Y-100339523D02*
X174163389Y-100244285D01*
X174163389Y-100244285D02*
X174211008Y-100196666D01*
X174211008Y-100196666D02*
X174306246Y-100149047D01*
X174306246Y-100149047D02*
X174544341Y-100149047D01*
X174544341Y-100149047D02*
X174639579Y-100196666D01*
X174639579Y-100196666D02*
X174687199Y-100244285D01*
X174687199Y-100244285D02*
X174734818Y-100339523D01*
X174734818Y-100339523D02*
X174734818Y-100577618D01*
X174734818Y-100577618D02*
X174687199Y-100672856D01*
X174687199Y-100672856D02*
X174639579Y-100720475D01*
X173734818Y-99529999D02*
X173734818Y-99434761D01*
X173734818Y-99434761D02*
X173782437Y-99339523D01*
X173782437Y-99339523D02*
X173830056Y-99291904D01*
X173830056Y-99291904D02*
X173925294Y-99244285D01*
X173925294Y-99244285D02*
X174115770Y-99196666D01*
X174115770Y-99196666D02*
X174353865Y-99196666D01*
X174353865Y-99196666D02*
X174544341Y-99244285D01*
X174544341Y-99244285D02*
X174639579Y-99291904D01*
X174639579Y-99291904D02*
X174687199Y-99339523D01*
X174687199Y-99339523D02*
X174734818Y-99434761D01*
X174734818Y-99434761D02*
X174734818Y-99529999D01*
X174734818Y-99529999D02*
X174687199Y-99625237D01*
X174687199Y-99625237D02*
X174639579Y-99672856D01*
X174639579Y-99672856D02*
X174544341Y-99720475D01*
X174544341Y-99720475D02*
X174353865Y-99768094D01*
X174353865Y-99768094D02*
X174115770Y-99768094D01*
X174115770Y-99768094D02*
X173925294Y-99720475D01*
X173925294Y-99720475D02*
X173830056Y-99672856D01*
X173830056Y-99672856D02*
X173782437Y-99625237D01*
X173782437Y-99625237D02*
X173734818Y-99529999D01*
X173734818Y-98863332D02*
X173734818Y-98196666D01*
X173734818Y-98196666D02*
X174734818Y-98625237D01*
X176814300Y-87093211D02*
X176881643Y-87227898D01*
X176881643Y-87227898D02*
X177050002Y-87396256D01*
X177050002Y-87396256D02*
X177151017Y-87429928D01*
X177151017Y-87429928D02*
X177218361Y-87429928D01*
X177218361Y-87429928D02*
X177319376Y-87396256D01*
X177319376Y-87396256D02*
X177386720Y-87328913D01*
X177386720Y-87328913D02*
X177420391Y-87227898D01*
X177420391Y-87227898D02*
X177420391Y-87160554D01*
X177420391Y-87160554D02*
X177386720Y-87059539D01*
X177386720Y-87059539D02*
X177285704Y-86891180D01*
X177285704Y-86891180D02*
X177252033Y-86790165D01*
X177252033Y-86790165D02*
X177252033Y-86722821D01*
X177252033Y-86722821D02*
X177285704Y-86621806D01*
X177285704Y-86621806D02*
X177353048Y-86554463D01*
X177353048Y-86554463D02*
X177454063Y-86520791D01*
X177454063Y-86520791D02*
X177521407Y-86520791D01*
X177521407Y-86520791D02*
X177622422Y-86554463D01*
X177622422Y-86554463D02*
X177790781Y-86722821D01*
X177790781Y-86722821D02*
X177858124Y-86857508D01*
X178127498Y-87059539D02*
X177588750Y-87935004D01*
X177588750Y-87935004D02*
X178228513Y-87564615D01*
X178228513Y-87564615D02*
X177858124Y-88204378D01*
X177858124Y-88204378D02*
X178733590Y-87665630D01*
X179339681Y-88271722D02*
X179002964Y-87935004D01*
X179002964Y-87935004D02*
X178632574Y-88238050D01*
X178632574Y-88238050D02*
X178699918Y-88238050D01*
X178699918Y-88238050D02*
X178800933Y-88271722D01*
X178800933Y-88271722D02*
X178969292Y-88440081D01*
X178969292Y-88440081D02*
X179002964Y-88541096D01*
X179002964Y-88541096D02*
X179002964Y-88608439D01*
X179002964Y-88608439D02*
X178969292Y-88709455D01*
X178969292Y-88709455D02*
X178800933Y-88877813D01*
X178800933Y-88877813D02*
X178699918Y-88911485D01*
X178699918Y-88911485D02*
X178632574Y-88911485D01*
X178632574Y-88911485D02*
X178531559Y-88877813D01*
X178531559Y-88877813D02*
X178363200Y-88709455D01*
X178363200Y-88709455D02*
X178329529Y-88608439D01*
X178329529Y-88608439D02*
X178329529Y-88541096D01*
X179811086Y-88743126D02*
X179878429Y-88810470D01*
X179878429Y-88810470D02*
X179912101Y-88911485D01*
X179912101Y-88911485D02*
X179912101Y-88978829D01*
X179912101Y-88978829D02*
X179878429Y-89079844D01*
X179878429Y-89079844D02*
X179777414Y-89248203D01*
X179777414Y-89248203D02*
X179609055Y-89416561D01*
X179609055Y-89416561D02*
X179440696Y-89517577D01*
X179440696Y-89517577D02*
X179339681Y-89551248D01*
X179339681Y-89551248D02*
X179272338Y-89551248D01*
X179272338Y-89551248D02*
X179171322Y-89517577D01*
X179171322Y-89517577D02*
X179103979Y-89450233D01*
X179103979Y-89450233D02*
X179070307Y-89349218D01*
X179070307Y-89349218D02*
X179070307Y-89281874D01*
X179070307Y-89281874D02*
X179103979Y-89180859D01*
X179103979Y-89180859D02*
X179204994Y-89012500D01*
X179204994Y-89012500D02*
X179373353Y-88844142D01*
X179373353Y-88844142D02*
X179541712Y-88743126D01*
X179541712Y-88743126D02*
X179642727Y-88709455D01*
X179642727Y-88709455D02*
X179710070Y-88709455D01*
X179710070Y-88709455D02*
X179811086Y-88743126D01*
X180652880Y-89584920D02*
X180518193Y-89450233D01*
X180518193Y-89450233D02*
X180417177Y-89416561D01*
X180417177Y-89416561D02*
X180349834Y-89416561D01*
X180349834Y-89416561D02*
X180181475Y-89450233D01*
X180181475Y-89450233D02*
X180013116Y-89551249D01*
X180013116Y-89551249D02*
X179743742Y-89820623D01*
X179743742Y-89820623D02*
X179710071Y-89921638D01*
X179710071Y-89921638D02*
X179710071Y-89988981D01*
X179710071Y-89988981D02*
X179743742Y-90089997D01*
X179743742Y-90089997D02*
X179878429Y-90224684D01*
X179878429Y-90224684D02*
X179979445Y-90258355D01*
X179979445Y-90258355D02*
X180046788Y-90258355D01*
X180046788Y-90258355D02*
X180147803Y-90224684D01*
X180147803Y-90224684D02*
X180316162Y-90056325D01*
X180316162Y-90056325D02*
X180349834Y-89955310D01*
X180349834Y-89955310D02*
X180349834Y-89887966D01*
X180349834Y-89887966D02*
X180316162Y-89786951D01*
X180316162Y-89786951D02*
X180181475Y-89652264D01*
X180181475Y-89652264D02*
X180080460Y-89618592D01*
X180080460Y-89618592D02*
X180013116Y-89618592D01*
X180013116Y-89618592D02*
X179912101Y-89652264D01*
D17*
X90588495Y-82274071D02*
X90517067Y-82345500D01*
X90517067Y-82345500D02*
X90302781Y-82416928D01*
X90302781Y-82416928D02*
X90159924Y-82416928D01*
X90159924Y-82416928D02*
X89945638Y-82345500D01*
X89945638Y-82345500D02*
X89802781Y-82202642D01*
X89802781Y-82202642D02*
X89731352Y-82059785D01*
X89731352Y-82059785D02*
X89659924Y-81774071D01*
X89659924Y-81774071D02*
X89659924Y-81559785D01*
X89659924Y-81559785D02*
X89731352Y-81274071D01*
X89731352Y-81274071D02*
X89802781Y-81131214D01*
X89802781Y-81131214D02*
X89945638Y-80988357D01*
X89945638Y-80988357D02*
X90159924Y-80916928D01*
X90159924Y-80916928D02*
X90302781Y-80916928D01*
X90302781Y-80916928D02*
X90517067Y-80988357D01*
X90517067Y-80988357D02*
X90588495Y-81059785D01*
X91231352Y-80916928D02*
X91231352Y-82131214D01*
X91231352Y-82131214D02*
X91302781Y-82274071D01*
X91302781Y-82274071D02*
X91374210Y-82345500D01*
X91374210Y-82345500D02*
X91517067Y-82416928D01*
X91517067Y-82416928D02*
X91802781Y-82416928D01*
X91802781Y-82416928D02*
X91945638Y-82345500D01*
X91945638Y-82345500D02*
X92017067Y-82274071D01*
X92017067Y-82274071D02*
X92088495Y-82131214D01*
X92088495Y-82131214D02*
X92088495Y-80916928D01*
X92588496Y-80916928D02*
X93445639Y-80916928D01*
X93017067Y-82416928D02*
X93017067Y-80916928D01*
X93588496Y-82559785D02*
X94731353Y-82559785D01*
X95374210Y-80916928D02*
X95659924Y-80916928D01*
X95659924Y-80916928D02*
X95802781Y-80988357D01*
X95802781Y-80988357D02*
X95945638Y-81131214D01*
X95945638Y-81131214D02*
X96017067Y-81416928D01*
X96017067Y-81416928D02*
X96017067Y-81916928D01*
X96017067Y-81916928D02*
X95945638Y-82202642D01*
X95945638Y-82202642D02*
X95802781Y-82345500D01*
X95802781Y-82345500D02*
X95659924Y-82416928D01*
X95659924Y-82416928D02*
X95374210Y-82416928D01*
X95374210Y-82416928D02*
X95231353Y-82345500D01*
X95231353Y-82345500D02*
X95088495Y-82202642D01*
X95088495Y-82202642D02*
X95017067Y-81916928D01*
X95017067Y-81916928D02*
X95017067Y-81416928D01*
X95017067Y-81416928D02*
X95088495Y-81131214D01*
X95088495Y-81131214D02*
X95231353Y-80988357D01*
X95231353Y-80988357D02*
X95374210Y-80916928D01*
X96659924Y-80916928D02*
X96659924Y-82131214D01*
X96659924Y-82131214D02*
X96731353Y-82274071D01*
X96731353Y-82274071D02*
X96802782Y-82345500D01*
X96802782Y-82345500D02*
X96945639Y-82416928D01*
X96945639Y-82416928D02*
X97231353Y-82416928D01*
X97231353Y-82416928D02*
X97374210Y-82345500D01*
X97374210Y-82345500D02*
X97445639Y-82274071D01*
X97445639Y-82274071D02*
X97517067Y-82131214D01*
X97517067Y-82131214D02*
X97517067Y-80916928D01*
X98017068Y-80916928D02*
X98874211Y-80916928D01*
X98445639Y-82416928D02*
X98445639Y-80916928D01*
D13*
X91497173Y-76487219D02*
X91497173Y-75487219D01*
X91497173Y-75487219D02*
X91830506Y-76201504D01*
X91830506Y-76201504D02*
X92163839Y-75487219D01*
X92163839Y-75487219D02*
X92163839Y-76487219D01*
X92640030Y-76487219D02*
X92640030Y-75820552D01*
X92640030Y-75487219D02*
X92592411Y-75534838D01*
X92592411Y-75534838D02*
X92640030Y-75582457D01*
X92640030Y-75582457D02*
X92687649Y-75534838D01*
X92687649Y-75534838D02*
X92640030Y-75487219D01*
X92640030Y-75487219D02*
X92640030Y-75582457D01*
X93544791Y-76439600D02*
X93449553Y-76487219D01*
X93449553Y-76487219D02*
X93259077Y-76487219D01*
X93259077Y-76487219D02*
X93163839Y-76439600D01*
X93163839Y-76439600D02*
X93116220Y-76391980D01*
X93116220Y-76391980D02*
X93068601Y-76296742D01*
X93068601Y-76296742D02*
X93068601Y-76011028D01*
X93068601Y-76011028D02*
X93116220Y-75915790D01*
X93116220Y-75915790D02*
X93163839Y-75868171D01*
X93163839Y-75868171D02*
X93259077Y-75820552D01*
X93259077Y-75820552D02*
X93449553Y-75820552D01*
X93449553Y-75820552D02*
X93544791Y-75868171D01*
X93973363Y-76487219D02*
X93973363Y-75820552D01*
X93973363Y-76011028D02*
X94020982Y-75915790D01*
X94020982Y-75915790D02*
X94068601Y-75868171D01*
X94068601Y-75868171D02*
X94163839Y-75820552D01*
X94163839Y-75820552D02*
X94259077Y-75820552D01*
X94735268Y-76487219D02*
X94640030Y-76439600D01*
X94640030Y-76439600D02*
X94592411Y-76391980D01*
X94592411Y-76391980D02*
X94544792Y-76296742D01*
X94544792Y-76296742D02*
X94544792Y-76011028D01*
X94544792Y-76011028D02*
X94592411Y-75915790D01*
X94592411Y-75915790D02*
X94640030Y-75868171D01*
X94640030Y-75868171D02*
X94735268Y-75820552D01*
X94735268Y-75820552D02*
X94878125Y-75820552D01*
X94878125Y-75820552D02*
X94973363Y-75868171D01*
X94973363Y-75868171D02*
X95020982Y-75915790D01*
X95020982Y-75915790D02*
X95068601Y-76011028D01*
X95068601Y-76011028D02*
X95068601Y-76296742D01*
X95068601Y-76296742D02*
X95020982Y-76391980D01*
X95020982Y-76391980D02*
X94973363Y-76439600D01*
X94973363Y-76439600D02*
X94878125Y-76487219D01*
X94878125Y-76487219D02*
X94735268Y-76487219D01*
X95449554Y-76439600D02*
X95592411Y-76487219D01*
X95592411Y-76487219D02*
X95830506Y-76487219D01*
X95830506Y-76487219D02*
X95925744Y-76439600D01*
X95925744Y-76439600D02*
X95973363Y-76391980D01*
X95973363Y-76391980D02*
X96020982Y-76296742D01*
X96020982Y-76296742D02*
X96020982Y-76201504D01*
X96020982Y-76201504D02*
X95973363Y-76106266D01*
X95973363Y-76106266D02*
X95925744Y-76058647D01*
X95925744Y-76058647D02*
X95830506Y-76011028D01*
X95830506Y-76011028D02*
X95640030Y-75963409D01*
X95640030Y-75963409D02*
X95544792Y-75915790D01*
X95544792Y-75915790D02*
X95497173Y-75868171D01*
X95497173Y-75868171D02*
X95449554Y-75772933D01*
X95449554Y-75772933D02*
X95449554Y-75677695D01*
X95449554Y-75677695D02*
X95497173Y-75582457D01*
X95497173Y-75582457D02*
X95544792Y-75534838D01*
X95544792Y-75534838D02*
X95640030Y-75487219D01*
X95640030Y-75487219D02*
X95878125Y-75487219D01*
X95878125Y-75487219D02*
X96020982Y-75534838D01*
X96449554Y-76487219D02*
X96449554Y-75487219D01*
X96449554Y-75487219D02*
X96687649Y-75487219D01*
X96687649Y-75487219D02*
X96830506Y-75534838D01*
X96830506Y-75534838D02*
X96925744Y-75630076D01*
X96925744Y-75630076D02*
X96973363Y-75725314D01*
X96973363Y-75725314D02*
X97020982Y-75915790D01*
X97020982Y-75915790D02*
X97020982Y-76058647D01*
X97020982Y-76058647D02*
X96973363Y-76249123D01*
X96973363Y-76249123D02*
X96925744Y-76344361D01*
X96925744Y-76344361D02*
X96830506Y-76439600D01*
X96830506Y-76439600D02*
X96687649Y-76487219D01*
X96687649Y-76487219D02*
X96449554Y-76487219D01*
%TO.C,SW503*%
D18*
X79026390Y-99660117D02*
X79599146Y-99087360D01*
X81586117Y-97100390D02*
X85913610Y-101427883D01*
X83353883Y-103987610D02*
X79026390Y-99660117D01*
X85913610Y-101427883D02*
X85340854Y-102000640D01*
%TO.C,SW504*%
X79410000Y-109160000D02*
X85530000Y-109160000D01*
X79410000Y-112780000D02*
X79410000Y-111970000D01*
X85530000Y-109160000D02*
X85530000Y-109970000D01*
X85530000Y-112780000D02*
X79410000Y-112780000D01*
%TO.C,SW501*%
X70170000Y-97484000D02*
X70980000Y-97484000D01*
X70170000Y-103604000D02*
X70170000Y-97484000D01*
X73790000Y-97484000D02*
X73790000Y-103604000D01*
X73790000Y-103604000D02*
X72980000Y-103604000D01*
%TO.C,SW505*%
X89860000Y-98734000D02*
X95980000Y-98734000D01*
X89860000Y-102354000D02*
X89860000Y-101544000D01*
X95980000Y-98734000D02*
X95980000Y-99544000D01*
X95980000Y-102354000D02*
X89860000Y-102354000D01*
%TO.C,SW502*%
X80660000Y-86990000D02*
X81470000Y-86990000D01*
X80660000Y-93110000D02*
X80660000Y-86990000D01*
X84280000Y-86990000D02*
X84280000Y-93110000D01*
X84280000Y-93110000D02*
X83470000Y-93110000D01*
%TO.C,SW508*%
X173436390Y-111743883D02*
X177763883Y-107416390D01*
X175996117Y-114303610D02*
X175423360Y-113730854D01*
X177763883Y-107416390D02*
X178336640Y-107989146D01*
X180323610Y-109976117D02*
X175996117Y-114303610D01*
%TO.C,SW507*%
X175070000Y-97470000D02*
X175880000Y-97470000D01*
X175070000Y-103590000D02*
X175070000Y-97470000D01*
X178690000Y-97470000D02*
X178690000Y-103590000D01*
X178690000Y-103590000D02*
X177880000Y-103590000D01*
%TO.C,SW506*%
X173436391Y-89376117D02*
X174009146Y-88803359D01*
X175996117Y-86816390D02*
X180323609Y-91143883D01*
X177763883Y-93703610D02*
X173436391Y-89376117D01*
X180323609Y-91143883D02*
X179750854Y-91716641D01*
%TO.C,U202*%
D12*
X89627500Y-72620000D02*
X98627500Y-72620000D01*
X98627500Y-77120000D01*
X89627500Y-77120000D01*
X89627500Y-72620000D01*
%TD*%
%LPC*%
D11*
X91798510Y-118559450D02*
X91814510Y-118580280D01*
X91814510Y-118580280D02*
X91831530Y-118600350D01*
X91831530Y-118600350D02*
X91849570Y-118619400D01*
X91849570Y-118619400D02*
X91868620Y-118637430D01*
X91868620Y-118637430D02*
X91888430Y-118654450D01*
X91868620Y-122657490D02*
X91888430Y-122674510D01*
X91888430Y-118654450D02*
X91909510Y-118670450D01*
X91888430Y-122674510D02*
X91909510Y-122690510D01*
X91909510Y-118670450D02*
X91953450Y-118698390D01*
X91909510Y-122690510D02*
X91953450Y-122718450D01*
X91953450Y-118698390D02*
X91976570Y-118711350D01*
X91953450Y-122718450D02*
X91976570Y-122731400D01*
X91976570Y-118711350D02*
X92000440Y-118722520D01*
X91976570Y-122731400D02*
X92000440Y-122742330D01*
X92000440Y-118722520D02*
X92024570Y-118732430D01*
X92000440Y-122742330D02*
X92024570Y-122752490D01*
X92024570Y-118732430D02*
X92048450Y-118741320D01*
X92024570Y-122752490D02*
X92048450Y-122761380D01*
X92048450Y-118741320D02*
X92074610Y-118748430D01*
X92048450Y-122761380D02*
X92074610Y-122768490D01*
X92074610Y-118748430D02*
X92099500Y-118754530D01*
X92074610Y-122768490D02*
X92099500Y-122774330D01*
X92099500Y-118754530D02*
X92125410Y-118759350D01*
X92099500Y-122774330D02*
X92125410Y-122779410D01*
X92125410Y-118759350D02*
X92151570Y-118762400D01*
X92125410Y-122779410D02*
X92151570Y-122782460D01*
X92151570Y-118762400D02*
X92177480Y-118764430D01*
X92151570Y-122782460D02*
X92177480Y-122784490D01*
X92177480Y-118764430D02*
X92203390Y-118765450D01*
X92177480Y-122784490D02*
X92203390Y-122785510D01*
X92203390Y-118765450D02*
X92233610Y-118764430D01*
X92203390Y-122785510D02*
X92229550Y-122784490D01*
X92229550Y-122784490D02*
X92255460Y-122782460D01*
X92233610Y-118764430D02*
X92260540Y-118761380D01*
X92255460Y-122782460D02*
X92281620Y-122779410D01*
X92260540Y-118761380D02*
X92286450Y-118757320D01*
X92281620Y-122779410D02*
X92307530Y-122774330D01*
X92286450Y-118757320D02*
X92312610Y-118752490D01*
X92307530Y-122774330D02*
X92332420Y-122768490D01*
X92312610Y-118752490D02*
X92362390Y-118738520D01*
X92332420Y-122768490D02*
X92358580Y-122761380D01*
X92358580Y-122761380D02*
X92382460Y-122752490D01*
X92362390Y-118738520D02*
X92387540Y-118728360D01*
X92382460Y-122752490D02*
X92406590Y-122742330D01*
X92387540Y-118728360D02*
X92411410Y-118718460D01*
X92406590Y-122742330D02*
X92430460Y-122731400D01*
X92411410Y-118718460D02*
X92435540Y-118706520D01*
X92430460Y-122731400D02*
X92453580Y-122718450D01*
X92435540Y-118706520D02*
X92458400Y-118693310D01*
X92453580Y-122718450D02*
X92497520Y-122690510D01*
X92458400Y-118693310D02*
X92480500Y-118679340D01*
X92480500Y-118679340D02*
X92502600Y-118663340D01*
X92497520Y-122690510D02*
X92518600Y-122674510D01*
X92502600Y-118663340D02*
X92523430Y-118647340D01*
X92518600Y-122674510D02*
X92538410Y-122657490D01*
X92523430Y-118647340D02*
X92561530Y-118611520D01*
X92561530Y-118611520D02*
X92579560Y-118591460D01*
X92579560Y-118591460D02*
X92596580Y-118571390D01*
X100481500Y-118600350D02*
X100499540Y-118619400D01*
X100499540Y-118619400D02*
X100518590Y-118637430D01*
X100518590Y-118637430D02*
X100538400Y-118654450D01*
X100538400Y-118654450D02*
X100559480Y-118670450D01*
X100559480Y-118670450D02*
X100603420Y-118698390D01*
X100603420Y-118698390D02*
X100626540Y-118711350D01*
X100626540Y-118711350D02*
X100650410Y-118722520D01*
X100650410Y-118722520D02*
X100674540Y-118732430D01*
X100674540Y-118732430D02*
X100698420Y-118741320D01*
X100698420Y-118741320D02*
X100724580Y-118748430D01*
X100724580Y-118748430D02*
X100749470Y-118754530D01*
X100749470Y-118754530D02*
X100775380Y-118759350D01*
X100775380Y-118759350D02*
X100801540Y-118762400D01*
X100801540Y-118762400D02*
X100827450Y-118764430D01*
X100827450Y-118764430D02*
X100853610Y-118765450D01*
X100853610Y-118765450D02*
X100879520Y-118764430D01*
X100879520Y-118764430D02*
X100905430Y-118762400D01*
X100905430Y-118762400D02*
X100931590Y-118759350D01*
X100931590Y-118759350D02*
X100957500Y-118754530D01*
X100957500Y-118754530D02*
X100982390Y-118748430D01*
X100982390Y-118748430D02*
X101008550Y-118741320D01*
X101008550Y-118741320D02*
X101032430Y-118732430D01*
X101032430Y-118732430D02*
X101056560Y-118722520D01*
X101056560Y-118722520D02*
X101080430Y-118711350D01*
X101080430Y-118711350D02*
X101103550Y-118698390D01*
X101103550Y-118698390D02*
X101147490Y-118670450D01*
X101147490Y-118670450D02*
X101168570Y-118654450D01*
X101168570Y-118654450D02*
X101188380Y-118637430D01*
X101188380Y-118637430D02*
X101207430Y-118619400D01*
X101207430Y-118619400D02*
X101225470Y-118600350D01*
D19*
%TO.C,SW503*%
X85651981Y-103725981D03*
D20*
X79288019Y-97362019D03*
%TD*%
D21*
%TO.C,SW504*%
X86970000Y-110970000D03*
D22*
X77970000Y-110970000D03*
%TD*%
D23*
%TO.C,SW501*%
X71980000Y-105044000D03*
D24*
X71980000Y-96044000D03*
%TD*%
D25*
%TO.C,SW505*%
X88419999Y-100544000D03*
D26*
X97420001Y-100544000D03*
%TD*%
D23*
%TO.C,SW502*%
X82470000Y-94550001D03*
D24*
X82470000Y-85549999D03*
%TD*%
D27*
%TO.C,SW508*%
X173698019Y-114041981D03*
D28*
X180061981Y-107678019D03*
%TD*%
D23*
%TO.C,SW507*%
X176880000Y-105030001D03*
D24*
X176880000Y-96029999D03*
%TD*%
D29*
%TO.C,SW506*%
X173698018Y-87078019D03*
D30*
X180061982Y-93441981D03*
%TD*%
D31*
%TO.C,J601*%
X160210000Y-120110000D03*
X115760000Y-99790000D03*
%TD*%
D32*
%TO.C,U202*%
X103127500Y-74120000D03*
X103127500Y-76660000D03*
X103127500Y-79200000D03*
X103127500Y-81740000D03*
X103127500Y-84280000D03*
X103127500Y-86820000D03*
X103127500Y-89360000D03*
X103127500Y-91900000D03*
X103127500Y-94440000D03*
X103127500Y-96980000D03*
X103127500Y-99520000D03*
X85347500Y-99520000D03*
X85347500Y-96980000D03*
X85347500Y-94440000D03*
X85347500Y-91900000D03*
X85347500Y-89360000D03*
X85347500Y-86820000D03*
X85347500Y-84280000D03*
X85347500Y-81740000D03*
X85347500Y-79200000D03*
X85347500Y-76660000D03*
D33*
X85347500Y-74120000D03*
%TD*%
D34*
%TO.C,J302*%
X85750400Y-122047000D03*
D35*
X85750400Y-119507000D03*
%TD*%
D36*
%TO.C,J301*%
X100830000Y-121810000D03*
X100830000Y-118010000D03*
X92190000Y-121810000D03*
X92190000Y-118010000D03*
%TD*%
%LPD*%
M02*
