M48
; DRILL file KiCad 10.0.5 date 2026-09-06T22:20:34
; FORMAT={-:-/ absolute / inch / decimal}
; #@! TF.CreationDate,2026-09-06T22:20:34-04:00
; #@! TF.GenerationSoftware,Kicad,Pcbnew,10.0.5
; #@! TF.FileFunction,Plated,1,2,PTH
FMAT,2
INCH
; #@! TA.AperFunction,Plated,PTH,ViaDrill
T1C0.0118
; #@! TA.AperFunction,Plated,PTH,ComponentDrill
T2C0.0197
; #@! TA.AperFunction,Plated,PTH,ComponentDrill
T3C0.0394
%
G90
G05
T1
X2.4142Y-3.8024
X2.4291Y-3.9815
X2.4409Y-3.6571
X2.4437Y-4.1354
X2.4866Y-3.4661
X2.5295Y-4.337
X2.5831Y-3.3106
X2.6346Y-4.4882
X2.7102Y-3.1583
X2.7508Y-4.6063
X2.765Y-3.705
X2.9094Y-4.6902
X2.9134Y-3.0146
X2.922Y-4.136
X2.9685Y-4.3642
X3.0039Y-3.6024
X3.004Y-3.423
X3.0063Y-3.885
X3.007Y-4.136
X3.0079Y-3.7283
X3.0079Y-4.0039
X3.072Y-4.7799
X3.0735Y-3.8675
X3.0783Y-2.9547
X3.0787Y-3.9331
X3.0827Y-3.5827
X3.091Y-3.477
X3.101Y-3.74
X3.1063Y-3.6614
X3.108Y-4.039
X3.161Y-3.365
X3.202Y-3.879
X3.208Y-3.181
X3.2283Y-2.9764
X3.2398Y-4.3823
X3.342Y-4.301
X3.38Y-4.645
X3.431Y-4.563
X3.449Y-4.177
X3.489Y-4.4984
X3.523Y-4.047
X3.524Y-4.3114
X3.5303Y-4.4669
X3.5331Y-4.376
X3.534Y-4.658
X3.574Y-4.761
X3.662Y-4.572
X3.7101Y-4.5729
X3.7354Y-4.8693
X3.7528Y-4.4874
X3.8364Y-4.0394
X3.8512Y-4.2118
X3.8627Y-4.5747
X3.8937Y-4.8661
X3.9303Y-4.263
X3.937Y-4.577
X3.9654Y-4.0803
X3.9732Y-3.9453
X4.0634Y-4.078
X4.077Y-4.464
X4.1189Y-4.8685
X4.126Y-2.9724
X4.1295Y-3.6744
X4.178Y-3.988
X4.182Y-3.057
X4.192Y-3.563
X4.1969Y-3.4685
X4.208Y-3.367
X4.2126Y-3.9173
X4.219Y-3.778
X4.231Y-3.267
X4.2339Y-3.6728
X4.2827Y-3.1594
X4.303Y-3.01
X4.3154Y-3.7535
X4.3665Y-4.8598
X4.3839Y-2.9657
X4.384Y-3.766
X4.3992Y-3.5681
X4.4406Y-3.0201
X4.46Y-3.37
X4.4673Y-2.8902
X4.4724Y-3.4803
X4.483Y-3.262
X4.486Y-3.162
X4.4961Y-4.4882
X4.4961Y-4.5787
X4.5Y-3.68
X4.513Y-3.378
X4.534Y-3.125
X4.55Y-4.404
X4.56Y-3.755
X4.583Y-3.369
X4.588Y-3.166
X4.619Y-3.608
X4.6197Y-3.0969
X4.629Y-3.259
X4.6335Y-4.3272
X4.653Y-3.679
X4.6929Y-3.1732
X4.702Y-4.8543
X4.712Y-3.747
X4.7677Y-4.3268
X4.772Y-3.0142
X4.7795Y-3.2559
X4.815Y-3.4567
X4.858Y-4.412
X4.8937Y-4.3307
X4.9354Y-2.8902
X4.941Y-4.494
X4.9449Y-3.4016
X4.969Y-3.477
X4.981Y-4.411
X5.0008Y-4.8669
X5.013Y-4.578
X5.0217Y-3.276
X5.073Y-4.507
X5.084Y-4.127
X5.152Y-4.572
X5.155Y-3.385
X5.173Y-3.477
X5.194Y-3.182
X5.2Y-3.287
X5.2043Y-4.8689
X5.21Y-3.015
X5.222Y-3.755
X5.227Y-3.677
X5.23Y-3.592
X5.2323Y-4.7756
X5.2468Y-2.9732
X5.25Y-3.051
X5.273Y-2.884
X5.2847Y-2.9443
X5.304Y-3.07
X5.3079Y-3.248
X5.315Y-3.3976
X5.315Y-3.593
X5.315Y-3.757
X5.319Y-3.678
X5.3215Y-3.534
X5.35Y-2.981
X5.353Y-3.534
X5.359Y-3.251
X5.3744Y-4.8717
X5.403Y-3.753
X5.409Y-4.311
X5.4103Y-3.2287
X5.414Y-3.025
X5.43Y-4.245
X5.455Y-3.4
X5.4551Y-3.25
X5.462Y-4.504
X5.4622Y-4.6902
X5.463Y-4.57
X5.464Y-4.202
X5.464Y-4.41
X5.472Y-3.064
X5.474Y-3.603
X5.475Y-3.677
X5.4776Y-4.6461
X5.478Y-3.927
X5.509Y-3.317
X5.548Y-3.93
X5.5768Y-2.889
X5.583Y-4.305
X5.585Y-4.502
X5.585Y-4.569
X5.5862Y-4.6933
X5.587Y-3.679
X5.587Y-4.409
X5.588Y-3.312
X5.593Y-3.599
X5.593Y-4.204
X5.608Y-3.753
X5.611Y-3.185
X5.6969Y-3.6772
X5.6999Y-3.4029
X5.7004Y-4.6969
X5.701Y-4.408
X5.703Y-4.311
X5.707Y-4.497
X5.709Y-3.752
X5.71Y-4.568
X5.712Y-3.361
X5.7208Y-3.4572
X5.721Y-4.2
X5.7677Y-3.6811
X5.7717Y-3.6142
X5.804Y-3.151
X5.831Y-4.821
X5.8323Y-4.8705
X5.8425Y-2.8937
X5.847Y-3.757
X5.8504Y-3.6142
X5.8504Y-3.685
X5.933Y-3.465
X5.97Y-3.151
X6.0031Y-4.8705
X6.0358Y-3.0098
X6.1575Y-3.3217
X6.185Y-2.8965
X6.2319Y-4.8677
X6.2874Y-3.1575
X6.2882Y-3.0165
X6.344Y-3.589
X6.3465Y-3.6772
X6.3543Y-3.7559
X6.385Y-3.714
X6.4008Y-3.3161
X6.4213Y-3.6823
X6.436Y-3.113
X6.4677Y-4.8736
X6.4685Y-3.4764
X6.4756Y-3.5961
X6.498Y-4.408
X6.5173Y-3.674
X6.519Y-3.157
X6.5276Y-3.0512
X6.544Y-4.364
X6.5512Y-2.9055
X6.5551Y-2.9803
X6.5559Y-4.5764
X6.568Y-3.04
X6.5748Y-3.2205
X6.5843Y-3.4921
X6.5906Y-3.3465
X6.6Y-4.303
X6.615Y-4.502
X6.62Y-3.117
X6.62Y-3.285
X6.629Y-3.065
X6.635Y-3.162
X6.6432Y-4.44
X6.6567Y-4.5756
X6.679Y-3.225
X6.6862Y-4.2087
X6.7059Y-4.378
X6.7063Y-3.3728
X6.7165Y-3.7283
X6.7185Y-4.8693
X6.7244Y-3.474
X6.7244Y-4.063
X6.7323Y-4.5039
X6.7402Y-3.16
X6.784Y-3.072
X6.7913Y-3.2205
X6.8189Y-3.6575
X6.8189Y-4.3268
X6.8209Y-2.9161
X6.8228Y-4.1575
X6.8256Y-3.2988
X6.8268Y-3.4961
X6.8425Y-4.0154
X6.8476Y-4.3807
X6.858Y-3.16
X6.8673Y-4.8591
X6.899Y-4.097
X6.9126Y-4.2291
X6.9126Y-4.4127
X6.917Y-3.343
X6.9606Y-4.0472
X6.9646Y-3.8819
X6.9921Y-4.4685
X7.007Y-3.326
X7.0079Y-3.626
X7.0157Y-3.5157
X7.0197Y-4.122
X7.0197Y-4.2756
X7.0394Y-3.1575
X7.058Y-3.981
X7.063Y-3.0709
X7.07Y-4.0961
X7.0736Y-3.3256
X7.0748Y-3.8031
X7.0752Y-4.1886
X7.0933Y-3.5646
X7.1142Y-3.4748
X7.1209Y-4.3083
X7.124Y-4.778
X7.1846Y-3.0059
X7.1965Y-4.0319
X7.1969Y-3.4094
X7.1986Y-3.4746
X7.199Y-3.884
X7.204Y-3.761
X7.2071Y-3.322
X7.223Y-3.983
X7.2243Y-4.1115
X7.2374Y-4.3543
X7.2429Y-3.1539
X7.245Y-3.523
X7.2598Y-4.2008
X7.2913Y-3.0748
X7.2921Y-3.9764
X7.3118Y-4.6701
X7.3232Y-4.2449
X7.327Y-4.349
X7.3811Y-3.128
X7.393Y-4.165
X7.423Y-4.402
X7.4248Y-3.3457
X7.4441Y-3.5783
X7.4535Y-4.548
X7.4591Y-3.8732
X7.4846Y-4.3787
X7.5012Y-3.4201
X7.5012Y-4.2642
X7.5319Y-3.3228
X7.5937Y-4.2705
X7.5996Y-4.3465
X7.6366Y-3.4854
X7.6917Y-4.1354
X7.7094Y-3.7177
X7.7232Y-3.9886
T3
X3.3601Y-2.9181
X3.3601Y-3.0181
X3.3601Y-3.1181
X3.3601Y-3.2181
X3.3601Y-3.3181
X3.3601Y-3.4181
X3.3601Y-3.5181
X3.3601Y-3.6181
X3.3601Y-3.7181
X3.3601Y-3.8181
X3.3601Y-3.9181
X3.376Y-4.705
X3.376Y-4.805
X4.0601Y-2.9181
X4.0601Y-3.0181
X4.0601Y-3.1181
X4.0601Y-3.2181
X4.0601Y-3.3181
X4.0601Y-3.4181
X4.0601Y-3.5181
X4.0601Y-3.6181
X4.0601Y-3.7181
X4.0601Y-3.8181
X4.0601Y-3.9181
T2
G00X3.6295Y-4.6598
M15
G01X3.6295Y-4.6323
M16
G05
G00X3.6295Y-4.8094
M15
G01X3.6295Y-4.7819
M16
G05
G00X3.9697Y-4.6598
M15
G01X3.9697Y-4.6323
M16
G05
G00X3.9697Y-4.8094
M15
G01X3.9697Y-4.7819
M16
G05
M30
