%TF.GenerationSoftware,KiCad,Pcbnew,10.0.5*%
%TF.CreationDate,2026-09-06T22:20:34-04:00*%
%TF.ProjectId,SeedSigner-Plus-smartcard-pico,53656564-5369-4676-9e65-722d506c7573,rev?*%
%TF.SameCoordinates,Original*%
%TF.FileFunction,Copper,L1,Top*%
%TF.FilePolarity,Positive*%
%FSLAX46Y46*%
G04 Gerber Fmt 4.6, Leading zero omitted, Abs format (unit mm)*
G04 Created by KiCad (PCBNEW 10.0.5) date 2026-09-06 22:20:34*
%MOMM*%
%LPD*%
G01*
G04 APERTURE LIST*
G04 Aperture macros list*
%AMRotRect*
0 Rectangle, with rotation*
0 The origin of the aperture is its center*
0 $1 length*
0 $2 width*
0 $3 Rotation angle, in degrees counterclockwise*
0 Add horizontal line*
21,1,$1,$2,0,0,$3*%
%AMFreePoly0*
4,1,33,0.221197,0.729189,0.359204,0.672024,0.483408,0.589034,0.589034,0.483408,0.672024,0.359204,0.729189,0.221197,0.758331,0.074689,0.758331,-0.074689,0.729189,-0.221197,0.672024,-0.359204,0.589034,-0.483408,0.483408,-0.589034,0.359204,-0.672024,0.221197,-0.729189,0.074689,-0.758331,-0.074689,-0.758331,-0.221197,-0.729189,-0.359204,-0.672024,-0.483408,-0.589034,-0.589034,-0.483408,
-0.672024,-0.359204,-0.729189,-0.221197,-0.758331,-0.074689,-0.758331,0.074689,-0.729189,0.221197,-0.672024,0.359204,-0.589034,0.483408,-0.483408,0.589034,-0.359204,0.672024,-0.221197,0.729189,-0.074689,0.758331,0.074689,0.758331,0.221197,0.729189,0.221197,0.729189,$1*%
G04 Aperture macros list end*
%TA.AperFunction,Conductor*%
%ADD10C,0.000000*%
%TD*%
%TA.AperFunction,SMDPad,CuDef*%
%ADD11RotRect,3.000000X1.599999X135.000000*%
%TD*%
%TA.AperFunction,SMDPad,CuDef*%
%ADD12RotRect,3.000000X1.600000X135.000000*%
%TD*%
%TA.AperFunction,SMDPad,CuDef*%
%ADD13R,3.000000X1.599999*%
%TD*%
%TA.AperFunction,SMDPad,CuDef*%
%ADD14R,3.000000X1.600000*%
%TD*%
%TA.AperFunction,SMDPad,CuDef*%
%ADD15R,1.599999X3.000000*%
%TD*%
%TA.AperFunction,SMDPad,CuDef*%
%ADD16R,1.600000X3.000000*%
%TD*%
%TA.AperFunction,SMDPad,CuDef*%
%ADD17RotRect,3.000000X1.599999X45.000000*%
%TD*%
%TA.AperFunction,SMDPad,CuDef*%
%ADD18RotRect,3.000000X1.600000X45.000000*%
%TD*%
%TA.AperFunction,SMDPad,CuDef*%
%ADD19RotRect,3.000000X1.599999X315.000000*%
%TD*%
%TA.AperFunction,SMDPad,CuDef*%
%ADD20RotRect,3.000000X1.600000X315.000000*%
%TD*%
%TA.AperFunction,ComponentPad*%
%ADD21C,1.524000*%
%TD*%
%TA.AperFunction,ComponentPad*%
%ADD22FreePoly0,180.000000*%
%TD*%
%TA.AperFunction,ComponentPad*%
%ADD23R,1.700000X1.700000*%
%TD*%
%TA.AperFunction,ComponentPad*%
%ADD24C,1.700000*%
%TD*%
%TA.AperFunction,HeatsinkPad*%
%ADD25O,1.000000X1.700000*%
%TD*%
%TA.AperFunction,ViaPad*%
%ADD26C,0.600000*%
%TD*%
%TA.AperFunction,Conductor*%
%ADD27C,0.200000*%
%TD*%
G04 APERTURE END LIST*
D10*
%TA.AperFunction,Conductor*%
%TO.N,GND*%
G36*
X99935910Y-117868570D02*
G01*
X99925240Y-117852720D01*
X99914090Y-117837200D01*
X99902470Y-117822030D01*
X99890380Y-117807240D01*
X99877830Y-117792820D01*
X99864850Y-117778800D01*
X99851440Y-117765190D01*
X99837610Y-117752000D01*
X99823390Y-117739240D01*
X99808770Y-117726930D01*
X99793780Y-117715080D01*
X99793920Y-117714900D01*
X99935910Y-117714900D01*
X99935910Y-117868570D01*
G37*
%TD.AperFunction*%
%TD*%
D11*
%TO.P,SW503,1,1_1*%
%TO.N,JoystickPress*%
X85651981Y-103725981D03*
D12*
%TO.P,SW503,2,2_2*%
%TO.N,GND*%
X79288019Y-97362019D03*
%TD*%
D13*
%TO.P,SW504,1,1_1*%
%TO.N,JoystickDown*%
X86970000Y-110970000D03*
D14*
%TO.P,SW504,2,2_2*%
%TO.N,GND*%
X77970000Y-110970000D03*
%TD*%
D15*
%TO.P,SW501,1,1_1*%
%TO.N,JoystickLeft*%
X71980000Y-105044000D03*
D16*
%TO.P,SW501,2,2_2*%
%TO.N,GND*%
X71980000Y-96044000D03*
%TD*%
D13*
%TO.P,SW505,1,1_1*%
%TO.N,JoystickRight*%
X88419999Y-100544000D03*
D14*
%TO.P,SW505,2,2_2*%
%TO.N,GND*%
X97420001Y-100544000D03*
%TD*%
D15*
%TO.P,SW502,1,1_1*%
%TO.N,JoystickUp*%
X82470000Y-94550001D03*
D16*
%TO.P,SW502,2,2_2*%
%TO.N,GND*%
X82470000Y-85549999D03*
%TD*%
D17*
%TO.P,SW508,1,1_1*%
%TO.N,Key3*%
X173698019Y-114041981D03*
D18*
%TO.P,SW508,2,2_2*%
%TO.N,GND*%
X180061981Y-107678019D03*
%TD*%
D15*
%TO.P,SW507,1,1_1*%
%TO.N,Key2*%
X176880000Y-105030001D03*
D16*
%TO.P,SW507,2,2_2*%
%TO.N,GND*%
X176880000Y-96029999D03*
%TD*%
D19*
%TO.P,SW506,1,1_1*%
%TO.N,Key1*%
X173698018Y-87078019D03*
D20*
%TO.P,SW506,2,2_2*%
%TO.N,GND*%
X180061982Y-93441981D03*
%TD*%
D21*
%TO.P,U202,1,VBUS_1*%
%TO.N,+5V*%
X103127500Y-74120000D03*
%TO.P,U202,2,GND_2*%
%TO.N,GND*%
X103127500Y-76660000D03*
%TO.P,U202,3,3V3(OUT)_3*%
%TO.N,+3.3V*%
X103127500Y-79200000D03*
%TO.P,U202,4,GPIO1_B2_d_4*%
%TO.N,UART_TX*%
X103127500Y-81740000D03*
%TO.P,U202,5,GPIO1_B3_u_5*%
%TO.N,UART_RX*%
X103127500Y-84280000D03*
%TO.P,U202,6,SPI0_CS0_M0/IO1_C0_d_6*%
%TO.N,Net-(JP203-B)*%
X103127500Y-86820000D03*
%TO.P,U202,7,SPI0_CLK_M0/IO1_C1_d_7*%
%TO.N,LCD_SCLK*%
X103127500Y-89360000D03*
%TO.P,U202,8,SPI0_MOSI_M0/GPIO1_C2_d_8*%
%TO.N,LCD_MOSI*%
X103127500Y-91900000D03*
%TO.P,U202,9,SPI0_MISO_M0/GPIO1_C3_d_9*%
%TO.N,LCD_RST*%
X103127500Y-94440000D03*
%TO.P,U202,10,GPIO1_C4_d_10*%
%TO.N,LCD_DC*%
X103127500Y-96980000D03*
%TO.P,U202,11,GPIO1_C5_d_11*%
%TO.N,Key3*%
X103127500Y-99520000D03*
%TO.P,U202,12,GPIO1_D0_d_12*%
%TO.N,JoystickLeft*%
X85347500Y-99520000D03*
%TO.P,U202,13,GPIO1_D1_d_13*%
%TO.N,JoystickUp*%
X85347500Y-96980000D03*
%TO.P,U202,14,GPIO1_D2_d_14*%
%TO.N,I2C-SDA*%
X85347500Y-94440000D03*
%TO.P,U202,15,GPIO1_D3_d_15*%
%TO.N,I2C-SCL*%
X85347500Y-91900000D03*
%TO.P,U202,16,GPIO1_C6_d_16*%
%TO.N,JoystickPress*%
X85347500Y-89360000D03*
%TO.P,U202,17,GPIO1_C7_d_17*%
%TO.N,JoystickDown*%
X85347500Y-86820000D03*
%TO.P,U202,18,GPIO0_A4_d_18*%
%TO.N,JoystickRight*%
X85347500Y-84280000D03*
%TO.P,U202,19,GPIO4_C0_z_19*%
%TO.N,Key1*%
X85347500Y-81740000D03*
%TO.P,U202,20,GPIO4_C1_z_20*%
%TO.N,Key2*%
X85347500Y-79200000D03*
%TO.P,U202,21,GND_21*%
%TO.N,GND*%
X85347500Y-76660000D03*
D22*
%TO.P,U202,22,1V8(OUT)_22*%
%TO.N,unconnected-(U202-1V8(OUT)-Pad22)*%
X85347500Y-74120000D03*
%TD*%
D23*
%TO.P,J302,1,Pin_1_1*%
%TO.N,+5V*%
X85750400Y-122047000D03*
D24*
%TO.P,J302,2,Pin_2_2*%
%TO.N,GND*%
X85750400Y-119507000D03*
%TD*%
D25*
%TO.P,J301,S1,SHIELD_S1*%
%TO.N,GND*%
X100830000Y-121810000D03*
X100830000Y-118010000D03*
X92190000Y-121810000D03*
X92190000Y-118010000D03*
%TD*%
D26*
%TO.N,GND*%
X89510000Y-109510000D03*
X89740000Y-111150000D03*
X95320000Y-113980000D03*
%TO.N,JoystickPress*%
X81330800Y-98526600D03*
%TO.N,GND*%
X196170000Y-101310000D03*
X112790000Y-76710000D03*
X131394200Y-88315800D03*
X106121200Y-101295200D03*
X161200000Y-93400000D03*
X76400000Y-101700000D03*
X145084800Y-85369400D03*
X114200000Y-114000000D03*
X125360000Y-73410000D03*
X172313600Y-78028800D03*
X103210000Y-103580000D03*
X70231000Y-94107000D03*
X76360000Y-98680000D03*
X186105800Y-110464600D03*
X111350000Y-75330000D03*
X151638000Y-80035400D03*
X113600000Y-88400000D03*
X78200000Y-99900000D03*
X127330200Y-116281200D03*
X107467400Y-82981800D03*
X167000000Y-81800000D03*
X109610000Y-95340000D03*
X76301600Y-86944200D03*
X138785600Y-106730800D03*
X113284000Y-85598000D03*
X169646600Y-81915000D03*
X186010000Y-107820000D03*
X119684800Y-95173800D03*
X178200000Y-89300000D03*
X115824000Y-95377000D03*
X144957800Y-114223800D03*
X183830000Y-110600000D03*
X153310000Y-76450000D03*
X138560000Y-82550000D03*
X78900000Y-93000000D03*
X173800000Y-101990000D03*
X191310000Y-84400000D03*
X119200000Y-80600000D03*
X173370000Y-83790000D03*
X132334000Y-76581000D03*
X64250000Y-110160000D03*
X176800000Y-102800000D03*
X173200000Y-109900000D03*
X109296200Y-76454000D03*
X73900000Y-119130000D03*
X138734800Y-114401600D03*
X177977800Y-84480400D03*
X93014800Y-116128800D03*
X127550000Y-83210000D03*
X97443800Y-102600000D03*
X129133600Y-104825800D03*
X183464200Y-101168200D03*
X121210000Y-76560000D03*
X99999800Y-116255800D03*
X165540000Y-93320000D03*
X145313400Y-106680000D03*
X175234600Y-104063800D03*
X141935200Y-84124800D03*
X84886800Y-109245400D03*
X164480000Y-91340000D03*
X161400000Y-95400000D03*
X185200000Y-78100000D03*
X145034000Y-116027200D03*
X89670000Y-113460000D03*
X76400000Y-94700000D03*
X165049200Y-111963200D03*
X66920000Y-114000000D03*
X172500000Y-81800000D03*
X132190000Y-123670000D03*
X165800000Y-77500000D03*
X97820000Y-106980000D03*
X178000000Y-92100000D03*
X167240000Y-88700000D03*
X61700000Y-101130000D03*
X76377800Y-105054400D03*
X74000000Y-76570000D03*
X107162600Y-95961200D03*
X190110000Y-111220000D03*
X116535200Y-80416400D03*
X156400000Y-84370000D03*
X170650000Y-123680000D03*
X166217600Y-110845600D03*
X140919200Y-99822000D03*
X180870000Y-109430000D03*
X185220000Y-101000000D03*
X163100000Y-93530000D03*
X148600000Y-93600000D03*
X69870000Y-117000000D03*
X78300000Y-91000000D03*
X173400000Y-88800000D03*
X81483200Y-80797400D03*
X170800000Y-103200000D03*
X167400000Y-85000000D03*
X171000000Y-114400000D03*
X113944400Y-80314800D03*
X117690000Y-109910000D03*
X180700000Y-88260000D03*
X135001000Y-95427800D03*
X89763600Y-118313200D03*
X106600000Y-88100000D03*
X142062200Y-106781600D03*
X110910000Y-123440000D03*
X188590000Y-84980000D03*
X88620000Y-114260000D03*
X193970000Y-88530000D03*
X141859000Y-116052600D03*
X106476800Y-90500200D03*
X116408200Y-85572600D03*
X148400000Y-73500000D03*
X78030000Y-121410000D03*
X141890000Y-119210000D03*
X98900000Y-123600000D03*
X137388600Y-109499400D03*
X78190000Y-75050000D03*
X187782200Y-105791000D03*
X122300000Y-87800000D03*
X144790000Y-119300000D03*
X135102600Y-93421200D03*
X111353600Y-95656400D03*
X132765800Y-93395800D03*
X68840000Y-80220000D03*
X137236200Y-95326200D03*
X182854600Y-98653600D03*
X179670000Y-84470000D03*
X168376600Y-77851000D03*
X175580000Y-107420000D03*
X107000000Y-99500000D03*
X189460000Y-98380000D03*
X187480000Y-79450000D03*
X189080000Y-90890000D03*
X170340000Y-85670000D03*
X144700000Y-93400000D03*
X182981600Y-95529400D03*
X173250000Y-74070000D03*
X179700000Y-96600000D03*
X190530000Y-108310000D03*
X170600000Y-94700000D03*
X78765400Y-94996000D03*
X165582600Y-80187800D03*
X134721600Y-77978000D03*
X166400000Y-73800000D03*
X192880000Y-108470000D03*
X167640000Y-109296200D03*
X78943200Y-102590600D03*
X123393200Y-112064800D03*
X142062200Y-91414600D03*
X104800000Y-75500000D03*
X106883200Y-85521800D03*
X100920000Y-100210000D03*
X94880000Y-123680000D03*
X124300000Y-110000000D03*
X132842000Y-91236800D03*
X178300000Y-104700000D03*
X87147400Y-115900200D03*
X145008600Y-95300800D03*
X180170000Y-90540000D03*
X147421600Y-80035400D03*
X127020000Y-123620000D03*
X139928600Y-84251800D03*
X76300000Y-91500000D03*
X82000000Y-75600000D03*
X145308603Y-87812597D03*
X118186200Y-93446600D03*
X179273200Y-101117400D03*
X174430000Y-123420000D03*
X184400000Y-106700000D03*
X113868200Y-82854800D03*
X195370000Y-105040000D03*
X157100000Y-73570000D03*
X146500000Y-93500000D03*
X176900000Y-98600000D03*
X159720000Y-76620000D03*
X174193200Y-80264000D03*
X148107400Y-122453400D03*
X132900000Y-121300000D03*
X114300000Y-93472000D03*
X190530000Y-86870000D03*
X62000000Y-92890000D03*
X173930000Y-111270000D03*
X131927600Y-80822800D03*
X168736943Y-112775473D03*
X142519400Y-80899000D03*
X164280000Y-123790000D03*
X136510000Y-123740000D03*
X82290000Y-111310000D03*
X144805400Y-111963200D03*
X139141200Y-99745800D03*
X62070000Y-105040000D03*
X193030000Y-110400000D03*
X135000000Y-86300000D03*
X178300000Y-108600000D03*
X126517400Y-112039400D03*
X183970000Y-80110000D03*
X170800000Y-88239600D03*
X117576600Y-82778600D03*
X138988800Y-77825600D03*
X146600000Y-91800000D03*
X130860800Y-116128800D03*
X75400000Y-110850000D03*
X111740000Y-90630000D03*
X138740000Y-119130000D03*
X135001000Y-91262200D03*
X63160000Y-88040000D03*
X164300000Y-88300000D03*
X134820000Y-82500000D03*
X61320000Y-96580000D03*
X182490000Y-76350000D03*
X141859000Y-114350800D03*
X169080000Y-116220000D03*
X139039600Y-91516200D03*
X89484200Y-102793800D03*
X104620000Y-123660000D03*
X148600000Y-91800000D03*
X166520000Y-116240000D03*
X168148000Y-83439000D03*
X121400000Y-82700000D03*
X195820000Y-94430000D03*
X138785600Y-112014000D03*
X162580000Y-84230000D03*
X119430000Y-123300000D03*
X87604600Y-106095800D03*
X171200000Y-80264000D03*
X185720000Y-118620000D03*
X133934200Y-73253600D03*
X125501400Y-114147600D03*
X117322600Y-91643200D03*
X175691800Y-84912200D03*
X152480000Y-123710000D03*
X173300000Y-105600000D03*
X141650000Y-73380000D03*
X104890000Y-93330000D03*
X106222800Y-77647800D03*
X148513800Y-95427800D03*
X117340000Y-78660000D03*
X115570000Y-111861600D03*
X189320000Y-115520000D03*
X163474400Y-79070200D03*
X170330000Y-111200000D03*
X113470000Y-73410000D03*
X148140000Y-123710000D03*
X159700000Y-80200000D03*
X125600000Y-86400000D03*
X168021000Y-114350800D03*
X142443200Y-95326200D03*
X179710000Y-106390000D03*
X169830000Y-106900000D03*
X180950000Y-121360000D03*
X78511400Y-88315800D03*
X114200000Y-116300000D03*
X138760200Y-116078000D03*
X99830000Y-108280000D03*
X132638800Y-95377000D03*
X158290000Y-123640000D03*
X144856200Y-109499400D03*
X85852000Y-117983000D03*
X178800000Y-80200000D03*
X121100000Y-109900000D03*
X135890000Y-75717400D03*
X103555800Y-113385600D03*
X182800000Y-86600000D03*
X183060000Y-84380000D03*
X128854200Y-114477800D03*
X150698200Y-88011000D03*
X179400000Y-78000000D03*
X173200000Y-92900000D03*
X132080000Y-83489800D03*
X161137600Y-91160600D03*
X139065000Y-93395800D03*
X141909800Y-93446600D03*
X126212600Y-88315800D03*
X168529000Y-80314800D03*
X177600000Y-113500000D03*
X65610000Y-84090000D03*
X100720000Y-103640000D03*
X80289400Y-85471000D03*
X141808200Y-109347000D03*
X130937000Y-85979000D03*
X166500000Y-75700000D03*
X141909800Y-111988600D03*
X108780000Y-80250000D03*
X107540000Y-93290000D03*
%TO.N,JoystickDown*%
X78066200Y-98233800D03*
%TO.N,JoystickLeft*%
X74218800Y-105054400D03*
%TO.N,RPI_BACKLIGHT*%
X168148000Y-79171800D03*
X188544200Y-111810800D03*
%TO.N,/Smartcard Interface/SEC1210_RESET*%
X137420815Y-82009785D03*
X136118600Y-82575400D03*
%TO.N,Net-(JP203-B)*%
X115163600Y-79375000D03*
X137515600Y-76835000D03*
X133350000Y-77495400D03*
X114630200Y-85801200D03*
%TO.N,+3.3V*%
X134232565Y-74784035D03*
X133269735Y-75518265D03*
X184023000Y-89484200D03*
X182844800Y-88255200D03*
%TO.N,/Smartcard Interface/SEC1210_SC_VCC*%
X135166197Y-89763600D03*
X144777420Y-86432884D03*
%TO.N,/Smartcard Interface/SEC1210_SC_RST*%
X135966200Y-89763600D03*
X138557000Y-86360000D03*
%TO.N,+5V*%
X90779600Y-120929400D03*
X98111865Y-116196665D03*
X94236728Y-116151472D03*
%TO.N,RPI_SPI_CS*%
X166827200Y-77216000D03*
X183497211Y-104432219D03*
%TO.N,LCD_SCLK*%
X179578000Y-104040000D03*
X137922000Y-107823000D03*
%TO.N,LCD_DC*%
X175580000Y-112082767D03*
%TO.N,LCD_MOSI*%
X139130000Y-118010000D03*
X182790000Y-102410000D03*
%TO.N,LCD_RST*%
X162179000Y-94335600D03*
%TD*%
%TO.N,JoystickPress*%
D27*
X81330800Y-99404800D02*
X81330800Y-98526600D01*
X85651981Y-103725981D02*
X81330800Y-99404800D01*
%TO.N,GND*%
X179130000Y-92509999D02*
X178720001Y-92100000D01*
X176880000Y-96029999D02*
X176880000Y-98580000D01*
X97420001Y-102576201D02*
X97420001Y-100544000D01*
X179860600Y-100530000D02*
X179273200Y-101117400D01*
X180700000Y-88260000D02*
X179240000Y-88260000D01*
X181380000Y-100530000D02*
X179860600Y-100530000D01*
X75520000Y-110970000D02*
X75400000Y-110850000D01*
X79288019Y-97362019D02*
X79288019Y-95518619D01*
X179221981Y-107678019D02*
X178300000Y-108600000D01*
X71980000Y-95856000D02*
X70231000Y-94107000D01*
X182018200Y-101168200D02*
X181380000Y-100530000D01*
X183464200Y-101168200D02*
X182018200Y-101168200D01*
X71980000Y-96044000D02*
X71980000Y-95856000D01*
X179240000Y-88260000D02*
X178200000Y-89300000D01*
X83060000Y-76660000D02*
X82000000Y-75600000D01*
X79288019Y-95518619D02*
X78765400Y-94996000D01*
X77970000Y-110970000D02*
X75520000Y-110970000D01*
X178720001Y-92100000D02*
X178000000Y-92100000D01*
X179170000Y-98530000D02*
X179100000Y-98600000D01*
X85347500Y-76660000D02*
X83060000Y-76660000D01*
X176880000Y-98580000D02*
X176900000Y-98600000D01*
X80368399Y-85549999D02*
X80289400Y-85471000D01*
X82470000Y-85549999D02*
X80368399Y-85549999D01*
X97443800Y-102600000D02*
X97420001Y-102576201D01*
X180061981Y-107678019D02*
X179221981Y-107678019D01*
%TO.N,JoystickDown*%
X86970000Y-107137600D02*
X86970000Y-110970000D01*
X78066200Y-98233800D02*
X86970000Y-107137600D01*
%TO.N,JoystickLeft*%
X74218800Y-105054400D02*
X74208400Y-105044000D01*
X74208400Y-105044000D02*
X71980000Y-105044000D01*
%TO.N,JoystickRight*%
X88381999Y-100582000D02*
X84907605Y-100582000D01*
X81370001Y-97044396D02*
X81370001Y-91835604D01*
X84907605Y-100582000D02*
X81370001Y-97044396D01*
X84285500Y-87139100D02*
X84285500Y-85342000D01*
X81356200Y-91821803D02*
X81356200Y-90068400D01*
X84285500Y-85342000D02*
X85347500Y-84280000D01*
X88419999Y-100544000D02*
X88381999Y-100582000D01*
X81370001Y-91835604D02*
X81356200Y-91821803D01*
X81356200Y-90068400D02*
X84285500Y-87139100D01*
%TO.N,JoystickUp*%
X82917501Y-94550001D02*
X85347500Y-96980000D01*
X82470000Y-94550001D02*
X82917501Y-94550001D01*
%TO.N,Key3*%
X103127500Y-101552700D02*
X114757200Y-113182400D01*
X172925599Y-115214400D02*
X174180000Y-113959999D01*
X128331129Y-113182400D02*
X128686729Y-113538000D01*
X103127500Y-99520000D02*
X103127500Y-101552700D01*
X114757200Y-113182400D02*
X128331129Y-113182400D01*
X173194038Y-113538000D02*
X173615176Y-113959138D01*
X128686729Y-113538000D02*
X173194038Y-113538000D01*
%TO.N,Key2*%
X176880000Y-112980000D02*
X173620000Y-116240000D01*
X171854400Y-115214400D02*
X88072129Y-115214400D01*
X77361673Y-87185827D02*
X85347500Y-79200000D01*
X173620000Y-116240000D02*
X172880000Y-116240000D01*
X176880000Y-105030001D02*
X176880000Y-112980000D01*
X77361673Y-104503944D02*
X77361673Y-87185827D01*
X88072129Y-115214400D02*
X77361673Y-104503944D01*
X172880000Y-116240000D02*
X171854400Y-115214400D01*
%TO.N,Key1*%
X101927500Y-101244264D02*
X101927500Y-92430600D01*
X83885500Y-86973414D02*
X80956200Y-89902714D01*
X85347500Y-81740000D02*
X83885500Y-83202000D01*
X172799999Y-86180000D02*
X172929999Y-86310000D01*
X88770000Y-105010081D02*
X98161683Y-105010081D01*
X165029400Y-92430600D02*
X171280000Y-86180000D01*
X98161683Y-105010081D02*
X101927500Y-101244264D01*
X80956200Y-89902714D02*
X80956200Y-97196281D01*
X80956200Y-97196281D02*
X88770000Y-105010081D01*
X102687605Y-92962000D02*
X103567395Y-92962000D01*
X83885500Y-83202000D02*
X83885500Y-86973414D01*
X173398529Y-86310000D02*
X173451414Y-86362885D01*
X171280000Y-86180000D02*
X172799999Y-86180000D01*
X101927500Y-92430600D02*
X102156205Y-92430600D01*
X103567395Y-92962000D02*
X104098795Y-92430600D01*
X172929999Y-86310000D02*
X173398529Y-86310000D01*
X104098795Y-92430600D02*
X165029400Y-92430600D01*
X102156205Y-92430600D02*
X102687605Y-92962000D01*
%TO.N,RPI_BACKLIGHT*%
X191560000Y-86320000D02*
X191560000Y-108795000D01*
X184411800Y-79171800D02*
X191560000Y-86320000D01*
X168148000Y-79171800D02*
X184411800Y-79171800D01*
X191560000Y-108795000D02*
X188544200Y-111810800D01*
%TO.N,/Smartcard Interface/SEC1210_RESET*%
X136684215Y-82009785D02*
X136118600Y-82575400D01*
X137420815Y-82009785D02*
X136684215Y-82009785D01*
%TO.N,Net-(JP203-B)*%
X115163600Y-85267800D02*
X114630200Y-85801200D01*
X134010400Y-76835000D02*
X133350000Y-77495400D01*
X137515600Y-76835000D02*
X134010400Y-76835000D01*
X115163600Y-79375000D02*
X115163600Y-85267800D01*
%TO.N,+3.3V*%
X133269735Y-75518265D02*
X133498335Y-75518265D01*
X133498335Y-75518265D02*
X134232565Y-74784035D01*
X184023000Y-89484200D02*
X184023000Y-89433400D01*
X184023000Y-89433400D02*
X182844800Y-88255200D01*
%TO.N,/Smartcard Interface/SEC1210_SC_VCC*%
X135166197Y-89763600D02*
X135166197Y-89496803D01*
X138393020Y-85674200D02*
X144018736Y-85674200D01*
X135331200Y-89331800D02*
X135331200Y-88736020D01*
X135166197Y-89496803D02*
X135331200Y-89331800D01*
X135331200Y-88736020D02*
X138393020Y-85674200D01*
X144018736Y-85674200D02*
X144777420Y-86432884D01*
%TO.N,/Smartcard Interface/SEC1210_SC_RST*%
X135966200Y-88950800D02*
X138557000Y-86360000D01*
X135966200Y-89763600D02*
X135966200Y-88950800D01*
%TO.N,+5V*%
X91005971Y-120675400D02*
X94236728Y-117444643D01*
X94236728Y-116151472D02*
X98066672Y-116151472D01*
X90779600Y-120929400D02*
X91005971Y-120703029D01*
X98066672Y-116151472D02*
X98111865Y-116196665D01*
X91005971Y-120703029D02*
X91005971Y-120675400D01*
X94236728Y-117444643D02*
X94236728Y-116151472D01*
%TO.N,RPI_SPI_CS*%
X166827200Y-80607200D02*
X166827200Y-77216000D01*
X178577800Y-84892115D02*
X178577800Y-84231871D01*
X183497211Y-104432219D02*
X183497211Y-103522789D01*
X183497211Y-103522789D02*
X184430000Y-102590000D01*
X184430000Y-102590000D02*
X184430000Y-90744315D01*
X184430000Y-90744315D02*
X178577800Y-84892115D01*
X167134800Y-80914800D02*
X166827200Y-80607200D01*
X178577800Y-84231871D02*
X175260729Y-80914800D01*
X175260729Y-80914800D02*
X167134800Y-80914800D01*
%TO.N,LCD_SCLK*%
X173248529Y-110700000D02*
X171100000Y-110700000D01*
X179578000Y-104040000D02*
X179578000Y-103178000D01*
X179518000Y-104100000D02*
X179578000Y-104040000D01*
X179578000Y-103178000D02*
X178270000Y-101870000D01*
X168223000Y-107823000D02*
X137922000Y-107823000D01*
X173900000Y-110048529D02*
X173248529Y-110700000D01*
X178270000Y-101870000D02*
X175650000Y-101870000D01*
X173900000Y-103620000D02*
X173900000Y-110048529D01*
X175650000Y-101870000D02*
X173900000Y-103620000D01*
X171100000Y-110700000D02*
X168223000Y-107823000D01*
%TO.N,LCD_DC*%
X117094700Y-110947200D02*
X103127500Y-96980000D01*
X169926129Y-112080000D02*
X169580729Y-111734600D01*
X173697133Y-112082767D02*
X173694366Y-112080000D01*
X169580729Y-111734600D02*
X165862000Y-111734600D01*
X165862000Y-111734600D02*
X165074600Y-110947200D01*
X173694366Y-112080000D02*
X169926129Y-112080000D01*
X175580000Y-112082767D02*
X173697133Y-112082767D01*
X165074600Y-110947200D02*
X117094700Y-110947200D01*
%TO.N,LCD_MOSI*%
X182770000Y-109178529D02*
X182770000Y-109600000D01*
X144590000Y-118000000D02*
X139140000Y-118000000D01*
X144610000Y-117980000D02*
X144590000Y-118000000D01*
X182770000Y-109600000D02*
X174390000Y-117980000D01*
X182790000Y-109158529D02*
X182770000Y-109178529D01*
X139140000Y-118000000D02*
X139130000Y-118010000D01*
X182790000Y-102410000D02*
X182790000Y-109158529D01*
X174390000Y-117980000D02*
X144610000Y-117980000D01*
%TO.N,LCD_RST*%
X162074600Y-94440000D02*
X162179000Y-94335600D01*
X103127500Y-94440000D02*
X162074600Y-94440000D01*
%TD*%
%TA.AperFunction,Conductor*%
%TO.N,GND*%
G36*
X85284475Y-119699993D02*
G01*
X85350301Y-119814007D01*
X85443393Y-119907099D01*
X85557407Y-119972925D01*
X85620990Y-119989962D01*
X84950770Y-120660181D01*
X84889447Y-120693666D01*
X84863098Y-120696500D01*
X84852534Y-120696500D01*
X84852523Y-120696501D01*
X84792916Y-120702908D01*
X84658071Y-120753202D01*
X84658065Y-120753206D01*
X84630498Y-120773842D01*
X84565033Y-120798258D01*
X84496760Y-120783405D01*
X84447356Y-120733999D01*
X84432505Y-120665726D01*
X84433247Y-120658414D01*
X84441500Y-120595728D01*
X84441500Y-120383843D01*
X84461185Y-120316804D01*
X84513989Y-120271049D01*
X84583147Y-120261105D01*
X84592460Y-120265358D01*
X84635128Y-120268716D01*
X85267437Y-119636408D01*
X85284475Y-119699993D01*
G37*
%TD.AperFunction*%
%TA.AperFunction,Conductor*%
G36*
X171093195Y-72750886D02*
G01*
X171093339Y-72750167D01*
X171105316Y-72752549D01*
X171105318Y-72752550D01*
X171143981Y-72752550D01*
X171146385Y-72752573D01*
X171156027Y-72752760D01*
X172143902Y-72771920D01*
X172148645Y-72772104D01*
X173143402Y-72830043D01*
X173148194Y-72830414D01*
X174139997Y-72926885D01*
X174144764Y-72927443D01*
X175132041Y-73062292D01*
X175136755Y-73063030D01*
X176118091Y-73236066D01*
X176122795Y-73236990D01*
X177096679Y-73447947D01*
X177101296Y-73449041D01*
X178066293Y-73697608D01*
X178070859Y-73698879D01*
X179025549Y-73984694D01*
X179030043Y-73986136D01*
X179928836Y-74293667D01*
X179972830Y-74308720D01*
X179977349Y-74310364D01*
X180906934Y-74669269D01*
X180911386Y-74671088D01*
X181826329Y-75065756D01*
X181830707Y-75067746D01*
X182729685Y-75497607D01*
X182733982Y-75499766D01*
X183615576Y-75964141D01*
X183619765Y-75966452D01*
X184482753Y-76464697D01*
X184486839Y-76467164D01*
X185329840Y-76998487D01*
X185333799Y-77001091D01*
X186155583Y-77564714D01*
X186159485Y-77567503D01*
X186948014Y-78154542D01*
X186958760Y-78162542D01*
X186962557Y-78165485D01*
X187107477Y-78282374D01*
X187738153Y-78791064D01*
X187741837Y-78794155D01*
X187868123Y-78904364D01*
X188492621Y-79449362D01*
X188496145Y-79452560D01*
X189214212Y-80130021D01*
X189220940Y-80136369D01*
X189224373Y-80139736D01*
X189922102Y-80851129D01*
X189925402Y-80854627D01*
X190594999Y-81592515D01*
X190598161Y-81596138D01*
X191238677Y-82359475D01*
X191241697Y-82363218D01*
X191852132Y-83150816D01*
X191855003Y-83154674D01*
X192186387Y-83618306D01*
X192431516Y-83961261D01*
X192434400Y-83965295D01*
X192437116Y-83969254D01*
X192880495Y-84643379D01*
X192984684Y-84801791D01*
X192987248Y-84805859D01*
X193499802Y-85655157D01*
X193502117Y-85658992D01*
X193504513Y-85663143D01*
X193749515Y-86107166D01*
X193985910Y-86535592D01*
X193988151Y-86539847D01*
X194435342Y-87430279D01*
X194437417Y-87434617D01*
X194849761Y-88341752D01*
X194851666Y-88346168D01*
X195228521Y-89268600D01*
X195230253Y-89273087D01*
X195571057Y-90209439D01*
X195572614Y-90213989D01*
X195876854Y-91162849D01*
X195878233Y-91167456D01*
X196145447Y-92127382D01*
X196146647Y-92132039D01*
X196376444Y-93101633D01*
X196377462Y-93106333D01*
X196569488Y-94084097D01*
X196570323Y-94088833D01*
X196724291Y-95073297D01*
X196724942Y-95078062D01*
X196840624Y-96067788D01*
X196841089Y-96072574D01*
X196918304Y-97065994D01*
X196918584Y-97070795D01*
X196957223Y-98066503D01*
X196957316Y-98071311D01*
X196957316Y-99067738D01*
X196957223Y-99072546D01*
X196918584Y-100068254D01*
X196918304Y-100073055D01*
X196841089Y-101066475D01*
X196840624Y-101071261D01*
X196724942Y-102060987D01*
X196724291Y-102065752D01*
X196570323Y-103050216D01*
X196569488Y-103054952D01*
X196377462Y-104032716D01*
X196376444Y-104037416D01*
X196146647Y-105007010D01*
X196145447Y-105011667D01*
X195878233Y-105971593D01*
X195876854Y-105976200D01*
X195572614Y-106925060D01*
X195571057Y-106929610D01*
X195230253Y-107865962D01*
X195228521Y-107870449D01*
X194851666Y-108792881D01*
X194849761Y-108797297D01*
X194437417Y-109704432D01*
X194435342Y-109708770D01*
X193988151Y-110599202D01*
X193985910Y-110603457D01*
X193504521Y-111475892D01*
X193502117Y-111480057D01*
X192987248Y-112333190D01*
X192984684Y-112337258D01*
X192437121Y-113169788D01*
X192434400Y-113173754D01*
X191855003Y-113984375D01*
X191852132Y-113988233D01*
X191241697Y-114775831D01*
X191238677Y-114779574D01*
X190598161Y-115542911D01*
X190594999Y-115546534D01*
X189925402Y-116284422D01*
X189922102Y-116287920D01*
X189224373Y-116999313D01*
X189220940Y-117002680D01*
X188496164Y-117686472D01*
X188492603Y-117689704D01*
X187741837Y-118344894D01*
X187738153Y-118347985D01*
X186962561Y-118973561D01*
X186958760Y-118976507D01*
X186159496Y-119571538D01*
X186155583Y-119574335D01*
X185333828Y-120137939D01*
X185329810Y-120140581D01*
X184486854Y-120671876D01*
X184482737Y-120674361D01*
X183619776Y-121172591D01*
X183615565Y-121174914D01*
X182733982Y-121639283D01*
X182729685Y-121641442D01*
X181830707Y-122071303D01*
X181826329Y-122073293D01*
X180911386Y-122467961D01*
X180906934Y-122469780D01*
X179977349Y-122828685D01*
X179972830Y-122830329D01*
X179030086Y-123152899D01*
X179025507Y-123154368D01*
X178070892Y-123440161D01*
X178066259Y-123441450D01*
X177101327Y-123690000D01*
X177096647Y-123691109D01*
X176122802Y-123902057D01*
X176118083Y-123902984D01*
X175136774Y-124076016D01*
X175132023Y-124076759D01*
X174144769Y-124211605D01*
X174139993Y-124212164D01*
X173148195Y-124308634D01*
X173143400Y-124309006D01*
X172148677Y-124366943D01*
X172143872Y-124367130D01*
X171223647Y-124384978D01*
X171193189Y-124379226D01*
X171192860Y-124380883D01*
X171180882Y-124378500D01*
X171180881Y-124378500D01*
X85322219Y-124378500D01*
X85319814Y-124378477D01*
X84322327Y-124359130D01*
X84317522Y-124358943D01*
X83322799Y-124301006D01*
X83318004Y-124300634D01*
X82326206Y-124204164D01*
X82321430Y-124203605D01*
X81334176Y-124068759D01*
X81329425Y-124068016D01*
X80348116Y-123894984D01*
X80343397Y-123894057D01*
X79369552Y-123683109D01*
X79364872Y-123682000D01*
X78399940Y-123433450D01*
X78395307Y-123432161D01*
X77802025Y-123254544D01*
X77440681Y-123146364D01*
X77436125Y-123144902D01*
X77084074Y-123024445D01*
X76493369Y-122822329D01*
X76488850Y-122820685D01*
X75559265Y-122461780D01*
X75554813Y-122459961D01*
X74639870Y-122065293D01*
X74635492Y-122063303D01*
X73736514Y-121633442D01*
X73732217Y-121631283D01*
X72850634Y-121166914D01*
X72846423Y-121164591D01*
X71983462Y-120666361D01*
X71979345Y-120663876D01*
X71413565Y-120307278D01*
X80040500Y-120307278D01*
X80040500Y-120595721D01*
X80040501Y-120595738D01*
X80078149Y-120881706D01*
X80078150Y-120881711D01*
X80078151Y-120881717D01*
X80149804Y-121149129D01*
X80152809Y-121160344D01*
X80152814Y-121160360D01*
X80263191Y-121426836D01*
X80263199Y-121426852D01*
X80407420Y-121676648D01*
X80407431Y-121676664D01*
X80583024Y-121905502D01*
X80583030Y-121905509D01*
X80786990Y-122109469D01*
X80786997Y-122109475D01*
X80917650Y-122209728D01*
X81015844Y-122285075D01*
X81015851Y-122285079D01*
X81265647Y-122429300D01*
X81265663Y-122429308D01*
X81532139Y-122539685D01*
X81532145Y-122539686D01*
X81532155Y-122539691D01*
X81810783Y-122614349D01*
X82096772Y-122652000D01*
X82096779Y-122652000D01*
X82385221Y-122652000D01*
X82385228Y-122652000D01*
X82671217Y-122614349D01*
X82949845Y-122539691D01*
X82949857Y-122539685D01*
X82949860Y-122539685D01*
X83216336Y-122429308D01*
X83216339Y-122429306D01*
X83216345Y-122429304D01*
X83221727Y-122426197D01*
X83329473Y-122363989D01*
X83466156Y-122285075D01*
X83695004Y-122109474D01*
X83898974Y-121905504D01*
X84074575Y-121676656D01*
X84168513Y-121513950D01*
X84219080Y-121465735D01*
X84287687Y-121452512D01*
X84352552Y-121478481D01*
X84393080Y-121535395D01*
X84399900Y-121575951D01*
X84399900Y-122944870D01*
X84399901Y-122944876D01*
X84406308Y-123004483D01*
X84456602Y-123139328D01*
X84456606Y-123139335D01*
X84542852Y-123254544D01*
X84542855Y-123254547D01*
X84658064Y-123340793D01*
X84658071Y-123340797D01*
X84792917Y-123391091D01*
X84792916Y-123391091D01*
X84799844Y-123391835D01*
X84852527Y-123397500D01*
X86648272Y-123397499D01*
X86707883Y-123391091D01*
X86842731Y-123340796D01*
X86957946Y-123254546D01*
X87044196Y-123139331D01*
X87094491Y-123004483D01*
X87100900Y-122944873D01*
X87100899Y-121149128D01*
X87095082Y-121095011D01*
X87094491Y-121089516D01*
X87044197Y-120954671D01*
X87044193Y-120954664D01*
X86957947Y-120839455D01*
X86957944Y-120839452D01*
X86842735Y-120753206D01*
X86842728Y-120753202D01*
X86707882Y-120702908D01*
X86707883Y-120702908D01*
X86648283Y-120696501D01*
X86648281Y-120696500D01*
X86648273Y-120696500D01*
X86648265Y-120696500D01*
X86637709Y-120696500D01*
X86570670Y-120676815D01*
X86550028Y-120660181D01*
X85879808Y-119989962D01*
X85943393Y-119972925D01*
X86057407Y-119907099D01*
X86150499Y-119814007D01*
X86216325Y-119699993D01*
X86233362Y-119636408D01*
X86865670Y-120268717D01*
X86865670Y-120268716D01*
X86905022Y-120214554D01*
X87001495Y-120025217D01*
X87067157Y-119823130D01*
X87067157Y-119823127D01*
X87100400Y-119613246D01*
X87100400Y-119400753D01*
X87067157Y-119190872D01*
X87067157Y-119190869D01*
X87001495Y-118988782D01*
X86905024Y-118799449D01*
X86865670Y-118745282D01*
X86865669Y-118745282D01*
X86233362Y-119377590D01*
X86216325Y-119314007D01*
X86150499Y-119199993D01*
X86057407Y-119106901D01*
X85943393Y-119041075D01*
X85879809Y-119024037D01*
X86512116Y-118391728D01*
X86457950Y-118352375D01*
X86268617Y-118255904D01*
X86066529Y-118190242D01*
X85856646Y-118157000D01*
X85644154Y-118157000D01*
X85434272Y-118190242D01*
X85434269Y-118190242D01*
X85232182Y-118255904D01*
X85042839Y-118352380D01*
X84988682Y-118391727D01*
X84988682Y-118391728D01*
X85620991Y-119024037D01*
X85557407Y-119041075D01*
X85443393Y-119106901D01*
X85350301Y-119199993D01*
X85284475Y-119314007D01*
X85267437Y-119377591D01*
X84635128Y-118745282D01*
X84635127Y-118745282D01*
X84595780Y-118799439D01*
X84499304Y-118988782D01*
X84433642Y-119190869D01*
X84433642Y-119190872D01*
X84406713Y-119360892D01*
X84376784Y-119424027D01*
X84317472Y-119460958D01*
X84247609Y-119459960D01*
X84189377Y-119421350D01*
X84176853Y-119403494D01*
X84074579Y-119226351D01*
X84074575Y-119226344D01*
X83898974Y-118997496D01*
X83898969Y-118997490D01*
X83695009Y-118793530D01*
X83695002Y-118793524D01*
X83466164Y-118617931D01*
X83466162Y-118617929D01*
X83466156Y-118617925D01*
X83466151Y-118617922D01*
X83466148Y-118617920D01*
X83342227Y-118546374D01*
X83216352Y-118473699D01*
X83216336Y-118473691D01*
X82949860Y-118363314D01*
X82949848Y-118363310D01*
X82949845Y-118363309D01*
X82671217Y-118288651D01*
X82671211Y-118288650D01*
X82671206Y-118288649D01*
X82385238Y-118251001D01*
X82385233Y-118251000D01*
X82385228Y-118251000D01*
X82096772Y-118251000D01*
X82096766Y-118251000D01*
X82096761Y-118251001D01*
X81810793Y-118288649D01*
X81810786Y-118288650D01*
X81810783Y-118288651D01*
X81619202Y-118339985D01*
X81532155Y-118363309D01*
X81532139Y-118363314D01*
X81265663Y-118473691D01*
X81265647Y-118473699D01*
X81015851Y-118617920D01*
X81015835Y-118617931D01*
X80786997Y-118793524D01*
X80786990Y-118793530D01*
X80583030Y-118997490D01*
X80583024Y-118997497D01*
X80407431Y-119226335D01*
X80407420Y-119226351D01*
X80263199Y-119476147D01*
X80263191Y-119476163D01*
X80152814Y-119742639D01*
X80152809Y-119742655D01*
X80091109Y-119972925D01*
X80078152Y-120021280D01*
X80078149Y-120021293D01*
X80040501Y-120307261D01*
X80040500Y-120307278D01*
X71413565Y-120307278D01*
X71136372Y-120132570D01*
X71132388Y-120129950D01*
X70310615Y-119566334D01*
X70306703Y-119563538D01*
X70189327Y-119476155D01*
X69853774Y-119226344D01*
X69507439Y-118968507D01*
X69503638Y-118965561D01*
X68728046Y-118339985D01*
X68724362Y-118336894D01*
X68284512Y-117953039D01*
X67973580Y-117681690D01*
X67970053Y-117678489D01*
X67253738Y-117002680D01*
X67245259Y-116994680D01*
X67241826Y-116991313D01*
X66544097Y-116279920D01*
X66540797Y-116276422D01*
X66539968Y-116275509D01*
X66396876Y-116117823D01*
X65871200Y-115538534D01*
X65868038Y-115534911D01*
X65227522Y-114771574D01*
X65224502Y-114767831D01*
X64614067Y-113980233D01*
X64611196Y-113976375D01*
X64249784Y-113470732D01*
X64031787Y-113165736D01*
X64029090Y-113161806D01*
X63481507Y-112329245D01*
X63478951Y-112325190D01*
X63476476Y-112321089D01*
X63172766Y-111817844D01*
X75970000Y-111817844D01*
X75976401Y-111877372D01*
X75976403Y-111877379D01*
X76026645Y-112012086D01*
X76026649Y-112012093D01*
X76112809Y-112127187D01*
X76112812Y-112127190D01*
X76227906Y-112213350D01*
X76227913Y-112213354D01*
X76362620Y-112263596D01*
X76362627Y-112263598D01*
X76422155Y-112269999D01*
X76422172Y-112270000D01*
X77720000Y-112270000D01*
X78220000Y-112270000D01*
X79517828Y-112270000D01*
X79517844Y-112269999D01*
X79577372Y-112263598D01*
X79577379Y-112263596D01*
X79712086Y-112213354D01*
X79712093Y-112213350D01*
X79827187Y-112127190D01*
X79827190Y-112127187D01*
X79913350Y-112012093D01*
X79913354Y-112012086D01*
X79963596Y-111877379D01*
X79963598Y-111877372D01*
X79969999Y-111817844D01*
X79970000Y-111817827D01*
X79970000Y-111220000D01*
X78220000Y-111220000D01*
X78220000Y-112270000D01*
X77720000Y-112270000D01*
X77720000Y-111220000D01*
X75970000Y-111220000D01*
X75970000Y-111817844D01*
X63172766Y-111817844D01*
X62964065Y-111472027D01*
X62961695Y-111467922D01*
X62480285Y-110595449D01*
X62478072Y-110591251D01*
X62242484Y-110122155D01*
X75970000Y-110122155D01*
X75970000Y-110720000D01*
X77720000Y-110720000D01*
X78220000Y-110720000D01*
X79970000Y-110720000D01*
X79970000Y-110122172D01*
X79969999Y-110122155D01*
X79963598Y-110062627D01*
X79963596Y-110062620D01*
X79913354Y-109927913D01*
X79913350Y-109927906D01*
X79827190Y-109812812D01*
X79827187Y-109812809D01*
X79712093Y-109726649D01*
X79712086Y-109726645D01*
X79577379Y-109676403D01*
X79577372Y-109676401D01*
X79517844Y-109670000D01*
X78220000Y-109670000D01*
X78220000Y-110720000D01*
X77720000Y-110720000D01*
X77720000Y-109670000D01*
X76422155Y-109670000D01*
X76362627Y-109676401D01*
X76362620Y-109676403D01*
X76227913Y-109726645D01*
X76227906Y-109726649D01*
X76112812Y-109812809D01*
X76112809Y-109812812D01*
X76026649Y-109927906D01*
X76026645Y-109927913D01*
X75976403Y-110062620D01*
X75976401Y-110062627D01*
X75970000Y-110122155D01*
X62242484Y-110122155D01*
X62030851Y-109700757D01*
X62028782Y-109696432D01*
X62028715Y-109696284D01*
X61616430Y-108789280D01*
X61614533Y-108784881D01*
X61548602Y-108623500D01*
X61237670Y-107862430D01*
X61235946Y-107857962D01*
X60895142Y-106921610D01*
X60893585Y-106917060D01*
X60884122Y-106887547D01*
X60589340Y-105968184D01*
X60587966Y-105963593D01*
X60320742Y-105003630D01*
X60319561Y-104999047D01*
X60089753Y-104029410D01*
X60088737Y-104024716D01*
X59988967Y-103516702D01*
X59988967Y-103516700D01*
X59984928Y-103496135D01*
X70679500Y-103496135D01*
X70679500Y-106591870D01*
X70679501Y-106591876D01*
X70685908Y-106651483D01*
X70736202Y-106786328D01*
X70736206Y-106786335D01*
X70822452Y-106901544D01*
X70822455Y-106901547D01*
X70937664Y-106987793D01*
X70937671Y-106987797D01*
X71072517Y-107038091D01*
X71072516Y-107038091D01*
X71079444Y-107038835D01*
X71132127Y-107044500D01*
X72827872Y-107044499D01*
X72887483Y-107038091D01*
X73022331Y-106987796D01*
X73137546Y-106901546D01*
X73223796Y-106786331D01*
X73274091Y-106651483D01*
X73280500Y-106591873D01*
X73280500Y-105768500D01*
X73300185Y-105701461D01*
X73352989Y-105655706D01*
X73404500Y-105644500D01*
X73625529Y-105644500D01*
X73692568Y-105664185D01*
X73704191Y-105672644D01*
X73708512Y-105676190D01*
X73839614Y-105763790D01*
X73839627Y-105763797D01*
X73985298Y-105824135D01*
X73985303Y-105824137D01*
X74139953Y-105854899D01*
X74139956Y-105854900D01*
X74139958Y-105854900D01*
X74297644Y-105854900D01*
X74297645Y-105854899D01*
X74452297Y-105824137D01*
X74597979Y-105763794D01*
X74729089Y-105676189D01*
X74840589Y-105564689D01*
X74928194Y-105433579D01*
X74988537Y-105287897D01*
X75019300Y-105133242D01*
X75019300Y-104975558D01*
X75019300Y-104975555D01*
X75019299Y-104975553D01*
X74988538Y-104820910D01*
X74988537Y-104820903D01*
X74988535Y-104820898D01*
X74928197Y-104675227D01*
X74928190Y-104675214D01*
X74840589Y-104544111D01*
X74840586Y-104544107D01*
X74729092Y-104432613D01*
X74729088Y-104432610D01*
X74597985Y-104345009D01*
X74597972Y-104345002D01*
X74452301Y-104284664D01*
X74452289Y-104284661D01*
X74297645Y-104253900D01*
X74297642Y-104253900D01*
X74139958Y-104253900D01*
X74139955Y-104253900D01*
X73985310Y-104284661D01*
X73985298Y-104284664D01*
X73839627Y-104345002D01*
X73839614Y-104345009D01*
X73723490Y-104422602D01*
X73656813Y-104443480D01*
X73654599Y-104443500D01*
X73404499Y-104443500D01*
X73337460Y-104423815D01*
X73291705Y-104371011D01*
X73280499Y-104319500D01*
X73280499Y-103496129D01*
X73280498Y-103496123D01*
X73280497Y-103496116D01*
X73274091Y-103436517D01*
X73268869Y-103422517D01*
X73223797Y-103301671D01*
X73223793Y-103301664D01*
X73137547Y-103186455D01*
X73137544Y-103186452D01*
X73022335Y-103100206D01*
X73022328Y-103100202D01*
X72887482Y-103049908D01*
X72887483Y-103049908D01*
X72827883Y-103043501D01*
X72827881Y-103043500D01*
X72827873Y-103043500D01*
X72827864Y-103043500D01*
X71132129Y-103043500D01*
X71132123Y-103043501D01*
X71072516Y-103049908D01*
X70937671Y-103100202D01*
X70937664Y-103100206D01*
X70822455Y-103186452D01*
X70822452Y-103186455D01*
X70736206Y-103301664D01*
X70736202Y-103301671D01*
X70685908Y-103436517D01*
X70681005Y-103482128D01*
X70679501Y-103496123D01*
X70679500Y-103496135D01*
X59984928Y-103496135D01*
X59896711Y-103046952D01*
X59895876Y-103042216D01*
X59856302Y-102789179D01*
X59741903Y-102057716D01*
X59741261Y-102053016D01*
X59625573Y-101063248D01*
X59625110Y-101058475D01*
X59623040Y-101031848D01*
X59547894Y-100065050D01*
X59547615Y-100060254D01*
X59547473Y-100056606D01*
X59508977Y-99064546D01*
X59508884Y-99059738D01*
X59508884Y-98063311D01*
X59508977Y-98058503D01*
X59518912Y-97802466D01*
X59527085Y-97591844D01*
X70680000Y-97591844D01*
X70686401Y-97651372D01*
X70686403Y-97651379D01*
X70736645Y-97786086D01*
X70736649Y-97786093D01*
X70822809Y-97901187D01*
X70822812Y-97901190D01*
X70937906Y-97987350D01*
X70937913Y-97987354D01*
X71072620Y-98037596D01*
X71072627Y-98037598D01*
X71132155Y-98043999D01*
X71132172Y-98044000D01*
X71730000Y-98044000D01*
X72230000Y-98044000D01*
X72827828Y-98044000D01*
X72827844Y-98043999D01*
X72887372Y-98037598D01*
X72887379Y-98037596D01*
X73022086Y-97987354D01*
X73022093Y-97987350D01*
X73137187Y-97901190D01*
X73137190Y-97901187D01*
X73223350Y-97786093D01*
X73223354Y-97786086D01*
X73273596Y-97651379D01*
X73273598Y-97651372D01*
X73279999Y-97591844D01*
X73280000Y-97591827D01*
X73280000Y-96294000D01*
X72230000Y-96294000D01*
X72230000Y-98044000D01*
X71730000Y-98044000D01*
X71730000Y-96294000D01*
X70680000Y-96294000D01*
X70680000Y-97591844D01*
X59527085Y-97591844D01*
X59547615Y-97062787D01*
X59547895Y-97057994D01*
X59565463Y-96831979D01*
X59625112Y-96064551D01*
X59625575Y-96059788D01*
X59741261Y-95070026D01*
X59741902Y-95065340D01*
X59830920Y-94496155D01*
X70680000Y-94496155D01*
X70680000Y-95794000D01*
X71730000Y-95794000D01*
X72230000Y-95794000D01*
X73280000Y-95794000D01*
X73280000Y-94496172D01*
X73279999Y-94496155D01*
X73273598Y-94436627D01*
X73273596Y-94436620D01*
X73223354Y-94301913D01*
X73223350Y-94301906D01*
X73137190Y-94186812D01*
X73137187Y-94186809D01*
X73022093Y-94100649D01*
X73022086Y-94100645D01*
X72887379Y-94050403D01*
X72887372Y-94050401D01*
X72827844Y-94044000D01*
X72230000Y-94044000D01*
X72230000Y-95794000D01*
X71730000Y-95794000D01*
X71730000Y-94044000D01*
X71132155Y-94044000D01*
X71072627Y-94050401D01*
X71072620Y-94050403D01*
X70937913Y-94100645D01*
X70937906Y-94100649D01*
X70822812Y-94186809D01*
X70822809Y-94186812D01*
X70736649Y-94301906D01*
X70736645Y-94301913D01*
X70686403Y-94436620D01*
X70686401Y-94436627D01*
X70680000Y-94496155D01*
X59830920Y-94496155D01*
X59895876Y-94080828D01*
X59896711Y-94076097D01*
X59945964Y-93825311D01*
X60088740Y-93098317D01*
X60089755Y-93093633D01*
X60319564Y-92123989D01*
X60320739Y-92119432D01*
X60587974Y-91159426D01*
X60589335Y-91154879D01*
X60893592Y-90205967D01*
X60895142Y-90201439D01*
X60916490Y-90142785D01*
X61235953Y-89265067D01*
X61237663Y-89260636D01*
X61614548Y-88338132D01*
X61616422Y-88333788D01*
X62028797Y-87426583D01*
X62030840Y-87422312D01*
X62478063Y-86531817D01*
X62480273Y-86527621D01*
X62961708Y-85655104D01*
X62964051Y-85651044D01*
X63478974Y-84797822D01*
X63481492Y-84793827D01*
X64029106Y-83961219D01*
X64031769Y-83957337D01*
X64611212Y-83146652D01*
X64614051Y-83142837D01*
X65224517Y-82355198D01*
X65227522Y-82351475D01*
X65868038Y-81588138D01*
X65871187Y-81584529D01*
X66540823Y-80846598D01*
X66544070Y-80843157D01*
X67241850Y-80131711D01*
X67245233Y-80128394D01*
X67970079Y-79444536D01*
X67973552Y-79441384D01*
X68724383Y-78786137D01*
X68728025Y-78783081D01*
X69503667Y-78157465D01*
X69507409Y-78154565D01*
X70306738Y-77559485D01*
X70310581Y-77556738D01*
X71132424Y-76993075D01*
X71136335Y-76990503D01*
X71979383Y-76459149D01*
X71983401Y-76456724D01*
X72846455Y-75958439D01*
X72850601Y-75956153D01*
X73732235Y-75491756D01*
X73736496Y-75489615D01*
X74635498Y-75059743D01*
X74639870Y-75057756D01*
X75554820Y-74663085D01*
X75559265Y-74661269D01*
X76488869Y-74302356D01*
X76493349Y-74300727D01*
X77436171Y-73978131D01*
X77440635Y-73976699D01*
X78395353Y-73690875D01*
X78399893Y-73689612D01*
X79364914Y-73441038D01*
X79369509Y-73439950D01*
X80343413Y-73228988D01*
X80348099Y-73228068D01*
X81329452Y-73055028D01*
X81334150Y-73054294D01*
X82321441Y-72919442D01*
X82326196Y-72918886D01*
X83318009Y-72822414D01*
X83322793Y-72822043D01*
X84317556Y-72764104D01*
X84322293Y-72763920D01*
X84709734Y-72756405D01*
X84777141Y-72774786D01*
X84823911Y-72826693D01*
X84835194Y-72895646D01*
X84807407Y-72959752D01*
X84770590Y-72989740D01*
X84705719Y-73024414D01*
X84705712Y-73024418D01*
X84580920Y-73107802D01*
X84580917Y-73107804D01*
X84580912Y-73107807D01*
X84580912Y-73107808D01*
X84504311Y-73170674D01*
X84504308Y-73170677D01*
X84504305Y-73170679D01*
X84398179Y-73276805D01*
X84398177Y-73276808D01*
X84398174Y-73276811D01*
X84335308Y-73353412D01*
X84335304Y-73353417D01*
X84335302Y-73353420D01*
X84251918Y-73478211D01*
X84205203Y-73565611D01*
X84205200Y-73565618D01*
X84147762Y-73704285D01*
X84118994Y-73799123D01*
X84089711Y-73946342D01*
X84089711Y-73946344D01*
X84080000Y-74044952D01*
X84080000Y-74195047D01*
X84089711Y-74293655D01*
X84089711Y-74293657D01*
X84118994Y-74440876D01*
X84147762Y-74535714D01*
X84205200Y-74674381D01*
X84205203Y-74674388D01*
X84251918Y-74761788D01*
X84318156Y-74860918D01*
X84335308Y-74886588D01*
X84398174Y-74963189D01*
X84504311Y-75069326D01*
X84580912Y-75132192D01*
X84591230Y-75139086D01*
X84705712Y-75215581D01*
X84705711Y-75215581D01*
X84705717Y-75215584D01*
X84793112Y-75262297D01*
X84830190Y-75277655D01*
X84884593Y-75321496D01*
X84906658Y-75387790D01*
X84889379Y-75455490D01*
X84839032Y-75502700D01*
X84686069Y-75580639D01*
X84686068Y-75580640D01*
X84648783Y-75607729D01*
X84648782Y-75607730D01*
X85218090Y-76177037D01*
X85154507Y-76194075D01*
X85040493Y-76259901D01*
X84947401Y-76352993D01*
X84881575Y-76467007D01*
X84864537Y-76530590D01*
X84295230Y-75961282D01*
X84295229Y-75961283D01*
X84268143Y-75998564D01*
X84177957Y-76175562D01*
X84116575Y-76364476D01*
X84116575Y-76364479D01*
X84085500Y-76560678D01*
X84085500Y-76759321D01*
X84116575Y-76955520D01*
X84116575Y-76955523D01*
X84177957Y-77144437D01*
X84268141Y-77321432D01*
X84295230Y-77358715D01*
X84864537Y-76789408D01*
X84881575Y-76852993D01*
X84947401Y-76967007D01*
X85040493Y-77060099D01*
X85154507Y-77125925D01*
X85218090Y-77142962D01*
X84648783Y-77712268D01*
X84648783Y-77712269D01*
X84686067Y-77739358D01*
X84842831Y-77819234D01*
X84893627Y-77867209D01*
X84910422Y-77935030D01*
X84887884Y-78001165D01*
X84842831Y-78040204D01*
X84685805Y-78120213D01*
X84525033Y-78237021D01*
X84384521Y-78377533D01*
X84267713Y-78538305D01*
X84177494Y-78715367D01*
X84177493Y-78715370D01*
X84116087Y-78904362D01*
X84085000Y-79100639D01*
X84085000Y-79299360D01*
X84116086Y-79495636D01*
X84116631Y-79497903D01*
X84116586Y-79498790D01*
X84116849Y-79500448D01*
X84116500Y-79500503D01*
X84113138Y-79567685D01*
X84083737Y-79614526D01*
X76996460Y-86701803D01*
X76996454Y-86701809D01*
X76992959Y-86705305D01*
X76992957Y-86705307D01*
X76881153Y-86817111D01*
X76850862Y-86869577D01*
X76845209Y-86879366D01*
X76845208Y-86879369D01*
X76802097Y-86954040D01*
X76802096Y-86954042D01*
X76761172Y-87106770D01*
X76761172Y-87106772D01*
X76761172Y-87274873D01*
X76761173Y-87274886D01*
X76761173Y-104417274D01*
X76761172Y-104417292D01*
X76761172Y-104582998D01*
X76761171Y-104582998D01*
X76802095Y-104735727D01*
X76804763Y-104740347D01*
X76804766Y-104740354D01*
X76881148Y-104872653D01*
X76881154Y-104872661D01*
X77000022Y-104991529D01*
X77000028Y-104991534D01*
X87587268Y-115578774D01*
X87587278Y-115578785D01*
X87591608Y-115583115D01*
X87591609Y-115583116D01*
X87703413Y-115694920D01*
X87775957Y-115736803D01*
X87840344Y-115773977D01*
X87993072Y-115814900D01*
X88151186Y-115814900D01*
X93336399Y-115814900D01*
X93403438Y-115834585D01*
X93449193Y-115887389D01*
X93459137Y-115956547D01*
X93458016Y-115963091D01*
X93436228Y-116072625D01*
X93436228Y-116230318D01*
X93466989Y-116384961D01*
X93466992Y-116384973D01*
X93527330Y-116530644D01*
X93527337Y-116530657D01*
X93615330Y-116662346D01*
X93636208Y-116729023D01*
X93636228Y-116731237D01*
X93636228Y-117144546D01*
X93616543Y-117211585D01*
X93599909Y-117232227D01*
X93367417Y-117464718D01*
X93306094Y-117498203D01*
X93236402Y-117493219D01*
X93180469Y-117451347D01*
X93158119Y-117401228D01*
X93151572Y-117368318D01*
X93151569Y-117368306D01*
X93076192Y-117186328D01*
X93076185Y-117186315D01*
X92966751Y-117022537D01*
X92966748Y-117022533D01*
X92827466Y-116883251D01*
X92827462Y-116883248D01*
X92663684Y-116773814D01*
X92663671Y-116773807D01*
X92481691Y-116698429D01*
X92481683Y-116698427D01*
X92440000Y-116690135D01*
X92440000Y-117610272D01*
X92401940Y-117518386D01*
X92331614Y-117448060D01*
X92239728Y-117410000D01*
X92140272Y-117410000D01*
X92048386Y-117448060D01*
X91978060Y-117518386D01*
X91940000Y-117610272D01*
X91940000Y-116690136D01*
X91939999Y-116690135D01*
X91898316Y-116698427D01*
X91898308Y-116698429D01*
X91716328Y-116773807D01*
X91716315Y-116773814D01*
X91552537Y-116883248D01*
X91552533Y-116883251D01*
X91413251Y-117022533D01*
X91413248Y-117022537D01*
X91303814Y-117186315D01*
X91303807Y-117186328D01*
X91228430Y-117368306D01*
X91228427Y-117368318D01*
X91190000Y-117561504D01*
X91190000Y-117760000D01*
X91940000Y-117760000D01*
X91940000Y-118260000D01*
X91190000Y-118260000D01*
X91190000Y-118458495D01*
X91228427Y-118651681D01*
X91228430Y-118651693D01*
X91303807Y-118833671D01*
X91303814Y-118833684D01*
X91413248Y-118997462D01*
X91413251Y-118997466D01*
X91536279Y-119120494D01*
X91569764Y-119181817D01*
X91564780Y-119251509D01*
X91536279Y-119295856D01*
X90730449Y-120101686D01*
X90669126Y-120135171D01*
X90666960Y-120135622D01*
X90546108Y-120159661D01*
X90546098Y-120159664D01*
X90400427Y-120220002D01*
X90400414Y-120220009D01*
X90269311Y-120307610D01*
X90269307Y-120307613D01*
X90157813Y-120419107D01*
X90157810Y-120419111D01*
X90070209Y-120550214D01*
X90070202Y-120550227D01*
X90009864Y-120695898D01*
X90009861Y-120695910D01*
X89979100Y-120850553D01*
X89979100Y-121008246D01*
X90009861Y-121162889D01*
X90009864Y-121162901D01*
X90070202Y-121308572D01*
X90070209Y-121308585D01*
X90157810Y-121439688D01*
X90157813Y-121439692D01*
X90269307Y-121551186D01*
X90269311Y-121551189D01*
X90400414Y-121638790D01*
X90400427Y-121638797D01*
X90546098Y-121699135D01*
X90546103Y-121699137D01*
X90700753Y-121729899D01*
X90700756Y-121729900D01*
X90700758Y-121729900D01*
X90858444Y-121729900D01*
X90858445Y-121729899D01*
X91013097Y-121699137D01*
X91154866Y-121640415D01*
X91158772Y-121638797D01*
X91158772Y-121638796D01*
X91158779Y-121638794D01*
X91245426Y-121580897D01*
X91312103Y-121560020D01*
X91314317Y-121560000D01*
X91940000Y-121560000D01*
X91940000Y-122060000D01*
X91190000Y-122060000D01*
X91190000Y-122258495D01*
X91228427Y-122451681D01*
X91228430Y-122451693D01*
X91303807Y-122633671D01*
X91303814Y-122633684D01*
X91413248Y-122797462D01*
X91413251Y-122797466D01*
X91552533Y-122936748D01*
X91552537Y-122936751D01*
X91716315Y-123046185D01*
X91716328Y-123046192D01*
X91898308Y-123121569D01*
X91940000Y-123129862D01*
X91940000Y-122209728D01*
X91978060Y-122301614D01*
X92048386Y-122371940D01*
X92140272Y-122410000D01*
X92239728Y-122410000D01*
X92331614Y-122371940D01*
X92401940Y-122301614D01*
X92440000Y-122209728D01*
X92440000Y-123129862D01*
X92481690Y-123121569D01*
X92481692Y-123121569D01*
X92663671Y-123046192D01*
X92663684Y-123046185D01*
X92827462Y-122936751D01*
X92827466Y-122936748D01*
X92966748Y-122797466D01*
X92966751Y-122797462D01*
X93076185Y-122633684D01*
X93076192Y-122633671D01*
X93151569Y-122451693D01*
X93151572Y-122451681D01*
X93189999Y-122258495D01*
X93190000Y-122258492D01*
X93190000Y-122060000D01*
X92440000Y-122060000D01*
X92440000Y-121560000D01*
X93190000Y-121560000D01*
X93190000Y-121361508D01*
X93189999Y-121361504D01*
X99830000Y-121361504D01*
X99830000Y-121560000D01*
X100580000Y-121560000D01*
X100580000Y-122060000D01*
X99830000Y-122060000D01*
X99830000Y-122258495D01*
X99868427Y-122451681D01*
X99868430Y-122451693D01*
X99943807Y-122633671D01*
X99943814Y-122633684D01*
X100053248Y-122797462D01*
X100053251Y-122797466D01*
X100192533Y-122936748D01*
X100192537Y-122936751D01*
X100356315Y-123046185D01*
X100356328Y-123046192D01*
X100538308Y-123121569D01*
X100580000Y-123129862D01*
X100580000Y-122209728D01*
X100618060Y-122301614D01*
X100688386Y-122371940D01*
X100780272Y-122410000D01*
X100879728Y-122410000D01*
X100971614Y-122371940D01*
X101041940Y-122301614D01*
X101080000Y-122209728D01*
X101080000Y-123129862D01*
X101121690Y-123121569D01*
X101121692Y-123121569D01*
X101303671Y-123046192D01*
X101303684Y-123046185D01*
X101467462Y-122936751D01*
X101467466Y-122936748D01*
X101606748Y-122797466D01*
X101606751Y-122797462D01*
X101716185Y-122633684D01*
X101716192Y-122633671D01*
X101791569Y-122451693D01*
X101791572Y-122451681D01*
X101829999Y-122258495D01*
X101830000Y-122258492D01*
X101830000Y-122060000D01*
X101080000Y-122060000D01*
X101080000Y-121637953D01*
X105304700Y-121637953D01*
X105304700Y-121795646D01*
X105335461Y-121950289D01*
X105335464Y-121950301D01*
X105395802Y-122095972D01*
X105395809Y-122095985D01*
X105483410Y-122227088D01*
X105483413Y-122227092D01*
X105594907Y-122338586D01*
X105594911Y-122338589D01*
X105726014Y-122426190D01*
X105726027Y-122426197D01*
X105871698Y-122486535D01*
X105871703Y-122486537D01*
X105999387Y-122511935D01*
X106026353Y-122517299D01*
X106026356Y-122517300D01*
X106026358Y-122517300D01*
X106184044Y-122517300D01*
X106184045Y-122517299D01*
X106338697Y-122486537D01*
X106476871Y-122429304D01*
X106484372Y-122426197D01*
X106484372Y-122426196D01*
X106484379Y-122426194D01*
X106615489Y-122338589D01*
X106726989Y-122227089D01*
X106814594Y-122095979D01*
X106874937Y-121950297D01*
X106905700Y-121795642D01*
X106905700Y-121663353D01*
X170719300Y-121663353D01*
X170719300Y-121821046D01*
X170750061Y-121975689D01*
X170750064Y-121975701D01*
X170810402Y-122121372D01*
X170810409Y-122121385D01*
X170898010Y-122252488D01*
X170898013Y-122252492D01*
X171009507Y-122363986D01*
X171009511Y-122363989D01*
X171140614Y-122451590D01*
X171140627Y-122451597D01*
X171286298Y-122511935D01*
X171286303Y-122511937D01*
X171425801Y-122539685D01*
X171440953Y-122542699D01*
X171440956Y-122542700D01*
X171440958Y-122542700D01*
X171598644Y-122542700D01*
X171598645Y-122542699D01*
X171753297Y-122511937D01*
X171898979Y-122451594D01*
X172030089Y-122363989D01*
X172141589Y-122252489D01*
X172229194Y-122121379D01*
X172289537Y-121975697D01*
X172320300Y-121821042D01*
X172320300Y-121663358D01*
X172320300Y-121663355D01*
X172320299Y-121663353D01*
X172313920Y-121631283D01*
X172289537Y-121508703D01*
X172260951Y-121439689D01*
X172229197Y-121363027D01*
X172229190Y-121363014D01*
X172141589Y-121231911D01*
X172141586Y-121231907D01*
X172030092Y-121120413D01*
X172030088Y-121120410D01*
X171898985Y-121032809D01*
X171898972Y-121032802D01*
X171753301Y-120972464D01*
X171753289Y-120972461D01*
X171598645Y-120941700D01*
X171598642Y-120941700D01*
X171440958Y-120941700D01*
X171440955Y-120941700D01*
X171286310Y-120972461D01*
X171286298Y-120972464D01*
X171140627Y-121032802D01*
X171140614Y-121032809D01*
X171009511Y-121120410D01*
X171009507Y-121120413D01*
X170898013Y-121231907D01*
X170898010Y-121231911D01*
X170810409Y-121363014D01*
X170810402Y-121363027D01*
X170750064Y-121508698D01*
X170750061Y-121508710D01*
X170719300Y-121663353D01*
X106905700Y-121663353D01*
X106905700Y-121637958D01*
X106905700Y-121637955D01*
X106905699Y-121637953D01*
X106881033Y-121513951D01*
X106874937Y-121483303D01*
X106856871Y-121439688D01*
X106814597Y-121337627D01*
X106814590Y-121337614D01*
X106726989Y-121206511D01*
X106726986Y-121206507D01*
X106615492Y-121095013D01*
X106615488Y-121095010D01*
X106484385Y-121007409D01*
X106484372Y-121007402D01*
X106338701Y-120947064D01*
X106338689Y-120947061D01*
X106184045Y-120916300D01*
X106184042Y-120916300D01*
X106026358Y-120916300D01*
X106026355Y-120916300D01*
X105871710Y-120947061D01*
X105871698Y-120947064D01*
X105726027Y-121007402D01*
X105726014Y-121007409D01*
X105594911Y-121095010D01*
X105594907Y-121095013D01*
X105483413Y-121206507D01*
X105483410Y-121206511D01*
X105395809Y-121337614D01*
X105395802Y-121337627D01*
X105335464Y-121483298D01*
X105335461Y-121483310D01*
X105304700Y-121637953D01*
X101080000Y-121637953D01*
X101080000Y-121560000D01*
X101830000Y-121560000D01*
X101830000Y-121361508D01*
X101829999Y-121361504D01*
X101791572Y-121168318D01*
X101791569Y-121168306D01*
X101716192Y-120986328D01*
X101716185Y-120986315D01*
X101606751Y-120822537D01*
X101606748Y-120822533D01*
X101467466Y-120683251D01*
X101467462Y-120683248D01*
X101303684Y-120573814D01*
X101303671Y-120573807D01*
X101121691Y-120498429D01*
X101121683Y-120498427D01*
X101080000Y-120490135D01*
X101080000Y-121410272D01*
X101041940Y-121318386D01*
X100971614Y-121248060D01*
X100879728Y-121210000D01*
X100780272Y-121210000D01*
X100688386Y-121248060D01*
X100618060Y-121318386D01*
X100580000Y-121410272D01*
X100580000Y-120490136D01*
X100579999Y-120490135D01*
X100538316Y-120498427D01*
X100538308Y-120498429D01*
X100356328Y-120573807D01*
X100356315Y-120573814D01*
X100192537Y-120683248D01*
X100192533Y-120683251D01*
X100053251Y-120822533D01*
X100053248Y-120822537D01*
X99943814Y-120986315D01*
X99943807Y-120986328D01*
X99868430Y-121168306D01*
X99868427Y-121168318D01*
X99830000Y-121361504D01*
X93189999Y-121361504D01*
X93151572Y-121168318D01*
X93151569Y-121168306D01*
X93076192Y-120986328D01*
X93076185Y-120986315D01*
X92966751Y-120822537D01*
X92966748Y-120822533D01*
X92827466Y-120683251D01*
X92827462Y-120683248D01*
X92663684Y-120573814D01*
X92663671Y-120573807D01*
X92481693Y-120498430D01*
X92481681Y-120498427D01*
X92334284Y-120469108D01*
X92272373Y-120436723D01*
X92237799Y-120376008D01*
X92241538Y-120306238D01*
X92270790Y-120259814D01*
X92647215Y-119883389D01*
X136810677Y-119883389D01*
X136810677Y-120056610D01*
X136844467Y-120226481D01*
X136844470Y-120226493D01*
X136910750Y-120386509D01*
X136910757Y-120386522D01*
X137006984Y-120530535D01*
X137006987Y-120530539D01*
X137129460Y-120653012D01*
X137129464Y-120653015D01*
X137273477Y-120749242D01*
X137273490Y-120749249D01*
X137391810Y-120798258D01*
X137433511Y-120815531D01*
X137603389Y-120849322D01*
X137603392Y-120849323D01*
X137603394Y-120849323D01*
X137776608Y-120849323D01*
X137776609Y-120849322D01*
X137946489Y-120815531D01*
X138096956Y-120753206D01*
X138106509Y-120749249D01*
X138106509Y-120749248D01*
X138106516Y-120749246D01*
X138250536Y-120653015D01*
X138373015Y-120530536D01*
X138469246Y-120386516D01*
X138535531Y-120226489D01*
X138569323Y-120056606D01*
X138569323Y-120023389D01*
X159109500Y-120023389D01*
X159109500Y-120196610D01*
X159128536Y-120316804D01*
X159136598Y-120367701D01*
X159190127Y-120532445D01*
X159268768Y-120686788D01*
X159370586Y-120826928D01*
X159493072Y-120949414D01*
X159633212Y-121051232D01*
X159787555Y-121129873D01*
X159952299Y-121183402D01*
X160123389Y-121210500D01*
X160123390Y-121210500D01*
X160296610Y-121210500D01*
X160296611Y-121210500D01*
X160467701Y-121183402D01*
X160632445Y-121129873D01*
X160786788Y-121051232D01*
X160926928Y-120949414D01*
X161049414Y-120826928D01*
X161151232Y-120686788D01*
X161229873Y-120532445D01*
X161283402Y-120367701D01*
X161310500Y-120196611D01*
X161310500Y-120023389D01*
X161283402Y-119852299D01*
X161229873Y-119687555D01*
X161151232Y-119533212D01*
X161049414Y-119393072D01*
X160926928Y-119270586D01*
X160786788Y-119168768D01*
X160632445Y-119090127D01*
X160467701Y-119036598D01*
X160467699Y-119036597D01*
X160467698Y-119036597D01*
X160336271Y-119015781D01*
X160296611Y-119009500D01*
X160123389Y-119009500D01*
X160083728Y-119015781D01*
X159952302Y-119036597D01*
X159787552Y-119090128D01*
X159633211Y-119168768D01*
X159553978Y-119226335D01*
X159493072Y-119270586D01*
X159493070Y-119270588D01*
X159493069Y-119270588D01*
X159370588Y-119393069D01*
X159370588Y-119393070D01*
X159370586Y-119393072D01*
X159350041Y-119421350D01*
X159268768Y-119533211D01*
X159190128Y-119687552D01*
X159136597Y-119852302D01*
X159109500Y-120023389D01*
X138569323Y-120023389D01*
X138569323Y-119883394D01*
X138569323Y-119883391D01*
X138569322Y-119883389D01*
X138535532Y-119713518D01*
X138535531Y-119713511D01*
X138524780Y-119687555D01*
X138469249Y-119553490D01*
X138469242Y-119553477D01*
X138373015Y-119409464D01*
X138373012Y-119409460D01*
X138250539Y-119286987D01*
X138250535Y-119286984D01*
X138106522Y-119190757D01*
X138106509Y-119190750D01*
X137946493Y-119124470D01*
X137946481Y-119124467D01*
X137776609Y-119090677D01*
X137776606Y-119090677D01*
X137603394Y-119090677D01*
X137603391Y-119090677D01*
X137433518Y-119124467D01*
X137433506Y-119124470D01*
X137273490Y-119190750D01*
X137273477Y-119190757D01*
X137129464Y-119286984D01*
X137129460Y-119286987D01*
X137006987Y-119409460D01*
X137006984Y-119409464D01*
X136910757Y-119553477D01*
X136910750Y-119553490D01*
X136844470Y-119713506D01*
X136844467Y-119713518D01*
X136810677Y-119883389D01*
X92647215Y-119883389D01*
X94605441Y-117925164D01*
X94605444Y-117925163D01*
X94717248Y-117813359D01*
X94796305Y-117676427D01*
X94827098Y-117561504D01*
X99830000Y-117561504D01*
X99830000Y-117760000D01*
X100580000Y-117760000D01*
X100580000Y-118260000D01*
X99830000Y-118260000D01*
X99830000Y-118458495D01*
X99868427Y-118651681D01*
X99868430Y-118651693D01*
X99943807Y-118833671D01*
X99943814Y-118833684D01*
X100053248Y-118997462D01*
X100053251Y-118997466D01*
X100192533Y-119136748D01*
X100192537Y-119136751D01*
X100356315Y-119246185D01*
X100356328Y-119246192D01*
X100538308Y-119321569D01*
X100580000Y-119329862D01*
X100580000Y-118409728D01*
X100618060Y-118501614D01*
X100688386Y-118571940D01*
X100780272Y-118610000D01*
X100879728Y-118610000D01*
X100971614Y-118571940D01*
X101041940Y-118501614D01*
X101080000Y-118409728D01*
X101080000Y-119329862D01*
X101121690Y-119321569D01*
X101121692Y-119321569D01*
X101303671Y-119246192D01*
X101303684Y-119246185D01*
X101467462Y-119136751D01*
X101467466Y-119136748D01*
X101606748Y-118997466D01*
X101606751Y-118997462D01*
X101716185Y-118833684D01*
X101716192Y-118833671D01*
X101791569Y-118651693D01*
X101791572Y-118651681D01*
X101829999Y-118458495D01*
X101830000Y-118458492D01*
X101830000Y-118260000D01*
X101080000Y-118260000D01*
X101080000Y-117931153D01*
X138329500Y-117931153D01*
X138329500Y-118088846D01*
X138360261Y-118243489D01*
X138360264Y-118243501D01*
X138420602Y-118389172D01*
X138420609Y-118389185D01*
X138508210Y-118520288D01*
X138508213Y-118520292D01*
X138619707Y-118631786D01*
X138619711Y-118631789D01*
X138750814Y-118719390D01*
X138750827Y-118719397D01*
X138896498Y-118779735D01*
X138896503Y-118779737D01*
X139051153Y-118810499D01*
X139051156Y-118810500D01*
X139051158Y-118810500D01*
X139208844Y-118810500D01*
X139208845Y-118810499D01*
X139363497Y-118779737D01*
X139509179Y-118719394D01*
X139608560Y-118652990D01*
X139640289Y-118631789D01*
X139644118Y-118628647D01*
X139708428Y-118601334D01*
X139722783Y-118600500D01*
X144503331Y-118600500D01*
X144503347Y-118600501D01*
X144510943Y-118600501D01*
X144669055Y-118600501D01*
X144669057Y-118600501D01*
X144719817Y-118586899D01*
X144727934Y-118584725D01*
X144760027Y-118580500D01*
X174303331Y-118580500D01*
X174303347Y-118580501D01*
X174410658Y-118580501D01*
X174477697Y-118600186D01*
X174523452Y-118652990D01*
X174533396Y-118722148D01*
X174504371Y-118785704D01*
X174498339Y-118792182D01*
X174293030Y-118997490D01*
X174293024Y-118997497D01*
X174117431Y-119226335D01*
X174117420Y-119226351D01*
X173973199Y-119476147D01*
X173973191Y-119476163D01*
X173862814Y-119742639D01*
X173862809Y-119742655D01*
X173801109Y-119972925D01*
X173788152Y-120021280D01*
X173788149Y-120021293D01*
X173750501Y-120307261D01*
X173750500Y-120307278D01*
X173750500Y-120595721D01*
X173750501Y-120595738D01*
X173788149Y-120881706D01*
X173788150Y-120881711D01*
X173788151Y-120881717D01*
X173859804Y-121149129D01*
X173862809Y-121160344D01*
X173862814Y-121160360D01*
X173973191Y-121426836D01*
X173973199Y-121426852D01*
X174117420Y-121676648D01*
X174117431Y-121676664D01*
X174293024Y-121905502D01*
X174293030Y-121905509D01*
X174496990Y-122109469D01*
X174496997Y-122109475D01*
X174627650Y-122209728D01*
X174725844Y-122285075D01*
X174725851Y-122285079D01*
X174975647Y-122429300D01*
X174975663Y-122429308D01*
X175242139Y-122539685D01*
X175242145Y-122539686D01*
X175242155Y-122539691D01*
X175520783Y-122614349D01*
X175806772Y-122652000D01*
X175806779Y-122652000D01*
X176095221Y-122652000D01*
X176095228Y-122652000D01*
X176381217Y-122614349D01*
X176659845Y-122539691D01*
X176659857Y-122539685D01*
X176659860Y-122539685D01*
X176926336Y-122429308D01*
X176926339Y-122429306D01*
X176926345Y-122429304D01*
X176931727Y-122426197D01*
X177039473Y-122363989D01*
X177176156Y-122285075D01*
X177405004Y-122109474D01*
X177608974Y-121905504D01*
X177784575Y-121676656D01*
X177928804Y-121426845D01*
X177955244Y-121363014D01*
X178039185Y-121160360D01*
X178039185Y-121160357D01*
X178039191Y-121160345D01*
X178113849Y-120881717D01*
X178151500Y-120595728D01*
X178151500Y-120307272D01*
X178113849Y-120021283D01*
X178039191Y-119742655D01*
X178039186Y-119742645D01*
X178039185Y-119742639D01*
X177928808Y-119476163D01*
X177928800Y-119476147D01*
X177784579Y-119226351D01*
X177784575Y-119226344D01*
X177608974Y-118997496D01*
X177608969Y-118997490D01*
X177405009Y-118793530D01*
X177405002Y-118793524D01*
X177176164Y-118617931D01*
X177176162Y-118617929D01*
X177176156Y-118617925D01*
X177176151Y-118617922D01*
X177176148Y-118617920D01*
X176926352Y-118473699D01*
X176926336Y-118473691D01*
X176659860Y-118363314D01*
X176659848Y-118363310D01*
X176659845Y-118363309D01*
X176381217Y-118288651D01*
X176381211Y-118288650D01*
X176381206Y-118288649D01*
X176095238Y-118251001D01*
X176095233Y-118251000D01*
X176095228Y-118251000D01*
X175806772Y-118251000D01*
X175806766Y-118251000D01*
X175806761Y-118251001D01*
X175520793Y-118288649D01*
X175520786Y-118288650D01*
X175520783Y-118288651D01*
X175329202Y-118339985D01*
X175242155Y-118363309D01*
X175242146Y-118363312D01*
X175158755Y-118397853D01*
X175089286Y-118405321D01*
X175026807Y-118374045D01*
X174991155Y-118313955D01*
X174993650Y-118244130D01*
X175023621Y-118195612D01*
X183250520Y-109968716D01*
X183329577Y-109831784D01*
X183370501Y-109679057D01*
X183370501Y-109520942D01*
X183370501Y-109513347D01*
X183370500Y-109513329D01*
X183370500Y-109328553D01*
X183374725Y-109296460D01*
X183390500Y-109237587D01*
X183390500Y-109079472D01*
X183390500Y-105356719D01*
X183410185Y-105289680D01*
X183462989Y-105243925D01*
X183514500Y-105232719D01*
X183576055Y-105232719D01*
X183576056Y-105232718D01*
X183730708Y-105201956D01*
X183876390Y-105141613D01*
X184007500Y-105054008D01*
X184119000Y-104942508D01*
X184206605Y-104811398D01*
X184266948Y-104665716D01*
X184297711Y-104511061D01*
X184297711Y-104353377D01*
X184297711Y-104353374D01*
X184297710Y-104353372D01*
X184284042Y-104284661D01*
X184266948Y-104198722D01*
X184233861Y-104118842D01*
X184206608Y-104053046D01*
X184206601Y-104053033D01*
X184118609Y-103921344D01*
X184097731Y-103854666D01*
X184097711Y-103852453D01*
X184097711Y-103822885D01*
X184117396Y-103755846D01*
X184134026Y-103735208D01*
X184798713Y-103070521D01*
X184798716Y-103070520D01*
X184910520Y-102958716D01*
X184960639Y-102871904D01*
X184989577Y-102821785D01*
X185030501Y-102669057D01*
X185030501Y-102510943D01*
X185030501Y-102503348D01*
X185030500Y-102503330D01*
X185030500Y-90833375D01*
X185030501Y-90833362D01*
X185030501Y-90665259D01*
X185023063Y-90637500D01*
X184989577Y-90512531D01*
X184973119Y-90484024D01*
X184910524Y-90375605D01*
X184910518Y-90375597D01*
X184670533Y-90135612D01*
X184637048Y-90074289D01*
X184642032Y-90004597D01*
X184655112Y-89979040D01*
X184732390Y-89863385D01*
X184732390Y-89863384D01*
X184732394Y-89863379D01*
X184741066Y-89842444D01*
X184792735Y-89717701D01*
X184792737Y-89717697D01*
X184823500Y-89563042D01*
X184823500Y-89405358D01*
X184823500Y-89405355D01*
X184823499Y-89405353D01*
X184792737Y-89250703D01*
X184767398Y-89189529D01*
X184732397Y-89105027D01*
X184732390Y-89105014D01*
X184644789Y-88973911D01*
X184644786Y-88973907D01*
X184533292Y-88862413D01*
X184533288Y-88862410D01*
X184402185Y-88774809D01*
X184402172Y-88774802D01*
X184256501Y-88714464D01*
X184256489Y-88714461D01*
X184164565Y-88696176D01*
X184102654Y-88663791D01*
X184101075Y-88662240D01*
X183679374Y-88240539D01*
X183645889Y-88179216D01*
X183645438Y-88177049D01*
X183614538Y-88021710D01*
X183614537Y-88021703D01*
X183613233Y-88018554D01*
X183554197Y-87876027D01*
X183554190Y-87876014D01*
X183466589Y-87744911D01*
X183466586Y-87744907D01*
X183355092Y-87633413D01*
X183355088Y-87633410D01*
X183223985Y-87545809D01*
X183223972Y-87545802D01*
X183078301Y-87485464D01*
X183078289Y-87485461D01*
X182923645Y-87454700D01*
X182923642Y-87454700D01*
X182765958Y-87454700D01*
X182765955Y-87454700D01*
X182611310Y-87485461D01*
X182611298Y-87485464D01*
X182465627Y-87545802D01*
X182465614Y-87545809D01*
X182334511Y-87633410D01*
X182330113Y-87637020D01*
X182265803Y-87664332D01*
X182196936Y-87652541D01*
X182163768Y-87628847D01*
X179214619Y-84679698D01*
X179181134Y-84618375D01*
X179178300Y-84592017D01*
X179178300Y-84320931D01*
X179178301Y-84320918D01*
X179178301Y-84152816D01*
X179178301Y-84152814D01*
X179137377Y-84000086D01*
X179058320Y-83863155D01*
X175748318Y-80553154D01*
X175748317Y-80553152D01*
X175629446Y-80434281D01*
X175629445Y-80434280D01*
X175527487Y-80375415D01*
X175492514Y-80355223D01*
X175339786Y-80314299D01*
X175181672Y-80314299D01*
X175174076Y-80314299D01*
X175174060Y-80314300D01*
X167551700Y-80314300D01*
X167484661Y-80294615D01*
X167438906Y-80241811D01*
X167427700Y-80190300D01*
X167427700Y-79882941D01*
X167447385Y-79815902D01*
X167500189Y-79770147D01*
X167569347Y-79760203D01*
X167632903Y-79789228D01*
X167636664Y-79792730D01*
X167637711Y-79793589D01*
X167768814Y-79881190D01*
X167768827Y-79881197D01*
X167914498Y-79941535D01*
X167914503Y-79941537D01*
X168069153Y-79972299D01*
X168069156Y-79972300D01*
X168069158Y-79972300D01*
X168226844Y-79972300D01*
X168226845Y-79972299D01*
X168381497Y-79941537D01*
X168511409Y-79887726D01*
X168527172Y-79881197D01*
X168527172Y-79881196D01*
X168527179Y-79881194D01*
X168606604Y-79828124D01*
X168658875Y-79793198D01*
X168725553Y-79772320D01*
X168727766Y-79772300D01*
X184111703Y-79772300D01*
X184178742Y-79791985D01*
X184199384Y-79808619D01*
X190923181Y-86532416D01*
X190956666Y-86593739D01*
X190959500Y-86620097D01*
X190959500Y-108494903D01*
X190939815Y-108561942D01*
X190923181Y-108582584D01*
X188529539Y-110976225D01*
X188468216Y-111009710D01*
X188466050Y-111010161D01*
X188310708Y-111041061D01*
X188310698Y-111041064D01*
X188165027Y-111101402D01*
X188165014Y-111101409D01*
X188033911Y-111189010D01*
X188033907Y-111189013D01*
X187922413Y-111300507D01*
X187922410Y-111300511D01*
X187834809Y-111431614D01*
X187834802Y-111431627D01*
X187774464Y-111577298D01*
X187774461Y-111577310D01*
X187743700Y-111731953D01*
X187743700Y-111889646D01*
X187774461Y-112044289D01*
X187774464Y-112044301D01*
X187834802Y-112189972D01*
X187834809Y-112189985D01*
X187922410Y-112321088D01*
X187922413Y-112321092D01*
X188033907Y-112432586D01*
X188033911Y-112432589D01*
X188165014Y-112520190D01*
X188165027Y-112520197D01*
X188266469Y-112562215D01*
X188310703Y-112580537D01*
X188465353Y-112611299D01*
X188465356Y-112611300D01*
X188465358Y-112611300D01*
X188623044Y-112611300D01*
X188623045Y-112611299D01*
X188777697Y-112580537D01*
X188923379Y-112520194D01*
X189054489Y-112432589D01*
X189165989Y-112321089D01*
X189253594Y-112189979D01*
X189313937Y-112044297D01*
X189333313Y-111946885D01*
X189344838Y-111888950D01*
X189377223Y-111827039D01*
X189378719Y-111825515D01*
X191918506Y-109285727D01*
X191918511Y-109285724D01*
X191928714Y-109275520D01*
X191928716Y-109275520D01*
X192040520Y-109163716D01*
X192111703Y-109040423D01*
X192119577Y-109026785D01*
X192160500Y-108874058D01*
X192160500Y-108715943D01*
X192160500Y-86240943D01*
X192153781Y-86215869D01*
X192144272Y-86180379D01*
X192119577Y-86088216D01*
X192099648Y-86053698D01*
X192040524Y-85951290D01*
X192040521Y-85951286D01*
X192040520Y-85951284D01*
X191928716Y-85839480D01*
X191928715Y-85839479D01*
X191924385Y-85835149D01*
X191924374Y-85835139D01*
X184899390Y-78810155D01*
X184899388Y-78810152D01*
X184780517Y-78691281D01*
X184780516Y-78691280D01*
X184692428Y-78640423D01*
X184692427Y-78640422D01*
X184643583Y-78612222D01*
X184587681Y-78597243D01*
X184490857Y-78571299D01*
X184332743Y-78571299D01*
X184325147Y-78571299D01*
X184325131Y-78571300D01*
X177409530Y-78571300D01*
X177342491Y-78551615D01*
X177296736Y-78498811D01*
X177286792Y-78429653D01*
X177315817Y-78366097D01*
X177334044Y-78348924D01*
X177388045Y-78307487D01*
X177405004Y-78294474D01*
X177608974Y-78090504D01*
X177784575Y-77861656D01*
X177928804Y-77611845D01*
X177944666Y-77573552D01*
X178039185Y-77345360D01*
X178039185Y-77345357D01*
X178039191Y-77345345D01*
X178113849Y-77066717D01*
X178151500Y-76780728D01*
X178151500Y-76492272D01*
X178113849Y-76206283D01*
X178039191Y-75927655D01*
X178039186Y-75927645D01*
X178039185Y-75927639D01*
X177928808Y-75661163D01*
X177928800Y-75661147D01*
X177784579Y-75411351D01*
X177784575Y-75411344D01*
X177694783Y-75294324D01*
X177608975Y-75182497D01*
X177608969Y-75182490D01*
X177405009Y-74978530D01*
X177405002Y-74978524D01*
X177176164Y-74802931D01*
X177176162Y-74802929D01*
X177176156Y-74802925D01*
X177176151Y-74802922D01*
X177176148Y-74802920D01*
X176926352Y-74658699D01*
X176926336Y-74658691D01*
X176659860Y-74548314D01*
X176659848Y-74548310D01*
X176659845Y-74548309D01*
X176381217Y-74473651D01*
X176381211Y-74473650D01*
X176381206Y-74473649D01*
X176095238Y-74436001D01*
X176095233Y-74436000D01*
X176095228Y-74436000D01*
X175806772Y-74436000D01*
X175806766Y-74436000D01*
X175806761Y-74436001D01*
X175520793Y-74473649D01*
X175520786Y-74473650D01*
X175520783Y-74473651D01*
X175455170Y-74491232D01*
X175242155Y-74548309D01*
X175242139Y-74548314D01*
X174975663Y-74658691D01*
X174975647Y-74658699D01*
X174725851Y-74802920D01*
X174725835Y-74802931D01*
X174496997Y-74978524D01*
X174496990Y-74978530D01*
X174293030Y-75182490D01*
X174293024Y-75182497D01*
X174117431Y-75411335D01*
X174117420Y-75411351D01*
X173973199Y-75661147D01*
X173973191Y-75661163D01*
X173862814Y-75927639D01*
X173862809Y-75927655D01*
X173800553Y-76160000D01*
X173788152Y-76206280D01*
X173788149Y-76206293D01*
X173750501Y-76492261D01*
X173750500Y-76492278D01*
X173750500Y-76780721D01*
X173750501Y-76780738D01*
X173788149Y-77066706D01*
X173788150Y-77066711D01*
X173788151Y-77066717D01*
X173862794Y-77345288D01*
X173862809Y-77345344D01*
X173862814Y-77345360D01*
X173973191Y-77611836D01*
X173973199Y-77611852D01*
X174117420Y-77861648D01*
X174117431Y-77861664D01*
X174293024Y-78090502D01*
X174293030Y-78090509D01*
X174496990Y-78294469D01*
X174496997Y-78294475D01*
X174567956Y-78348924D01*
X174609159Y-78405352D01*
X174613314Y-78475098D01*
X174579102Y-78536018D01*
X174517384Y-78568771D01*
X174492470Y-78571300D01*
X168727766Y-78571300D01*
X168660727Y-78551615D01*
X168658875Y-78550402D01*
X168527185Y-78462409D01*
X168527172Y-78462402D01*
X168381501Y-78402064D01*
X168381489Y-78402061D01*
X168226845Y-78371300D01*
X168226842Y-78371300D01*
X168069158Y-78371300D01*
X168069155Y-78371300D01*
X167914510Y-78402061D01*
X167914498Y-78402064D01*
X167768827Y-78462402D01*
X167768814Y-78462409D01*
X167637711Y-78550010D01*
X167633001Y-78553876D01*
X167631837Y-78552458D01*
X167578058Y-78581825D01*
X167508366Y-78576841D01*
X167452433Y-78534969D01*
X167428016Y-78469505D01*
X167427700Y-78460659D01*
X167427700Y-77795765D01*
X167447385Y-77728726D01*
X167448598Y-77726874D01*
X167458358Y-77712268D01*
X167536594Y-77595179D01*
X167596937Y-77449497D01*
X167627700Y-77294842D01*
X167627700Y-77137158D01*
X167627700Y-77137155D01*
X167627699Y-77137153D01*
X167625466Y-77125925D01*
X167596937Y-76982503D01*
X167596935Y-76982498D01*
X167536597Y-76836827D01*
X167536590Y-76836814D01*
X167448989Y-76705711D01*
X167448986Y-76705707D01*
X167337492Y-76594213D01*
X167337488Y-76594210D01*
X167206385Y-76506609D01*
X167206372Y-76506602D01*
X167060701Y-76446264D01*
X167060689Y-76446261D01*
X166906045Y-76415500D01*
X166906042Y-76415500D01*
X166748358Y-76415500D01*
X166748355Y-76415500D01*
X166593710Y-76446261D01*
X166593698Y-76446264D01*
X166448027Y-76506602D01*
X166448014Y-76506609D01*
X166316911Y-76594210D01*
X166316907Y-76594213D01*
X166205413Y-76705707D01*
X166205410Y-76705711D01*
X166117809Y-76836814D01*
X166117802Y-76836827D01*
X166057464Y-76982498D01*
X166057461Y-76982510D01*
X166026700Y-77137153D01*
X166026700Y-77294846D01*
X166057461Y-77449489D01*
X166057464Y-77449501D01*
X166117802Y-77595172D01*
X166117809Y-77595185D01*
X166205802Y-77726874D01*
X166226680Y-77793551D01*
X166226700Y-77795765D01*
X166226700Y-80520530D01*
X166226699Y-80520548D01*
X166226699Y-80686254D01*
X166226698Y-80686254D01*
X166267623Y-80838985D01*
X166296558Y-80889100D01*
X166296559Y-80889104D01*
X166296560Y-80889104D01*
X166330290Y-80947528D01*
X166346679Y-80975914D01*
X166346681Y-80975917D01*
X166465549Y-81094785D01*
X166465555Y-81094790D01*
X166649939Y-81279174D01*
X166649949Y-81279185D01*
X166654279Y-81283515D01*
X166654280Y-81283516D01*
X166766084Y-81395320D01*
X166851030Y-81444362D01*
X166852895Y-81445439D01*
X166852897Y-81445441D01*
X166890951Y-81467411D01*
X166903015Y-81474377D01*
X167055743Y-81515300D01*
X174960632Y-81515300D01*
X175027671Y-81534985D01*
X175048313Y-81551619D01*
X177940981Y-84444287D01*
X177974466Y-84505610D01*
X177977300Y-84531968D01*
X177977300Y-84805445D01*
X177977299Y-84805463D01*
X177977299Y-84971169D01*
X177977298Y-84971169D01*
X178018224Y-85123904D01*
X178018225Y-85123905D01*
X178033695Y-85150699D01*
X178033696Y-85150700D01*
X178097277Y-85260827D01*
X178097281Y-85260832D01*
X178216149Y-85379700D01*
X178216155Y-85379705D01*
X183793181Y-90956731D01*
X183826666Y-91018054D01*
X183829500Y-91044412D01*
X183829500Y-102273698D01*
X183809815Y-102340737D01*
X183757011Y-102386492D01*
X183687853Y-102396436D01*
X183624297Y-102367411D01*
X183586523Y-102308633D01*
X183583883Y-102297889D01*
X183559738Y-102176510D01*
X183559737Y-102176503D01*
X183511889Y-102060987D01*
X183499397Y-102030827D01*
X183499390Y-102030814D01*
X183411789Y-101899711D01*
X183411786Y-101899707D01*
X183300292Y-101788213D01*
X183300288Y-101788210D01*
X183169185Y-101700609D01*
X183169172Y-101700602D01*
X183023501Y-101640264D01*
X183023489Y-101640261D01*
X182868845Y-101609500D01*
X182868842Y-101609500D01*
X182711158Y-101609500D01*
X182711155Y-101609500D01*
X182556510Y-101640261D01*
X182556498Y-101640264D01*
X182410827Y-101700602D01*
X182410814Y-101700609D01*
X182279711Y-101788210D01*
X182279707Y-101788213D01*
X182168213Y-101899707D01*
X182168210Y-101899711D01*
X182080609Y-102030814D01*
X182080602Y-102030827D01*
X182020264Y-102176498D01*
X182020261Y-102176510D01*
X181989500Y-102331153D01*
X181989500Y-102488846D01*
X182020261Y-102643489D01*
X182020264Y-102643501D01*
X182080602Y-102789172D01*
X182080609Y-102789185D01*
X182168602Y-102920874D01*
X182189480Y-102987551D01*
X182189500Y-102989765D01*
X182189500Y-106677749D01*
X182169815Y-106744788D01*
X182117011Y-106790543D01*
X182047853Y-106800487D01*
X181984297Y-106771462D01*
X181977819Y-106765430D01*
X181652971Y-106440582D01*
X180415534Y-107678019D01*
X181157995Y-108420480D01*
X181977819Y-107600657D01*
X182039142Y-107567172D01*
X182108834Y-107572156D01*
X182164767Y-107614028D01*
X182189184Y-107679492D01*
X182189500Y-107688338D01*
X182189500Y-109008502D01*
X182185275Y-109040595D01*
X182169499Y-109099472D01*
X182169499Y-109267575D01*
X182169500Y-109267588D01*
X182169500Y-109299902D01*
X182149815Y-109366941D01*
X182133181Y-109387583D01*
X174177584Y-117343181D01*
X174116261Y-117376666D01*
X174089903Y-117379500D01*
X144530940Y-117379500D01*
X144472067Y-117395275D01*
X144439975Y-117399500D01*
X139694800Y-117399500D01*
X139627761Y-117379815D01*
X139625909Y-117378602D01*
X139509185Y-117300609D01*
X139509172Y-117300602D01*
X139363501Y-117240264D01*
X139363489Y-117240261D01*
X139208845Y-117209500D01*
X139208842Y-117209500D01*
X139051158Y-117209500D01*
X139051155Y-117209500D01*
X138896510Y-117240261D01*
X138896498Y-117240264D01*
X138750827Y-117300602D01*
X138750814Y-117300609D01*
X138619711Y-117388210D01*
X138619707Y-117388213D01*
X138508213Y-117499707D01*
X138508210Y-117499711D01*
X138420609Y-117630814D01*
X138420602Y-117630827D01*
X138360264Y-117776498D01*
X138360261Y-117776510D01*
X138329500Y-117931153D01*
X101080000Y-117931153D01*
X101080000Y-117760000D01*
X101830000Y-117760000D01*
X101830000Y-117561508D01*
X101829999Y-117561504D01*
X101791572Y-117368318D01*
X101791569Y-117368306D01*
X101716192Y-117186328D01*
X101716185Y-117186315D01*
X101606751Y-117022537D01*
X101606748Y-117022533D01*
X101467466Y-116883251D01*
X101467462Y-116883248D01*
X101303684Y-116773814D01*
X101303671Y-116773807D01*
X101121691Y-116698429D01*
X101121683Y-116698427D01*
X101080000Y-116690135D01*
X101080000Y-117610272D01*
X101041940Y-117518386D01*
X100971614Y-117448060D01*
X100879728Y-117410000D01*
X100780272Y-117410000D01*
X100688386Y-117448060D01*
X100618060Y-117518386D01*
X100580000Y-117610272D01*
X100580000Y-116690136D01*
X100579999Y-116690135D01*
X100538316Y-116698427D01*
X100538308Y-116698429D01*
X100356328Y-116773807D01*
X100356315Y-116773814D01*
X100192537Y-116883248D01*
X100192533Y-116883251D01*
X100053251Y-117022533D01*
X100053248Y-117022537D01*
X99943814Y-117186315D01*
X99943807Y-117186328D01*
X99868430Y-117368306D01*
X99868427Y-117368318D01*
X99830000Y-117561504D01*
X94827098Y-117561504D01*
X94837228Y-117523700D01*
X94837228Y-116875972D01*
X94856913Y-116808933D01*
X94909717Y-116763178D01*
X94961228Y-116751972D01*
X97483731Y-116751972D01*
X97550770Y-116771657D01*
X97571412Y-116788291D01*
X97601572Y-116818451D01*
X97601576Y-116818454D01*
X97732679Y-116906055D01*
X97732692Y-116906062D01*
X97878363Y-116966400D01*
X97878368Y-116966402D01*
X98012230Y-116993029D01*
X98033018Y-116997164D01*
X98033021Y-116997165D01*
X98033023Y-116997165D01*
X98190709Y-116997165D01*
X98190710Y-116997164D01*
X98345362Y-116966402D01*
X98491044Y-116906059D01*
X98622154Y-116818454D01*
X98733654Y-116706954D01*
X98821259Y-116575844D01*
X98881602Y-116430162D01*
X98912365Y-116275507D01*
X98912365Y-116117823D01*
X98912365Y-116117820D01*
X98881587Y-115963092D01*
X98887814Y-115893500D01*
X98930677Y-115838323D01*
X98996567Y-115815078D01*
X99003204Y-115814900D01*
X171554303Y-115814900D01*
X171621342Y-115834585D01*
X171641984Y-115851219D01*
X172395139Y-116604374D01*
X172395149Y-116604385D01*
X172399479Y-116608715D01*
X172399480Y-116608716D01*
X172511284Y-116720520D01*
X172511286Y-116720521D01*
X172511290Y-116720524D01*
X172628668Y-116788291D01*
X172648216Y-116799577D01*
X172760019Y-116829534D01*
X172800942Y-116840500D01*
X172800943Y-116840500D01*
X173533331Y-116840500D01*
X173533347Y-116840501D01*
X173540943Y-116840501D01*
X173699054Y-116840501D01*
X173699057Y-116840501D01*
X173851785Y-116799577D01*
X173926843Y-116756242D01*
X173988716Y-116720520D01*
X174100520Y-116608716D01*
X174100520Y-116608714D01*
X174110724Y-116598511D01*
X174110728Y-116598506D01*
X177238506Y-113470728D01*
X177238511Y-113470724D01*
X177248714Y-113460520D01*
X177248716Y-113460520D01*
X177360520Y-113348716D01*
X177410899Y-113261457D01*
X177439577Y-113211785D01*
X177480500Y-113059058D01*
X177480500Y-112900943D01*
X177480500Y-109269009D01*
X178824544Y-109269009D01*
X179247273Y-109691738D01*
X179293908Y-109729318D01*
X179424687Y-109789044D01*
X179424692Y-109789045D01*
X179567006Y-109809505D01*
X179709319Y-109789045D01*
X179709324Y-109789044D01*
X179840103Y-109729318D01*
X179886738Y-109691738D01*
X180804442Y-108774034D01*
X180804442Y-108774033D01*
X180061982Y-108031572D01*
X180061981Y-108031572D01*
X178824544Y-109269009D01*
X177480500Y-109269009D01*
X177480500Y-108172994D01*
X177930494Y-108172994D01*
X177950954Y-108315307D01*
X177950955Y-108315312D01*
X178010681Y-108446091D01*
X178048261Y-108492726D01*
X178470990Y-108915455D01*
X179708427Y-107678018D01*
X179708427Y-107678017D01*
X178965965Y-106935557D01*
X178965964Y-106935557D01*
X178048265Y-107853256D01*
X178010681Y-107899896D01*
X177950955Y-108030675D01*
X177950954Y-108030680D01*
X177930494Y-108172994D01*
X177480500Y-108172994D01*
X177480500Y-107154500D01*
X177500185Y-107087461D01*
X177552989Y-107041706D01*
X177604500Y-107030500D01*
X177727871Y-107030500D01*
X177727872Y-107030500D01*
X177787483Y-107024092D01*
X177922331Y-106973797D01*
X178037546Y-106887547D01*
X178123796Y-106772332D01*
X178174091Y-106637484D01*
X178180056Y-106582002D01*
X179319519Y-106582002D01*
X179319519Y-106582003D01*
X180061979Y-107324465D01*
X180061980Y-107324465D01*
X181299417Y-106087028D01*
X180876688Y-105664299D01*
X180830053Y-105626719D01*
X180699274Y-105566993D01*
X180699269Y-105566992D01*
X180556956Y-105546532D01*
X180414642Y-105566992D01*
X180414637Y-105566993D01*
X180283858Y-105626719D01*
X180237218Y-105664303D01*
X179319519Y-106582002D01*
X178180056Y-106582002D01*
X178180500Y-106577874D01*
X178180499Y-105011667D01*
X178180499Y-103482130D01*
X178180498Y-103482124D01*
X178180497Y-103482117D01*
X178174091Y-103422518D01*
X178161296Y-103388214D01*
X178123797Y-103287672D01*
X178123793Y-103287665D01*
X178037547Y-103172456D01*
X178037544Y-103172453D01*
X177922335Y-103086207D01*
X177922328Y-103086203D01*
X177787482Y-103035909D01*
X177787483Y-103035909D01*
X177727883Y-103029502D01*
X177727881Y-103029501D01*
X177727873Y-103029501D01*
X177727864Y-103029501D01*
X176032129Y-103029501D01*
X176032123Y-103029502D01*
X175972516Y-103035909D01*
X175837671Y-103086203D01*
X175837664Y-103086207D01*
X175722455Y-103172453D01*
X175722452Y-103172456D01*
X175636206Y-103287665D01*
X175636202Y-103287672D01*
X175585908Y-103422518D01*
X175581616Y-103462447D01*
X175579501Y-103482124D01*
X175579500Y-103482136D01*
X175579500Y-106577871D01*
X175579501Y-106577877D01*
X175585908Y-106637484D01*
X175636202Y-106772329D01*
X175636206Y-106772336D01*
X175722452Y-106887545D01*
X175722455Y-106887548D01*
X175837664Y-106973794D01*
X175837671Y-106973798D01*
X175875194Y-106987793D01*
X175972517Y-107024092D01*
X176032127Y-107030501D01*
X176155500Y-107030500D01*
X176222539Y-107050184D01*
X176268294Y-107102988D01*
X176279500Y-107154500D01*
X176279500Y-111355416D01*
X176259815Y-111422455D01*
X176207011Y-111468210D01*
X176137853Y-111478154D01*
X176086609Y-111458518D01*
X175959185Y-111373376D01*
X175959172Y-111373369D01*
X175813501Y-111313031D01*
X175813489Y-111313028D01*
X175658845Y-111282267D01*
X175658842Y-111282267D01*
X175501158Y-111282267D01*
X175501155Y-111282267D01*
X175346510Y-111313028D01*
X175346498Y-111313031D01*
X175200827Y-111373369D01*
X175200814Y-111373376D01*
X175069125Y-111461369D01*
X175002447Y-111482247D01*
X175000234Y-111482267D01*
X173800078Y-111482267D01*
X173787703Y-111481648D01*
X173777697Y-111480644D01*
X173773423Y-111479499D01*
X173615309Y-111479499D01*
X173607713Y-111479499D01*
X173607697Y-111479500D01*
X173562171Y-111479500D01*
X173495132Y-111459815D01*
X173449377Y-111407011D01*
X173439433Y-111337853D01*
X173468458Y-111274297D01*
X173500169Y-111248114D01*
X173531298Y-111230141D01*
X173531300Y-111230140D01*
X173617245Y-111180520D01*
X173729049Y-111068716D01*
X173729049Y-111068714D01*
X173739253Y-111058511D01*
X173739257Y-111058506D01*
X174258506Y-110539257D01*
X174258511Y-110539253D01*
X174268714Y-110529049D01*
X174268716Y-110529049D01*
X174380520Y-110417245D01*
X174430693Y-110330342D01*
X174459577Y-110280314D01*
X174500500Y-110127586D01*
X174500500Y-109969472D01*
X174500500Y-103920097D01*
X174520185Y-103853058D01*
X174536819Y-103832416D01*
X175862417Y-102506819D01*
X175923740Y-102473334D01*
X175950098Y-102470500D01*
X177969903Y-102470500D01*
X178036942Y-102490185D01*
X178057584Y-102506819D01*
X178934026Y-103383261D01*
X178967511Y-103444584D01*
X178962527Y-103514276D01*
X178949447Y-103539833D01*
X178868609Y-103660814D01*
X178868602Y-103660827D01*
X178808264Y-103806498D01*
X178808261Y-103806510D01*
X178777500Y-103961153D01*
X178777500Y-104118846D01*
X178808261Y-104273489D01*
X178808264Y-104273501D01*
X178868602Y-104419172D01*
X178868609Y-104419185D01*
X178956210Y-104550288D01*
X178956213Y-104550292D01*
X179067707Y-104661786D01*
X179067711Y-104661789D01*
X179198814Y-104749390D01*
X179198827Y-104749397D01*
X179344498Y-104809735D01*
X179344503Y-104809737D01*
X179499153Y-104840499D01*
X179499156Y-104840500D01*
X179499158Y-104840500D01*
X179656844Y-104840500D01*
X179656845Y-104840499D01*
X179811497Y-104809737D01*
X179957179Y-104749394D01*
X180088289Y-104661789D01*
X180199789Y-104550289D01*
X180287394Y-104419179D01*
X180292544Y-104406747D01*
X180340268Y-104291528D01*
X180347737Y-104273497D01*
X180378500Y-104118842D01*
X180378500Y-103961158D01*
X180378500Y-103961155D01*
X180378499Y-103961153D01*
X180352891Y-103832416D01*
X180347737Y-103806503D01*
X180347735Y-103806498D01*
X180287397Y-103660827D01*
X180287390Y-103660814D01*
X180199398Y-103529125D01*
X180178520Y-103462447D01*
X180178500Y-103460234D01*
X180178500Y-103098945D01*
X180178500Y-103098943D01*
X180137577Y-102946216D01*
X180099002Y-102879401D01*
X180058524Y-102809290D01*
X180058521Y-102809286D01*
X180058520Y-102809284D01*
X179946716Y-102697480D01*
X179946715Y-102697479D01*
X179942385Y-102693149D01*
X179942374Y-102693139D01*
X178757590Y-101508355D01*
X178757588Y-101508352D01*
X178638717Y-101389481D01*
X178638716Y-101389480D01*
X178524126Y-101323322D01*
X178501785Y-101310423D01*
X178349057Y-101269499D01*
X178190943Y-101269499D01*
X178183347Y-101269499D01*
X178183331Y-101269500D01*
X175736670Y-101269500D01*
X175736654Y-101269499D01*
X175729058Y-101269499D01*
X175570943Y-101269499D01*
X175494579Y-101289961D01*
X175418214Y-101310423D01*
X175418209Y-101310426D01*
X175281290Y-101389475D01*
X175281282Y-101389481D01*
X173419481Y-103251282D01*
X173419477Y-103251287D01*
X173373684Y-103330605D01*
X173373684Y-103330606D01*
X173340423Y-103388214D01*
X173340423Y-103388215D01*
X173299499Y-103540943D01*
X173299499Y-103540945D01*
X173299499Y-103709046D01*
X173299500Y-103709059D01*
X173299500Y-109748432D01*
X173279815Y-109815471D01*
X173263181Y-109836113D01*
X173036113Y-110063181D01*
X172974790Y-110096666D01*
X172948432Y-110099500D01*
X171400097Y-110099500D01*
X171333058Y-110079815D01*
X171312416Y-110063181D01*
X168710590Y-107461355D01*
X168710588Y-107461352D01*
X168591717Y-107342481D01*
X168591716Y-107342480D01*
X168504904Y-107292360D01*
X168504904Y-107292359D01*
X168504900Y-107292358D01*
X168454785Y-107263423D01*
X168302057Y-107222499D01*
X168143943Y-107222499D01*
X168136347Y-107222499D01*
X168136331Y-107222500D01*
X138501766Y-107222500D01*
X138434727Y-107202815D01*
X138432875Y-107201602D01*
X138301185Y-107113609D01*
X138301172Y-107113602D01*
X138155501Y-107053264D01*
X138155489Y-107053261D01*
X138000845Y-107022500D01*
X138000842Y-107022500D01*
X137843158Y-107022500D01*
X137843155Y-107022500D01*
X137688510Y-107053261D01*
X137688498Y-107053264D01*
X137542827Y-107113602D01*
X137542814Y-107113609D01*
X137411711Y-107201210D01*
X137411707Y-107201213D01*
X137300213Y-107312707D01*
X137300210Y-107312711D01*
X137212609Y-107443814D01*
X137212602Y-107443827D01*
X137152264Y-107589498D01*
X137152261Y-107589510D01*
X137121500Y-107744153D01*
X137121500Y-107901846D01*
X137152261Y-108056489D01*
X137152264Y-108056501D01*
X137212602Y-108202172D01*
X137212609Y-108202185D01*
X137300210Y-108333288D01*
X137300213Y-108333292D01*
X137411707Y-108444786D01*
X137411711Y-108444789D01*
X137542814Y-108532390D01*
X137542827Y-108532397D01*
X137663991Y-108582584D01*
X137688503Y-108592737D01*
X137843153Y-108623499D01*
X137843156Y-108623500D01*
X137843158Y-108623500D01*
X138000844Y-108623500D01*
X138000845Y-108623499D01*
X138155497Y-108592737D01*
X138301179Y-108532394D01*
X138301185Y-108532390D01*
X138432875Y-108444398D01*
X138499553Y-108423520D01*
X138501766Y-108423500D01*
X167922903Y-108423500D01*
X167989942Y-108443185D01*
X168010584Y-108459819D01*
X170615139Y-111064374D01*
X170615149Y-111064385D01*
X170619479Y-111068715D01*
X170619480Y-111068716D01*
X170731284Y-111180520D01*
X170731286Y-111180521D01*
X170731287Y-111180522D01*
X170848359Y-111248113D01*
X170896574Y-111298679D01*
X170909798Y-111367286D01*
X170883830Y-111432151D01*
X170826916Y-111472680D01*
X170786359Y-111479500D01*
X170226226Y-111479500D01*
X170159187Y-111459815D01*
X170138545Y-111443181D01*
X170068319Y-111372955D01*
X170068317Y-111372952D01*
X169949446Y-111254081D01*
X169949445Y-111254080D01*
X169858865Y-111201784D01*
X169858864Y-111201783D01*
X169812519Y-111175025D01*
X169812518Y-111175024D01*
X169799992Y-111171667D01*
X169659786Y-111134099D01*
X169501672Y-111134099D01*
X169494076Y-111134099D01*
X169494060Y-111134100D01*
X166162098Y-111134100D01*
X166095059Y-111114415D01*
X166074417Y-111097781D01*
X165562190Y-110585555D01*
X165562188Y-110585552D01*
X165443317Y-110466681D01*
X165443316Y-110466680D01*
X165356504Y-110416560D01*
X165356504Y-110416559D01*
X165356500Y-110416558D01*
X165306385Y-110387623D01*
X165153657Y-110346699D01*
X164995543Y-110346699D01*
X164987947Y-110346699D01*
X164987931Y-110346700D01*
X117394798Y-110346700D01*
X117327759Y-110327015D01*
X117307117Y-110310381D01*
X112050741Y-105054005D01*
X106700124Y-99703389D01*
X114659500Y-99703389D01*
X114659500Y-99876611D01*
X114660880Y-99885321D01*
X114679776Y-100004632D01*
X114686598Y-100047701D01*
X114740127Y-100212445D01*
X114818768Y-100366788D01*
X114920586Y-100506928D01*
X115043072Y-100629414D01*
X115183212Y-100731232D01*
X115337555Y-100809873D01*
X115502299Y-100863402D01*
X115673389Y-100890500D01*
X115673390Y-100890500D01*
X115846610Y-100890500D01*
X115846611Y-100890500D01*
X116017701Y-100863402D01*
X116182445Y-100809873D01*
X116336788Y-100731232D01*
X116476928Y-100629414D01*
X116599414Y-100506928D01*
X116701232Y-100366788D01*
X116779873Y-100212445D01*
X116833402Y-100047701D01*
X116859426Y-99883389D01*
X146310677Y-99883389D01*
X146310677Y-100056610D01*
X146344467Y-100226481D01*
X146344470Y-100226493D01*
X146410750Y-100386509D01*
X146410757Y-100386522D01*
X146506984Y-100530535D01*
X146506987Y-100530539D01*
X146629460Y-100653012D01*
X146629464Y-100653015D01*
X146773477Y-100749242D01*
X146773490Y-100749249D01*
X146881530Y-100794000D01*
X146933511Y-100815531D01*
X147103389Y-100849322D01*
X147103392Y-100849323D01*
X147103394Y-100849323D01*
X147276608Y-100849323D01*
X147276609Y-100849322D01*
X147446489Y-100815531D01*
X147606516Y-100749246D01*
X147750536Y-100653015D01*
X147873015Y-100530536D01*
X147969246Y-100386516D01*
X148035531Y-100226489D01*
X148069323Y-100056606D01*
X148069323Y-99883394D01*
X148069323Y-99883391D01*
X148069322Y-99883389D01*
X148035532Y-99713518D01*
X148035531Y-99713511D01*
X148003682Y-99636620D01*
X147969249Y-99553490D01*
X147969242Y-99553477D01*
X147873015Y-99409464D01*
X147873012Y-99409460D01*
X147750539Y-99286987D01*
X147750535Y-99286984D01*
X147606522Y-99190757D01*
X147606509Y-99190750D01*
X147446493Y-99124470D01*
X147446481Y-99124467D01*
X147276609Y-99090677D01*
X147276606Y-99090677D01*
X147103394Y-99090677D01*
X147103391Y-99090677D01*
X146933518Y-99124467D01*
X146933506Y-99124470D01*
X146773490Y-99190750D01*
X146773477Y-99190757D01*
X146629464Y-99286984D01*
X146629460Y-99286987D01*
X146506987Y-99409460D01*
X146506984Y-99409464D01*
X146410757Y-99553477D01*
X146410750Y-99553490D01*
X146344470Y-99713506D01*
X146344467Y-99713518D01*
X146310677Y-99883389D01*
X116859426Y-99883389D01*
X116860500Y-99876611D01*
X116860500Y-99703389D01*
X116833402Y-99532299D01*
X116779873Y-99367555D01*
X116701232Y-99213212D01*
X116599414Y-99073072D01*
X116476928Y-98950586D01*
X116336788Y-98848768D01*
X116182445Y-98770127D01*
X116017701Y-98716598D01*
X116017699Y-98716597D01*
X116017698Y-98716597D01*
X115886271Y-98695781D01*
X115846611Y-98689500D01*
X115673389Y-98689500D01*
X115633728Y-98695781D01*
X115502302Y-98716597D01*
X115502299Y-98716598D01*
X115388500Y-98753574D01*
X115337552Y-98770128D01*
X115183211Y-98848768D01*
X115130060Y-98887385D01*
X115043072Y-98950586D01*
X115043070Y-98950588D01*
X115043069Y-98950588D01*
X114920588Y-99073069D01*
X114920588Y-99073070D01*
X114920586Y-99073072D01*
X114896397Y-99106365D01*
X114818768Y-99213211D01*
X114740128Y-99367552D01*
X114686597Y-99532302D01*
X114670091Y-99636517D01*
X114659500Y-99703389D01*
X106700124Y-99703389D01*
X104391261Y-97394526D01*
X104357777Y-97333204D01*
X104358343Y-97280478D01*
X104358151Y-97280448D01*
X104358357Y-97279143D01*
X104358371Y-97277891D01*
X104358909Y-97275646D01*
X104358913Y-97275636D01*
X104390000Y-97079361D01*
X104390000Y-96880639D01*
X104358913Y-96684364D01*
X104311178Y-96537449D01*
X104297506Y-96495370D01*
X104297505Y-96495367D01*
X104251535Y-96405149D01*
X104207287Y-96318306D01*
X104090481Y-96157536D01*
X103949964Y-96017019D01*
X103789194Y-95900213D01*
X103632718Y-95820484D01*
X103581923Y-95772510D01*
X103565128Y-95704689D01*
X103587665Y-95638554D01*
X103632718Y-95599515D01*
X103789194Y-95519787D01*
X103949964Y-95402981D01*
X104090481Y-95262464D01*
X104207287Y-95101694D01*
X104207289Y-95101689D01*
X104208500Y-95099715D01*
X104209156Y-95099121D01*
X104210151Y-95097752D01*
X104210438Y-95097960D01*
X104260310Y-95052837D01*
X104314230Y-95040500D01*
X161764307Y-95040500D01*
X161811759Y-95049939D01*
X161945498Y-95105335D01*
X161945503Y-95105337D01*
X162100153Y-95136099D01*
X162100156Y-95136100D01*
X162100158Y-95136100D01*
X162257844Y-95136100D01*
X162257845Y-95136099D01*
X162412497Y-95105337D01*
X162558179Y-95044994D01*
X162689289Y-94957389D01*
X162800789Y-94845889D01*
X162888394Y-94714779D01*
X162948737Y-94569097D01*
X162979500Y-94414442D01*
X162979500Y-94256758D01*
X162979500Y-94256755D01*
X162979499Y-94256753D01*
X162948738Y-94102110D01*
X162948737Y-94102103D01*
X162948133Y-94100645D01*
X162888397Y-93956427D01*
X162888390Y-93956414D01*
X162800789Y-93825311D01*
X162800786Y-93825307D01*
X162689292Y-93713813D01*
X162689288Y-93713810D01*
X162558185Y-93626209D01*
X162558172Y-93626202D01*
X162412501Y-93565864D01*
X162412489Y-93565861D01*
X162257845Y-93535100D01*
X162257842Y-93535100D01*
X162100158Y-93535100D01*
X162100155Y-93535100D01*
X161945510Y-93565861D01*
X161945498Y-93565864D01*
X161799827Y-93626202D01*
X161799814Y-93626209D01*
X161668711Y-93713810D01*
X161668707Y-93713813D01*
X161579340Y-93803181D01*
X161518017Y-93836666D01*
X161491659Y-93839500D01*
X104314230Y-93839500D01*
X104247191Y-93819815D01*
X104210308Y-93782133D01*
X104210151Y-93782248D01*
X104209372Y-93781176D01*
X104208500Y-93780285D01*
X104207289Y-93778309D01*
X104160430Y-93713813D01*
X104090481Y-93617536D01*
X104013469Y-93540524D01*
X103979984Y-93479201D01*
X103984968Y-93409509D01*
X104013469Y-93365162D01*
X104018418Y-93360213D01*
X104047915Y-93330716D01*
X104047915Y-93330714D01*
X104058116Y-93320514D01*
X104058119Y-93320509D01*
X104311212Y-93067416D01*
X104372534Y-93033934D01*
X104398892Y-93031100D01*
X164942731Y-93031100D01*
X164942747Y-93031101D01*
X164950343Y-93031101D01*
X165108454Y-93031101D01*
X165108457Y-93031101D01*
X165261185Y-92990177D01*
X165311304Y-92961239D01*
X165398116Y-92911120D01*
X165509920Y-92799316D01*
X165509920Y-92799314D01*
X165520128Y-92789107D01*
X165520129Y-92789104D01*
X171462345Y-86846889D01*
X171523666Y-86813406D01*
X171593358Y-86818390D01*
X171646575Y-86856765D01*
X171657476Y-86870292D01*
X171683914Y-86903100D01*
X171683916Y-86903102D01*
X171683921Y-86903108D01*
X171876712Y-87095899D01*
X171910197Y-87157222D01*
X171905213Y-87226914D01*
X171863341Y-87282847D01*
X171797877Y-87307264D01*
X171789031Y-87307580D01*
X171417136Y-87307580D01*
X171343445Y-87338104D01*
X171287044Y-87394505D01*
X171256520Y-87468196D01*
X171256520Y-109622593D01*
X171279908Y-109679057D01*
X171287044Y-109696284D01*
X171343446Y-109752686D01*
X171417138Y-109783210D01*
X171417140Y-109783210D01*
X172670880Y-109783210D01*
X172670882Y-109783210D01*
X172744574Y-109752686D01*
X172800976Y-109696284D01*
X172831500Y-109622592D01*
X172831500Y-97577843D01*
X175580000Y-97577843D01*
X175586401Y-97637371D01*
X175586403Y-97637378D01*
X175636645Y-97772085D01*
X175636649Y-97772092D01*
X175722809Y-97887186D01*
X175722812Y-97887189D01*
X175837906Y-97973349D01*
X175837913Y-97973353D01*
X175972620Y-98023595D01*
X175972627Y-98023597D01*
X176032155Y-98029998D01*
X176032172Y-98029999D01*
X176630000Y-98029999D01*
X177130000Y-98029999D01*
X177727828Y-98029999D01*
X177727844Y-98029998D01*
X177787372Y-98023597D01*
X177787379Y-98023595D01*
X177922086Y-97973353D01*
X177922093Y-97973349D01*
X178037187Y-97887189D01*
X178037190Y-97887186D01*
X178123350Y-97772092D01*
X178123354Y-97772085D01*
X178173596Y-97637378D01*
X178173598Y-97637371D01*
X178179999Y-97577843D01*
X178180000Y-97577826D01*
X178180000Y-96279999D01*
X177130000Y-96279999D01*
X177130000Y-98029999D01*
X176630000Y-98029999D01*
X176630000Y-96279999D01*
X175580000Y-96279999D01*
X175580000Y-97577843D01*
X172831500Y-97577843D01*
X172831500Y-94482154D01*
X175580000Y-94482154D01*
X175580000Y-95779999D01*
X176630000Y-95779999D01*
X177130000Y-95779999D01*
X178180000Y-95779999D01*
X178180000Y-94537995D01*
X179319520Y-94537995D01*
X179319520Y-94537996D01*
X180237224Y-95455700D01*
X180283859Y-95493280D01*
X180414638Y-95553006D01*
X180414643Y-95553007D01*
X180556957Y-95573467D01*
X180699270Y-95553007D01*
X180699275Y-95553006D01*
X180830054Y-95493280D01*
X180876689Y-95455700D01*
X181299418Y-95032971D01*
X181299418Y-95032970D01*
X180061981Y-93795534D01*
X180061980Y-93795534D01*
X179319520Y-94537995D01*
X178180000Y-94537995D01*
X178180000Y-94482171D01*
X178179999Y-94482154D01*
X178173598Y-94422626D01*
X178173596Y-94422619D01*
X178123354Y-94287912D01*
X178123350Y-94287905D01*
X178037190Y-94172811D01*
X178037187Y-94172808D01*
X177922093Y-94086648D01*
X177922086Y-94086644D01*
X177787379Y-94036402D01*
X177787372Y-94036400D01*
X177727844Y-94029999D01*
X177130000Y-94029999D01*
X177130000Y-95779999D01*
X176630000Y-95779999D01*
X176630000Y-94029999D01*
X176032155Y-94029999D01*
X175972627Y-94036400D01*
X175972620Y-94036402D01*
X175837913Y-94086644D01*
X175837906Y-94086648D01*
X175722812Y-94172808D01*
X175722809Y-94172811D01*
X175636649Y-94287905D01*
X175636645Y-94287912D01*
X175586403Y-94422619D01*
X175586401Y-94422626D01*
X175580000Y-94482154D01*
X172831500Y-94482154D01*
X172831500Y-92947006D01*
X177930495Y-92947006D01*
X177950955Y-93089319D01*
X177950956Y-93089324D01*
X178010682Y-93220103D01*
X178048262Y-93266738D01*
X178965966Y-94184442D01*
X179708428Y-93441981D01*
X179708426Y-93441979D01*
X180415535Y-93441979D01*
X180415535Y-93441980D01*
X181652971Y-94679417D01*
X181652972Y-94679417D01*
X182075701Y-94256688D01*
X182113281Y-94210053D01*
X182173007Y-94079274D01*
X182173008Y-94079269D01*
X182193468Y-93936956D01*
X182173008Y-93794642D01*
X182173007Y-93794637D01*
X182113281Y-93663858D01*
X182075701Y-93617223D01*
X181157997Y-92699519D01*
X180415535Y-93441979D01*
X179708426Y-93441979D01*
X178470991Y-92204544D01*
X178470990Y-92204544D01*
X178048266Y-92627268D01*
X178010682Y-92673908D01*
X177950956Y-92804687D01*
X177950955Y-92804692D01*
X177930495Y-92947006D01*
X172831500Y-92947006D01*
X172831500Y-91850989D01*
X178824545Y-91850989D01*
X178824545Y-91850990D01*
X180061982Y-93088427D01*
X180061983Y-93088427D01*
X180804443Y-92345965D01*
X180804443Y-92345964D01*
X179886743Y-91428265D01*
X179886739Y-91428261D01*
X179840104Y-91390681D01*
X179709325Y-91330955D01*
X179709320Y-91330954D01*
X179567007Y-91310494D01*
X179424693Y-91330954D01*
X179424688Y-91330955D01*
X179293909Y-91390681D01*
X179247269Y-91428265D01*
X178824545Y-91850989D01*
X172831500Y-91850989D01*
X172831500Y-88350046D01*
X172851185Y-88283007D01*
X172903989Y-88237252D01*
X172973147Y-88227308D01*
X173036703Y-88256333D01*
X173043181Y-88262365D01*
X173872937Y-89092121D01*
X173872941Y-89092124D01*
X173872943Y-89092126D01*
X173919615Y-89129739D01*
X173919618Y-89129740D01*
X173919620Y-89129742D01*
X174050535Y-89189530D01*
X174192992Y-89210011D01*
X174192992Y-89210010D01*
X174192993Y-89210011D01*
X174335450Y-89189530D01*
X174466366Y-89129742D01*
X174513048Y-89092123D01*
X175712120Y-87893049D01*
X175749741Y-87846367D01*
X175809529Y-87715451D01*
X175830010Y-87572994D01*
X175817425Y-87485461D01*
X175809529Y-87430536D01*
X175749742Y-87299623D01*
X175749741Y-87299622D01*
X175749741Y-87299621D01*
X175712122Y-87252938D01*
X175712117Y-87252933D01*
X175712113Y-87252928D01*
X173523102Y-85063920D01*
X173523096Y-85063915D01*
X173523092Y-85063911D01*
X173476420Y-85026298D01*
X173476414Y-85026295D01*
X173345499Y-84966507D01*
X173345500Y-84966507D01*
X173203043Y-84946027D01*
X173060587Y-84966507D01*
X173060583Y-84966508D01*
X172929672Y-85026294D01*
X172929667Y-85026297D01*
X172882992Y-85063911D01*
X172882985Y-85063917D01*
X172403723Y-85543181D01*
X172342400Y-85576666D01*
X172316042Y-85579500D01*
X171359057Y-85579500D01*
X171200942Y-85579500D01*
X171048215Y-85620423D01*
X171048214Y-85620423D01*
X171048212Y-85620424D01*
X171048209Y-85620425D01*
X170998096Y-85649359D01*
X170998095Y-85649360D01*
X170974198Y-85663157D01*
X170911285Y-85699479D01*
X170911282Y-85699481D01*
X170821971Y-85788793D01*
X170799480Y-85811284D01*
X170799478Y-85811286D01*
X167795685Y-88815080D01*
X164816984Y-91793781D01*
X164755661Y-91827266D01*
X164729303Y-91830100D01*
X104500572Y-91830100D01*
X104433533Y-91810415D01*
X104387778Y-91757611D01*
X104378099Y-91725498D01*
X104372272Y-91688712D01*
X104358913Y-91604364D01*
X104328209Y-91509866D01*
X104297506Y-91415370D01*
X104297505Y-91415367D01*
X104244069Y-91310494D01*
X104207287Y-91238306D01*
X104090481Y-91077536D01*
X103949964Y-90937019D01*
X103789194Y-90820213D01*
X103632718Y-90740484D01*
X103581923Y-90692510D01*
X103565128Y-90624689D01*
X103587665Y-90558554D01*
X103632718Y-90519515D01*
X103789194Y-90439787D01*
X103949964Y-90322981D01*
X104090481Y-90182464D01*
X104207287Y-90021694D01*
X104297505Y-89844632D01*
X104304320Y-89823659D01*
X104349452Y-89684753D01*
X134365697Y-89684753D01*
X134365697Y-89842446D01*
X134396458Y-89997089D01*
X134396461Y-89997101D01*
X134456799Y-90142772D01*
X134456806Y-90142785D01*
X134544407Y-90273888D01*
X134544410Y-90273892D01*
X134655904Y-90385386D01*
X134655908Y-90385389D01*
X134787011Y-90472990D01*
X134787024Y-90472997D01*
X134882469Y-90512531D01*
X134932700Y-90533337D01*
X135059474Y-90558554D01*
X135087350Y-90564099D01*
X135087353Y-90564100D01*
X135087355Y-90564100D01*
X135245041Y-90564100D01*
X135245042Y-90564099D01*
X135399694Y-90533337D01*
X135518747Y-90484023D01*
X135588214Y-90476555D01*
X135613647Y-90484022D01*
X135732703Y-90533337D01*
X135859477Y-90558554D01*
X135887353Y-90564099D01*
X135887356Y-90564100D01*
X135887358Y-90564100D01*
X136045044Y-90564100D01*
X136045045Y-90564099D01*
X136199697Y-90533337D01*
X136345379Y-90472994D01*
X136476489Y-90385389D01*
X136587989Y-90273889D01*
X136675594Y-90142779D01*
X136735937Y-89997097D01*
X136766700Y-89842442D01*
X136766700Y-89684758D01*
X136766700Y-89684755D01*
X136766699Y-89684753D01*
X136742489Y-89563042D01*
X136735937Y-89530103D01*
X136691240Y-89422194D01*
X136675597Y-89384427D01*
X136675590Y-89384414D01*
X136614459Y-89292926D01*
X136593581Y-89226249D01*
X136612065Y-89158869D01*
X136629876Y-89136358D01*
X138571662Y-87194572D01*
X138632983Y-87161089D01*
X138635150Y-87160638D01*
X138693085Y-87149113D01*
X138790497Y-87129737D01*
X138936179Y-87069394D01*
X139067289Y-86981789D01*
X139178789Y-86870289D01*
X139266394Y-86739179D01*
X139272401Y-86724678D01*
X139323339Y-86601700D01*
X139326737Y-86593497D01*
X139357500Y-86438842D01*
X139357500Y-86398700D01*
X139377185Y-86331661D01*
X139429989Y-86285906D01*
X139481500Y-86274700D01*
X143718639Y-86274700D01*
X143785678Y-86294385D01*
X143806320Y-86311019D01*
X143942845Y-86447544D01*
X143976330Y-86508867D01*
X143976781Y-86511033D01*
X144007681Y-86666375D01*
X144007684Y-86666385D01*
X144068022Y-86812056D01*
X144068029Y-86812069D01*
X144155630Y-86943172D01*
X144155633Y-86943176D01*
X144267127Y-87054670D01*
X144267131Y-87054673D01*
X144398234Y-87142274D01*
X144398247Y-87142281D01*
X144543918Y-87202619D01*
X144543923Y-87202621D01*
X144698573Y-87233383D01*
X144698576Y-87233384D01*
X144698578Y-87233384D01*
X144856264Y-87233384D01*
X144856265Y-87233383D01*
X145010917Y-87202621D01*
X145156599Y-87142278D01*
X145287709Y-87054673D01*
X145399209Y-86943173D01*
X145486814Y-86812063D01*
X145547157Y-86666381D01*
X145577920Y-86511726D01*
X145577920Y-86354042D01*
X145577920Y-86354039D01*
X145577919Y-86354037D01*
X145550435Y-86215869D01*
X145547157Y-86199387D01*
X145547155Y-86199382D01*
X145486817Y-86053711D01*
X145486810Y-86053698D01*
X145399209Y-85922595D01*
X145399206Y-85922591D01*
X145287712Y-85811097D01*
X145287708Y-85811094D01*
X145156605Y-85723493D01*
X145156592Y-85723486D01*
X145010921Y-85663148D01*
X145010911Y-85663145D01*
X144855569Y-85632245D01*
X144793658Y-85599860D01*
X144792080Y-85598309D01*
X144506326Y-85312555D01*
X144506324Y-85312552D01*
X144387453Y-85193681D01*
X144387452Y-85193680D01*
X144300640Y-85143560D01*
X144300640Y-85143559D01*
X144300636Y-85143558D01*
X144250521Y-85114623D01*
X144097793Y-85073699D01*
X143939679Y-85073699D01*
X143932083Y-85073699D01*
X143932067Y-85073700D01*
X138313960Y-85073700D01*
X138273039Y-85084664D01*
X138273039Y-85084665D01*
X138246404Y-85091802D01*
X138161234Y-85114623D01*
X138161229Y-85114626D01*
X138024310Y-85193675D01*
X138024302Y-85193681D01*
X134850681Y-88367302D01*
X134850679Y-88367305D01*
X134805856Y-88444943D01*
X134805854Y-88444945D01*
X134771625Y-88504229D01*
X134771624Y-88504230D01*
X134771623Y-88504235D01*
X134730699Y-88656963D01*
X134730699Y-88656965D01*
X134730699Y-88825066D01*
X134730700Y-88825079D01*
X134730700Y-89025556D01*
X134711015Y-89092595D01*
X134675594Y-89128656D01*
X134655912Y-89141808D01*
X134655911Y-89141808D01*
X134544406Y-89253312D01*
X134456806Y-89384414D01*
X134456799Y-89384427D01*
X134396461Y-89530098D01*
X134396458Y-89530110D01*
X134365697Y-89684753D01*
X104349452Y-89684753D01*
X104358913Y-89655636D01*
X104378794Y-89530110D01*
X104390000Y-89459361D01*
X104390000Y-89260639D01*
X104358913Y-89064364D01*
X104297505Y-88875368D01*
X104297505Y-88875367D01*
X104246264Y-88774802D01*
X104207287Y-88698306D01*
X104090481Y-88537536D01*
X103949964Y-88397019D01*
X103789194Y-88280213D01*
X103632718Y-88200484D01*
X103581923Y-88152510D01*
X103565128Y-88084689D01*
X103587665Y-88018554D01*
X103632718Y-87979515D01*
X103789194Y-87899787D01*
X103949964Y-87782981D01*
X104090481Y-87642464D01*
X104207287Y-87481694D01*
X104297505Y-87304632D01*
X104358913Y-87115636D01*
X104390000Y-86919361D01*
X104390000Y-86720639D01*
X104358913Y-86524364D01*
X104318083Y-86398700D01*
X104297506Y-86335370D01*
X104297505Y-86335367D01*
X104236614Y-86215864D01*
X104207287Y-86158306D01*
X104090481Y-85997536D01*
X103949964Y-85857019D01*
X103919862Y-85835149D01*
X103894325Y-85816595D01*
X103789194Y-85740213D01*
X103754142Y-85722353D01*
X113829700Y-85722353D01*
X113829700Y-85880046D01*
X113860461Y-86034689D01*
X113860464Y-86034701D01*
X113920802Y-86180372D01*
X113920809Y-86180385D01*
X114008410Y-86311488D01*
X114008413Y-86311492D01*
X114119907Y-86422986D01*
X114119911Y-86422989D01*
X114251014Y-86510590D01*
X114251027Y-86510597D01*
X114391387Y-86568735D01*
X114396703Y-86570937D01*
X114511336Y-86593739D01*
X114551353Y-86601699D01*
X114551356Y-86601700D01*
X114551358Y-86601700D01*
X114709044Y-86601700D01*
X114709045Y-86601699D01*
X114863697Y-86570937D01*
X114976366Y-86524267D01*
X115009372Y-86510597D01*
X115009372Y-86510596D01*
X115009379Y-86510594D01*
X115140489Y-86422989D01*
X115251989Y-86311489D01*
X115339594Y-86180379D01*
X115344720Y-86168005D01*
X115353267Y-86147366D01*
X115399937Y-86034697D01*
X115422236Y-85922595D01*
X115430838Y-85879351D01*
X115463223Y-85817440D01*
X115464774Y-85815861D01*
X115491842Y-85788793D01*
X115644120Y-85636516D01*
X115723177Y-85499584D01*
X115764101Y-85346857D01*
X115764101Y-85188742D01*
X115764101Y-85181147D01*
X115764100Y-85181129D01*
X115764100Y-82496553D01*
X135318100Y-82496553D01*
X135318100Y-82654246D01*
X135348861Y-82808889D01*
X135348864Y-82808901D01*
X135409202Y-82954572D01*
X135409209Y-82954585D01*
X135496810Y-83085688D01*
X135496813Y-83085692D01*
X135608307Y-83197186D01*
X135608311Y-83197189D01*
X135739414Y-83284790D01*
X135739427Y-83284797D01*
X135884280Y-83344796D01*
X135885103Y-83345137D01*
X136039753Y-83375899D01*
X136039756Y-83375900D01*
X136039758Y-83375900D01*
X136197444Y-83375900D01*
X136197445Y-83375899D01*
X136352097Y-83345137D01*
X136497779Y-83284794D01*
X136628889Y-83197189D01*
X136740389Y-83085689D01*
X136827994Y-82954579D01*
X136888337Y-82808897D01*
X136888338Y-82808889D01*
X136889910Y-82803710D01*
X136928205Y-82745269D01*
X136992016Y-82716810D01*
X137056024Y-82725139D01*
X137187313Y-82779520D01*
X137187318Y-82779522D01*
X137334955Y-82808889D01*
X137341968Y-82810284D01*
X137341971Y-82810285D01*
X137341973Y-82810285D01*
X137499659Y-82810285D01*
X137499660Y-82810284D01*
X137654312Y-82779522D01*
X137799994Y-82719179D01*
X137931104Y-82631574D01*
X138042604Y-82520074D01*
X138130209Y-82388964D01*
X138190552Y-82243282D01*
X138221315Y-82088627D01*
X138221315Y-81930943D01*
X138221315Y-81930940D01*
X138221314Y-81930938D01*
X138196395Y-81805663D01*
X138190552Y-81776288D01*
X138161342Y-81705768D01*
X138130212Y-81630612D01*
X138130205Y-81630599D01*
X138042604Y-81499496D01*
X138042601Y-81499492D01*
X137931107Y-81387998D01*
X137931103Y-81387995D01*
X137800000Y-81300394D01*
X137799987Y-81300387D01*
X137654316Y-81240049D01*
X137654304Y-81240046D01*
X137499660Y-81209285D01*
X137499657Y-81209285D01*
X137341973Y-81209285D01*
X137341970Y-81209285D01*
X137187325Y-81240046D01*
X137187313Y-81240049D01*
X137041642Y-81300387D01*
X137041629Y-81300394D01*
X136909940Y-81388387D01*
X136843262Y-81409265D01*
X136841049Y-81409285D01*
X136605155Y-81409285D01*
X136564234Y-81420249D01*
X136564234Y-81420250D01*
X136526966Y-81430236D01*
X136452429Y-81450208D01*
X136452424Y-81450211D01*
X136315505Y-81529260D01*
X136315497Y-81529266D01*
X136258450Y-81586314D01*
X136203695Y-81641069D01*
X136203693Y-81641071D01*
X136146539Y-81698224D01*
X136103937Y-81740827D01*
X136042613Y-81774311D01*
X136040448Y-81774762D01*
X135885108Y-81805661D01*
X135885098Y-81805664D01*
X135739427Y-81866002D01*
X135739414Y-81866009D01*
X135608311Y-81953610D01*
X135608307Y-81953613D01*
X135496813Y-82065107D01*
X135496810Y-82065111D01*
X135409209Y-82196214D01*
X135409202Y-82196227D01*
X135348864Y-82341898D01*
X135348861Y-82341910D01*
X135318100Y-82496553D01*
X115764100Y-82496553D01*
X115764100Y-79954765D01*
X115783785Y-79887726D01*
X115784998Y-79885874D01*
X115872990Y-79754185D01*
X115872990Y-79754184D01*
X115872994Y-79754179D01*
X115933337Y-79608497D01*
X115964100Y-79453842D01*
X115964100Y-79296158D01*
X115964100Y-79296155D01*
X115964099Y-79296153D01*
X115933338Y-79141510D01*
X115933337Y-79141503D01*
X115916411Y-79100639D01*
X115872997Y-78995827D01*
X115872990Y-78995814D01*
X115785389Y-78864711D01*
X115785386Y-78864707D01*
X115673892Y-78753213D01*
X115673888Y-78753210D01*
X115542785Y-78665609D01*
X115542772Y-78665602D01*
X115397101Y-78605264D01*
X115397089Y-78605261D01*
X115242445Y-78574500D01*
X115242442Y-78574500D01*
X115084758Y-78574500D01*
X115084755Y-78574500D01*
X114930110Y-78605261D01*
X114930098Y-78605264D01*
X114784427Y-78665602D01*
X114784414Y-78665609D01*
X114653311Y-78753210D01*
X114653307Y-78753213D01*
X114541813Y-78864707D01*
X114541810Y-78864711D01*
X114454209Y-78995814D01*
X114454202Y-78995827D01*
X114393864Y-79141498D01*
X114393861Y-79141510D01*
X114363100Y-79296153D01*
X114363100Y-79453846D01*
X114393861Y-79608489D01*
X114393864Y-79608501D01*
X114454202Y-79754172D01*
X114454209Y-79754185D01*
X114542202Y-79885874D01*
X114563080Y-79952551D01*
X114563100Y-79954765D01*
X114563100Y-84896600D01*
X114543415Y-84963639D01*
X114490611Y-85009394D01*
X114463292Y-85018217D01*
X114396708Y-85031461D01*
X114396698Y-85031464D01*
X114251027Y-85091802D01*
X114251014Y-85091809D01*
X114119911Y-85179410D01*
X114119907Y-85179413D01*
X114008413Y-85290907D01*
X114008410Y-85290911D01*
X113920809Y-85422014D01*
X113920802Y-85422027D01*
X113860464Y-85567698D01*
X113860461Y-85567710D01*
X113829700Y-85722353D01*
X103754142Y-85722353D01*
X103632718Y-85660484D01*
X103581923Y-85612510D01*
X103565128Y-85544689D01*
X103587665Y-85478554D01*
X103632718Y-85439515D01*
X103789194Y-85359787D01*
X103949964Y-85242981D01*
X104090481Y-85102464D01*
X104207287Y-84941694D01*
X104297505Y-84764632D01*
X104358913Y-84575636D01*
X104390000Y-84379361D01*
X104390000Y-84180639D01*
X104358913Y-83984364D01*
X104297505Y-83795368D01*
X104297505Y-83795367D01*
X104251535Y-83705149D01*
X104207287Y-83618306D01*
X104090481Y-83457536D01*
X103949964Y-83317019D01*
X103789194Y-83200213D01*
X103632718Y-83120484D01*
X103581923Y-83072510D01*
X103565128Y-83004689D01*
X103587665Y-82938554D01*
X103632718Y-82899515D01*
X103789194Y-82819787D01*
X103949964Y-82702981D01*
X104090481Y-82562464D01*
X104207287Y-82401694D01*
X104297505Y-82224632D01*
X104358913Y-82035636D01*
X104390000Y-81839361D01*
X104390000Y-81640639D01*
X104358913Y-81444364D01*
X104312134Y-81300391D01*
X104297506Y-81255370D01*
X104297505Y-81255367D01*
X104251535Y-81165149D01*
X104207287Y-81078306D01*
X104090481Y-80917536D01*
X103949964Y-80777019D01*
X103789194Y-80660213D01*
X103632718Y-80580484D01*
X103581923Y-80532510D01*
X103565128Y-80464689D01*
X103587665Y-80398554D01*
X103632718Y-80359515D01*
X103789194Y-80279787D01*
X103949964Y-80162981D01*
X104090481Y-80022464D01*
X104207287Y-79861694D01*
X104297505Y-79684632D01*
X104358913Y-79495636D01*
X104390000Y-79299361D01*
X104390000Y-79100639D01*
X104358913Y-78904364D01*
X104319501Y-78783064D01*
X104297506Y-78715370D01*
X104297505Y-78715367D01*
X104229461Y-78581825D01*
X104207287Y-78538306D01*
X104090481Y-78377536D01*
X103949964Y-78237019D01*
X103789194Y-78120213D01*
X103632167Y-78040203D01*
X103581372Y-77992229D01*
X103564577Y-77924408D01*
X103587114Y-77858273D01*
X103632169Y-77819234D01*
X103788922Y-77739364D01*
X103826216Y-77712268D01*
X103256910Y-77142962D01*
X103320493Y-77125925D01*
X103434507Y-77060099D01*
X103527599Y-76967007D01*
X103593425Y-76852993D01*
X103610462Y-76789409D01*
X104179768Y-77358715D01*
X104206862Y-77321425D01*
X104297042Y-77144437D01*
X104358424Y-76955523D01*
X104358424Y-76955520D01*
X104389500Y-76759321D01*
X104389500Y-76560678D01*
X104358424Y-76364479D01*
X104358424Y-76364476D01*
X104297042Y-76175562D01*
X104206858Y-75998567D01*
X104179768Y-75961283D01*
X103610462Y-76530589D01*
X103593425Y-76467007D01*
X103527599Y-76352993D01*
X103434507Y-76259901D01*
X103320493Y-76194075D01*
X103256909Y-76177037D01*
X103826216Y-75607731D01*
X103826215Y-75607730D01*
X103788932Y-75580641D01*
X103632168Y-75500765D01*
X103623235Y-75492328D01*
X103611830Y-75487765D01*
X103598311Y-75468789D01*
X103581372Y-75452790D01*
X103578418Y-75440864D01*
X103571291Y-75430859D01*
X103570177Y-75407586D01*
X103564577Y-75384969D01*
X103568539Y-75373340D01*
X103567953Y-75361069D01*
X103579599Y-75340887D01*
X103587115Y-75318834D01*
X103597591Y-75309710D01*
X103598374Y-75308353D01*
X105304700Y-75308353D01*
X105304700Y-75466046D01*
X105335461Y-75620689D01*
X105335464Y-75620701D01*
X105395802Y-75766372D01*
X105395809Y-75766385D01*
X105483410Y-75897488D01*
X105483413Y-75897492D01*
X105594907Y-76008986D01*
X105594911Y-76008989D01*
X105726014Y-76096590D01*
X105726027Y-76096597D01*
X105871698Y-76156935D01*
X105871703Y-76156937D01*
X105965337Y-76175562D01*
X106026353Y-76187699D01*
X106026356Y-76187700D01*
X106026358Y-76187700D01*
X106184044Y-76187700D01*
X106184045Y-76187699D01*
X106338697Y-76156937D01*
X106484379Y-76096594D01*
X106615489Y-76008989D01*
X106726989Y-75897489D01*
X106814594Y-75766379D01*
X106874937Y-75620697D01*
X106905700Y-75466042D01*
X106905700Y-75439418D01*
X132469235Y-75439418D01*
X132469235Y-75597111D01*
X132499996Y-75751754D01*
X132499999Y-75751766D01*
X132560337Y-75897437D01*
X132560344Y-75897450D01*
X132647945Y-76028553D01*
X132647948Y-76028557D01*
X132759442Y-76140051D01*
X132759446Y-76140054D01*
X132890549Y-76227655D01*
X132890562Y-76227662D01*
X133005869Y-76275423D01*
X133036238Y-76288002D01*
X133128962Y-76306446D01*
X133190888Y-76318764D01*
X133190891Y-76318765D01*
X133190893Y-76318765D01*
X133348577Y-76318765D01*
X133358122Y-76316866D01*
X133427713Y-76323090D01*
X133482893Y-76365950D01*
X133506141Y-76431838D01*
X133490077Y-76499836D01*
X133470000Y-76526163D01*
X133335337Y-76660826D01*
X133274014Y-76694311D01*
X133271848Y-76694762D01*
X133116508Y-76725661D01*
X133116498Y-76725664D01*
X132970827Y-76786002D01*
X132970814Y-76786009D01*
X132839711Y-76873610D01*
X132839707Y-76873613D01*
X132728213Y-76985107D01*
X132728210Y-76985111D01*
X132640609Y-77116214D01*
X132640602Y-77116227D01*
X132580264Y-77261898D01*
X132580261Y-77261910D01*
X132549500Y-77416553D01*
X132549500Y-77574246D01*
X132580261Y-77728889D01*
X132580264Y-77728901D01*
X132640602Y-77874572D01*
X132640609Y-77874585D01*
X132728210Y-78005688D01*
X132728213Y-78005692D01*
X132839707Y-78117186D01*
X132839711Y-78117189D01*
X132970814Y-78204790D01*
X132970827Y-78204797D01*
X133116498Y-78265135D01*
X133116503Y-78265137D01*
X133263964Y-78294469D01*
X133271153Y-78295899D01*
X133271156Y-78295900D01*
X133271158Y-78295900D01*
X133428844Y-78295900D01*
X133428845Y-78295899D01*
X133583497Y-78265137D01*
X133729179Y-78204794D01*
X133860289Y-78117189D01*
X133971789Y-78005689D01*
X134059394Y-77874579D01*
X134119737Y-77728897D01*
X134150500Y-77574242D01*
X134150500Y-77574240D01*
X134150637Y-77573552D01*
X134183021Y-77511641D01*
X134184502Y-77510133D01*
X134222820Y-77471816D01*
X134284144Y-77438333D01*
X134310499Y-77435500D01*
X136935834Y-77435500D01*
X137002873Y-77455185D01*
X137004725Y-77456398D01*
X137136414Y-77544390D01*
X137136427Y-77544397D01*
X137259042Y-77595185D01*
X137282103Y-77604737D01*
X137436753Y-77635499D01*
X137436756Y-77635500D01*
X137436758Y-77635500D01*
X137594444Y-77635500D01*
X137594445Y-77635499D01*
X137749097Y-77604737D01*
X137894779Y-77544394D01*
X138025889Y-77456789D01*
X138137389Y-77345289D01*
X138224994Y-77214179D01*
X138285337Y-77068497D01*
X138316100Y-76913842D01*
X138316100Y-76756158D01*
X138316100Y-76756155D01*
X138316099Y-76756153D01*
X138285337Y-76601503D01*
X138268427Y-76560678D01*
X138224997Y-76455827D01*
X138224990Y-76455814D01*
X138137389Y-76324711D01*
X138137386Y-76324707D01*
X138025892Y-76213213D01*
X138025888Y-76213210D01*
X137894785Y-76125609D01*
X137894772Y-76125602D01*
X137749101Y-76065264D01*
X137749089Y-76065261D01*
X137594445Y-76034500D01*
X137594442Y-76034500D01*
X137436758Y-76034500D01*
X137436755Y-76034500D01*
X137282110Y-76065261D01*
X137282098Y-76065264D01*
X137136427Y-76125602D01*
X137136414Y-76125609D01*
X137004725Y-76213602D01*
X136938047Y-76234480D01*
X136935834Y-76234500D01*
X134097070Y-76234500D01*
X134097062Y-76234497D01*
X134097062Y-76234499D01*
X133984686Y-76234499D01*
X133917647Y-76214814D01*
X133871892Y-76162010D01*
X133861948Y-76092852D01*
X133888830Y-76031837D01*
X133891520Y-76028557D01*
X133891524Y-76028554D01*
X133979129Y-75897444D01*
X133979132Y-75897435D01*
X133982003Y-75892067D01*
X133983378Y-75892802D01*
X133983709Y-75892305D01*
X133985412Y-75885726D01*
X133992446Y-75879219D01*
X134004161Y-75861672D01*
X134247226Y-75618607D01*
X134308548Y-75585124D01*
X134310715Y-75584673D01*
X134368650Y-75573148D01*
X134466062Y-75553772D01*
X134599176Y-75498635D01*
X134611737Y-75493432D01*
X134611737Y-75493431D01*
X134611744Y-75493429D01*
X134742854Y-75405824D01*
X134840325Y-75308353D01*
X170693900Y-75308353D01*
X170693900Y-75466046D01*
X170724661Y-75620689D01*
X170724664Y-75620701D01*
X170785002Y-75766372D01*
X170785009Y-75766385D01*
X170872610Y-75897488D01*
X170872613Y-75897492D01*
X170984107Y-76008986D01*
X170984111Y-76008989D01*
X171115214Y-76096590D01*
X171115227Y-76096597D01*
X171260898Y-76156935D01*
X171260903Y-76156937D01*
X171354537Y-76175562D01*
X171415553Y-76187699D01*
X171415556Y-76187700D01*
X171415558Y-76187700D01*
X171573244Y-76187700D01*
X171573245Y-76187699D01*
X171727897Y-76156937D01*
X171873579Y-76096594D01*
X172004689Y-76008989D01*
X172116189Y-75897489D01*
X172203794Y-75766379D01*
X172264137Y-75620697D01*
X172294900Y-75466042D01*
X172294900Y-75308358D01*
X172294900Y-75308355D01*
X172294899Y-75308353D01*
X172276445Y-75215581D01*
X172264137Y-75153703D01*
X172258085Y-75139092D01*
X172203797Y-75008027D01*
X172203790Y-75008014D01*
X172116189Y-74876911D01*
X172116186Y-74876907D01*
X172004692Y-74765413D01*
X172004688Y-74765410D01*
X171873585Y-74677809D01*
X171873572Y-74677802D01*
X171727901Y-74617464D01*
X171727889Y-74617461D01*
X171573245Y-74586700D01*
X171573242Y-74586700D01*
X171415558Y-74586700D01*
X171415555Y-74586700D01*
X171260910Y-74617461D01*
X171260898Y-74617464D01*
X171115227Y-74677802D01*
X171115214Y-74677809D01*
X170984111Y-74765410D01*
X170984107Y-74765413D01*
X170872613Y-74876907D01*
X170872610Y-74876911D01*
X170785009Y-75008014D01*
X170785002Y-75008027D01*
X170724664Y-75153698D01*
X170724661Y-75153710D01*
X170693900Y-75308353D01*
X134840325Y-75308353D01*
X134854354Y-75294324D01*
X134865492Y-75277655D01*
X134895079Y-75233375D01*
X134906968Y-75215581D01*
X134941959Y-75163214D01*
X135002302Y-75017532D01*
X135033065Y-74862877D01*
X135033065Y-74705193D01*
X135033065Y-74705190D01*
X135033064Y-74705188D01*
X135002302Y-74550538D01*
X134970454Y-74473649D01*
X134941962Y-74404862D01*
X134941955Y-74404849D01*
X134854354Y-74273746D01*
X134854351Y-74273742D01*
X134742857Y-74162248D01*
X134742853Y-74162245D01*
X134611750Y-74074644D01*
X134611737Y-74074637D01*
X134466066Y-74014299D01*
X134466054Y-74014296D01*
X134311410Y-73983535D01*
X134311407Y-73983535D01*
X134153723Y-73983535D01*
X134153720Y-73983535D01*
X133999075Y-74014296D01*
X133999063Y-74014299D01*
X133853392Y-74074637D01*
X133853379Y-74074644D01*
X133722276Y-74162245D01*
X133722272Y-74162248D01*
X133610778Y-74273742D01*
X133610775Y-74273746D01*
X133523174Y-74404849D01*
X133523167Y-74404862D01*
X133462829Y-74550533D01*
X133462826Y-74550543D01*
X133449417Y-74617957D01*
X133417032Y-74679868D01*
X133356316Y-74714442D01*
X133327800Y-74717765D01*
X133190890Y-74717765D01*
X133036245Y-74748526D01*
X133036233Y-74748529D01*
X132890562Y-74808867D01*
X132890549Y-74808874D01*
X132759446Y-74896475D01*
X132759442Y-74896478D01*
X132647948Y-75007972D01*
X132647945Y-75007976D01*
X132560344Y-75139079D01*
X132560337Y-75139092D01*
X132499999Y-75284763D01*
X132499996Y-75284775D01*
X132469235Y-75439418D01*
X106905700Y-75439418D01*
X106905700Y-75308358D01*
X106905700Y-75308355D01*
X106905699Y-75308353D01*
X106887245Y-75215581D01*
X106874937Y-75153703D01*
X106868885Y-75139092D01*
X106814597Y-75008027D01*
X106814590Y-75008014D01*
X106726989Y-74876911D01*
X106726986Y-74876907D01*
X106615492Y-74765413D01*
X106615488Y-74765410D01*
X106484385Y-74677809D01*
X106484372Y-74677802D01*
X106338701Y-74617464D01*
X106338689Y-74617461D01*
X106184045Y-74586700D01*
X106184042Y-74586700D01*
X106026358Y-74586700D01*
X106026355Y-74586700D01*
X105871710Y-74617461D01*
X105871698Y-74617464D01*
X105726027Y-74677802D01*
X105726014Y-74677809D01*
X105594911Y-74765410D01*
X105594907Y-74765413D01*
X105483413Y-74876907D01*
X105483410Y-74876911D01*
X105395809Y-75008014D01*
X105395802Y-75008027D01*
X105335464Y-75153698D01*
X105335461Y-75153710D01*
X105304700Y-75308353D01*
X103598374Y-75308353D01*
X103602876Y-75300553D01*
X103630958Y-75280652D01*
X103631622Y-75280075D01*
X103631733Y-75280017D01*
X103789194Y-75199787D01*
X103949964Y-75082981D01*
X104090481Y-74942464D01*
X104207287Y-74781694D01*
X104297505Y-74604632D01*
X104358913Y-74415636D01*
X104390000Y-74219361D01*
X104390000Y-74020639D01*
X104358913Y-73824364D01*
X104318144Y-73698888D01*
X104297506Y-73635370D01*
X104297505Y-73635367D01*
X104251535Y-73545149D01*
X104207287Y-73458306D01*
X104090481Y-73297536D01*
X103949964Y-73157019D01*
X103789194Y-73040213D01*
X103669126Y-72979035D01*
X103618330Y-72931060D01*
X103601535Y-72863239D01*
X103624073Y-72797104D01*
X103678788Y-72753653D01*
X103725421Y-72744550D01*
X171061339Y-72744550D01*
X171093195Y-72750886D01*
G37*
%TD.AperFunction*%
%TA.AperFunction,Conductor*%
G36*
X102477033Y-101646479D02*
G01*
X102532966Y-101688350D01*
X102553474Y-101730566D01*
X102567921Y-101784481D01*
X102567922Y-101784483D01*
X102567923Y-101784485D01*
X102582366Y-101809500D01*
X102602573Y-101844500D01*
X102646979Y-101921415D01*
X102765849Y-102040285D01*
X102765855Y-102040290D01*
X114272339Y-113546774D01*
X114272349Y-113546785D01*
X114276679Y-113551115D01*
X114276680Y-113551116D01*
X114388484Y-113662920D01*
X114388486Y-113662921D01*
X114388490Y-113662924D01*
X114525409Y-113741973D01*
X114525416Y-113741977D01*
X114629197Y-113769785D01*
X114629196Y-113769785D01*
X114642311Y-113773298D01*
X114678142Y-113782900D01*
X114678143Y-113782900D01*
X128031032Y-113782900D01*
X128098071Y-113802585D01*
X128118713Y-113819219D01*
X128201868Y-113902374D01*
X128201878Y-113902385D01*
X128206208Y-113906715D01*
X128206209Y-113906716D01*
X128318013Y-114018520D01*
X128318015Y-114018521D01*
X128318019Y-114018524D01*
X128454938Y-114097573D01*
X128454945Y-114097577D01*
X128566748Y-114127534D01*
X128607671Y-114138500D01*
X128607672Y-114138500D01*
X171510472Y-114138500D01*
X171577511Y-114158185D01*
X171623266Y-114210989D01*
X171633210Y-114280147D01*
X171623267Y-114314006D01*
X171589328Y-114388322D01*
X171586507Y-114394500D01*
X171570255Y-114507546D01*
X171541231Y-114571102D01*
X171482453Y-114608877D01*
X171447517Y-114613900D01*
X88372226Y-114613900D01*
X88305187Y-114594215D01*
X88284545Y-114577581D01*
X86189144Y-112482180D01*
X86155659Y-112420857D01*
X86160643Y-112351165D01*
X86202515Y-112295232D01*
X86267979Y-112270815D01*
X86276825Y-112270499D01*
X88517871Y-112270499D01*
X88517872Y-112270499D01*
X88577483Y-112264091D01*
X88712331Y-112213796D01*
X88827546Y-112127546D01*
X88913796Y-112012331D01*
X88964091Y-111877483D01*
X88970500Y-111817873D01*
X88970499Y-110122128D01*
X88964091Y-110062517D01*
X88929387Y-109969472D01*
X88913797Y-109927671D01*
X88913793Y-109927664D01*
X88827547Y-109812455D01*
X88827544Y-109812452D01*
X88712335Y-109726206D01*
X88712328Y-109726202D01*
X88577482Y-109675908D01*
X88577483Y-109675908D01*
X88517883Y-109669501D01*
X88517881Y-109669500D01*
X88517873Y-109669500D01*
X88517865Y-109669500D01*
X87694500Y-109669500D01*
X87627461Y-109649815D01*
X87581706Y-109597011D01*
X87570500Y-109545500D01*
X87570500Y-107226660D01*
X87570501Y-107226647D01*
X87570501Y-107058544D01*
X87569086Y-107053263D01*
X87529577Y-106905816D01*
X87519030Y-106887548D01*
X87450524Y-106768890D01*
X87450518Y-106768882D01*
X86532047Y-105850411D01*
X86498562Y-105789088D01*
X86503546Y-105719396D01*
X86532047Y-105675049D01*
X87231542Y-104975553D01*
X87471208Y-104735885D01*
X87532531Y-104702401D01*
X87602222Y-104707385D01*
X87646570Y-104735886D01*
X88285139Y-105374455D01*
X88285149Y-105374466D01*
X88289479Y-105378796D01*
X88289480Y-105378797D01*
X88401284Y-105490601D01*
X88478046Y-105534919D01*
X88538215Y-105569658D01*
X88690943Y-105610582D01*
X88690946Y-105610582D01*
X88856653Y-105610582D01*
X88856669Y-105610581D01*
X98075014Y-105610581D01*
X98075030Y-105610582D01*
X98082626Y-105610582D01*
X98240737Y-105610582D01*
X98240740Y-105610582D01*
X98393468Y-105569658D01*
X98453637Y-105534919D01*
X98530399Y-105490601D01*
X98642203Y-105378797D01*
X98642203Y-105378795D01*
X98652407Y-105368592D01*
X98652411Y-105368587D01*
X102296213Y-101724785D01*
X102296216Y-101724784D01*
X102346022Y-101674977D01*
X102407341Y-101641495D01*
X102477033Y-101646479D01*
G37*
%TD.AperFunction*%
%TA.AperFunction,Conductor*%
G36*
X104575817Y-99282110D02*
G01*
X104597956Y-99299691D01*
X116725984Y-111427720D01*
X116725986Y-111427721D01*
X116725990Y-111427724D01*
X116815670Y-111479500D01*
X116862916Y-111506777D01*
X117015643Y-111547701D01*
X117015645Y-111547701D01*
X117181354Y-111547701D01*
X117181370Y-111547700D01*
X164774503Y-111547700D01*
X164841542Y-111567385D01*
X164862183Y-111584018D01*
X165493284Y-112215120D01*
X165493286Y-112215121D01*
X165493290Y-112215124D01*
X165589202Y-112270498D01*
X165630216Y-112294177D01*
X165782943Y-112335101D01*
X165782945Y-112335101D01*
X165948654Y-112335101D01*
X165948670Y-112335100D01*
X169280632Y-112335100D01*
X169347671Y-112354785D01*
X169368313Y-112371419D01*
X169441268Y-112444374D01*
X169441278Y-112444385D01*
X169445608Y-112448715D01*
X169445609Y-112448716D01*
X169557413Y-112560520D01*
X169557415Y-112560521D01*
X169557419Y-112560524D01*
X169645367Y-112611300D01*
X169694345Y-112639577D01*
X169806148Y-112669534D01*
X169847071Y-112680500D01*
X169847072Y-112680500D01*
X172920954Y-112680500D01*
X172987993Y-112700185D01*
X173033748Y-112752989D01*
X173043692Y-112822147D01*
X173014667Y-112885703D01*
X173008635Y-112892181D01*
X172999635Y-112901181D01*
X172938312Y-112934666D01*
X172911954Y-112937500D01*
X128986826Y-112937500D01*
X128919787Y-112917815D01*
X128899145Y-112901181D01*
X128818719Y-112820755D01*
X128818717Y-112820752D01*
X128699846Y-112701881D01*
X128699845Y-112701880D01*
X128591933Y-112639577D01*
X128591931Y-112639576D01*
X128562914Y-112622823D01*
X128562913Y-112622822D01*
X128562912Y-112622822D01*
X128507010Y-112607843D01*
X128410186Y-112581899D01*
X128252072Y-112581899D01*
X128244476Y-112581899D01*
X128244460Y-112581900D01*
X115057297Y-112581900D01*
X114990258Y-112562215D01*
X114969616Y-112545581D01*
X103764319Y-101340284D01*
X103730834Y-101278961D01*
X103728000Y-101252603D01*
X103728000Y-100706730D01*
X103747685Y-100639691D01*
X103785366Y-100602808D01*
X103785252Y-100602651D01*
X103786323Y-100601872D01*
X103787215Y-100601000D01*
X103789190Y-100599789D01*
X103789189Y-100599789D01*
X103789194Y-100599787D01*
X103949964Y-100482981D01*
X104090481Y-100342464D01*
X104207287Y-100181694D01*
X104297505Y-100004632D01*
X104358913Y-99815636D01*
X104390000Y-99619361D01*
X104390000Y-99420639D01*
X104387803Y-99406770D01*
X104396757Y-99337480D01*
X104441752Y-99284027D01*
X104508503Y-99263386D01*
X104575817Y-99282110D01*
G37*
%TD.AperFunction*%
%TA.AperFunction,Conductor*%
G36*
X78167376Y-99184657D02*
G01*
X78173854Y-99190689D01*
X86333181Y-107350016D01*
X86366666Y-107411339D01*
X86369500Y-107437697D01*
X86369500Y-109545500D01*
X86349815Y-109612539D01*
X86297011Y-109658294D01*
X86245500Y-109669500D01*
X85422129Y-109669500D01*
X85422123Y-109669501D01*
X85362516Y-109675908D01*
X85227671Y-109726202D01*
X85227664Y-109726206D01*
X85112455Y-109812452D01*
X85112452Y-109812455D01*
X85026206Y-109927664D01*
X85026202Y-109927671D01*
X84975908Y-110062517D01*
X84969501Y-110122116D01*
X84969501Y-110122123D01*
X84969500Y-110122135D01*
X84969500Y-110963174D01*
X84949815Y-111030213D01*
X84897011Y-111075968D01*
X84827853Y-111085912D01*
X84764297Y-111056887D01*
X84757819Y-111050855D01*
X77998492Y-104291528D01*
X77965007Y-104230205D01*
X77962173Y-104203847D01*
X77962173Y-99278370D01*
X77981858Y-99211331D01*
X78034662Y-99165576D01*
X78103820Y-99155632D01*
X78167376Y-99184657D01*
G37*
%TD.AperFunction*%
%TA.AperFunction,Conductor*%
G36*
X101270039Y-98860185D02*
G01*
X101315794Y-98912989D01*
X101327000Y-98964500D01*
X101327000Y-100944167D01*
X101307315Y-101011206D01*
X101290681Y-101031848D01*
X97949267Y-104373262D01*
X97887944Y-104406747D01*
X97861586Y-104409581D01*
X89070097Y-104409581D01*
X89003058Y-104389896D01*
X88982416Y-104373262D01*
X86633029Y-102023875D01*
X86599544Y-101962552D01*
X86604528Y-101892860D01*
X86646400Y-101836927D01*
X86711864Y-101812510D01*
X86764043Y-101820012D01*
X86812516Y-101838091D01*
X86812515Y-101838091D01*
X86819443Y-101838835D01*
X86872126Y-101844500D01*
X89967871Y-101844499D01*
X90027482Y-101838091D01*
X90162330Y-101787796D01*
X90277545Y-101701546D01*
X90363795Y-101586331D01*
X90414090Y-101451483D01*
X90420499Y-101391873D01*
X90420499Y-101391844D01*
X95420001Y-101391844D01*
X95426402Y-101451372D01*
X95426404Y-101451379D01*
X95476646Y-101586086D01*
X95476650Y-101586093D01*
X95562810Y-101701187D01*
X95562813Y-101701190D01*
X95677907Y-101787350D01*
X95677914Y-101787354D01*
X95812621Y-101837596D01*
X95812628Y-101837598D01*
X95872156Y-101843999D01*
X95872173Y-101844000D01*
X97170001Y-101844000D01*
X97670001Y-101844000D01*
X98967829Y-101844000D01*
X98967845Y-101843999D01*
X99027373Y-101837598D01*
X99027380Y-101837596D01*
X99162087Y-101787354D01*
X99162094Y-101787350D01*
X99277188Y-101701190D01*
X99277191Y-101701187D01*
X99363351Y-101586093D01*
X99363355Y-101586086D01*
X99413597Y-101451379D01*
X99413599Y-101451372D01*
X99420000Y-101391844D01*
X99420001Y-101391827D01*
X99420001Y-100794000D01*
X97670001Y-100794000D01*
X97670001Y-101844000D01*
X97170001Y-101844000D01*
X97170001Y-100794000D01*
X95420001Y-100794000D01*
X95420001Y-101391844D01*
X90420499Y-101391844D01*
X90420498Y-100530539D01*
X90420498Y-99696155D01*
X95420001Y-99696155D01*
X95420001Y-100294000D01*
X97170001Y-100294000D01*
X97670001Y-100294000D01*
X99420001Y-100294000D01*
X99420001Y-99696172D01*
X99420000Y-99696155D01*
X99413599Y-99636627D01*
X99413597Y-99636620D01*
X99363355Y-99501913D01*
X99363351Y-99501906D01*
X99277191Y-99386812D01*
X99277188Y-99386809D01*
X99162094Y-99300649D01*
X99162087Y-99300645D01*
X99027380Y-99250403D01*
X99027373Y-99250401D01*
X98967845Y-99244000D01*
X97670001Y-99244000D01*
X97670001Y-100294000D01*
X97170001Y-100294000D01*
X97170001Y-99244000D01*
X95872156Y-99244000D01*
X95812628Y-99250401D01*
X95812621Y-99250403D01*
X95677914Y-99300645D01*
X95677907Y-99300649D01*
X95562813Y-99386809D01*
X95562810Y-99386812D01*
X95476650Y-99501906D01*
X95476646Y-99501913D01*
X95426404Y-99636620D01*
X95426402Y-99636627D01*
X95420001Y-99696155D01*
X90420498Y-99696155D01*
X90420498Y-99696129D01*
X90420497Y-99696123D01*
X90419484Y-99686700D01*
X90414090Y-99636517D01*
X90407691Y-99619361D01*
X90363796Y-99501671D01*
X90363792Y-99501664D01*
X90277546Y-99386455D01*
X90277543Y-99386452D01*
X90162334Y-99300206D01*
X90162327Y-99300202D01*
X90027481Y-99249908D01*
X90027482Y-99249908D01*
X89967882Y-99243501D01*
X89967880Y-99243500D01*
X89967872Y-99243500D01*
X89967863Y-99243500D01*
X86872128Y-99243500D01*
X86872122Y-99243501D01*
X86812515Y-99249908D01*
X86732834Y-99279628D01*
X86663142Y-99284612D01*
X86601819Y-99251127D01*
X86571570Y-99201764D01*
X86517506Y-99035370D01*
X86517502Y-99035361D01*
X86510080Y-99020794D01*
X86497184Y-98952125D01*
X86523461Y-98887385D01*
X86580568Y-98847128D01*
X86620565Y-98840500D01*
X101203000Y-98840500D01*
X101270039Y-98860185D01*
G37*
%TD.AperFunction*%
%TA.AperFunction,Conductor*%
G36*
X84008057Y-81491190D02*
G01*
X84063990Y-81533062D01*
X84088407Y-81598526D01*
X84087197Y-81626765D01*
X84085000Y-81640639D01*
X84085000Y-81839360D01*
X84116086Y-82035636D01*
X84116631Y-82037903D01*
X84116586Y-82038790D01*
X84116849Y-82040448D01*
X84116500Y-82040503D01*
X84113138Y-82107685D01*
X84083737Y-82154526D01*
X83516786Y-82721478D01*
X83404981Y-82833282D01*
X83404979Y-82833285D01*
X83360687Y-82910003D01*
X83360686Y-82910004D01*
X83334947Y-82954585D01*
X83325923Y-82970215D01*
X83284999Y-83122943D01*
X83284999Y-83122945D01*
X83284999Y-83291046D01*
X83285000Y-83291059D01*
X83285000Y-83425999D01*
X83265315Y-83493038D01*
X83212511Y-83538793D01*
X83161000Y-83549999D01*
X82720000Y-83549999D01*
X82720000Y-85425999D01*
X82700315Y-85493038D01*
X82647511Y-85538793D01*
X82596000Y-85549999D01*
X82470000Y-85549999D01*
X82470000Y-85675999D01*
X82450315Y-85743038D01*
X82397511Y-85788793D01*
X82346000Y-85799999D01*
X81170000Y-85799999D01*
X81170000Y-87097843D01*
X81176401Y-87157371D01*
X81176403Y-87157378D01*
X81226645Y-87292085D01*
X81226649Y-87292092D01*
X81312809Y-87407186D01*
X81312812Y-87407189D01*
X81427906Y-87493349D01*
X81427913Y-87493353D01*
X81562620Y-87543595D01*
X81562627Y-87543597D01*
X81622155Y-87549998D01*
X81622172Y-87549999D01*
X82160317Y-87549999D01*
X82227356Y-87569684D01*
X82273111Y-87622488D01*
X82283055Y-87691646D01*
X82254030Y-87755202D01*
X82247998Y-87761680D01*
X80475681Y-89533996D01*
X80475679Y-89533998D01*
X80458909Y-89563046D01*
X80441752Y-89592764D01*
X80396623Y-89670929D01*
X80355699Y-89823657D01*
X80355699Y-89823659D01*
X80355699Y-89991760D01*
X80355700Y-89991773D01*
X80355700Y-96596529D01*
X80336015Y-96663568D01*
X80319381Y-96684210D01*
X79552476Y-97451114D01*
X79491153Y-97484599D01*
X79421461Y-97479615D01*
X79377114Y-97451114D01*
X79198922Y-97272922D01*
X79165437Y-97211599D01*
X79170421Y-97141907D01*
X79198922Y-97097560D01*
X80030480Y-96266002D01*
X79112780Y-95348303D01*
X79112776Y-95348299D01*
X79066141Y-95310719D01*
X78935362Y-95250993D01*
X78935357Y-95250992D01*
X78793044Y-95230532D01*
X78650730Y-95250992D01*
X78650725Y-95250993D01*
X78519946Y-95310719D01*
X78473311Y-95348299D01*
X78473307Y-95348303D01*
X78173854Y-95647757D01*
X78112531Y-95681242D01*
X78042839Y-95676258D01*
X77986906Y-95634386D01*
X77962489Y-95568922D01*
X77962173Y-95560076D01*
X77962173Y-87485923D01*
X77981858Y-87418884D01*
X77998487Y-87398247D01*
X80958320Y-84438414D01*
X81019642Y-84404930D01*
X81089334Y-84409914D01*
X81145267Y-84451786D01*
X81169684Y-84517250D01*
X81170000Y-84526096D01*
X81170000Y-85299999D01*
X82220000Y-85299999D01*
X82220000Y-83549999D01*
X82146097Y-83549999D01*
X82079058Y-83530314D01*
X82033303Y-83477510D01*
X82023359Y-83408352D01*
X82052384Y-83344796D01*
X82058416Y-83338318D01*
X82915816Y-82480918D01*
X83877044Y-81519689D01*
X83938365Y-81486206D01*
X84008057Y-81491190D01*
G37*
%TD.AperFunction*%
%TA.AperFunction,Conductor*%
G36*
X102661575Y-76852993D02*
G01*
X102727401Y-76967007D01*
X102820493Y-77060099D01*
X102934507Y-77125925D01*
X102998090Y-77142962D01*
X102428783Y-77712268D01*
X102428783Y-77712269D01*
X102466067Y-77739358D01*
X102622831Y-77819234D01*
X102673627Y-77867209D01*
X102690422Y-77935030D01*
X102667884Y-78001165D01*
X102622831Y-78040204D01*
X102465805Y-78120213D01*
X102305033Y-78237021D01*
X102164521Y-78377533D01*
X102164521Y-78377534D01*
X102164519Y-78377536D01*
X102144310Y-78405352D01*
X102052318Y-78531967D01*
X101996988Y-78574632D01*
X101927374Y-78580611D01*
X101865579Y-78548005D01*
X101831222Y-78487166D01*
X101828000Y-78459081D01*
X101828000Y-77400066D01*
X101847685Y-77333027D01*
X101900489Y-77287272D01*
X101969647Y-77277328D01*
X102033203Y-77306353D01*
X102052317Y-77327179D01*
X102075230Y-77358715D01*
X102075231Y-77358716D01*
X102644537Y-76789409D01*
X102661575Y-76852993D01*
G37*
%TD.AperFunction*%
%TA.AperFunction,Conductor*%
G36*
X86390681Y-77349628D02*
G01*
X86424166Y-77410951D01*
X86427000Y-77437309D01*
X86427000Y-78194693D01*
X86407315Y-78261732D01*
X86354511Y-78307487D01*
X86285353Y-78317431D01*
X86221797Y-78288406D01*
X86215319Y-78282374D01*
X86169966Y-78237021D01*
X86169964Y-78237019D01*
X86009194Y-78120213D01*
X85852167Y-78040203D01*
X85801372Y-77992229D01*
X85784577Y-77924408D01*
X85807114Y-77858273D01*
X85852169Y-77819234D01*
X86008922Y-77739364D01*
X86046216Y-77712268D01*
X85476910Y-77142962D01*
X85540493Y-77125925D01*
X85654507Y-77060099D01*
X85747599Y-76967007D01*
X85813425Y-76852993D01*
X85830462Y-76789409D01*
X86390681Y-77349628D01*
G37*
%TD.AperFunction*%
%TA.AperFunction,Conductor*%
G36*
X102033203Y-74767205D02*
G01*
X102052318Y-74788033D01*
X102116889Y-74876907D01*
X102164519Y-74942464D01*
X102305036Y-75082981D01*
X102465806Y-75199787D01*
X102622832Y-75279796D01*
X102673627Y-75327769D01*
X102690422Y-75395590D01*
X102667885Y-75461725D01*
X102622832Y-75500764D01*
X102466066Y-75580641D01*
X102428783Y-75607729D01*
X102428782Y-75607730D01*
X102998090Y-76177037D01*
X102934507Y-76194075D01*
X102820493Y-76259901D01*
X102727401Y-76352993D01*
X102661575Y-76467007D01*
X102644537Y-76530590D01*
X102075230Y-75961282D01*
X102075228Y-75961283D01*
X102052318Y-75992817D01*
X101996988Y-76035483D01*
X101927375Y-76041462D01*
X101865580Y-76008856D01*
X101831223Y-75948018D01*
X101828000Y-75919932D01*
X101828000Y-74860918D01*
X101847685Y-74793879D01*
X101900489Y-74748124D01*
X101969647Y-74738180D01*
X102033203Y-74767205D01*
G37*
%TD.AperFunction*%
%TA.AperFunction,Conductor*%
G36*
X86346334Y-75016195D02*
G01*
X86402267Y-75058067D01*
X86426684Y-75123531D01*
X86427000Y-75132377D01*
X86427000Y-75882690D01*
X86407315Y-75949729D01*
X86390681Y-75970371D01*
X85830462Y-76530589D01*
X85813425Y-76467007D01*
X85747599Y-76352993D01*
X85654507Y-76259901D01*
X85540493Y-76194075D01*
X85476909Y-76177037D01*
X86046216Y-75607731D01*
X86046215Y-75607730D01*
X86008932Y-75580641D01*
X85855967Y-75502701D01*
X85805171Y-75454726D01*
X85788376Y-75386905D01*
X85810914Y-75320770D01*
X85864810Y-75277655D01*
X85901888Y-75262297D01*
X85989283Y-75215584D01*
X85989285Y-75215582D01*
X85989288Y-75215581D01*
X86038801Y-75182497D01*
X86114088Y-75132192D01*
X86190689Y-75069326D01*
X86215319Y-75044696D01*
X86276642Y-75011211D01*
X86346334Y-75016195D01*
G37*
%TD.AperFunction*%
%TD*%
M02*
